<svg width="932" height="432" viewBox="0 0 932 432" fill="none" xmlns="http://www.w3.org/2000/svg">
<g clip-path="url(#clip0_7_2)">
<rect width="932" height="432" rx="26" fill="url(#paint0_linear_7_2)"/>
<path d="M608.836 67.548C615.734 58.4843 629.211 58.0259 636.709 66.5999L943 416.832H889.535H670.972H343L608.836 67.548Z" fill="#0065E9"/>
<path d="M402.407 202.823C406.204 197.055 414.566 196.782 418.733 202.289L731 615H677.535H458.972H131L402.407 202.823Z" fill="#2581FF"/>
<path d="M851.53 60.6854C860.603 48.3371 878.986 48.1462 888.314 60.3034L1241 520H932.183H525V505.108L851.53 60.6854Z" fill="#68AAFF"/>
<path d="M235.002 212.287C241.941 200.034 258.162 196.838 269.232 205.542L558.5 433L329.5 433L110 433L235.002 212.287Z" fill="#145BB7"/>
<path d="M154.033 175.367C159.499 159.938 178.879 154.996 191.067 165.924L431.5 381.5L431.5 429.5L64.0001 429.5L154.033 175.367Z" fill="#145BB7"/>
<path d="M155.335 170.643C164.213 156.216 185.112 156.011 194.271 170.261L362.5 432H206.15H0H-5.5L155.335 170.643Z" fill="#80B0FF"/>
<path d="M234.924 207.423C243.738 195.841 260.958 195.255 270.539 206.211L468 432H432H284.835H64L234.924 207.423Z" fill="#A9CDFF"/>
<path d="M538.352 177.498C546.017 167.427 560.991 166.918 569.322 176.444L874 524.832H820.535H601.972H274L538.352 177.498Z" fill="#C6DEFF"/>
<path d="M307 158C307 176.225 292.225 191 274 191C255.775 191 241 176.225 241 158C241 139.775 255.775 125 274 125C292.225 125 307 139.775 307 158Z" fill="#145BB7"/>
<path d="M302 156C302 174.225 287.225 189 269 189C250.775 189 236 174.225 236 156C236 137.775 250.775 123 269 123C287.225 123 302 137.775 302 156Z" fill="white"/>
</g>
<defs>
<linearGradient id="paint0_linear_7_2" x1="0" y1="0" x2="932" y2="432" gradientUnits="userSpaceOnUse">
<stop stop-color="#0B75FF"/>
<stop offset="1" stop-color="#006FFF"/>
</linearGradient>
<clipPath id="clip0_7_2">
<rect width="932" height="432" rx="26" fill="white"/>
</clipPath>
</defs>
</svg>
