<svg width="932" height="432" viewBox="0 0 932 432" fill="none" xmlns="http://www.w3.org/2000/svg">
<g clip-path="url(#clip0_39_10)">
<rect width="932" height="432" fill="#0B75FF"/>
<path d="M466.279 34.922C472.584 21.8044 489.334 17.7672 500.923 26.5718L866.521 304.335L814.148 315.089L600.052 359.049L278.782 425.015L466.279 34.922Z" fill="#0A6AE8"/>
<path d="M467.126 30.4225C475.941 18.8411 493.161 18.2553 502.742 29.211L805 374.832H751.535H532.972H205L467.126 30.4225Z" fill="#579DF9"/>
<path d="M840.53 78.6854C849.603 66.3371 867.986 66.1462 877.314 78.3034L1230 538H921.183H514V523.108L840.53 78.6854Z" fill="#76B2FF"/>
<path d="M642.512 117.076C649.481 104.299 666.416 101.125 677.538 110.512L1028.42 406.644L975.568 414.7L759.501 447.632L435.273 497.05L642.512 117.076Z" fill="#145BB7"/>
<path d="M642.126 113.422C650.941 101.841 668.161 101.255 677.742 112.211L980 457.832H926.535H707.972H380L642.126 113.422Z" fill="#80B6FF"/>
<path d="M307 158C307 176.225 292.225 191 274 191C255.775 191 241 176.225 241 158C241 139.775 255.775 125 274 125C292.225 125 307 139.775 307 158Z" fill="#145BB7"/>
<path d="M302 156C302 174.225 287.225 189 269 189C250.775 189 236 174.225 236 156C236 137.775 250.775 123 269 123C287.225 123 302 137.775 302 156Z" fill="white"/>
<path d="M234.922 212.455C241.886 200.144 258.208 196.977 269.271 205.79L557 435L503 435L329.768 424.44L115 424.44L234.922 212.455Z" fill="#145BB7"/>
<path d="M154.033 175.367C159.499 159.938 178.879 154.996 191.067 165.924L431.5 381.5L431.5 429.5L64.0001 429.5L154.033 175.367Z" fill="#145BB7"/>
<path d="M155.334 170.638C164.213 156.212 185.111 156.009 194.269 170.258L362.5 432H206.15H0V423L155.334 170.638Z" fill="#93B4E9"/>
<path d="M234.924 207.423C243.738 195.841 260.958 195.255 270.539 206.211L468 432H432H284.835H64L234.924 207.423Z" fill="#A9CDFF"/>
</g>
<defs>
<clipPath id="clip0_39_10">
<rect width="932" height="432" fill="white"/>
</clipPath>
</defs>
</svg>
