<svg width="932" height="432" viewBox="0 0 932 432" fill="none" xmlns="http://www.w3.org/2000/svg">
<g clip-path="url(#clip0_521_43)">
<rect width="932" height="432" fill="#A0CAFF"/>
<circle cx="104" cy="432" r="199.75" stroke="black" stroke-width="0.5"/>
<circle cx="369" cy="126" r="50" fill="#579DF9"/>
<circle cx="278.882" cy="214.882" r="106.882" fill="#0B75FF"/>
<circle cx="226.627" cy="293.627" r="35.6273" fill="#145BB7"/>
<g filter="url(#filter0_b_521_43)">
<path fill-rule="evenodd" clip-rule="evenodd" d="M243.725 235.761C245.062 229.008 245.764 222.027 245.764 214.882C245.764 155.853 197.911 108 138.882 108C79.8526 108 32 155.853 32 214.882C32 273.911 79.8526 321.764 138.882 321.764C144.796 321.764 150.597 321.283 156.25 320.36L100.405 554.668L164.173 569.867L242.671 240.513C242.795 240.008 242.915 239.502 243.032 238.994L243.799 235.778L243.725 235.761Z" fill="white" fill-opacity="0.35"/>
</g>
<path d="M85.4312 45.7557L68.8868 64.0416L68.7649 64.1763L68.8553 64.3338L81.1338 85.7192L58.6303 75.6351L58.4645 75.5609L58.3427 75.6956L41.7982 93.9815L44.4348 69.4633L44.4542 69.2827L44.2884 69.2084L21.785 59.1244L45.9179 54.0553L46.0957 54.018L46.1151 53.8374L48.7516 29.3192L61.0301 50.7045L61.1205 50.8621L61.2983 50.8247L85.4312 45.7557Z" stroke="black" stroke-width="0.5"/>
<path d="M412.465 644.472C420.3 615.608 401.375 482.968 439.16 423.771C420.75 395.389 397.934 373.144 401.441 327.963L388.039 289.061C413.132 306.025 442.087 316.411 472.243 319.262C492.102 320.197 511.432 325.963 528.558 336.061C551.954 322.29 578.489 314.745 605.63 314.145C632.771 313.544 659.614 319.909 683.596 332.631C699.771 320.379 760.557 315.974 766.649 312.84C784.096 308.488 800.615 301.026 815.414 290.814C809.797 303.307 805.855 316.487 803.689 330.012C802.292 361.432 791.407 391.692 772.468 416.802C811.228 483.122 791.93 619.564 799.733 643.87" stroke="black" stroke-width="0.5" stroke-linecap="round" stroke-linejoin="round"/>
<path d="M395.578 298.649C420.235 339.874 485.502 349.134 503.956 372.103C522.948 354.665 546.004 342.263 571.021 336.028M503.912 372.103C478.696 391.6 459.722 418.035 449.318 448.164M808.423 300.556C773.137 345.737 731.495 344.06 707.201 367.292C701.031 358.81 666.238 342.789 643.565 337.113M707.201 367.281C737.292 393.471 748.875 425.196 758.957 450.038M488.341 642.598C483.017 594.836 485.923 546.514 496.932 499.734C499.84 525.031 505.922 549.86 515.035 573.637C514.893 546.11 516.646 523.963 514.213 488.644C525.676 532.817 551.252 554.92 564.293 576.914C554.909 529.453 553.108 480.804 558.956 432.779C566.046 518.857 588.829 577.966 633.265 586.743C635.237 549.43 653.954 526.692 657.921 450.027C663.433 498.759 668.66 547.491 659.148 596.222C677.977 563.649 691.56 528.314 699.398 491.516C704.176 522.44 709.699 552.641 723.638 574.415C727.999 589.582 724.153 620.714 722.4 643.869M575.043 385.165C565.068 399.087 559.478 415.67 558.989 432.79M637.484 387.499C651.258 402.205 655.674 425.02 657.91 450.038M687.147 433.656C696.21 451.546 700.434 471.498 699.398 491.526" stroke="black" stroke-linecap="round" stroke-linejoin="round"/>
<path d="M519.671 449.282C515.116 466.248 513.413 483.853 514.63 501.378M760.042 643.047C764.849 596.522 761.999 549.524 751.604 503.92M714.85 485.916C729.194 515.416 727.704 554.592 725.687 584.124M459.805 516.764C449.283 557.603 447.062 600.139 453.274 641.853M605.595 521.278C607.063 543.393 615.318 564.517 629.232 581.768M430.831 616.758L431.248 641.776M779.756 619.783L780.348 643.015M521.347 405.668C501.223 421.714 485.731 442.826 476.462 466.837M693.755 399.137C710.825 414.777 724.194 434.027 732.887 455.484M608.652 406.084C604.415 421.317 603.436 437.273 605.781 452.909" stroke="black" stroke-width="0.2" stroke-linecap="round" stroke-linejoin="round"/>
<rect x="586.222" y="2.65738" width="364.5" height="144.5" transform="rotate(-11.9812 586.222 2.65738)" stroke="black" stroke-width="0.5"/>
<path d="M808.123 149.866L845.732 143.74L832.233 179.374L808.123 149.866Z" fill="#76B2FF" stroke="black" stroke-width="0.5"/>
<path d="M421.429 214.088H429.781C430.933 214.088 431.978 214.269 432.917 214.632C433.856 214.995 434.656 215.496 435.317 216.136C436 216.776 436.522 217.544 436.885 218.44C437.248 219.315 437.429 220.275 437.429 221.32C437.429 222.088 437.301 222.813 437.045 223.496C436.789 224.157 436.437 224.765 435.989 225.32C435.541 225.853 435.018 226.333 434.421 226.76C433.824 227.165 433.194 227.485 432.533 227.72L432.501 227.944L438.645 236.744V237H433.685L427.765 228.392H425.749V237H421.429V214.088ZM429.749 224.424C430.73 224.424 431.53 224.125 432.149 223.528C432.789 222.931 433.109 222.173 433.109 221.256C433.109 220.851 433.034 220.456 432.885 220.072C432.757 219.688 432.554 219.347 432.277 219.048C432 218.749 431.648 218.515 431.221 218.344C430.816 218.152 430.346 218.056 429.813 218.056H425.749V224.424H429.749ZM495.093 218.184V223.496H504.277V227.592H495.093V232.904H505.301V237H490.773V214.088H505.301V218.184H495.093ZM558.773 214.088H563.093V232.904H572.789V237H558.773V214.088ZM629.687 218.184V223.496H638.871V227.592H629.687V232.904H639.895V237H625.367V214.088H639.895V218.184H629.687ZM700.055 214.088H704.983L713.591 237H708.823L706.935 231.528H698.103L696.215 237H691.447L700.055 214.088ZM705.527 227.56L703.479 221.832L702.647 219.048H702.391L701.559 221.832L699.51 227.56H705.527ZM772.781 237.512C771.799 237.512 770.861 237.373 769.965 237.096C769.069 236.819 768.247 236.403 767.501 235.848C766.754 235.293 766.103 234.621 765.549 233.832C764.994 233.021 764.557 232.083 764.237 231.016L768.301 229.416C768.599 230.568 769.122 231.528 769.869 232.296C770.615 233.043 771.597 233.416 772.813 233.416C773.261 233.416 773.687 233.363 774.093 233.256C774.519 233.128 774.893 232.957 775.213 232.744C775.554 232.509 775.821 232.221 776.013 231.88C776.205 231.539 776.301 231.144 776.301 230.696C776.301 230.269 776.226 229.885 776.077 229.544C775.927 229.203 775.671 228.883 775.309 228.584C774.967 228.285 774.509 227.997 773.933 227.72C773.378 227.443 772.685 227.155 771.853 226.856L770.445 226.344C769.826 226.131 769.197 225.843 768.557 225.48C767.938 225.117 767.373 224.68 766.861 224.168C766.349 223.656 765.922 223.059 765.581 222.376C765.261 221.672 765.101 220.883 765.101 220.008C765.101 219.112 765.271 218.28 765.613 217.512C765.975 216.723 766.477 216.04 767.117 215.464C767.778 214.867 768.557 214.408 769.453 214.088C770.37 213.747 771.383 213.576 772.493 213.576C773.645 213.576 774.637 213.736 775.469 214.056C776.322 214.355 777.037 214.749 777.613 215.24C778.21 215.709 778.69 216.232 779.053 216.808C779.415 217.384 779.682 217.928 779.853 218.44L776.045 220.04C775.831 219.4 775.437 218.824 774.861 218.312C774.306 217.8 773.538 217.544 772.557 217.544C771.618 217.544 770.839 217.768 770.221 218.216C769.602 218.643 769.293 219.208 769.293 219.912C769.293 220.595 769.591 221.181 770.189 221.672C770.786 222.141 771.735 222.6 773.037 223.048L774.477 223.528C775.394 223.848 776.226 224.221 776.973 224.648C777.741 225.053 778.391 225.544 778.925 226.12C779.479 226.696 779.895 227.357 780.173 228.104C780.471 228.829 780.621 229.672 780.621 230.632C780.621 231.827 780.375 232.861 779.885 233.736C779.415 234.589 778.807 235.293 778.061 235.848C777.314 236.403 776.471 236.819 775.533 237.096C774.594 237.373 773.677 237.512 772.781 237.512ZM837.999 218.184V223.496H847.183V227.592H837.999V232.904H848.207V237H833.679V214.088H848.207V218.184H837.999Z" fill="black"/>
<circle cx="602" cy="139" r="49.75" stroke="black" stroke-width="0.5"/>
</g>
<defs>
<filter id="filter0_b_521_43" x="-1" y="75" width="279.764" height="527.867" filterUnits="userSpaceOnUse" color-interpolation-filters="sRGB">
<feFlood flood-opacity="0" result="BackgroundImageFix"/>
<feGaussianBlur in="BackgroundImageFix" stdDeviation="16.5"/>
<feComposite in2="SourceAlpha" operator="in" result="effect1_backgroundBlur_521_43"/>
<feBlend mode="normal" in="SourceGraphic" in2="effect1_backgroundBlur_521_43" result="shape"/>
</filter>
<clipPath id="clip0_521_43">
<rect width="932" height="432" fill="white"/>
</clipPath>
</defs>
</svg>
