<svg width="500" height="250" viewBox="0 0 500 250" fill="none" xmlns="http://www.w3.org/2000/svg">
<path d="M0 80.12C0 68.4557 7.44517 59 16.6292 59H353.371C362.555 59 370 68.4557 370 80.12V169.88C370 181.545 362.555 191 353.371 191H16.6292C7.44517 191 0 181.545 0 169.88V80.12Z" fill="#FFDD00"/>
<path d="M67.3833 102.173L67.3324 102.142L67.2139 102.104C67.2618 102.146 67.321 102.171 67.3833 102.173Z" fill="#0D0C22"/>
<path d="M68.0968 107.443L68.0309 107.462L68.0968 107.443Z" fill="#0D0C22"/>
<path d="M67.4013 102.162C67.3923 102.161 67.3843 102.159 67.3763 102.156C67.3753 102.162 67.3753 102.167 67.3763 102.173C67.3853 102.172 67.3933 102.168 67.4013 102.162Z" fill="#0D0C22"/>
<path d="M67.3753 102.174H67.3883V102.166L67.3753 102.174Z" fill="#0D0C22"/>
<path d="M68.0417 107.443L68.1316 107.39L68.165 107.37L68.1952 107.336C68.1388 107.362 68.0863 107.398 68.0417 107.443Z" fill="#0D0C22"/>
<path d="M67.5278 102.297L67.4396 102.209L67.38 102.175C67.4126 102.234 67.465 102.278 67.5278 102.297Z" fill="#0D0C22"/>
<path d="M47.4581 153.454C47.3911 153.485 47.3325 153.532 47.2876 153.592L47.3404 153.557C47.3763 153.522 47.4271 153.481 47.4581 153.454Z" fill="#0D0C22"/>
<path d="M59.1038 151.059C59.1038 150.98 59.0669 150.994 59.0759 151.276C59.0759 151.253 59.0849 151.23 59.0888 151.208C59.0938 151.158 59.0978 151.109 59.1038 151.059Z" fill="#0D0C22"/>
<path d="M57.9071 153.454C57.8403 153.485 57.7817 153.532 57.7368 153.592L57.7896 153.557C57.8254 153.522 57.8763 153.481 57.9071 153.454Z" fill="#0D0C22"/>
<path d="M39.2476 154.029C39.1969 153.983 39.1347 153.952 39.0682 153.941C39.122 153.969 39.1758 153.996 39.2118 154.016L39.2476 154.029Z" fill="#0D0C22"/>
<path d="M37.3983 152.187C37.3904 152.105 37.3663 152.026 37.3275 151.954C37.355 152.028 37.3779 152.105 37.3963 152.183L37.3983 152.187Z" fill="#0D0C22"/>
<path d="M49.7977 119.097C47.2624 120.232 44.3853 121.519 40.6564 121.519C39.0965 121.516 37.5442 121.292 36.0416 120.853L38.6206 148.543C38.7119 149.7 39.2161 150.779 40.033 151.566C40.8499 152.353 41.9198 152.789 43.0303 152.788C43.0303 152.788 46.687 152.987 47.9072 152.987C49.2203 152.987 53.1582 152.788 53.1582 152.788C54.2684 152.788 55.3381 152.352 56.1549 151.566C56.9716 150.779 57.4756 149.7 57.5669 148.543L60.3291 117.945C59.0947 117.504 57.8489 117.211 56.4445 117.211C54.0156 117.21 52.0586 118.085 49.7977 119.097Z" fill="white"/>
<path d="M28.0632 107.284L28.1142 107.334L28.1475 107.355C28.1219 107.328 28.0936 107.304 28.0632 107.284Z" fill="#0D0C22"/>
<path d="M71.539 104.728L71.1512 102.68C70.8023 100.842 70.0116 99.1049 68.2074 98.4406C67.6293 98.2281 66.9726 98.1367 66.5293 97.6968C66.086 97.2569 65.9548 96.5738 65.8525 95.9402C65.6629 94.7774 65.4841 93.6136 65.2895 92.4528C65.1216 91.455 64.9882 90.3338 64.5507 89.4184C63.9812 88.1889 62.7991 87.4701 61.6234 86.9944C61.0208 86.7593 60.406 86.5603 59.782 86.3986C56.8451 85.5883 53.7572 85.2904 50.7357 85.1206C47.1091 84.9114 43.4728 84.9744 39.8548 85.3094C37.1619 85.5655 34.3257 85.8753 31.7666 86.8494C30.8313 87.206 29.8676 87.6339 29.1563 88.3895C28.2837 89.318 27.9989 90.7539 28.636 91.9117C29.0889 92.7339 29.8562 93.3148 30.6699 93.6991C31.7299 94.1942 32.8368 94.571 33.9724 94.8231C37.1344 95.554 40.4094 95.841 43.6398 95.9631C47.2201 96.1142 50.8063 95.9917 54.3696 95.5967C55.2508 95.4954 56.1304 95.3739 57.0084 95.2322C58.0424 95.0664 58.7062 93.6524 58.4014 92.6674C58.0367 91.4897 57.0569 91.0329 55.9487 91.2106C55.7854 91.2375 55.623 91.2623 55.4597 91.2871L55.342 91.305C54.9666 91.3546 54.5912 91.401 54.2158 91.444C53.4403 91.5314 52.663 91.6029 51.8837 91.6584C50.1385 91.7855 48.3884 91.8442 46.6394 91.8471C44.9207 91.8471 43.2011 91.7965 41.4862 91.6783C40.7037 91.6247 39.9232 91.5565 39.1446 91.4738C38.7904 91.4351 38.4372 91.3943 38.0839 91.3486L37.7478 91.3039L37.6747 91.2931L37.3262 91.2404C36.614 91.1282 35.9019 90.9991 35.1973 90.8432C35.1263 90.8267 35.0626 90.7854 35.0171 90.726C34.9715 90.6666 34.9466 90.5926 34.9466 90.5165C34.9466 90.4404 34.9715 90.3665 35.0171 90.3071C35.0626 90.2477 35.1263 90.2064 35.1973 90.1898H35.2106C35.8212 90.0538 36.4365 89.9376 37.0537 89.8363C37.2595 89.8026 37.4658 89.7695 37.6728 89.737H37.6785C38.065 89.7102 38.4533 89.6378 38.8379 89.5901C42.1838 89.2261 45.5496 89.1021 48.9116 89.2187C50.5439 89.2684 52.1752 89.3686 53.7999 89.5414C54.1493 89.5792 54.4969 89.6189 54.8444 89.6635C54.9773 89.6804 55.1112 89.7003 55.2451 89.7172L55.5147 89.7579C56.301 89.8803 57.0831 90.029 57.8611 90.2038C59.0139 90.4658 60.4939 90.5513 61.0071 91.872C61.17 92.291 61.2443 92.7567 61.3344 93.1967L61.4497 93.7576C61.4526 93.7677 61.4548 93.7781 61.4562 93.7884C61.728 95.1124 61.9997 96.4364 62.2715 97.7604C62.2916 97.8582 62.2924 97.9593 62.2729 98.0573C62.2542 98.1552 62.216 98.2481 62.1612 98.33C62.1064 98.4119 62.0357 98.4811 61.9543 98.5333C61.8728 98.5855 61.7813 98.6194 61.6869 98.6333H61.6789L61.5132 98.657L61.3488 98.6799C60.8284 98.7507 60.3072 98.8169 59.7858 98.8785C58.7584 99.0009 57.7295 99.1069 56.6988 99.1962C54.651 99.3743 52.5991 99.4912 50.5429 99.5468C49.4953 99.5759 48.4479 99.5895 47.4009 99.5875C43.2334 99.5841 39.0694 99.3308 34.9296 98.8288C34.4814 98.7732 34.0332 98.7136 33.585 98.6531C33.9325 98.6998 33.3325 98.6173 33.2109 98.5995C32.9261 98.5578 32.6412 98.5144 32.3563 98.4693C31.4001 98.3194 30.4496 98.1347 29.4953 97.9729C28.3416 97.7743 27.2383 97.8737 26.1947 98.4693C25.3381 98.9596 24.6448 99.7113 24.2073 100.624C23.7572 101.597 23.6234 102.657 23.422 103.702C23.2207 104.748 22.9074 105.873 23.0261 106.947C23.2815 109.263 24.8302 111.146 27.0578 111.567C29.1535 111.964 31.2605 112.286 33.3733 112.56C41.6726 113.623 50.0571 113.75 58.3824 112.939C59.0604 112.873 59.7374 112.801 60.4132 112.723C60.6244 112.699 60.8385 112.724 61.0389 112.797C61.2392 112.87 61.4216 112.99 61.5723 113.146C61.7229 113.303 61.839 113.492 61.9103 113.702C61.9817 113.911 62.0076 114.134 61.986 114.355L61.7748 116.498C61.3502 120.828 60.9257 125.158 60.5011 129.487C60.0578 134.034 59.6117 138.58 59.1629 143.126C59.0363 144.407 58.9097 145.686 58.7831 146.966C58.6615 148.226 58.6445 149.526 58.4156 150.771C58.0548 152.729 56.7871 153.932 54.9374 154.372C53.2428 154.775 51.5117 154.987 49.7738 155.003C47.8472 155.013 45.9215 154.925 43.9949 154.936C41.9382 154.947 39.419 154.749 37.8314 153.148C36.4365 151.742 36.2438 149.54 36.0538 147.637C35.8006 145.117 35.5496 142.597 35.3009 140.077L33.905 126.068L33.002 117.003C32.9868 116.853 32.9716 116.704 32.9573 116.554C32.8492 115.472 32.117 114.414 30.9634 114.468C29.9758 114.514 28.8535 115.392 28.9693 116.554L29.6387 123.275L31.0231 137.176C31.4175 141.126 31.811 145.074 32.2034 149.024C32.2794 149.781 32.3506 150.54 32.4304 151.296C32.8643 155.432 35.8839 157.66 39.6232 158.287C41.8072 158.654 44.0443 158.73 46.2605 158.767C49.1015 158.815 51.9711 158.93 54.7656 158.392C58.9065 157.597 62.0134 154.706 62.4567 150.22C62.5836 148.925 62.7104 147.629 62.8366 146.335C63.2575 142.05 63.6778 137.765 64.098 133.481L65.4704 119.479L66.1004 113.062C66.1314 112.744 66.2604 112.445 66.4666 112.209C66.6735 111.974 66.9474 111.813 67.2472 111.752C68.4315 111.512 69.5632 111.099 70.4058 110.157C71.7466 108.656 72.0133 106.7 71.539 104.728ZM26.9971 106.113C27.0151 106.103 26.9819 106.265 26.9677 106.341C26.9648 106.227 26.9705 106.126 26.9971 106.113ZM27.112 107.042C27.1215 107.035 27.15 107.075 27.1794 107.123C27.1347 107.079 27.1063 107.046 27.111 107.042H27.112ZM27.225 107.197C27.2658 107.27 27.2876 107.316 27.225 107.197V107.197ZM27.4519 107.391H27.4576C27.4576 107.397 27.468 107.404 27.4719 107.412C27.4655 107.404 27.4585 107.396 27.451 107.391H27.4519ZM67.1925 107.102C66.7672 107.525 66.1257 107.722 65.4928 107.82C58.39 108.922 51.1839 109.48 44.0034 109.235C38.8645 109.051 33.7797 108.454 28.692 107.702C28.1935 107.629 27.6532 107.533 27.3104 107.149C26.6647 106.424 26.9819 104.964 27.15 104.089C27.3038 103.286 27.5982 102.217 28.5106 102.103C29.935 101.928 31.5891 102.557 32.9982 102.78C34.6947 103.051 36.3976 103.267 38.1068 103.43C45.4011 104.125 52.818 104.017 60.0802 103C61.4036 102.814 62.7227 102.598 64.0367 102.352C65.2081 102.132 66.5055 101.72 67.2134 102.988C67.6985 103.852 67.7626 105.008 67.6877 105.984C67.6646 106.41 67.4873 106.81 67.191 107.102H67.1925Z" fill="#0D0C22"/>
<path fill-rule="evenodd" clip-rule="evenodd" d="M110.994 139.994C110.58 140.821 110.01 141.542 109.284 142.154C108.558 142.766 107.712 143.265 106.744 143.648C105.776 144.033 104.803 144.291 103.824 144.422C102.844 144.554 101.893 144.543 100.973 144.386C100.051 144.231 99.2667 143.913 98.6223 143.432L99.3489 135.546C100.016 135.306 100.857 135.061 101.871 134.808C102.884 134.556 103.927 134.376 104.999 134.268C106.07 134.16 107.083 134.172 108.04 134.304C108.996 134.436 109.75 134.754 110.303 135.259C110.603 135.546 110.857 135.858 111.064 136.194C111.271 136.531 111.397 136.879 111.444 137.239C111.559 138.247 111.41 139.166 110.994 139.994ZM100.454 123.195C100.938 122.883 101.52 122.607 102.199 122.366C102.879 122.127 103.576 121.958 104.29 121.862C105.004 121.767 105.701 121.754 106.381 121.826C107.06 121.898 107.66 122.097 108.178 122.42C108.696 122.745 109.082 123.213 109.336 123.824C109.589 124.437 109.658 125.211 109.543 126.148C109.451 126.892 109.168 127.522 108.696 128.038C108.224 128.554 107.648 128.986 106.969 129.334C106.289 129.683 105.569 129.959 104.809 130.163C104.048 130.367 103.316 130.517 102.614 130.613C101.911 130.709 101.301 130.77 100.783 130.793C100.264 130.817 99.9241 130.829 99.7626 130.829L100.454 123.195ZM114.727 134.898C114.358 134.059 113.863 133.32 113.241 132.683C112.619 132.048 111.881 131.585 111.029 131.297C111.397 130.985 111.761 130.493 112.118 129.821C112.475 129.149 112.78 128.416 113.034 127.624C113.287 126.832 113.46 126.034 113.552 125.229C113.643 124.426 113.609 123.735 113.449 123.158C113.056 121.719 112.44 120.59 111.599 119.774C110.758 118.958 109.779 118.394 108.662 118.081C107.544 117.77 106.312 117.703 104.964 117.884C103.616 118.064 102.239 118.418 100.834 118.946C100.834 118.826 100.846 118.7 100.869 118.568C100.891 118.436 100.903 118.298 100.903 118.154C100.903 117.793 100.731 117.482 100.385 117.217C100.039 116.954 99.6422 116.798 99.1932 116.749C98.7434 116.701 98.3059 116.803 97.8791 117.055C97.4531 117.308 97.159 117.77 96.9983 118.441C96.8138 120.602 96.6292 122.847 96.4454 125.175C96.2609 127.504 96.0648 129.857 95.858 132.234C95.6504 134.61 95.4428 136.969 95.2359 139.309C95.0283 141.65 94.8207 143.901 94.6138 146.061C94.683 146.709 94.8553 147.213 95.1321 147.573C95.4082 147.934 95.7311 148.15 96.0994 148.222C96.4678 148.294 96.8541 148.227 97.2571 148.024C97.66 147.82 98.0118 147.465 98.3116 146.961C99.2328 147.49 100.27 147.831 101.422 147.988C102.574 148.143 103.742 148.143 104.93 147.988C106.116 147.831 107.285 147.538 108.437 147.105C109.589 146.674 110.638 146.133 111.582 145.485C112.527 144.837 113.321 144.098 113.967 143.271C114.611 142.442 115.038 141.548 115.245 140.588C115.453 139.603 115.51 138.619 115.418 137.635C115.326 136.651 115.095 135.739 114.727 134.898Z" fill="#0D0C23"/>
<path fill-rule="evenodd" clip-rule="evenodd" d="M148.443 153.911C148.317 154.703 148.137 155.537 147.907 156.414C147.677 157.289 147.406 158.088 147.096 158.809C146.784 159.529 146.439 160.11 146.059 160.554C145.679 160.998 145.269 161.184 144.832 161.113C144.486 161.064 144.267 160.836 144.176 160.428C144.083 160.02 144.083 159.516 144.176 158.917C144.267 158.315 144.445 157.637 144.711 156.881C144.976 156.125 145.299 155.375 145.679 154.631C146.059 153.886 146.491 153.172 146.975 152.488C147.458 151.804 147.965 151.233 148.495 150.778C148.61 150.922 148.662 151.282 148.651 151.858C148.638 152.434 148.57 153.119 148.443 153.911ZM160.159 138.283C159.848 137.922 159.468 137.719 159.018 137.671C158.569 137.622 158.113 137.886 157.653 138.463C157.354 139.039 156.973 139.591 156.512 140.119C156.052 140.648 155.574 141.127 155.079 141.559C154.583 141.991 154.111 142.364 153.662 142.675C153.213 142.988 152.861 143.216 152.608 143.36C152.516 142.592 152.463 141.763 152.452 140.875C152.44 139.987 152.458 139.087 152.504 138.174C152.572 136.878 152.717 135.57 152.936 134.25C153.155 132.929 153.471 131.633 153.887 130.36C153.887 129.688 153.736 129.142 153.437 128.722C153.137 128.302 152.774 128.038 152.348 127.93C151.922 127.822 151.485 127.882 151.035 128.11C150.586 128.338 150.2 128.753 149.877 129.352C149.601 130.145 149.284 131.033 148.927 132.017C148.57 133.001 148.167 134.003 147.718 135.023C147.268 136.044 146.767 137.034 146.214 137.994C145.661 138.955 145.057 139.807 144.4 140.551C143.743 141.296 143.029 141.878 142.258 142.298C141.485 142.718 140.651 142.904 139.752 142.856C139.337 142.736 139.037 142.412 138.853 141.883C138.669 141.355 138.559 140.695 138.525 139.903C138.491 139.111 138.525 138.241 138.628 137.292C138.732 136.344 138.871 135.401 139.044 134.466C139.216 133.529 139.406 132.641 139.613 131.801C139.821 130.961 140.016 130.252 140.2 129.676C140.477 128.98 140.477 128.397 140.2 127.93C139.924 127.461 139.544 127.15 139.061 126.993C138.577 126.837 138.07 126.844 137.54 127.011C137.01 127.179 136.629 127.551 136.4 128.128C136.007 129.112 135.65 130.216 135.328 131.441C135.005 132.665 134.746 133.932 134.551 135.239C134.355 136.548 134.244 137.845 134.222 139.129C134.221 139.212 134.224 139.292 134.224 139.375C133.722 140.771 133.243 141.825 132.788 142.532C132.201 143.444 131.538 143.84 130.801 143.72C130.477 143.576 130.265 143.24 130.162 142.711C130.057 142.184 130.023 141.536 130.057 140.767C130.092 140 130.179 139.129 130.317 138.156C130.456 137.184 130.627 136.176 130.835 135.132C131.042 134.087 131.262 133.037 131.492 131.981C131.722 130.925 131.929 129.928 132.114 128.992C132.091 128.152 131.855 127.51 131.405 127.065C130.957 126.622 130.328 126.448 129.522 126.543C128.969 126.783 128.56 127.096 128.295 127.48C128.03 127.863 127.817 128.356 127.656 128.956C127.563 129.268 127.425 129.892 127.241 130.829C127.056 131.764 126.821 132.839 126.532 134.051C126.245 135.264 125.904 136.53 125.513 137.85C125.122 139.171 124.683 140.366 124.2 141.433C123.716 142.502 123.186 143.36 122.61 144.008C122.034 144.656 121.412 144.921 120.744 144.8C120.375 144.728 120.139 144.332 120.036 143.612C119.932 142.891 119.915 142.004 119.984 140.947C120.053 139.891 120.191 138.732 120.398 137.472C120.606 136.212 120.818 135.018 121.038 133.889C121.257 132.761 121.459 131.764 121.643 130.901C121.827 130.036 121.954 129.46 122.023 129.172C122.023 128.476 121.872 127.918 121.574 127.498C121.274 127.078 120.911 126.814 120.485 126.706C120.058 126.597 119.62 126.657 119.172 126.885C118.722 127.114 118.337 127.528 118.014 128.128C117.898 128.776 117.748 129.526 117.565 130.378C117.38 131.23 117.202 132.107 117.029 133.007C116.856 133.907 116.695 134.79 116.545 135.654C116.395 136.518 116.286 137.274 116.217 137.922C116.171 138.427 116.119 139.045 116.062 139.777C116.003 140.51 115.975 141.283 115.975 142.099C115.975 142.916 116.032 143.726 116.148 144.53C116.263 145.334 116.47 146.073 116.77 146.744C117.069 147.417 117.49 147.969 118.032 148.401C118.572 148.833 119.258 149.073 120.088 149.121C120.94 149.169 121.683 149.103 122.317 148.923C122.95 148.743 123.526 148.46 124.045 148.076C124.563 147.694 125.035 147.237 125.462 146.708C125.887 146.181 126.308 145.605 126.723 144.98C127.115 145.893 127.621 146.601 128.244 147.105C128.866 147.608 129.522 147.909 130.214 148.005C130.904 148.1 131.608 147.999 132.322 147.699C133.036 147.399 133.681 146.889 134.257 146.168C134.636 145.726 134.994 145.225 135.33 144.67C135.473 144.929 135.624 145.18 135.795 145.412C136.359 146.181 137.125 146.708 138.093 146.997C139.13 147.285 140.143 147.333 141.134 147.141C142.124 146.949 143.069 146.601 143.967 146.097C144.866 145.592 145.701 144.987 146.474 144.278C147.245 143.57 147.919 142.832 148.495 142.063C148.472 142.615 148.46 143.138 148.46 143.63C148.46 144.122 148.449 144.656 148.426 145.232C147.274 146.073 146.185 147.081 145.16 148.257C144.135 149.433 143.236 150.687 142.464 152.02C141.692 153.352 141.088 154.703 140.651 156.071C140.213 157.44 139.999 158.718 140.011 159.907C140.022 161.095 140.293 162.133 140.823 163.021C141.352 163.91 142.217 164.545 143.415 164.929C144.659 165.338 145.753 165.349 146.699 164.966C147.643 164.581 148.466 163.945 149.169 163.057C149.872 162.169 150.448 161.095 150.897 159.834C151.346 158.574 151.703 157.259 151.968 155.891C152.233 154.523 152.4 153.178 152.469 151.858C152.539 150.538 152.539 149.361 152.469 148.329C154.451 147.465 156.075 146.372 157.342 145.052C158.609 143.733 159.657 142.339 160.487 140.875C160.74 140.515 160.827 140.083 160.747 139.579C160.665 139.075 160.47 138.642 160.159 138.283Z" fill="#0D0C23"/>
<path fill-rule="evenodd" clip-rule="evenodd" d="M203.755 135.979C203.824 135.427 203.928 134.844 204.066 134.232C204.204 133.62 204.377 133.026 204.584 132.45C204.791 131.874 205.034 131.376 205.31 130.955C205.586 130.535 205.881 130.235 206.191 130.055C206.503 129.876 206.818 129.893 207.142 130.109C207.487 130.326 207.7 130.781 207.781 131.477C207.861 132.174 207.781 132.918 207.539 133.71C207.297 134.503 206.865 135.247 206.243 135.943C205.621 136.639 204.78 137.095 203.72 137.311C203.674 136.976 203.686 136.531 203.755 135.979ZM215.729 137.455C215.349 137.335 214.987 137.323 214.641 137.419C214.295 137.515 214.076 137.767 213.985 138.176C213.799 138.944 213.505 139.73 213.102 140.534C212.699 141.338 212.204 142.101 211.617 142.821C211.03 143.541 210.367 144.177 209.63 144.729C208.892 145.282 208.121 145.677 207.314 145.917C206.508 146.182 205.839 146.212 205.31 146.008C204.78 145.804 204.36 145.455 204.049 144.963C203.738 144.471 203.513 143.877 203.375 143.181C203.237 142.485 203.156 141.765 203.133 141.02C204.446 141.116 205.615 140.87 206.641 140.282C207.665 139.694 208.535 138.913 209.25 137.942C209.963 136.969 210.505 135.877 210.874 134.664C211.242 133.452 211.45 132.246 211.496 131.046C211.519 129.917 211.358 128.963 211.012 128.183C210.667 127.403 210.2 126.796 209.612 126.364C209.025 125.932 208.351 125.68 207.591 125.608C206.831 125.536 206.059 125.645 205.275 125.932C204.33 126.268 203.53 126.814 202.873 127.571C202.217 128.327 201.67 129.203 201.232 130.199C200.794 131.196 200.448 132.27 200.195 133.422C199.942 134.575 199.757 135.709 199.643 136.825C199.539 137.827 199.483 138.785 199.464 139.71C199.414 139.827 199.367 139.94 199.314 140.066C198.956 140.919 198.541 141.753 198.07 142.569C197.598 143.385 197.073 144.069 196.498 144.621C195.922 145.174 195.323 145.365 194.701 145.197C194.332 145.101 194.131 144.657 194.096 143.865C194.061 143.072 194.101 142.088 194.216 140.912C194.332 139.736 194.464 138.463 194.614 137.095C194.763 135.727 194.838 134.419 194.838 133.17C194.838 132.09 194.642 131.052 194.251 130.055C193.859 129.06 193.323 128.231 192.644 127.571C191.964 126.91 191.175 126.472 190.277 126.256C189.378 126.04 188.411 126.184 187.374 126.688C186.337 127.192 185.513 127.901 184.903 128.813C184.292 129.726 183.733 130.685 183.227 131.694C183.042 130.925 182.772 130.212 182.414 129.551C182.058 128.891 181.62 128.315 181.102 127.822C180.583 127.331 180 126.946 179.357 126.67C178.712 126.395 178.031 126.256 177.317 126.256C176.626 126.256 175.987 126.395 175.399 126.67C174.812 126.946 174.276 127.3 173.792 127.733C173.308 128.165 172.871 128.65 172.479 129.191C172.087 129.731 171.741 130.266 171.442 130.793C171.395 130.169 171.344 129.623 171.287 129.154C171.229 128.687 171.125 128.291 170.976 127.967C170.826 127.643 170.613 127.397 170.336 127.228C170.06 127.061 169.668 126.977 169.161 126.977C168.908 126.977 168.654 127.03 168.401 127.138C168.147 127.246 167.922 127.397 167.727 127.589C167.531 127.781 167.382 128.015 167.278 128.291C167.174 128.567 167.146 128.885 167.192 129.245C167.215 129.51 167.278 129.827 167.382 130.199C167.485 130.571 167.583 131.059 167.675 131.658C167.767 132.258 167.842 132.985 167.9 133.837C167.958 134.689 167.974 135.733 167.952 136.969C167.928 138.206 167.842 139.652 167.692 141.309C167.543 142.965 167.306 144.885 166.984 147.069C166.938 147.574 167.122 147.983 167.537 148.294C167.952 148.606 168.424 148.786 168.954 148.834C169.484 148.882 169.985 148.786 170.458 148.546C170.93 148.306 171.201 147.886 171.269 147.286C171.338 146.157 171.471 144.957 171.667 143.684C171.862 142.413 172.105 141.152 172.393 139.904C172.681 138.656 173.008 137.467 173.378 136.339C173.746 135.21 174.155 134.214 174.604 133.35C175.054 132.486 175.521 131.796 176.004 131.28C176.488 130.764 176.995 130.506 177.525 130.506C178.17 130.506 178.67 130.811 179.028 131.423C179.385 132.036 179.638 132.822 179.788 133.782C179.938 134.743 180.007 135.794 179.996 136.933C179.984 138.074 179.938 139.171 179.858 140.228C179.777 141.285 179.685 142.226 179.581 143.055C179.477 143.883 179.402 144.453 179.357 144.765C179.357 145.318 179.558 145.755 179.961 146.08C180.364 146.403 180.813 146.596 181.309 146.656C181.805 146.716 182.27 146.62 182.708 146.367C183.146 146.115 183.4 145.69 183.469 145.089C183.699 143.361 184.016 141.626 184.419 139.886C184.822 138.146 185.283 136.586 185.802 135.205C186.32 133.824 186.896 132.696 187.529 131.82C188.163 130.944 188.837 130.506 189.551 130.506C189.92 130.506 190.202 130.77 190.397 131.298C190.593 131.826 190.692 132.546 190.692 133.458C190.692 134.131 190.64 134.82 190.537 135.529C190.432 136.237 190.312 136.969 190.173 137.725C190.035 138.482 189.914 139.256 189.81 140.048C189.707 140.841 189.655 141.668 189.655 142.533C189.655 143.133 189.713 143.829 189.828 144.621C189.943 145.413 190.161 146.164 190.484 146.872C190.807 147.58 191.25 148.18 191.815 148.672C192.38 149.164 193.099 149.411 193.974 149.411C195.288 149.411 196.451 149.116 197.465 148.528C198.478 147.94 199.349 147.172 200.074 146.224C200.112 146.174 200.146 146.121 200.183 146.072C200.239 146.212 200.288 146.361 200.35 146.494C200.846 147.55 201.52 148.366 202.372 148.943C203.224 149.519 204.227 149.837 205.38 149.897C206.531 149.956 207.786 149.734 209.147 149.23C210.159 148.846 211.041 148.366 211.79 147.79C212.538 147.213 213.212 146.511 213.811 145.683C214.411 144.855 214.957 143.901 215.453 142.821C215.949 141.74 216.449 140.504 216.956 139.112C217.048 138.728 216.962 138.386 216.697 138.085C216.432 137.786 216.11 137.575 215.729 137.455Z" fill="#0D0C23"/>
<path fill-rule="evenodd" clip-rule="evenodd" d="M234.511 133.438C234.396 134.147 234.241 134.927 234.045 135.779C233.849 136.632 233.602 137.513 233.302 138.426C233.003 139.339 232.634 140.16 232.196 140.893C231.759 141.625 231.257 142.207 230.693 142.639C230.128 143.071 229.478 143.251 228.74 143.179C228.371 143.132 228.089 142.868 227.894 142.387C227.697 141.907 227.594 141.295 227.582 140.55C227.571 139.806 227.634 138.99 227.772 138.102C227.911 137.214 228.123 136.344 228.412 135.491C228.7 134.64 229.051 133.852 229.466 133.132C229.881 132.412 230.359 131.854 230.9 131.458C231.441 131.061 232.035 130.876 232.68 130.9C233.325 130.924 234.016 131.26 234.754 131.908C234.707 132.221 234.627 132.731 234.511 133.438ZM246.797 136.193C246.439 136.001 246.071 135.959 245.691 136.068C245.311 136.175 245.04 136.542 244.88 137.165C244.787 137.838 244.58 138.63 244.257 139.542C243.935 140.454 243.537 141.319 243.065 142.135C242.592 142.951 242.051 143.63 241.441 144.169C240.83 144.71 240.179 144.956 239.489 144.907C238.912 144.86 238.508 144.554 238.279 143.989C238.048 143.425 237.927 142.718 237.916 141.864C237.903 141.013 237.985 140.053 238.157 138.985C238.33 137.916 238.538 136.854 238.779 135.797C239.021 134.741 239.269 133.726 239.523 132.755C239.776 131.782 239.983 130.96 240.145 130.288C240.329 129.688 240.271 129.178 239.972 128.757C239.672 128.337 239.298 128.037 238.849 127.857C238.399 127.677 237.944 127.629 237.483 127.713C237.023 127.798 236.723 128.056 236.585 128.487C235.226 127.263 233.918 126.602 232.663 126.507C231.407 126.411 230.249 126.699 229.19 127.371C228.129 128.043 227.191 129.015 226.373 130.288C225.555 131.561 224.893 132.946 224.385 134.447C223.879 135.947 223.562 137.478 223.435 139.038C223.308 140.599 223.406 142.021 223.729 143.305C224.052 144.59 224.622 145.641 225.44 146.456C226.257 147.272 227.369 147.681 228.775 147.681C229.397 147.681 229.996 147.549 230.572 147.285C231.147 147.02 231.678 146.708 232.161 146.348C232.645 145.988 233.071 145.61 233.441 145.214C233.809 144.817 234.097 144.488 234.304 144.224C234.465 145.088 234.73 145.82 235.1 146.421C235.467 147.02 235.888 147.513 236.36 147.896C236.832 148.28 237.328 148.562 237.847 148.743C238.365 148.923 238.866 149.013 239.349 149.013C240.433 149.013 241.446 148.628 242.391 147.86C243.336 147.092 244.182 146.15 244.931 145.034C245.68 143.917 246.297 142.742 246.78 141.505C247.264 140.268 247.586 139.17 247.748 138.21C247.909 137.849 247.88 137.472 247.661 137.076C247.442 136.679 247.154 136.386 246.797 136.193Z" fill="#0D0C23"/>
<path fill-rule="evenodd" clip-rule="evenodd" d="M309.003 156.073C308.808 156.889 308.502 157.58 308.087 158.144C307.673 158.708 307.155 159.002 306.532 159.026C306.141 159.05 305.841 158.834 305.634 158.378C305.427 157.921 305.283 157.334 305.202 156.614C305.121 155.893 305.087 155.088 305.098 154.2C305.11 153.313 305.144 152.436 305.202 151.572C305.259 150.708 305.329 149.903 305.409 149.16C305.489 148.414 305.553 147.84 305.599 147.431C306.383 147.527 307.034 147.881 307.552 148.493C308.07 149.106 308.468 149.832 308.744 150.672C309.021 151.512 309.181 152.419 309.228 153.39C309.274 154.363 309.199 155.257 309.003 156.073ZM296.493 156.073C296.298 156.889 295.992 157.58 295.578 158.144C295.163 158.708 294.644 159.002 294.022 159.026C293.631 159.05 293.331 158.834 293.124 158.378C292.916 157.921 292.772 157.334 292.692 156.614C292.611 155.893 292.576 155.088 292.588 154.2C292.599 153.313 292.634 152.436 292.692 151.572C292.749 150.708 292.818 149.903 292.899 149.16C292.98 148.414 293.042 147.84 293.089 147.431C293.872 147.527 294.524 147.881 295.041 148.493C295.56 149.106 295.957 149.832 296.234 150.672C296.511 151.512 296.672 152.419 296.718 153.39C296.763 154.363 296.688 155.257 296.493 156.073ZM283.655 135.62C283.631 136.196 283.58 136.706 283.499 137.15C283.418 137.595 283.309 137.876 283.171 137.996C282.917 137.852 282.606 137.481 282.237 136.88C281.869 136.28 281.581 135.601 281.373 134.845C281.166 134.089 281.102 133.346 281.184 132.613C281.264 131.881 281.627 131.311 282.272 130.902C282.525 130.758 282.744 130.812 282.929 131.064C283.113 131.317 283.262 131.683 283.378 132.163C283.493 132.643 283.573 133.195 283.62 133.819C283.666 134.444 283.678 135.043 283.655 135.62ZM280.596 142.804C280.239 143.199 279.841 143.542 279.404 143.83C278.966 144.118 278.517 144.334 278.056 144.478C277.595 144.622 277.18 144.658 276.812 144.586C275.775 144.371 274.98 143.901 274.427 143.182C273.874 142.462 273.523 141.616 273.374 140.643C273.224 139.671 273.24 138.632 273.425 137.528C273.609 136.424 273.92 135.398 274.358 134.449C274.796 133.501 275.326 132.685 275.948 132.001C276.57 131.317 277.249 130.891 277.987 130.722C277.71 131.947 277.618 133.213 277.71 134.521C277.802 135.83 278.102 137.06 278.609 138.212C278.931 138.909 279.317 139.545 279.766 140.121C280.216 140.697 280.763 141.19 281.408 141.598C281.224 142.006 280.953 142.408 280.596 142.804ZM318.835 135.98C318.905 135.428 319.008 134.845 319.147 134.233C319.284 133.621 319.457 133.027 319.664 132.451C319.872 131.875 320.114 131.377 320.391 130.957C320.668 130.537 320.96 130.236 321.272 130.056C321.583 129.876 321.9 129.894 322.222 130.11C322.568 130.327 322.78 130.783 322.861 131.478C322.942 132.175 322.861 132.919 322.62 133.711C322.377 134.503 321.946 135.248 321.324 135.944C320.702 136.641 319.86 137.096 318.801 137.312C318.755 136.977 318.766 136.532 318.835 135.98ZM332.763 135.98C332.832 135.428 332.935 134.845 333.074 134.233C333.212 133.621 333.385 133.027 333.593 132.451C333.799 131.875 334.041 131.377 334.318 130.957C334.595 130.537 334.889 130.236 335.199 130.056C335.511 129.876 335.827 129.894 336.149 130.11C336.495 130.327 336.708 130.783 336.789 131.478C336.869 132.175 336.789 132.919 336.547 133.711C336.305 134.503 335.873 135.248 335.251 135.944C334.629 136.641 333.788 137.096 332.728 137.312C332.682 136.977 332.694 136.532 332.763 135.98ZM345.705 138.087C345.44 137.787 345.118 137.577 344.738 137.456C344.357 137.336 343.995 137.325 343.649 137.421C343.303 137.516 343.084 137.769 342.992 138.177C342.807 138.945 342.514 139.731 342.111 140.534C341.708 141.34 341.212 142.101 340.625 142.822C340.037 143.542 339.375 144.178 338.638 144.73C337.9 145.282 337.129 145.679 336.323 145.918C335.516 146.183 334.848 146.213 334.318 146.008C333.788 145.805 333.368 145.457 333.056 144.965C332.746 144.472 332.521 143.878 332.382 143.182C332.245 142.486 332.163 141.766 332.141 141.021C333.454 141.118 334.623 140.872 335.648 140.283C336.673 139.695 337.543 138.914 338.258 137.942C338.972 136.971 339.513 135.878 339.882 134.666C340.25 133.453 340.458 132.247 340.504 131.046C340.527 129.918 340.365 128.964 340.02 128.184C339.675 127.404 339.208 126.797 338.621 126.365C338.033 125.933 337.36 125.681 336.598 125.609C335.839 125.536 335.067 125.645 334.283 125.933C333.338 126.27 332.538 126.815 331.882 127.571C331.225 128.328 330.678 129.205 330.24 130.2C329.802 131.197 329.457 132.27 329.203 133.423C328.949 134.575 328.765 135.71 328.651 136.826C328.538 137.909 328.478 138.946 328.464 139.938C328.377 140.136 328.284 140.335 328.184 140.534C327.78 141.34 327.285 142.101 326.697 142.822C326.111 143.542 325.447 144.178 324.711 144.73C323.973 145.282 323.201 145.679 322.395 145.918C321.588 146.183 320.921 146.213 320.391 146.008C319.86 145.805 319.44 145.457 319.129 144.965C318.819 144.472 318.594 143.878 318.455 143.182C318.317 142.486 318.236 141.766 318.213 141.021C319.527 141.118 320.696 140.872 321.721 140.283C322.746 139.695 323.616 138.914 324.33 137.942C325.044 136.971 325.586 135.878 325.954 134.666C326.322 133.453 326.531 132.247 326.576 131.046C326.599 129.918 326.438 128.964 326.093 128.184C325.747 127.404 325.28 126.797 324.693 126.365C324.105 125.933 323.432 125.681 322.672 125.609C321.911 125.536 321.139 125.645 320.356 125.933C319.411 126.27 318.61 126.815 317.955 127.571C317.298 128.328 316.75 129.205 316.312 130.2C315.875 131.197 315.53 132.27 315.276 133.423C315.022 134.575 314.838 135.71 314.723 136.826C314.657 137.456 314.614 138.066 314.582 138.665C314.359 138.863 314.142 139.061 313.911 139.256C313.116 139.929 312.28 140.534 311.405 141.075C310.529 141.616 309.619 142.06 308.675 142.408C307.73 142.756 306.762 142.966 305.772 143.038L307.915 119.127C308.053 118.623 307.984 118.179 307.707 117.795C307.431 117.411 307.074 117.147 306.636 117.003C306.199 116.859 305.732 116.871 305.236 117.039C304.741 117.207 304.333 117.592 304.01 118.191C303.848 119.103 303.681 120.352 303.509 121.936C303.336 123.52 303.163 125.249 302.99 127.122C302.817 128.994 302.644 130.927 302.472 132.919C302.299 134.912 302.149 136.773 302.022 138.5C302.017 138.577 302.012 138.647 302.006 138.722C301.805 138.9 301.609 139.08 301.4 139.256C300.606 139.929 299.77 140.534 298.895 141.075C298.019 141.616 297.109 142.06 296.165 142.408C295.22 142.756 294.252 142.966 293.262 143.038L295.405 119.127C295.543 118.623 295.474 118.179 295.198 117.795C294.921 117.411 294.563 117.147 294.126 117.003C293.688 116.859 293.221 116.871 292.726 117.039C292.231 117.207 291.822 117.592 291.499 118.191C291.338 119.103 291.171 120.352 290.999 121.936C290.825 123.52 290.653 125.249 290.48 127.122C290.307 128.994 290.135 130.927 289.962 132.919C289.789 134.912 289.639 136.773 289.513 138.5C289.51 138.535 289.508 138.567 289.505 138.601C289.143 138.776 288.749 138.93 288.32 139.059C287.882 139.191 287.387 139.269 286.834 139.293C286.926 138.861 287.001 138.38 287.058 137.852C287.116 137.325 287.163 136.773 287.197 136.196C287.232 135.62 287.243 135.043 287.232 134.467C287.22 133.891 287.191 133.363 287.145 132.883C287.029 131.852 286.817 130.873 286.506 129.948C286.195 129.024 285.774 128.25 285.245 127.625C284.714 127.001 284.052 126.581 283.257 126.365C282.462 126.149 281.535 126.221 280.476 126.581C278.908 126.365 277.497 126.516 276.242 127.031C274.986 127.548 273.897 128.298 272.976 129.282C272.054 130.267 271.3 131.425 270.712 132.757C270.125 134.089 269.733 135.458 269.537 136.862C269.454 137.457 269.414 138.05 269.402 138.641C269.045 139.402 268.654 140.067 268.224 140.625C267.613 141.417 266.98 142.065 266.323 142.569C265.667 143.074 265.016 143.458 264.371 143.722C263.725 143.986 263.149 144.167 262.643 144.262C262.044 144.382 261.468 144.394 260.915 144.298C260.362 144.203 259.855 143.927 259.395 143.47C259.026 143.134 258.743 142.594 258.548 141.849C258.352 141.105 258.237 140.26 258.203 139.311C258.168 138.363 258.203 137.372 258.306 136.34C258.409 135.308 258.587 134.33 258.841 133.406C259.095 132.481 259.416 131.653 259.809 130.92C260.2 130.189 260.661 129.666 261.192 129.354C261.49 129.402 261.675 129.588 261.745 129.912C261.814 130.236 261.83 130.62 261.796 131.064C261.762 131.509 261.71 131.965 261.641 132.432C261.572 132.901 261.537 133.292 261.537 133.603C261.652 134.251 261.877 134.756 262.211 135.115C262.545 135.476 262.92 135.686 263.334 135.745C263.748 135.806 264.157 135.704 264.562 135.44C264.964 135.176 265.292 134.756 265.546 134.179C265.569 134.204 265.603 134.215 265.649 134.215L266.134 129.642C266.271 129.018 266.179 128.466 265.857 127.986C265.534 127.506 265.108 127.23 264.578 127.158C263.91 126.149 263.005 125.615 261.865 125.555C260.725 125.495 259.556 125.885 258.358 126.726C257.62 127.278 256.969 128.04 256.405 129.012C255.84 129.985 255.38 131.064 255.023 132.253C254.665 133.441 254.412 134.696 254.263 136.016C254.113 137.336 254.084 138.621 254.175 139.868C254.268 141.118 254.481 142.294 254.815 143.398C255.149 144.503 255.616 145.427 256.215 146.17C256.722 146.819 257.297 147.293 257.942 147.593C258.587 147.893 259.261 148.079 259.964 148.151C260.667 148.223 261.364 148.192 262.055 148.061C262.747 147.929 263.403 147.743 264.025 147.503C264.831 147.191 265.662 146.795 266.514 146.315C267.366 145.835 268.184 145.259 268.967 144.586C269.379 144.232 269.776 143.847 270.159 143.434C270.334 143.885 270.529 144.322 270.764 144.73C271.386 145.81 272.227 146.687 273.287 147.359C274.346 148.031 275.648 148.355 277.192 148.331C278.851 148.307 280.383 147.869 281.788 147.017C283.194 146.165 284.346 144.91 285.245 143.254C286.59 143.254 287.915 143.023 289.216 142.564C289.205 142.709 289.194 142.862 289.184 143.002C289.092 144.275 289.045 145.138 289.045 145.595C289.023 146.387 288.971 147.365 288.891 148.529C288.81 149.693 288.758 150.918 288.735 152.202C288.712 153.486 288.758 154.783 288.873 156.091C288.989 157.399 289.23 158.588 289.599 159.657C289.967 160.724 290.491 161.631 291.171 162.376C291.85 163.119 292.743 163.564 293.85 163.707C295.025 163.875 296.038 163.659 296.891 163.059C297.743 162.459 298.434 161.637 298.965 160.593C299.494 159.548 299.868 158.342 300.088 156.974C300.306 155.605 300.369 154.231 300.278 152.85C300.185 151.47 299.943 150.167 299.551 148.943C299.16 147.719 298.618 146.71 297.927 145.918C298.343 145.799 298.837 145.571 299.414 145.234C299.989 144.898 300.582 144.52 301.193 144.1C301.343 143.997 301.491 143.888 301.641 143.782C301.585 144.632 301.556 145.239 301.556 145.595C301.534 146.387 301.482 147.365 301.4 148.529C301.32 149.693 301.268 150.918 301.245 152.202C301.222 153.486 301.268 154.783 301.384 156.091C301.498 157.399 301.74 158.588 302.109 159.657C302.477 160.724 303.002 161.631 303.681 162.376C304.361 163.119 305.254 163.564 306.36 163.707C307.534 163.875 308.548 163.659 309.401 163.059C310.253 162.459 310.945 161.637 311.474 160.593C312.004 159.548 312.378 158.342 312.597 156.974C312.817 155.605 312.879 154.231 312.788 152.85C312.695 151.47 312.453 150.167 312.063 148.943C311.67 147.719 311.129 146.71 310.437 145.918C310.852 145.799 311.348 145.571 311.923 145.234C312.499 144.898 313.093 144.52 313.704 144.1C314.021 143.881 314.336 143.656 314.651 143.425C314.769 144.598 315.024 145.628 315.431 146.495C315.927 147.552 316.6 148.368 317.453 148.943C318.305 149.519 319.307 149.838 320.46 149.898C321.612 149.957 322.867 149.736 324.227 149.231C325.24 148.848 326.121 148.368 326.87 147.791C327.618 147.214 328.292 146.512 328.892 145.685C328.927 145.636 328.959 145.584 328.993 145.536C329.1 145.872 329.218 146.196 329.359 146.495C329.854 147.552 330.528 148.368 331.38 148.943C332.232 149.519 333.235 149.838 334.387 149.898C335.539 149.957 336.794 149.736 338.154 149.231C339.168 148.848 340.049 148.368 340.798 147.791C341.546 147.214 342.22 146.512 342.82 145.685C343.419 144.856 343.965 143.901 344.461 142.822C344.956 141.741 345.457 140.506 345.965 139.112C346.056 138.729 345.97 138.386 345.705 138.087Z" fill="#0D0C23"/>
<path d="M98.2718 102.223H94.3895V89.6411H98.4441C99.6645 89.6411 100.709 89.8929 101.577 90.3967C102.445 90.8963 103.111 91.6151 103.573 92.553C104.036 93.4868 104.268 94.6048 104.268 95.9072C104.268 97.2178 104.034 98.3462 103.568 99.2922C103.101 100.234 102.421 100.959 101.528 101.467C100.635 101.971 99.5498 102.223 98.2718 102.223ZM95.9126 100.871H98.1738C99.2139 100.871 100.076 100.67 100.76 100.269C101.444 99.8677 101.954 99.2963 102.29 98.555C102.626 97.8137 102.794 96.9311 102.794 95.9072C102.794 94.8915 102.628 94.0172 102.295 93.284C101.964 92.5468 101.469 91.9816 100.809 91.5885C100.15 91.1912 99.3286 90.9926 98.3454 90.9926H95.9126V100.871ZM117.439 95.9318C117.439 97.2587 117.2 98.4055 116.72 99.3721C116.241 100.339 115.584 101.084 114.748 101.608C113.913 102.132 112.958 102.395 111.885 102.395C110.813 102.395 109.858 102.132 109.023 101.608C108.187 101.084 107.53 100.339 107.051 99.3721C106.571 98.4055 106.332 97.2587 106.332 95.9318C106.332 94.6048 106.571 93.4581 107.051 92.4915C107.53 91.525 108.187 90.7796 109.023 90.2554C109.858 89.7312 110.813 89.469 111.885 89.469C112.958 89.469 113.913 89.7312 114.748 90.2554C115.584 90.7796 116.241 91.525 116.72 92.4915C117.2 93.4581 117.439 94.6048 117.439 95.9318ZM115.964 95.9318C115.964 94.8424 115.783 93.9229 115.418 93.1734C115.057 92.4239 114.568 91.8567 113.95 91.4717C113.335 91.0867 112.647 90.8943 111.885 90.8943C111.124 90.8943 110.433 91.0867 109.815 91.4717C109.201 91.8567 108.711 92.4239 108.347 93.1734C107.986 93.9229 107.806 94.8424 107.806 95.9318C107.806 97.0212 107.986 97.9407 108.347 98.6901C108.711 99.4396 109.201 100.007 109.815 100.392C110.433 100.777 111.124 100.969 111.885 100.969C112.647 100.969 113.335 100.777 113.95 100.392C114.568 100.007 115.057 99.4396 115.418 98.6901C115.783 97.9407 115.964 97.0212 115.964 95.9318ZM129.978 89.6411V102.223H128.503L121.647 92.3441H121.525V102.223H120.001V89.6411H121.475L128.356 99.5441H128.478V89.6411H129.978ZM133.542 102.223H131.945L136.564 89.6411H138.137L142.757 102.223H141.16L137.4 91.6315H137.302L133.542 102.223ZM134.132 97.3079H140.57V98.6594H134.132V97.3079ZM142.559 90.9926V89.6411H151.995V90.9926H148.039V102.223H146.515V90.9926H142.559ZM154.346 102.223V89.6411H161.939V90.9926H155.87V95.2438H161.546V96.5953H155.87V100.871H162.038V102.223H154.346ZM171.837 102.223L168.396 89.6411H169.945L172.573 99.8881H172.697L175.375 89.6411H177.095L179.774 99.8881H179.896L182.526 89.6411H184.074L180.634 102.223H179.061L176.284 92.1967H176.186L173.409 102.223H171.837ZM187.496 89.6411V102.223H185.972V89.6411H187.496ZM189.862 90.9926V89.6411H199.298V90.9926H195.343V102.223H193.819V90.9926H189.862ZM201.65 102.223V89.6411H203.174V95.2438H209.882V89.6411H211.405V102.223H209.882V96.5953H203.174V102.223H201.65Z" fill="black" fill-opacity="0.55"/>
</svg>
