<svg width="450" height="250" viewBox="0 0 450 250" fill="none" xmlns="http://www.w3.org/2000/svg">
<path d="M0 73.9741C0 60.7335 8.45128 50 18.8764 50H401.124C411.548 50 420 60.7335 420 73.9741V175.864C420 189.105 411.548 199.838 401.124 199.838H18.8764C8.45128 199.838 0 189.105 0 175.864V73.9741Z" fill="#FFDD00"/>
<path d="M76.4892 99.0076L76.4314 98.972L76.2969 98.9292C76.3512 98.9768 76.4184 99.0044 76.4892 99.0076Z" fill="#0D0C22"/>
<path d="M77.2991 104.99L77.2242 105.011L77.2991 104.99Z" fill="#0D0C22"/>
<path d="M76.5096 98.9952C76.4994 98.9939 76.4903 98.9916 76.4812 98.9885C76.4801 98.9947 76.4801 99.001 76.4812 99.0072C76.4914 99.0058 76.5005 99.0016 76.5096 98.9952Z" fill="#0D0C22"/>
<path d="M76.4801 99.0079H76.4949V98.999L76.4801 99.0079Z" fill="#0D0C22"/>
<path d="M77.2366 104.99L77.3386 104.929L77.3765 104.907L77.4108 104.868C77.3467 104.897 77.2871 104.938 77.2366 104.99Z" fill="#0D0C22"/>
<path d="M76.6532 99.1476L76.553 99.0482L76.4854 99.0096C76.5224 99.0769 76.5819 99.1264 76.6532 99.1476Z" fill="#0D0C22"/>
<path d="M53.8713 157.219C53.7953 157.253 53.7288 157.306 53.6778 157.375L53.7377 157.334C53.7785 157.296 53.8362 157.249 53.8713 157.219Z" fill="#0D0C22"/>
<path d="M67.0908 154.499C67.0908 154.41 67.0489 154.426 67.0591 154.746C67.0591 154.72 67.0693 154.693 67.0738 154.668C67.0795 154.612 67.084 154.556 67.0908 154.499Z" fill="#0D0C22"/>
<path d="M65.7324 157.219C65.6565 157.253 65.59 157.306 65.539 157.375L65.599 157.334C65.6397 157.296 65.6974 157.249 65.7324 157.219Z" fill="#0D0C22"/>
<path d="M44.5514 157.87C44.4937 157.819 44.4231 157.784 44.3477 157.771C44.4088 157.802 44.4699 157.833 44.5106 157.857L44.5514 157.87Z" fill="#0D0C22"/>
<path d="M42.4521 155.779C42.4431 155.687 42.4157 155.597 42.3718 155.515C42.4029 155.599 42.429 155.687 42.4498 155.775L42.4521 155.779Z" fill="#0D0C22"/>
<path d="M56.5271 118.218C53.6492 119.507 50.3833 120.967 46.1505 120.967C44.3798 120.964 42.6178 120.709 40.9121 120.212L43.8396 151.644C43.9432 152.957 44.5156 154.182 45.4428 155.075C46.3701 155.968 47.5846 156.463 48.8452 156.462C48.8452 156.462 52.996 156.688 54.3811 156.688C55.8717 156.688 60.3417 156.462 60.3417 156.462C61.602 156.462 62.8162 155.967 63.7434 155.075C64.6704 154.181 65.2426 152.957 65.3462 151.644L68.4817 116.91C67.0805 116.41 65.6663 116.077 64.0721 116.077C61.315 116.077 59.0935 117.069 56.5271 118.218Z" fill="white"/>
<path d="M31.8555 104.809L31.9134 104.865L31.9512 104.889C31.9221 104.858 31.89 104.832 31.8555 104.809Z" fill="#0D0C22"/>
<path d="M81.2064 101.907L80.7662 99.5824C80.3702 97.4959 79.4726 95.5245 77.4246 94.7704C76.7683 94.5292 76.0229 94.4254 75.5197 93.9262C75.0165 93.4268 74.8676 92.6514 74.7514 91.9321C74.5362 90.6122 74.3333 89.2912 74.1124 87.9735C73.9217 86.8408 73.7704 85.5681 73.2737 84.529C72.6273 83.1334 71.2854 82.3174 69.9509 81.7774C69.2669 81.5105 68.5689 81.2847 67.8607 81.1012C64.5268 80.1813 61.0217 79.8432 57.5918 79.6505C53.4752 79.4129 49.3475 79.4844 45.2406 79.8647C42.1838 80.1554 38.9643 80.5071 36.0594 81.6128C34.9977 82.0176 33.9037 82.5034 33.0964 83.3611C32.1058 84.4151 31.7825 86.045 32.5057 87.3592C33.0199 88.2925 33.8908 88.9519 34.8145 89.3881C36.0177 89.9502 37.2742 90.3779 38.5632 90.6641C42.1525 91.4937 45.8701 91.8195 49.537 91.9581C53.6012 92.1297 57.672 91.9906 61.7168 91.5422C62.7171 91.4272 63.7156 91.2893 64.7122 91.1285C65.886 90.9403 66.6394 89.3351 66.2935 88.217C65.8795 86.8802 64.7672 86.3617 63.5093 86.5634C63.324 86.5939 63.1396 86.622 62.9542 86.6503L62.8206 86.6706C62.3945 86.7269 61.9683 86.7795 61.5422 86.8283C60.662 86.9275 59.7796 87.0087 58.895 87.0717C56.9139 87.216 54.9274 87.2826 52.9419 87.286C50.9911 87.286 49.039 87.2284 47.0924 87.0943C46.2042 87.0334 45.3182 86.956 44.4344 86.8621C44.0323 86.8182 43.6314 86.7719 43.2304 86.7201L42.8488 86.6693L42.7659 86.657L42.3703 86.5973C41.5619 86.4699 40.7535 86.3233 39.9537 86.1463C39.8731 86.1276 39.8008 86.0807 39.7491 86.0133C39.6974 85.9459 39.6692 85.8619 39.6692 85.7755C39.6692 85.6891 39.6974 85.6052 39.7491 85.5378C39.8008 85.4704 39.8731 85.4234 39.9537 85.4047H39.9688C40.6619 85.2502 41.3603 85.1184 42.0609 85.0034C42.2945 84.9651 42.5288 84.9275 42.7637 84.8907H42.7701C43.2089 84.8603 43.6497 84.778 44.0862 84.7239C47.8843 84.3107 51.7049 84.1699 55.5213 84.3023C57.3741 84.3587 59.2259 84.4725 61.0701 84.6686C61.4668 84.7115 61.8613 84.7566 62.2558 84.8072C62.4067 84.8265 62.5587 84.849 62.7106 84.8682L63.0167 84.9144C63.9092 85.0534 64.797 85.2221 65.6801 85.4205C66.9887 85.718 68.6688 85.815 69.2513 87.3142C69.4363 87.7898 69.5205 88.3185 69.6228 88.8178L69.7537 89.4546C69.757 89.466 69.7594 89.4778 69.7611 89.4896C70.0696 90.9925 70.378 92.4953 70.6865 93.9983C70.7094 94.1093 70.7102 94.2241 70.6881 94.3353C70.6669 94.4465 70.6235 94.5519 70.5613 94.6449C70.4991 94.7378 70.4189 94.8164 70.3265 94.8756C70.234 94.9349 70.1301 94.9734 70.0229 94.9891H70.0139L69.8257 95.0161L69.6392 95.042C69.0484 95.1225 68.4568 95.1976 67.8649 95.2675C66.6987 95.4065 65.5307 95.5268 64.3608 95.6281C62.0362 95.8303 59.707 95.963 57.373 96.026C56.1838 96.0592 54.995 96.0746 53.8064 96.0723C49.0757 96.0684 44.3491 95.7809 39.6498 95.2111C39.141 95.148 38.6323 95.0803 38.1235 95.0116C38.518 95.0646 37.8368 94.971 37.6989 94.9507C37.3755 94.9034 37.0522 94.8542 36.7288 94.803C35.6433 94.6329 34.5644 94.4232 33.4812 94.2395C32.1715 94.014 30.9191 94.1269 29.7345 94.803C28.7622 95.3595 27.9752 96.2128 27.4785 97.249C26.9676 98.3537 26.8157 99.5564 26.5872 100.743C26.3586 101.93 26.003 103.208 26.1377 104.426C26.4276 107.056 28.1856 109.193 30.7143 109.671C33.0931 110.122 35.4849 110.486 37.8831 110.797C47.304 112.004 56.8216 112.148 66.2719 111.229C67.0415 111.153 67.81 111.072 68.5771 110.982C68.8169 110.955 69.0599 110.984 69.2873 111.067C69.5148 111.15 69.7218 111.286 69.8928 111.463C70.0638 111.641 70.1956 111.856 70.2766 112.094C70.3576 112.332 70.387 112.584 70.3625 112.836L70.1227 115.268C69.6408 120.183 69.1589 125.098 68.6769 130.013C68.1737 135.174 67.6673 140.334 67.1579 145.494C67.0141 146.948 66.8705 148.4 66.7267 149.854C66.5888 151.284 66.5694 152.759 66.3096 154.173C65.9001 156.395 64.461 157.761 62.3614 158.26C60.4378 158.717 58.4727 158.958 56.5 158.977C54.313 158.988 52.1271 158.888 49.9401 158.9C47.6055 158.913 44.7459 158.688 42.9437 156.871C41.3603 155.275 41.1415 152.776 40.9259 150.615C40.6385 147.755 40.3536 144.894 40.0712 142.034L38.4867 126.131L37.4617 115.841C37.4445 115.671 37.4272 115.502 37.411 115.331C37.2882 114.104 36.4571 112.902 35.1476 112.964C34.0265 113.016 32.7526 114.012 32.884 115.331L33.6439 122.96L35.2154 138.741C35.6631 143.224 36.1097 147.706 36.5552 152.19C36.6415 153.049 36.7223 153.91 36.8128 154.769C37.3054 159.463 40.733 161.992 44.9776 162.704C47.4567 163.121 49.9962 163.207 52.5119 163.25C55.7368 163.304 58.9942 163.434 62.1663 162.823C66.8669 161.921 70.3936 158.639 70.8968 153.547C71.0408 152.078 71.1848 150.606 71.328 149.137C71.8058 144.273 72.2828 139.409 72.7599 134.546L74.3178 118.652L75.0329 111.368C75.0681 111.007 75.2145 110.667 75.4486 110.4C75.6834 110.132 75.9943 109.95 76.3347 109.881C77.679 109.608 78.9636 109.14 79.9201 108.07C81.442 106.367 81.7448 104.146 81.2064 101.907ZM30.6453 103.479C30.6658 103.469 30.628 103.653 30.6119 103.739C30.6086 103.609 30.6151 103.494 30.6453 103.479ZM30.7757 104.534C30.7865 104.527 30.8189 104.572 30.8522 104.626C30.8016 104.576 30.7693 104.539 30.7747 104.534H30.7757ZM30.904 104.711C30.9503 104.793 30.9751 104.845 30.904 104.711V104.711ZM31.1616 104.93H31.1681C31.1681 104.937 31.1799 104.945 31.1843 104.954C31.1771 104.945 31.1691 104.936 31.1605 104.93H31.1616ZM76.2725 104.603C75.7897 105.083 75.0615 105.306 74.3431 105.418C66.2805 106.669 58.1006 107.302 49.9498 107.023C44.1164 106.814 38.3445 106.137 32.5693 105.283C32.0034 105.2 31.3901 105.092 31.001 104.656C30.268 103.833 30.628 102.176 30.8189 101.182C30.9935 100.271 31.3276 99.0571 32.3634 98.9274C33.9802 98.729 35.8579 99.4425 37.4574 99.6961C39.3832 100.004 41.3162 100.25 43.2563 100.434C51.5364 101.223 59.9556 101.101 68.1991 99.9464C69.7014 99.7352 71.1987 99.4899 72.6903 99.2104C74.0199 98.9612 75.4927 98.4935 76.2962 99.9329C76.8469 100.913 76.9197 102.226 76.8346 103.334C76.8084 103.816 76.6072 104.27 76.2709 104.603H76.2725Z" fill="#0D0C22"/>
<path fill-rule="evenodd" clip-rule="evenodd" d="M125.994 141.939C125.523 142.878 124.876 143.696 124.052 144.391C123.228 145.086 122.267 145.652 121.169 146.087C120.07 146.524 118.965 146.817 117.854 146.966C116.742 147.116 115.663 147.103 114.618 146.925C113.571 146.748 112.681 146.388 111.95 145.842L112.774 136.89C113.532 136.618 114.486 136.339 115.637 136.053C116.788 135.766 117.971 135.562 119.188 135.44C120.404 135.316 121.554 135.331 122.64 135.481C123.725 135.63 124.581 135.991 125.209 136.564C125.549 136.89 125.837 137.245 126.072 137.626C126.308 138.008 126.451 138.403 126.504 138.812C126.634 139.956 126.465 140.999 125.994 141.939ZM114.029 122.87C114.578 122.516 115.239 122.203 116.01 121.929C116.781 121.658 117.572 121.466 118.383 121.357C119.193 121.249 119.985 121.235 120.757 121.316C121.528 121.398 122.208 121.623 122.797 121.991C123.385 122.359 123.823 122.891 124.111 123.585C124.398 124.28 124.477 125.159 124.346 126.222C124.242 127.067 123.92 127.782 123.385 128.368C122.849 128.954 122.195 129.444 121.424 129.839C120.652 130.235 119.835 130.548 118.972 130.779C118.108 131.012 117.278 131.182 116.481 131.291C115.683 131.399 114.99 131.468 114.402 131.494C113.814 131.522 113.427 131.535 113.244 131.535L114.029 122.87ZM130.23 136.155C129.812 135.202 129.25 134.363 128.544 133.64C127.838 132.919 127 132.394 126.033 132.067C126.451 131.713 126.863 131.155 127.269 130.391C127.674 129.629 128.02 128.797 128.308 127.897C128.596 126.998 128.793 126.092 128.897 125.179C129.001 124.267 128.961 123.483 128.78 122.828C128.334 121.194 127.635 119.913 126.68 118.987C125.725 118.061 124.614 117.42 123.346 117.065C122.077 116.712 120.678 116.636 119.148 116.841C117.618 117.045 116.055 117.447 114.461 118.047C114.461 117.91 114.474 117.768 114.5 117.617C114.525 117.468 114.538 117.311 114.538 117.148C114.538 116.738 114.343 116.385 113.95 116.085C113.558 115.785 113.107 115.608 112.598 115.553C112.087 115.499 111.59 115.614 111.106 115.901C110.622 116.187 110.289 116.712 110.106 117.474C109.897 119.927 109.687 122.475 109.479 125.118C109.269 127.762 109.047 130.432 108.812 133.13C108.576 135.828 108.34 138.505 108.106 141.162C107.87 143.819 107.634 146.374 107.399 148.826C107.478 149.561 107.674 150.134 107.988 150.543C108.301 150.952 108.668 151.197 109.086 151.279C109.504 151.361 109.943 151.285 110.4 151.054C110.857 150.823 111.257 150.42 111.597 149.848C112.643 150.448 113.82 150.835 115.128 151.013C116.435 151.19 117.761 151.19 119.11 151.013C120.456 150.835 121.783 150.502 123.091 150.011C124.398 149.521 125.589 148.908 126.66 148.172C127.733 147.437 128.635 146.598 129.368 145.659C130.099 144.718 130.584 143.703 130.819 142.613C131.054 141.495 131.12 140.379 131.015 139.261C130.91 138.144 130.648 137.109 130.23 136.155Z" fill="#0D0C23"/>
<path fill-rule="evenodd" clip-rule="evenodd" d="M168.503 157.736C168.36 158.636 168.156 159.582 167.895 160.578C167.633 161.571 167.326 162.478 166.974 163.296C166.62 164.114 166.228 164.773 165.797 165.278C165.365 165.782 164.9 165.993 164.403 165.912C164.012 165.856 163.763 165.598 163.659 165.135C163.553 164.672 163.553 164.099 163.659 163.419C163.763 162.736 163.965 161.967 164.266 161.108C164.567 160.25 164.934 159.398 165.365 158.554C165.797 157.708 166.287 156.898 166.836 156.121C167.385 155.345 167.96 154.697 168.562 154.18C168.693 154.344 168.752 154.752 168.738 155.407C168.725 156.061 168.647 156.838 168.503 157.736ZM181.802 139.996C181.449 139.587 181.017 139.357 180.507 139.302C179.997 139.247 179.48 139.546 178.958 140.201C178.618 140.855 178.186 141.482 177.663 142.081C177.14 142.681 176.597 143.225 176.035 143.716C175.472 144.206 174.936 144.629 174.427 144.983C173.917 145.338 173.518 145.596 173.23 145.76C173.126 144.888 173.066 143.948 173.054 142.94C173.04 141.931 173.06 140.91 173.113 139.874C173.19 138.403 173.354 136.917 173.603 135.418C173.852 133.919 174.211 132.448 174.682 131.003C174.682 130.241 174.511 129.621 174.171 129.144C173.831 128.667 173.419 128.367 172.936 128.244C172.452 128.122 171.956 128.19 171.445 128.449C170.935 128.708 170.498 129.179 170.131 129.859C169.818 130.759 169.458 131.767 169.053 132.884C168.647 134.001 168.189 135.139 167.68 136.296C167.169 137.456 166.6 138.579 165.973 139.669C165.345 140.76 164.659 141.727 163.913 142.571C163.168 143.417 162.357 144.078 161.482 144.554C160.604 145.031 159.658 145.242 158.637 145.188C158.166 145.051 157.826 144.684 157.617 144.083C157.408 143.485 157.283 142.735 157.245 141.836C157.206 140.937 157.245 139.949 157.362 138.872C157.48 137.796 157.637 136.726 157.833 135.664C158.029 134.6 158.245 133.592 158.48 132.639C158.715 131.685 158.937 130.881 159.146 130.227C159.461 129.437 159.461 128.775 159.146 128.244C158.833 127.712 158.402 127.359 157.853 127.181C157.304 127.005 156.728 127.012 156.126 127.202C155.525 127.393 155.093 127.815 154.832 128.469C154.387 129.587 153.981 130.84 153.615 132.23C153.249 133.619 152.955 135.058 152.733 136.542C152.511 138.028 152.385 139.5 152.36 140.957C152.358 141.052 152.363 141.142 152.363 141.237C151.792 142.821 151.249 144.018 150.733 144.82C150.066 145.856 149.313 146.305 148.477 146.168C148.109 146.005 147.869 145.624 147.751 145.024C147.632 144.425 147.594 143.689 147.632 142.816C147.672 141.945 147.771 140.957 147.927 139.853C148.085 138.749 148.28 137.606 148.515 136.42C148.751 135.234 149 134.042 149.261 132.843C149.522 131.644 149.757 130.513 149.968 129.45C149.941 128.496 149.673 127.768 149.162 127.263C148.654 126.76 147.94 126.562 147.025 126.671C146.398 126.943 145.933 127.298 145.633 127.734C145.332 128.169 145.089 128.728 144.907 129.409C144.801 129.764 144.645 130.472 144.436 131.535C144.226 132.597 143.959 133.817 143.631 135.193C143.305 136.57 142.919 138.007 142.474 139.505C142.03 141.004 141.533 142.361 140.984 143.573C140.434 144.785 139.833 145.76 139.179 146.496C138.526 147.231 137.819 147.531 137.061 147.395C136.642 147.313 136.374 146.863 136.257 146.046C136.139 145.228 136.12 144.221 136.198 143.021C136.276 141.822 136.433 140.507 136.668 139.077C136.904 137.646 137.145 136.291 137.394 135.009C137.643 133.729 137.872 132.597 138.081 131.617C138.29 130.635 138.434 129.981 138.512 129.655C138.512 128.865 138.341 128.231 138.003 127.754C137.662 127.278 137.251 126.978 136.766 126.855C136.282 126.732 135.785 126.8 135.276 127.059C134.766 127.318 134.328 127.789 133.962 128.469C133.831 129.205 133.66 130.057 133.452 131.024C133.242 131.991 133.04 132.986 132.844 134.008C132.647 135.03 132.464 136.031 132.295 137.012C132.125 137.993 132 138.852 131.922 139.587C131.869 140.16 131.81 140.862 131.746 141.693C131.68 142.525 131.647 143.403 131.647 144.329C131.647 145.256 131.712 146.176 131.844 147.088C131.974 148.001 132.21 148.84 132.549 149.602C132.889 150.365 133.367 150.992 133.982 151.482C134.596 151.973 135.374 152.245 136.316 152.3C137.283 152.354 138.126 152.28 138.846 152.075C139.565 151.87 140.218 151.55 140.808 151.114C141.396 150.679 141.932 150.161 142.416 149.561C142.899 148.962 143.377 148.308 143.847 147.599C144.292 148.635 144.868 149.439 145.574 150.011C146.28 150.583 147.025 150.924 147.81 151.033C148.594 151.141 149.392 151.026 150.203 150.685C151.013 150.344 151.746 149.766 152.399 148.948C152.831 148.446 153.236 147.877 153.618 147.247C153.78 147.541 153.952 147.826 154.145 148.089C154.786 148.962 155.656 149.561 156.755 149.888C157.931 150.215 159.081 150.27 160.206 150.052C161.33 149.834 162.403 149.439 163.422 148.867C164.443 148.294 165.39 147.607 166.267 146.802C167.143 145.998 167.908 145.161 168.562 144.288C168.536 144.915 168.522 145.508 168.522 146.066C168.522 146.625 168.509 147.231 168.484 147.885C167.176 148.84 165.94 149.984 164.777 151.319C163.612 152.654 162.592 154.077 161.716 155.59C160.84 157.102 160.154 158.636 159.658 160.189C159.16 161.742 158.918 163.194 158.931 164.543C158.944 165.892 159.251 167.07 159.853 168.078C160.454 169.087 161.435 169.808 162.795 170.244C164.208 170.708 165.449 170.721 166.523 170.285C167.595 169.848 168.529 169.127 169.327 168.119C170.125 167.111 170.778 165.892 171.289 164.46C171.799 163.03 172.204 161.538 172.505 159.985C172.805 158.432 172.995 156.904 173.073 155.407C173.152 153.908 173.152 152.572 173.073 151.4C175.323 150.42 177.166 149.179 178.605 147.68C180.043 146.183 181.233 144.601 182.174 142.94C182.462 142.53 182.56 142.04 182.469 141.468C182.377 140.896 182.155 140.405 181.802 139.996Z" fill="#0D0C23"/>
<path fill-rule="evenodd" clip-rule="evenodd" d="M231.289 137.381C231.368 136.755 231.486 136.094 231.642 135.399C231.799 134.704 231.995 134.029 232.231 133.375C232.466 132.722 232.741 132.156 233.055 131.679C233.368 131.202 233.702 130.862 234.055 130.657C234.408 130.454 234.767 130.473 235.134 130.718C235.526 130.964 235.767 131.481 235.86 132.272C235.951 133.063 235.86 133.907 235.585 134.806C235.31 135.706 234.82 136.55 234.114 137.341C233.408 138.131 232.453 138.648 231.25 138.893C231.198 138.513 231.211 138.008 231.289 137.381ZM244.882 139.057C244.45 138.921 244.039 138.907 243.646 139.016C243.254 139.125 243.005 139.411 242.901 139.875C242.691 140.747 242.357 141.639 241.9 142.552C241.443 143.465 240.88 144.331 240.214 145.148C239.548 145.965 238.795 146.688 237.959 147.314C237.121 147.941 236.245 148.391 235.33 148.663C234.414 148.963 233.656 148.997 233.055 148.765C232.453 148.535 231.976 148.139 231.623 147.58C231.27 147.022 231.014 146.347 230.858 145.557C230.701 144.767 230.609 143.949 230.583 143.104C232.074 143.213 233.401 142.934 234.565 142.266C235.728 141.599 236.716 140.712 237.527 139.609C238.337 138.506 238.952 137.266 239.37 135.889C239.788 134.514 240.024 133.144 240.076 131.781C240.102 130.5 239.92 129.418 239.527 128.532C239.135 127.647 238.605 126.957 237.938 126.467C237.272 125.977 236.506 125.691 235.644 125.61C234.781 125.527 233.904 125.651 233.015 125.977C231.942 126.358 231.034 126.979 230.289 127.837C229.543 128.695 228.922 129.69 228.425 130.821C227.929 131.952 227.536 133.171 227.249 134.479C226.961 135.788 226.751 137.075 226.621 138.342C226.503 139.479 226.44 140.567 226.418 141.617C226.362 141.75 226.308 141.878 226.248 142.021C225.842 142.989 225.371 143.935 224.836 144.862C224.3 145.789 223.704 146.565 223.051 147.192C222.398 147.819 221.718 148.036 221.012 147.846C220.593 147.737 220.364 147.232 220.325 146.334C220.286 145.434 220.331 144.317 220.462 142.981C220.593 141.647 220.743 140.201 220.913 138.648C221.083 137.095 221.168 135.611 221.168 134.193C221.168 132.967 220.945 131.789 220.501 130.657C220.056 129.527 219.448 128.586 218.677 127.837C217.906 127.087 217.01 126.59 215.99 126.345C214.97 126.099 213.872 126.263 212.695 126.835C211.518 127.407 210.583 128.212 209.89 129.247C209.196 130.283 208.562 131.372 207.987 132.517C207.778 131.645 207.471 130.835 207.065 130.085C206.66 129.336 206.163 128.682 205.575 128.122C204.986 127.564 204.325 127.128 203.594 126.815C202.862 126.502 202.089 126.345 201.279 126.345C200.495 126.345 199.769 126.502 199.102 126.815C198.435 127.128 197.827 127.53 197.277 128.021C196.728 128.512 196.232 129.063 195.787 129.676C195.342 130.289 194.95 130.896 194.61 131.495C194.557 130.787 194.499 130.167 194.434 129.634C194.368 129.104 194.25 128.654 194.081 128.287C193.91 127.919 193.669 127.64 193.355 127.448C193.041 127.258 192.596 127.163 192.021 127.163C191.733 127.163 191.445 127.223 191.158 127.346C190.87 127.469 190.615 127.64 190.393 127.857C190.17 128.076 190.001 128.341 189.883 128.654C189.765 128.968 189.733 129.329 189.785 129.738C189.811 130.038 189.883 130.398 190.001 130.821C190.118 131.243 190.229 131.796 190.334 132.476C190.439 133.158 190.524 133.983 190.589 134.95C190.655 135.917 190.674 137.102 190.648 138.506C190.621 139.91 190.524 141.551 190.354 143.431C190.183 145.312 189.915 147.491 189.549 149.971C189.497 150.543 189.706 151.007 190.178 151.361C190.648 151.715 191.184 151.919 191.786 151.974C192.387 152.028 192.956 151.919 193.492 151.647C194.028 151.374 194.336 150.898 194.414 150.217C194.492 148.936 194.643 147.573 194.865 146.128C195.087 144.685 195.362 143.254 195.689 141.837C196.016 140.42 196.388 139.071 196.807 137.79C197.225 136.509 197.69 135.378 198.2 134.397C198.71 133.416 199.24 132.633 199.789 132.047C200.338 131.462 200.913 131.169 201.515 131.169C202.246 131.169 202.815 131.516 203.221 132.21C203.626 132.906 203.913 133.798 204.084 134.887C204.254 135.978 204.332 137.171 204.32 138.465C204.306 139.759 204.254 141.005 204.163 142.205C204.071 143.404 203.966 144.473 203.849 145.414C203.731 146.354 203.646 147.001 203.594 147.355C203.594 147.982 203.822 148.479 204.28 148.847C204.737 149.215 205.247 149.433 205.81 149.501C206.373 149.57 206.901 149.46 207.399 149.174C207.895 148.887 208.183 148.405 208.262 147.723C208.523 145.761 208.883 143.792 209.34 141.817C209.798 139.841 210.322 138.07 210.91 136.503C211.498 134.936 212.152 133.655 212.871 132.66C213.59 131.666 214.355 131.169 215.166 131.169C215.584 131.169 215.905 131.469 216.127 132.068C216.349 132.667 216.461 133.484 216.461 134.52C216.461 135.283 216.402 136.067 216.285 136.871C216.166 137.674 216.029 138.506 215.872 139.364C215.715 140.222 215.578 141.101 215.46 142C215.343 142.9 215.284 143.84 215.284 144.821C215.284 145.502 215.349 146.293 215.48 147.192C215.61 148.09 215.858 148.943 216.225 149.746C216.592 150.551 217.095 151.231 217.736 151.789C218.377 152.348 219.193 152.628 220.187 152.628C221.678 152.628 222.998 152.294 224.149 151.627C225.3 150.959 226.287 150.088 227.111 149.011C227.154 148.954 227.193 148.894 227.235 148.838C227.298 148.998 227.354 149.166 227.425 149.318C227.987 150.516 228.752 151.443 229.72 152.097C230.687 152.751 231.825 153.112 233.134 153.18C234.44 153.248 235.866 152.996 237.41 152.424C238.559 151.988 239.56 151.443 240.41 150.789C241.259 150.134 242.024 149.337 242.704 148.397C243.385 147.457 244.005 146.374 244.568 145.148C245.131 143.921 245.699 142.518 246.274 140.937C246.379 140.502 246.281 140.113 245.98 139.772C245.679 139.433 245.314 139.194 244.882 139.057Z" fill="#0D0C23"/>
<path fill-rule="evenodd" clip-rule="evenodd" d="M266.202 134.497C266.071 135.301 265.895 136.188 265.673 137.155C265.45 138.123 265.169 139.123 264.829 140.159C264.489 141.195 264.071 142.128 263.574 142.959C263.077 143.791 262.508 144.451 261.868 144.942C261.226 145.432 260.488 145.636 259.651 145.555C259.232 145.501 258.912 145.201 258.69 144.655C258.467 144.11 258.35 143.416 258.336 142.571C258.323 141.726 258.395 140.8 258.552 139.791C258.71 138.784 258.951 137.795 259.279 136.827C259.606 135.861 260.004 134.968 260.474 134.15C260.946 133.333 261.488 132.699 262.103 132.25C262.717 131.799 263.391 131.589 264.123 131.616C264.855 131.643 265.64 132.025 266.477 132.76C266.424 133.115 266.333 133.694 266.202 134.497ZM280.148 137.624C279.742 137.407 279.324 137.359 278.893 137.482C278.461 137.604 278.154 138.02 277.971 138.728C277.867 139.492 277.631 140.391 277.265 141.426C276.899 142.462 276.447 143.444 275.912 144.369C275.375 145.296 274.761 146.066 274.068 146.679C273.375 147.293 272.636 147.572 271.852 147.516C271.197 147.463 270.739 147.115 270.479 146.474C270.216 145.834 270.08 145.031 270.066 144.062C270.053 143.096 270.145 142.006 270.341 140.793C270.537 139.581 270.773 138.375 271.047 137.175C271.322 135.977 271.603 134.824 271.891 133.721C272.178 132.618 272.413 131.684 272.597 130.922C272.806 130.24 272.74 129.661 272.401 129.184C272.061 128.707 271.636 128.366 271.126 128.162C270.616 127.958 270.098 127.903 269.576 127.999C269.053 128.095 268.713 128.388 268.556 128.877C267.013 127.487 265.529 126.738 264.104 126.629C262.678 126.52 261.364 126.848 260.161 127.61C258.957 128.373 257.892 129.477 256.964 130.922C256.036 132.367 255.284 133.939 254.708 135.643C254.132 137.345 253.773 139.083 253.629 140.854C253.485 142.625 253.596 144.241 253.963 145.698C254.33 147.156 254.976 148.349 255.905 149.274C256.833 150.2 258.095 150.664 259.691 150.664C260.397 150.664 261.077 150.515 261.73 150.215C262.383 149.915 262.986 149.561 263.535 149.152C264.084 148.743 264.567 148.314 264.987 147.864C265.404 147.414 265.732 147.041 265.967 146.74C266.15 147.721 266.451 148.553 266.87 149.234C267.287 149.915 267.765 150.474 268.301 150.909C268.837 151.345 269.4 151.665 269.988 151.87C270.576 152.074 271.146 152.177 271.694 152.177C272.924 152.177 274.073 151.74 275.147 150.868C276.219 149.997 277.18 148.927 278.03 147.66C278.88 146.392 279.58 145.058 280.128 143.654C280.678 142.251 281.044 141.004 281.227 139.914C281.41 139.505 281.377 139.076 281.129 138.627C280.88 138.177 280.554 137.844 280.148 137.624Z" fill="#0D0C23"/>
<path fill-rule="evenodd" clip-rule="evenodd" d="M350.761 160.191C350.539 161.117 350.192 161.902 349.721 162.542C349.25 163.182 348.662 163.515 347.956 163.543C347.511 163.57 347.171 163.325 346.935 162.808C346.701 162.289 346.537 161.622 346.445 160.805C346.354 159.986 346.314 159.073 346.327 158.065C346.341 157.058 346.38 156.062 346.445 155.081C346.51 154.101 346.589 153.187 346.681 152.343C346.772 151.497 346.844 150.845 346.896 150.381C347.786 150.49 348.525 150.892 349.113 151.587C349.701 152.282 350.153 153.106 350.466 154.06C350.78 155.013 350.963 156.043 351.016 157.146C351.067 158.249 350.982 159.265 350.761 160.191ZM336.56 160.191C336.338 161.117 335.991 161.902 335.52 162.542C335.05 163.182 334.461 163.515 333.755 163.543C333.31 163.57 332.971 163.325 332.735 162.808C332.5 162.289 332.336 161.622 332.245 160.805C332.153 159.986 332.113 159.073 332.127 158.065C332.139 157.058 332.179 156.062 332.245 155.081C332.31 154.101 332.388 153.187 332.48 152.343C332.572 151.497 332.643 150.845 332.696 150.381C333.584 150.49 334.324 150.892 334.912 151.587C335.501 152.282 335.952 153.106 336.266 154.06C336.58 155.013 336.762 156.043 336.815 157.146C336.866 158.249 336.781 159.265 336.56 160.191ZM321.987 136.974C321.96 137.628 321.901 138.207 321.809 138.711C321.718 139.216 321.594 139.535 321.437 139.672C321.149 139.508 320.796 139.087 320.378 138.404C319.959 137.723 319.633 136.953 319.397 136.094C319.162 135.236 319.089 134.393 319.181 133.56C319.272 132.73 319.685 132.083 320.417 131.619C320.704 131.455 320.953 131.516 321.162 131.803C321.372 132.089 321.541 132.505 321.673 133.05C321.803 133.595 321.894 134.221 321.947 134.93C321.999 135.639 322.012 136.319 321.987 136.974ZM318.514 145.128C318.109 145.578 317.657 145.966 317.161 146.294C316.664 146.621 316.154 146.865 315.631 147.029C315.107 147.193 314.637 147.234 314.219 147.152C313.042 146.907 312.14 146.375 311.512 145.558C310.885 144.741 310.485 143.78 310.316 142.676C310.146 141.572 310.164 140.393 310.375 139.14C310.583 137.887 310.936 136.722 311.434 135.645C311.93 134.569 312.532 133.642 313.238 132.866C313.944 132.089 314.715 131.606 315.552 131.414C315.238 132.804 315.134 134.242 315.238 135.727C315.343 137.212 315.683 138.609 316.259 139.916C316.624 140.708 317.063 141.429 317.573 142.083C318.083 142.738 318.704 143.296 319.437 143.76C319.227 144.223 318.919 144.679 318.514 145.128ZM361.921 137.383C362 136.756 362.117 136.094 362.275 135.4C362.431 134.705 362.627 134.031 362.862 133.377C363.098 132.723 363.373 132.157 363.687 131.681C364.001 131.204 364.333 130.863 364.687 130.658C365.04 130.454 365.399 130.474 365.765 130.72C366.158 130.966 366.399 131.483 366.491 132.272C366.583 133.064 366.491 133.908 366.217 134.807C365.942 135.707 365.452 136.552 364.746 137.341C364.04 138.133 363.085 138.65 361.882 138.895C361.83 138.514 361.843 138.01 361.921 137.383ZM377.731 137.383C377.809 136.756 377.926 136.094 378.084 135.4C378.241 134.705 378.437 134.031 378.673 133.377C378.907 132.723 379.182 132.157 379.496 131.681C379.81 131.204 380.144 130.863 380.496 130.658C380.85 130.454 381.209 130.474 381.575 130.72C381.968 130.966 382.209 131.483 382.301 132.272C382.392 133.064 382.301 133.908 382.027 134.807C381.752 135.707 381.261 136.552 380.555 137.341C379.849 138.133 378.894 138.65 377.692 138.895C377.639 138.514 377.652 138.01 377.731 137.383ZM392.422 139.774C392.121 139.434 391.755 139.195 391.324 139.058C390.892 138.922 390.48 138.909 390.088 139.018C389.696 139.127 389.446 139.413 389.342 139.876C389.133 140.748 388.8 141.641 388.342 142.553C387.884 143.467 387.322 144.331 386.655 145.149C385.988 145.966 385.236 146.689 384.4 147.315C383.562 147.942 382.687 148.392 381.772 148.664C380.856 148.964 380.097 148.999 379.496 148.766C378.894 148.535 378.417 148.14 378.064 147.581C377.711 147.023 377.457 146.348 377.299 145.558C377.143 144.768 377.05 143.95 377.025 143.105C378.516 143.215 379.843 142.936 381.006 142.267C382.17 141.599 383.157 140.713 383.969 139.61C384.779 138.507 385.393 137.267 385.812 135.891C386.23 134.514 386.465 133.146 386.519 131.782C386.544 130.502 386.361 129.419 385.969 128.533C385.577 127.648 385.047 126.959 384.381 126.469C383.713 125.978 382.949 125.692 382.085 125.611C381.222 125.528 380.346 125.651 379.456 125.978C378.384 126.36 377.476 126.979 376.731 127.838C375.986 128.697 375.364 129.692 374.867 130.822C374.37 131.953 373.978 133.172 373.69 134.48C373.402 135.788 373.193 137.076 373.063 138.343C372.935 139.573 372.867 140.749 372.851 141.876C372.752 142.1 372.646 142.326 372.533 142.553C372.074 143.467 371.512 144.331 370.846 145.149C370.179 145.966 369.427 146.689 368.59 147.315C367.753 147.942 366.877 148.392 365.962 148.664C365.046 148.964 364.288 148.999 363.687 148.766C363.085 148.535 362.608 148.14 362.255 147.581C361.902 147.023 361.647 146.348 361.49 145.558C361.333 144.768 361.241 143.95 361.215 143.105C362.706 143.215 364.033 142.936 365.197 142.267C366.36 141.599 367.348 140.713 368.158 139.61C368.969 138.507 369.584 137.267 370.002 135.891C370.42 134.514 370.657 133.146 370.708 131.782C370.734 130.502 370.552 129.419 370.16 128.533C369.767 127.648 369.237 126.959 368.57 126.469C367.903 125.978 367.139 125.692 366.276 125.611C365.413 125.528 364.536 125.651 363.648 125.978C362.574 126.36 361.666 126.979 360.921 127.838C360.176 128.697 359.554 129.692 359.057 130.822C358.561 131.953 358.169 133.172 357.881 134.48C357.593 135.788 357.383 137.076 357.253 138.343C357.179 139.058 357.13 139.75 357.093 140.431C356.84 140.655 356.594 140.88 356.331 141.102C355.429 141.865 354.48 142.553 353.487 143.166C352.493 143.78 351.459 144.284 350.388 144.679C349.315 145.074 348.217 145.312 347.093 145.394L349.525 118.252C349.682 117.68 349.604 117.176 349.289 116.74C348.976 116.304 348.57 116.005 348.074 115.841C347.577 115.677 347.047 115.691 346.485 115.882C345.922 116.073 345.459 116.509 345.092 117.189C344.909 118.225 344.719 119.642 344.523 121.441C344.327 123.239 344.131 125.201 343.935 127.327C343.739 129.453 343.542 131.647 343.347 133.908C343.15 136.171 342.98 138.282 342.836 140.244C342.83 140.331 342.825 140.41 342.818 140.496C342.589 140.698 342.367 140.901 342.13 141.102C341.228 141.865 340.279 142.553 339.286 143.166C338.292 143.78 337.259 144.284 336.187 144.679C335.115 145.074 334.016 145.312 332.891 145.394L335.324 118.252C335.481 117.68 335.403 117.176 335.089 116.74C334.775 116.304 334.369 116.005 333.872 115.841C333.376 115.677 332.846 115.691 332.284 115.882C331.721 116.073 331.257 116.509 330.891 117.189C330.708 118.225 330.519 119.642 330.323 121.441C330.126 123.239 329.93 125.201 329.734 127.327C329.538 129.453 329.342 131.647 329.146 133.908C328.95 136.171 328.779 138.282 328.636 140.244C328.633 140.283 328.63 140.319 328.627 140.358C328.216 140.557 327.769 140.731 327.282 140.878C326.785 141.027 326.223 141.117 325.595 141.144C325.7 140.653 325.784 140.107 325.85 139.508C325.915 138.909 325.968 138.282 326.008 137.628C326.047 136.974 326.059 136.319 326.047 135.666C326.033 135.011 326 134.412 325.949 133.867C325.817 132.696 325.576 131.585 325.223 130.535C324.87 129.487 324.393 128.608 323.791 127.899C323.189 127.191 322.438 126.713 321.535 126.469C320.633 126.223 319.58 126.305 318.378 126.713C316.598 126.469 314.997 126.64 313.572 127.225C312.146 127.812 310.91 128.662 309.864 129.779C308.819 130.898 307.962 132.212 307.295 133.724C306.628 135.236 306.183 136.79 305.961 138.384C305.867 139.06 305.821 139.732 305.807 140.403C305.402 141.267 304.959 142.022 304.47 142.656C303.777 143.555 303.058 144.291 302.313 144.862C301.567 145.435 300.829 145.871 300.097 146.171C299.364 146.471 298.71 146.676 298.135 146.784C297.455 146.92 296.801 146.934 296.174 146.825C295.546 146.717 294.97 146.403 294.448 145.884C294.029 145.504 293.708 144.89 293.487 144.045C293.264 143.201 293.134 142.241 293.095 141.163C293.055 140.087 293.095 138.963 293.212 137.791C293.33 136.62 293.532 135.509 293.82 134.46C294.108 133.411 294.473 132.47 294.919 131.639C295.362 130.809 295.886 130.215 296.488 129.861C296.827 129.916 297.037 130.127 297.115 130.494C297.194 130.863 297.213 131.299 297.174 131.803C297.135 132.308 297.076 132.825 296.998 133.356C296.919 133.888 296.88 134.331 296.88 134.685C297.011 135.42 297.265 135.993 297.645 136.401C298.024 136.81 298.449 137.049 298.92 137.116C299.39 137.185 299.854 137.07 300.313 136.769C300.77 136.47 301.142 135.993 301.431 135.338C301.456 135.366 301.495 135.379 301.548 135.379L302.098 130.188C302.254 129.48 302.149 128.853 301.783 128.308C301.417 127.763 300.933 127.45 300.332 127.368C299.573 126.223 298.547 125.617 297.252 125.549C295.958 125.481 294.631 125.924 293.271 126.878C292.434 127.505 291.695 128.37 291.054 129.473C290.413 130.577 289.891 131.803 289.486 133.152C289.079 134.501 288.792 135.925 288.622 137.424C288.452 138.922 288.419 140.381 288.523 141.797C288.628 143.215 288.87 144.55 289.25 145.803C289.629 147.057 290.158 148.106 290.839 148.95C291.414 149.686 292.067 150.224 292.799 150.565C293.532 150.906 294.297 151.117 295.094 151.199C295.892 151.28 296.683 151.245 297.468 151.096C298.253 150.947 298.998 150.736 299.704 150.462C300.619 150.109 301.562 149.659 302.529 149.114C303.496 148.569 304.425 147.915 305.314 147.152C305.782 146.75 306.232 146.312 306.667 145.844C306.865 146.356 307.087 146.852 307.354 147.315C308.06 148.541 309.014 149.536 310.218 150.3C311.42 151.062 312.898 151.43 314.65 151.403C316.534 151.376 318.272 150.879 319.868 149.911C321.463 148.945 322.771 147.519 323.791 145.64C325.319 145.64 326.822 145.377 328.3 144.856C328.287 145.021 328.274 145.195 328.263 145.353C328.159 146.798 328.106 147.779 328.106 148.297C328.08 149.196 328.021 150.306 327.93 151.628C327.838 152.949 327.779 154.339 327.753 155.796C327.728 157.254 327.779 158.726 327.91 160.211C328.041 161.697 328.315 163.046 328.734 164.259C329.151 165.47 329.746 166.5 330.519 167.346C331.289 168.189 332.303 168.694 333.559 168.857C334.893 169.047 336.043 168.802 337.011 168.121C337.978 167.44 338.763 166.507 339.365 165.321C339.967 164.136 340.39 162.767 340.64 161.214C340.888 159.66 340.96 158.1 340.856 156.532C340.75 154.966 340.476 153.487 340.031 152.098C339.587 150.708 338.972 149.563 338.188 148.664C338.659 148.528 339.22 148.27 339.875 147.887C340.528 147.506 341.201 147.077 341.895 146.6C342.065 146.483 342.233 146.359 342.403 146.239C342.339 147.204 342.307 147.893 342.307 148.297C342.281 149.196 342.222 150.306 342.13 151.628C342.039 152.949 341.98 154.339 341.954 155.796C341.928 157.254 341.98 158.726 342.111 160.211C342.241 161.697 342.516 163.046 342.934 164.259C343.352 165.47 343.948 166.5 344.719 167.346C345.49 168.189 346.504 168.694 347.76 168.857C349.093 169.047 350.243 168.802 351.211 168.121C352.179 167.44 352.964 166.507 353.565 165.321C354.167 164.136 354.592 162.767 354.84 161.214C355.089 159.66 355.16 158.1 355.056 156.532C354.952 154.966 354.677 153.487 354.233 152.098C353.787 150.708 353.174 149.563 352.388 148.664C352.859 148.528 353.421 148.27 354.075 147.887C354.729 147.506 355.402 147.077 356.096 146.6C356.456 146.352 356.814 146.096 357.171 145.834C357.306 147.166 357.595 148.335 358.057 149.319C358.62 150.518 359.384 151.444 360.352 152.098C361.319 152.752 362.457 153.113 363.765 153.181C365.073 153.248 366.497 152.997 368.041 152.424C369.192 151.989 370.192 151.444 371.042 150.79C371.891 150.135 372.656 149.338 373.337 148.399C373.376 148.344 373.413 148.285 373.452 148.23C373.573 148.612 373.707 148.979 373.866 149.319C374.429 150.518 375.194 151.444 376.162 152.098C377.129 152.752 378.267 153.113 379.574 153.181C380.882 153.248 382.307 152.997 383.85 152.424C385.002 151.989 386.001 151.444 386.852 150.79C387.701 150.135 388.466 149.338 389.147 148.399C389.827 147.458 390.447 146.375 391.01 145.149C391.572 143.922 392.141 142.52 392.717 140.938C392.821 140.503 392.722 140.114 392.422 139.774Z" fill="#0D0C23"/>
<path d="M111.552 99.0634H107.145V84.7818H111.747C113.133 84.7818 114.318 85.0677 115.303 85.6395C116.289 86.2066 117.045 87.0225 117.57 88.0871C118.095 89.1471 118.358 90.4163 118.358 91.8947C118.358 93.3824 118.093 94.6632 117.563 95.7371C117.033 96.8064 116.262 97.6293 115.248 98.2057C114.234 98.7775 113.003 99.0634 111.552 99.0634ZM108.874 97.5293H111.441C112.621 97.5293 113.6 97.3015 114.376 96.8459C115.153 96.3903 115.731 95.7417 116.113 94.9002C116.494 94.0588 116.685 93.0569 116.685 91.8947C116.685 90.7417 116.496 89.7492 116.119 88.917C115.743 88.0802 115.181 87.4386 114.432 86.9924C113.683 86.5414 112.751 86.3159 111.635 86.3159H108.874V97.5293ZM133.309 91.9226C133.309 93.4288 133.038 94.7305 132.493 95.8278C131.949 96.9249 131.203 97.7711 130.255 98.3661C129.306 98.9612 128.223 99.2587 127.005 99.2587C125.787 99.2587 124.704 98.9612 123.756 98.3661C122.807 97.7711 122.061 96.9249 121.517 95.8278C120.973 94.7305 120.701 93.4288 120.701 91.9226C120.701 90.4163 120.973 89.1146 121.517 88.0174C122.061 86.9203 122.807 86.0741 123.756 85.4791C124.704 84.884 125.787 84.5865 127.005 84.5865C128.223 84.5865 129.306 84.884 130.255 85.4791C131.203 86.0741 131.949 86.9203 132.493 88.0174C133.038 89.1146 133.309 90.4163 133.309 91.9226ZM131.635 91.9226C131.635 90.686 131.429 89.6423 131.015 88.7915C130.606 87.9407 130.05 87.2968 129.348 86.8598C128.651 86.4228 127.87 86.2043 127.005 86.2043C126.141 86.2043 125.357 86.4228 124.655 86.8598C123.958 87.2968 123.402 87.9407 122.988 88.7915C122.579 89.6423 122.374 90.686 122.374 91.9226C122.374 93.1592 122.579 94.203 122.988 95.0537C123.402 95.9044 123.958 96.5483 124.655 96.9853C125.357 97.4223 126.141 97.6409 127.005 97.6409C127.87 97.6409 128.651 97.4223 129.348 96.9853C130.05 96.5483 130.606 95.9044 131.015 95.0537C131.429 94.203 131.635 93.1592 131.635 91.9226ZM147.542 84.7818V99.0634H145.868L138.086 87.8501H137.947V99.0634H136.217V84.7818H137.89L145.701 96.023H145.84V84.7818H147.542ZM151.588 99.0634H149.775L155.019 84.7818H156.804L162.048 99.0634H160.235L155.967 87.0411H155.856L151.588 99.0634ZM152.258 93.4846H159.566V95.0188H152.258V93.4846ZM161.823 86.3159V84.7818H172.535V86.3159H168.044V99.0634H166.315V86.3159H161.823ZM175.204 99.0634V84.7818H183.823V86.3159H176.934V91.1416H183.377V92.6757H176.934V97.5293H183.935V99.0634H175.204ZM195.058 99.0634L191.153 84.7818H192.91L195.894 96.4135H196.034L199.075 84.7818H201.027L204.067 96.4135H204.207L207.191 84.7818H208.949L205.044 99.0634H203.258L200.106 87.6827H199.995L196.843 99.0634H195.058ZM212.833 84.7818V99.0634H211.103V84.7818H212.833ZM215.519 86.3159V84.7818H226.231V86.3159H221.74V99.0634H220.011V86.3159H215.519ZM228.9 99.0634V84.7818H230.629V91.1416H238.245V84.7818H239.974V99.0634H238.245V92.6757H230.629V99.0634H228.9Z" fill="black" fill-opacity="0.55"/>
</svg>
