<svg width="450" height="250" viewBox="0 0 450 250" fill="none" xmlns="http://www.w3.org/2000/svg">
<path d="M450 51H0V199H450V51Z" fill="#FFDD00"/>
<path d="M79.1928 101.382L79.1296 101.345L78.9824 101.3C79.0418 101.35 79.1154 101.379 79.1928 101.382Z" fill="#0D0C22"/>
<path d="M79.2087 101.368C79.1997 101.367 79.1917 101.365 79.1837 101.362C79.1827 101.368 79.1827 101.373 79.1837 101.379C79.1927 101.378 79.2007 101.374 79.2087 101.368Z" fill="#0D0C22"/>
<path d="M79.1827 101.381H79.1957V101.373L79.1827 101.381Z" fill="#0D0C22"/>
<path d="M80.0095 107.636L80.1202 107.573L80.1613 107.55L80.1985 107.51C80.129 107.54 80.0644 107.583 80.0095 107.636Z" fill="#0D0C22"/>
<path d="M79.3694 101.528L79.2607 101.424L79.1873 101.385C79.2274 101.454 79.292 101.506 79.3694 101.528Z" fill="#0D0C22"/>
<path d="M57.3659 121.468C54.2192 122.815 50.6482 124.343 46.0201 124.343C44.084 124.339 42.1573 124.073 40.2924 123.553L43.4933 156.417C43.6066 157.79 44.2324 159.071 45.2463 160.004C46.2602 160.938 47.5881 161.456 48.9664 161.456C48.9664 161.456 53.505 161.692 55.0194 161.692C56.6493 161.692 61.5367 161.456 61.5367 161.456C62.9148 161.456 64.2424 160.938 65.2561 160.004C66.2698 159.07 66.8954 157.79 67.0087 156.417L70.437 120.101C68.905 119.578 67.3587 119.23 65.6156 119.23C62.6009 119.229 60.172 120.267 57.3659 121.468Z" fill="white"/>
<path d="M30.3892 107.448L30.4498 107.504L30.4893 107.528C30.4589 107.498 30.4253 107.471 30.3892 107.448Z" fill="#0D0C22"/>
<path d="M85.2446 104.415L84.7633 101.983C84.3303 99.8018 83.3488 97.7405 81.1095 96.952C80.392 96.6998 79.577 96.5914 79.0268 96.0694C78.4766 95.5473 78.3138 94.7364 78.1867 93.9845C77.9514 92.6044 77.7296 91.2232 77.488 89.8455C77.2796 88.6611 77.1141 87.3305 76.571 86.2439C75.8642 84.7848 74.397 83.9316 72.9378 83.3671C72.1899 83.088 71.4268 82.8519 70.6524 82.66C67.0071 81.6982 63.1746 81.3447 59.4244 81.1432C54.9232 80.8948 50.41 80.9696 45.9195 81.3671C42.5772 81.6711 39.057 82.0389 35.8808 83.195C34.7199 83.6181 33.5238 84.126 32.641 85.0229C31.5579 86.1248 31.2044 87.8291 31.9952 89.2031C32.5574 90.179 33.5096 90.8684 34.5196 91.3245C35.8352 91.9122 37.2091 92.3594 38.6185 92.6586C42.543 93.5261 46.6079 93.8667 50.6172 94.0116C55.061 94.191 59.5121 94.0456 63.9347 93.5767C65.0284 93.4566 66.1201 93.3123 67.2099 93.1442C68.4932 92.9474 69.317 91.2691 68.9388 90.1C68.4862 88.7023 67.27 88.1602 65.8946 88.3711C65.6919 88.403 65.4904 88.4324 65.2876 88.4619L65.1415 88.4831C64.6756 88.542 64.2097 88.597 63.7437 88.6481C62.7813 88.7518 61.8165 88.8367 60.8493 88.9026C58.6832 89.0535 56.5111 89.1231 54.3402 89.1266C52.2071 89.1266 50.0727 89.0664 47.9443 88.9262C46.9732 88.8625 46.0044 88.7817 45.038 88.6834C44.5984 88.6375 44.16 88.5891 43.7216 88.5349L43.3044 88.4819L43.2137 88.469L42.7811 88.4065C41.8972 88.2733 41.0133 88.1201 40.1389 87.9351C40.0506 87.9155 39.9716 87.8664 39.9151 87.796C39.8586 87.7255 39.8277 87.6377 39.8277 87.5473C39.8277 87.457 39.8586 87.3693 39.9151 87.2988C39.9716 87.2283 40.0506 87.1792 40.1389 87.1596H40.1553C40.9132 86.9981 41.6768 86.8602 42.4428 86.74C42.6983 86.7 42.9544 86.6606 43.2113 86.6222H43.2183C43.698 86.5903 44.1801 86.5043 44.6574 86.4477C48.8101 86.0158 52.9876 85.8685 57.1605 86.007C59.1863 86.0659 61.2111 86.185 63.2275 86.39C63.6613 86.4348 64.0927 86.482 64.524 86.5349C64.6889 86.555 64.8552 86.5786 65.0213 86.5986L65.356 86.647C66.3319 86.7922 67.3026 86.9687 68.2682 87.1761C69.699 87.4872 71.5359 87.5886 72.1729 89.1561C72.3751 89.6534 72.4673 90.2061 72.5791 90.7282L72.7222 91.394C72.7258 91.406 72.7285 91.4183 72.7303 91.4306C73.0676 93.002 73.4049 94.5733 73.7421 96.1448C73.7672 96.2608 73.7681 96.3808 73.7439 96.4971C73.7207 96.6134 73.6732 96.7236 73.6053 96.8208C73.5373 96.918 73.4496 97.0002 73.3485 97.0621C73.2474 97.124 73.1338 97.1643 73.0166 97.1807H73.0067L72.801 97.209L72.597 97.2361C71.9511 97.3202 71.3042 97.3987 70.657 97.4718C69.3819 97.6171 68.1048 97.7429 66.8256 97.8489C64.2839 98.0603 61.7371 98.199 59.1852 98.2649C57.8849 98.2995 56.585 98.3157 55.2854 98.3132C50.1128 98.3092 44.9447 98.0086 39.8065 97.4129C39.2502 97.3468 38.694 97.2762 38.1377 97.2042C38.569 97.2597 37.8242 97.1618 37.6734 97.1406C37.3198 97.0912 36.9663 97.0397 36.6127 96.9862C35.4259 96.8083 34.2462 96.5891 33.0618 96.397C31.6298 96.1613 30.2603 96.2792 28.9652 96.9862C27.902 97.568 27.0415 98.4602 26.4984 99.5436C25.9398 100.699 25.7737 101.956 25.5238 103.197C25.2739 104.438 24.885 105.773 25.0324 107.047C25.3494 109.797 27.2716 112.031 30.0364 112.531C32.6374 113.003 35.2527 113.384 37.8749 113.71C48.1756 114.971 58.5822 115.122 68.9152 114.16C69.7567 114.081 70.597 113.996 71.4357 113.903C71.6979 113.874 71.9636 113.904 72.2123 113.991C72.461 114.078 72.6873 114.22 72.8743 114.406C73.0613 114.591 73.2053 114.817 73.2939 115.065C73.3825 115.313 73.4147 115.578 73.3879 115.841L73.1257 118.384C72.5988 123.523 72.0718 128.662 71.5449 133.8C70.9947 139.196 70.441 144.592 69.884 149.987C69.7268 151.507 69.5697 153.026 69.4125 154.545C69.2617 156.04 69.2404 157.583 68.9564 159.061C68.5086 161.385 66.9352 162.813 64.6395 163.334C62.5362 163.813 60.3876 164.064 58.2306 164.084C55.8394 164.097 53.4492 163.991 51.058 164.003C48.5053 164.018 45.3786 163.782 43.4081 161.882C41.6768 160.214 41.4376 157.6 41.2019 155.342C40.8876 152.351 40.5761 149.36 40.2673 146.369L38.5348 129.741L37.414 118.982C37.3952 118.804 37.3764 118.629 37.3587 118.45C37.2244 117.166 36.3157 115.91 34.8838 115.975C33.658 116.029 32.2651 117.071 32.4088 118.45L33.2397 126.426L34.958 142.926C35.4475 147.613 35.9358 152.3 36.4229 156.988C36.5172 157.886 36.6056 158.787 36.7046 159.684C37.2432 164.592 40.9909 167.237 45.632 167.981C48.3427 168.418 51.1193 168.507 53.87 168.552C57.3961 168.608 60.9577 168.744 64.4262 168.105C69.5657 167.162 73.4218 163.731 73.9721 158.407C74.1295 156.87 74.287 155.333 74.4435 153.796C74.966 148.71 75.4876 143.625 76.0092 138.539L77.7126 121.922L78.4945 114.306C78.533 113.928 78.6931 113.573 78.949 113.293C79.2057 113.013 79.5457 112.823 79.9179 112.752C81.3878 112.465 82.7924 111.976 83.8382 110.858C85.5023 109.077 85.8333 106.755 85.2446 104.415ZM29.961 106.057C29.9834 106.047 29.9421 106.239 29.9245 106.329C29.9209 106.193 29.928 106.073 29.961 106.057ZM30.1036 107.161C30.1154 107.152 30.1508 107.199 30.1873 107.256C30.1319 107.204 30.0965 107.165 30.1024 107.161H30.1036ZM30.2439 107.346C30.3216 107.486 30.2945 107.432 30.2439 107.346ZM30.5255 107.574H30.5326C30.5326 107.582 30.5456 107.591 30.5503 107.599C30.5424 107.59 30.5338 107.582 30.5244 107.574H30.5255ZM79.8499 107.232C79.322 107.734 78.5258 107.968 77.7403 108.085C68.9246 109.393 59.9807 110.055 51.0686 109.763C44.6904 109.545 38.3793 108.836 32.0647 107.944C31.4459 107.857 30.7754 107.744 30.3499 107.288C29.5485 106.428 29.9421 104.695 30.1508 103.656C30.3417 102.703 30.707 101.434 31.8396 101.298C33.6074 101.091 35.6604 101.837 37.4094 102.102C39.515 102.424 41.6285 102.681 43.7499 102.874C52.8034 103.699 62.0089 103.571 71.0224 102.364C72.665 102.143 74.3022 101.887 75.9331 101.594C77.3869 101.334 78.9973 100.845 79.8758 102.35C80.4779 103.375 80.5576 104.747 80.4645 105.905C80.4359 106.41 80.2158 106.885 79.8481 107.232H79.8499Z" fill="#0D0C22"/>
<path fill-rule="evenodd" clip-rule="evenodd" d="M133.32 131.726C132.806 132.709 132.098 133.564 131.197 134.29C130.297 135.017 129.246 135.608 128.045 136.064C126.844 136.52 125.635 136.827 124.42 136.983C123.205 137.139 122.025 137.126 120.882 136.94C119.738 136.755 118.765 136.378 117.965 135.807L118.867 126.448C119.695 126.163 120.738 125.871 121.997 125.572C123.255 125.273 124.548 125.059 125.879 124.931C127.209 124.802 128.466 124.817 129.653 124.973C130.84 125.13 131.776 125.507 132.462 126.106C132.835 126.448 133.15 126.818 133.406 127.217C133.664 127.616 133.821 128.029 133.879 128.457C134.021 129.653 133.836 130.743 133.32 131.726ZM120.238 111.789C120.838 111.418 121.561 111.09 122.404 110.805C123.248 110.521 124.113 110.321 124.999 110.207C125.885 110.094 126.75 110.079 127.595 110.164C128.437 110.25 129.182 110.485 129.825 110.869C130.468 111.254 130.947 111.81 131.262 112.536C131.576 113.263 131.662 114.182 131.519 115.293C131.405 116.176 131.053 116.924 130.468 117.537C129.882 118.15 129.167 118.662 128.324 119.075C127.48 119.489 126.586 119.817 125.643 120.058C124.699 120.301 123.791 120.479 122.919 120.592C122.047 120.707 121.289 120.778 120.646 120.806C120.003 120.835 119.58 120.849 119.38 120.849L120.238 111.789ZM137.953 125.678C137.496 124.682 136.881 123.806 136.109 123.05C135.337 122.295 134.421 121.747 133.363 121.405C133.821 121.034 134.271 120.45 134.715 119.652C135.158 118.855 135.536 117.986 135.851 117.045C136.165 116.105 136.381 115.158 136.495 114.203C136.608 113.249 136.565 112.43 136.367 111.745C135.879 110.036 135.115 108.697 134.071 107.728C133.027 106.76 131.812 106.09 130.425 105.719C129.038 105.35 127.509 105.271 125.836 105.485C124.163 105.698 122.454 106.118 120.71 106.745C120.71 106.603 120.725 106.454 120.753 106.297C120.781 106.141 120.795 105.976 120.795 105.805C120.795 105.378 120.582 105.008 120.152 104.694C119.724 104.381 119.231 104.196 118.673 104.138C118.115 104.082 117.572 104.202 117.042 104.502C116.514 104.801 116.149 105.35 115.949 106.147C115.72 108.711 115.491 111.376 115.263 114.139C115.034 116.903 114.791 119.695 114.534 122.516C114.276 125.337 114.018 128.136 113.762 130.914C113.504 133.692 113.246 136.363 112.99 138.927C113.075 139.696 113.289 140.295 113.633 140.722C113.975 141.15 114.376 141.407 114.833 141.492C115.291 141.577 115.77 141.498 116.27 141.256C116.77 141.015 117.207 140.594 117.579 139.996C118.722 140.623 120.01 141.029 121.44 141.214C122.869 141.399 124.319 141.399 125.794 141.214C127.265 141.029 128.717 140.68 130.146 140.167C131.576 139.654 132.878 139.013 134.05 138.244C135.222 137.474 136.208 136.598 137.01 135.615C137.81 134.632 138.339 133.571 138.596 132.431C138.854 131.263 138.925 130.095 138.811 128.927C138.696 127.759 138.41 126.677 137.953 125.678Z" fill="#0D0C23"/>
<path fill-rule="evenodd" clip-rule="evenodd" d="M179.8 148.243C179.643 149.184 179.421 150.174 179.135 151.214C178.849 152.253 178.513 153.201 178.128 154.057C177.741 154.911 177.313 155.601 176.841 156.129C176.369 156.656 175.861 156.877 175.318 156.792C174.889 156.734 174.617 156.463 174.504 155.979C174.388 155.494 174.388 154.896 174.504 154.185C174.617 153.472 174.838 152.666 175.167 151.769C175.497 150.872 175.897 149.981 176.369 149.099C176.841 148.215 177.377 147.368 177.977 146.555C178.578 145.744 179.207 145.067 179.864 144.526C180.007 144.696 180.072 145.124 180.057 145.808C180.042 146.492 179.957 147.304 179.8 148.243ZM194.341 129.695C193.955 129.268 193.483 129.026 192.925 128.969C192.368 128.912 191.802 129.225 191.232 129.909C190.859 130.593 190.387 131.248 189.815 131.875C189.244 132.502 188.651 133.072 188.036 133.584C187.42 134.097 186.834 134.539 186.277 134.909C185.72 135.28 185.283 135.55 184.969 135.721C184.855 134.81 184.789 133.827 184.776 132.772C184.761 131.718 184.783 130.65 184.84 129.567C184.925 128.029 185.104 126.476 185.376 124.909C185.648 123.342 186.041 121.803 186.556 120.292C186.556 119.495 186.369 118.847 185.998 118.348C185.626 117.85 185.176 117.536 184.647 117.408C184.117 117.28 183.575 117.351 183.017 117.622C182.46 117.893 181.981 118.384 181.58 119.096C181.238 120.037 180.844 121.09 180.401 122.258C179.957 123.427 179.457 124.616 178.9 125.827C178.342 127.039 177.72 128.214 177.034 129.353C176.347 130.493 175.597 131.505 174.782 132.388C173.967 133.271 173.08 133.962 172.123 134.461C171.164 134.959 170.129 135.18 169.013 135.123C168.498 134.981 168.126 134.596 167.897 133.969C167.668 133.343 167.532 132.559 167.49 131.618C167.447 130.678 167.49 129.645 167.618 128.52C167.747 127.395 167.919 126.276 168.134 125.165C168.347 124.054 168.584 123 168.84 122.003C169.098 121.005 169.341 120.164 169.57 119.481C169.913 118.655 169.913 117.963 169.57 117.408C169.227 116.852 168.755 116.482 168.155 116.296C167.555 116.112 166.925 116.119 166.267 116.318C165.61 116.518 165.137 116.959 164.852 117.643C164.365 118.812 163.922 120.122 163.522 121.575C163.122 123.028 162.8 124.531 162.557 126.084C162.314 127.637 162.177 129.176 162.149 130.7C162.148 130.799 162.152 130.893 162.152 130.992C161.528 132.649 160.934 133.901 160.37 134.738C159.641 135.822 158.818 136.292 157.903 136.149C157.502 135.978 157.239 135.579 157.11 134.952C156.98 134.326 156.938 133.556 156.98 132.644C157.024 131.733 157.131 130.7 157.302 129.546C157.475 128.392 157.688 127.195 157.945 125.956C158.203 124.716 158.475 123.47 158.76 122.216C159.047 120.963 159.303 119.78 159.533 118.669C159.505 117.671 159.211 116.91 158.653 116.382C158.097 115.856 157.316 115.649 156.316 115.762C155.63 116.047 155.122 116.418 154.794 116.874C154.464 117.329 154.2 117.914 154 118.626C153.885 118.997 153.714 119.737 153.485 120.849C153.256 121.959 152.963 123.235 152.605 124.673C152.248 126.113 151.826 127.615 151.34 129.182C150.854 130.749 150.31 132.168 149.711 133.435C149.11 134.703 148.452 135.721 147.737 136.491C147.023 137.26 146.251 137.573 145.421 137.431C144.963 137.345 144.671 136.875 144.542 136.021C144.413 135.166 144.392 134.112 144.477 132.858C144.563 131.604 144.735 130.229 144.992 128.734C145.249 127.238 145.513 125.821 145.785 124.481C146.057 123.142 146.308 121.959 146.537 120.934C146.765 119.908 146.922 119.224 147.008 118.883C147.008 118.056 146.821 117.394 146.451 116.895C146.079 116.397 145.629 116.083 145.099 115.955C144.57 115.827 144.026 115.898 143.47 116.168C142.912 116.439 142.433 116.931 142.032 117.643C141.889 118.412 141.703 119.303 141.475 120.314C141.246 121.325 141.025 122.365 140.81 123.434C140.596 124.503 140.395 125.55 140.21 126.575C140.024 127.601 139.888 128.499 139.802 129.268C139.745 129.866 139.68 130.6 139.61 131.469C139.537 132.339 139.501 133.257 139.501 134.225C139.501 135.195 139.573 136.156 139.717 137.11C139.859 138.065 140.117 138.941 140.488 139.739C140.859 140.537 141.382 141.192 142.055 141.704C142.726 142.217 143.576 142.502 144.606 142.56C145.664 142.616 146.586 142.538 147.373 142.324C148.159 142.111 148.874 141.776 149.518 141.32C150.161 140.865 150.747 140.323 151.277 139.696C151.805 139.069 152.327 138.386 152.841 137.644C153.328 138.728 153.957 139.568 154.729 140.166C155.501 140.764 156.316 141.121 157.174 141.234C158.031 141.348 158.904 141.228 159.791 140.871C160.677 140.515 161.477 139.91 162.192 139.055C162.664 138.53 163.108 137.935 163.524 137.276C163.702 137.584 163.889 137.882 164.101 138.157C164.802 139.069 165.753 139.696 166.954 140.038C168.241 140.38 169.498 140.437 170.728 140.209C171.957 139.981 173.13 139.568 174.245 138.97C175.361 138.371 176.397 137.652 177.356 136.811C178.313 135.971 179.149 135.095 179.864 134.183C179.836 134.838 179.821 135.458 179.821 136.042C179.821 136.626 179.807 137.26 179.779 137.944C178.349 138.941 176.998 140.138 175.726 141.534C174.453 142.929 173.337 144.418 172.38 146C171.421 147.58 170.671 149.184 170.129 150.807C169.585 152.432 169.32 153.949 169.334 155.36C169.349 156.77 169.684 158.002 170.343 159.056C170.999 160.111 172.072 160.865 173.559 161.321C175.104 161.806 176.461 161.82 177.635 161.364C178.807 160.908 179.828 160.153 180.701 159.099C181.573 158.045 182.288 156.77 182.846 155.274C183.403 153.779 183.846 152.218 184.176 150.594C184.504 148.971 184.711 147.374 184.797 145.808C184.883 144.24 184.883 142.844 184.797 141.619C187.257 140.594 189.272 139.297 190.845 137.73C192.418 136.164 193.719 134.511 194.748 132.772C195.063 132.345 195.17 131.832 195.071 131.234C194.969 130.635 194.727 130.122 194.341 129.695Z" fill="#0D0C23"/>
<path fill-rule="evenodd" clip-rule="evenodd" d="M248.45 126.961C248.536 126.306 248.665 125.615 248.836 124.888C249.008 124.162 249.222 123.456 249.48 122.773C249.737 122.089 250.037 121.498 250.381 120.999C250.724 120.501 251.089 120.145 251.474 119.93C251.861 119.717 252.253 119.738 252.654 119.994C253.083 120.251 253.347 120.792 253.448 121.618C253.547 122.446 253.448 123.328 253.147 124.269C252.847 125.209 252.311 126.092 251.539 126.918C250.766 127.745 249.722 128.286 248.407 128.542C248.35 128.144 248.364 127.617 248.45 126.961ZM263.312 128.713C262.841 128.571 262.391 128.557 261.961 128.671C261.533 128.785 261.261 129.084 261.147 129.569C260.917 130.48 260.552 131.413 260.052 132.367C259.552 133.322 258.937 134.227 258.209 135.082C257.48 135.936 256.657 136.692 255.743 137.346C254.826 138.002 253.869 138.472 252.868 138.757C251.867 139.071 251.038 139.106 250.381 138.864C249.722 138.622 249.201 138.209 248.815 137.625C248.429 137.041 248.15 136.335 247.979 135.509C247.807 134.683 247.707 133.828 247.678 132.944C249.308 133.059 250.759 132.767 252.032 132.068C253.304 131.371 254.384 130.444 255.27 129.29C256.156 128.137 256.829 126.84 257.286 125.401C257.743 123.963 258.001 122.531 258.058 121.106C258.087 119.767 257.887 118.635 257.458 117.708C257.029 116.783 256.449 116.062 255.72 115.55C254.992 115.037 254.155 114.738 253.212 114.653C252.269 114.567 251.31 114.695 250.337 115.037C249.164 115.436 248.171 116.084 247.356 116.982C246.541 117.879 245.862 118.92 245.319 120.102C244.776 121.284 244.347 122.559 244.033 123.926C243.718 125.294 243.489 126.641 243.346 127.966C243.217 129.155 243.149 130.292 243.124 131.389C243.063 131.529 243.004 131.663 242.938 131.812C242.495 132.824 241.979 133.814 241.394 134.782C240.808 135.751 240.157 136.563 239.443 137.218C238.728 137.874 237.985 138.102 237.213 137.902C236.755 137.789 236.505 137.261 236.462 136.321C236.419 135.38 236.468 134.213 236.611 132.816C236.755 131.421 236.919 129.91 237.105 128.286C237.29 126.662 237.383 125.11 237.383 123.628C237.383 122.345 237.14 121.113 236.654 119.93C236.168 118.749 235.503 117.765 234.66 116.982C233.817 116.198 232.837 115.678 231.722 115.422C230.607 115.165 229.406 115.336 228.119 115.934C226.832 116.533 225.809 117.373 225.053 118.456C224.294 119.539 223.601 120.679 222.972 121.875C222.743 120.963 222.407 120.116 221.963 119.332C221.52 118.549 220.977 117.865 220.334 117.281C219.69 116.697 218.967 116.241 218.168 115.913C217.368 115.586 216.523 115.422 215.636 115.422C214.779 115.422 213.986 115.586 213.257 115.913C212.527 116.241 211.863 116.661 211.262 117.174C210.661 117.687 210.118 118.264 209.632 118.905C209.146 119.546 208.716 120.18 208.345 120.807C208.287 120.066 208.223 119.418 208.153 118.862C208.08 118.307 207.951 117.836 207.766 117.452C207.58 117.067 207.316 116.775 206.973 116.576C206.629 116.377 206.143 116.276 205.514 116.276C205.199 116.276 204.885 116.34 204.571 116.468C204.256 116.597 203.976 116.775 203.734 117.003C203.491 117.232 203.305 117.509 203.177 117.836C203.048 118.164 203.013 118.542 203.069 118.969C203.098 119.283 203.177 119.66 203.305 120.102C203.433 120.544 203.555 121.121 203.67 121.832C203.784 122.545 203.877 123.407 203.949 124.418C204.02 125.43 204.041 126.669 204.013 128.137C203.984 129.604 203.877 131.32 203.691 133.286C203.505 135.252 203.212 137.532 202.812 140.124C202.754 140.723 202.983 141.208 203.499 141.578C204.013 141.948 204.599 142.161 205.257 142.219C205.914 142.276 206.537 142.161 207.123 141.877C207.709 141.591 208.045 141.093 208.13 140.381C208.216 139.042 208.381 137.618 208.624 136.107C208.867 134.598 209.167 133.102 209.525 131.62C209.882 130.138 210.289 128.728 210.747 127.388C211.204 126.049 211.712 124.867 212.27 123.841C212.828 122.815 213.407 121.997 214.007 121.384C214.608 120.771 215.236 120.465 215.895 120.465C216.695 120.465 217.317 120.828 217.76 121.554C218.203 122.281 218.517 123.215 218.704 124.354C218.889 125.494 218.975 126.741 218.962 128.094C218.947 129.447 218.889 130.751 218.79 132.004C218.69 133.258 218.575 134.376 218.446 135.359C218.318 136.342 218.225 137.019 218.168 137.389C218.168 138.045 218.418 138.564 218.918 138.949C219.418 139.334 219.975 139.562 220.591 139.633C221.206 139.705 221.784 139.59 222.328 139.291C222.871 138.991 223.186 138.487 223.272 137.774C223.558 135.723 223.951 133.664 224.451 131.599C224.951 129.533 225.524 127.681 226.167 126.043C226.811 124.404 227.525 123.065 228.312 122.025C229.098 120.986 229.935 120.465 230.821 120.465C231.278 120.465 231.629 120.779 231.872 121.405C232.115 122.032 232.237 122.886 232.237 123.969C232.237 124.767 232.172 125.587 232.044 126.427C231.914 127.267 231.765 128.137 231.593 129.034C231.422 129.932 231.271 130.85 231.142 131.791C231.014 132.731 230.95 133.714 230.95 134.74C230.95 135.452 231.022 136.278 231.165 137.218C231.307 138.158 231.578 139.05 231.979 139.889C232.38 140.73 232.93 141.442 233.631 142.026C234.332 142.61 235.225 142.902 236.311 142.902C237.942 142.902 239.385 142.553 240.644 141.855C241.901 141.158 242.981 140.246 243.882 139.121C243.929 139.061 243.972 138.999 244.017 138.94C244.086 139.106 244.147 139.283 244.225 139.441C244.839 140.695 245.676 141.663 246.734 142.347C247.792 143.031 249.036 143.408 250.467 143.48C251.896 143.55 253.454 143.287 255.142 142.689C256.399 142.233 257.493 141.663 258.423 140.979C259.352 140.296 260.188 139.462 260.931 138.479C261.676 137.496 262.354 136.363 262.969 135.082C263.585 133.799 264.206 132.332 264.835 130.679C264.949 130.224 264.842 129.818 264.514 129.461C264.184 129.106 263.785 128.856 263.312 128.713Z" fill="#0D0C23"/>
<path fill-rule="evenodd" clip-rule="evenodd" d="M286.624 123.946C286.481 124.787 286.289 125.713 286.046 126.724C285.802 127.736 285.495 128.783 285.123 129.866C284.752 130.948 284.294 131.924 283.751 132.793C283.208 133.663 282.585 134.353 281.885 134.866C281.184 135.379 280.377 135.592 279.462 135.507C279.004 135.45 278.653 135.137 278.411 134.566C278.167 133.997 278.039 133.27 278.024 132.387C278.01 131.504 278.089 130.535 278.26 129.481C278.432 128.427 278.696 127.394 279.055 126.382C279.412 125.371 279.847 124.438 280.362 123.582C280.877 122.728 281.47 122.065 282.142 121.595C282.814 121.125 283.551 120.905 284.351 120.933C285.152 120.962 286.01 121.36 286.925 122.129C286.867 122.5 286.767 123.106 286.624 123.946ZM301.873 127.215C301.429 126.988 300.972 126.938 300.5 127.066C300.029 127.194 299.692 127.629 299.493 128.37C299.378 129.168 299.121 130.107 298.721 131.19C298.32 132.273 297.826 133.299 297.241 134.267C296.654 135.236 295.982 136.041 295.225 136.682C294.467 137.324 293.659 137.616 292.802 137.558C292.086 137.501 291.585 137.138 291.301 136.469C291.013 135.799 290.864 134.959 290.85 133.947C290.835 132.936 290.936 131.796 291.149 130.528C291.364 129.26 291.622 128 291.922 126.745C292.222 125.492 292.53 124.288 292.845 123.134C293.159 121.98 293.416 121.004 293.617 120.207C293.845 119.494 293.773 118.889 293.402 118.39C293.03 117.892 292.566 117.535 292.008 117.322C291.45 117.108 290.885 117.051 290.313 117.151C289.741 117.251 289.37 117.557 289.198 118.069C287.511 116.616 285.888 115.833 284.33 115.719C282.771 115.605 281.334 115.947 280.019 116.745C278.703 117.542 277.538 118.696 276.524 120.207C275.508 121.717 274.686 123.362 274.056 125.143C273.427 126.924 273.035 128.74 272.877 130.592C272.72 132.444 272.841 134.133 273.242 135.657C273.643 137.181 274.35 138.428 275.365 139.396C276.38 140.365 277.76 140.85 279.505 140.85C280.277 140.85 281.02 140.693 281.735 140.379C282.449 140.065 283.107 139.695 283.708 139.268C284.308 138.841 284.837 138.392 285.296 137.922C285.752 137.451 286.11 137.06 286.368 136.746C286.567 137.772 286.896 138.642 287.354 139.354C287.811 140.065 288.333 140.65 288.919 141.105C289.505 141.561 290.121 141.896 290.764 142.11C291.407 142.324 292.03 142.431 292.629 142.431C293.974 142.431 295.231 141.975 296.405 141.063C297.577 140.152 298.628 139.033 299.557 137.708C300.486 136.383 301.252 134.987 301.851 133.519C302.452 132.052 302.852 130.749 303.053 129.609C303.253 129.181 303.216 128.733 302.945 128.263C302.673 127.793 302.316 127.444 301.873 127.215Z" fill="#0D0C23"/>
<path fill-rule="evenodd" clip-rule="evenodd" d="M379.082 150.81C378.839 151.778 378.46 152.598 377.944 153.268C377.43 153.937 376.787 154.286 376.015 154.315C375.529 154.343 375.157 154.086 374.899 153.546C374.642 153.004 374.463 152.306 374.363 151.452C374.263 150.596 374.22 149.642 374.234 148.588C374.249 147.534 374.292 146.493 374.363 145.468C374.434 144.443 374.521 143.487 374.621 142.604C374.72 141.721 374.799 141.038 374.856 140.553C375.829 140.667 376.637 141.087 377.28 141.814C377.923 142.54 378.417 143.402 378.759 144.4C379.103 145.397 379.302 146.473 379.361 147.626C379.417 148.78 379.324 149.841 379.082 150.81ZM363.554 150.81C363.312 151.778 362.932 152.598 362.418 153.268C361.903 153.937 361.259 154.286 360.487 154.315C360.001 154.343 359.63 154.086 359.372 153.546C359.115 153.004 358.936 152.306 358.837 151.452C358.735 150.596 358.693 149.642 358.708 148.588C358.721 147.534 358.764 146.493 358.837 145.468C358.907 144.443 358.993 143.487 359.093 142.604C359.194 141.721 359.271 141.038 359.33 140.553C360.301 140.667 361.11 141.087 361.752 141.814C362.396 142.54 362.889 143.402 363.233 144.4C363.576 145.397 363.776 146.473 363.833 147.626C363.89 148.78 363.796 149.841 363.554 150.81ZM347.62 126.535C347.591 127.218 347.526 127.824 347.426 128.351C347.326 128.879 347.191 129.213 347.019 129.356C346.704 129.184 346.318 128.744 345.861 128.031C345.403 127.319 345.047 126.513 344.788 125.616C344.531 124.718 344.452 123.836 344.553 122.966C344.652 122.097 345.103 121.421 345.904 120.936C346.218 120.765 346.49 120.829 346.719 121.128C346.948 121.428 347.133 121.862 347.277 122.432C347.419 123.002 347.518 123.657 347.577 124.398C347.634 125.139 347.648 125.851 347.62 126.535ZM343.824 135.061C343.38 135.531 342.886 135.937 342.344 136.279C341.8 136.621 341.242 136.878 340.671 137.049C340.098 137.22 339.584 137.262 339.127 137.176C337.84 136.921 336.853 136.364 336.167 135.51C335.481 134.655 335.044 133.651 334.859 132.497C334.673 131.343 334.694 130.11 334.924 128.8C335.152 127.49 335.537 126.272 336.081 125.146C336.624 124.02 337.283 123.052 338.054 122.24C338.826 121.428 339.67 120.922 340.585 120.722C340.241 122.175 340.128 123.679 340.241 125.231C340.356 126.784 340.728 128.244 341.357 129.612C341.757 130.439 342.236 131.193 342.794 131.877C343.352 132.561 344.031 133.145 344.832 133.629C344.603 134.114 344.266 134.591 343.824 135.061ZM391.284 126.962C391.37 126.308 391.498 125.616 391.671 124.889C391.842 124.163 392.057 123.458 392.313 122.774C392.571 122.09 392.872 121.499 393.215 121C393.559 120.502 393.922 120.145 394.308 119.932C394.695 119.718 395.088 119.739 395.488 119.996C395.917 120.253 396.181 120.794 396.281 121.62C396.381 122.446 396.281 123.329 395.981 124.27C395.681 125.21 395.145 126.093 394.373 126.919C393.602 127.746 392.557 128.287 391.242 128.544C391.184 128.145 391.199 127.618 391.284 126.962ZM408.571 126.962C408.657 126.308 408.785 125.616 408.956 124.889C409.128 124.163 409.343 123.458 409.601 122.774C409.857 122.09 410.157 121.499 410.501 121C410.844 120.502 411.209 120.145 411.595 119.932C411.981 119.718 412.374 119.739 412.774 119.996C413.203 120.253 413.467 120.794 413.567 121.62C413.668 122.446 413.567 123.329 413.268 124.27C412.967 125.21 412.431 126.093 411.659 126.919C410.887 127.746 409.843 128.287 408.528 128.544C408.471 128.145 408.485 127.618 408.571 126.962ZM424.634 129.463C424.305 129.107 423.905 128.857 423.434 128.714C422.961 128.572 422.511 128.558 422.082 128.672C421.653 128.786 421.38 129.085 421.267 129.569C421.038 130.481 420.674 131.415 420.174 132.368C419.673 133.324 419.058 134.228 418.329 135.082C417.6 135.937 416.777 136.693 415.863 137.348C414.947 138.003 413.99 138.473 412.99 138.758C411.988 139.072 411.158 139.107 410.501 138.865C409.843 138.623 409.321 138.21 408.935 137.626C408.549 137.041 408.271 136.337 408.098 135.51C407.928 134.684 407.827 133.829 407.799 132.946C409.429 133.06 410.88 132.768 412.152 132.069C413.424 131.372 414.504 130.445 415.392 129.291C416.277 128.138 416.949 126.842 417.406 125.403C417.864 123.964 418.121 122.532 418.179 121.107C418.207 119.768 418.007 118.635 417.578 117.709C417.15 116.784 416.571 116.064 415.842 115.551C415.112 115.038 414.276 114.739 413.331 114.653C412.388 114.568 411.43 114.697 410.458 115.038C409.285 115.437 408.292 116.085 407.478 116.983C406.663 117.881 405.983 118.921 405.44 120.103C404.896 121.286 404.467 122.56 404.152 123.928C403.837 125.295 403.609 126.642 403.467 127.967C403.327 129.252 403.252 130.482 403.235 131.66C403.127 131.895 403.012 132.131 402.887 132.368C402.386 133.324 401.772 134.228 401.042 135.082C400.314 135.937 399.491 136.693 398.577 137.348C397.662 138.003 396.703 138.473 395.703 138.758C394.701 139.072 393.873 139.107 393.215 138.865C392.557 138.623 392.035 138.21 391.65 137.626C391.264 137.041 390.985 136.337 390.813 135.51C390.641 134.684 390.541 133.829 390.512 132.946C392.142 133.06 393.594 132.768 394.867 132.069C396.138 131.372 397.218 130.445 398.104 129.291C398.991 128.138 399.663 126.842 400.12 125.403C400.577 123.964 400.836 122.532 400.892 121.107C400.921 119.768 400.721 118.635 400.293 117.709C399.863 116.784 399.284 116.064 398.554 115.551C397.825 115.038 396.99 114.739 396.046 114.653C395.102 114.568 394.144 114.697 393.172 115.038C391.998 115.437 391.005 116.085 390.191 116.983C389.376 117.881 388.696 118.921 388.153 120.103C387.61 121.286 387.182 122.56 386.867 123.928C386.552 125.295 386.323 126.642 386.181 127.967C386.099 128.714 386.045 129.438 386.005 130.149C385.729 130.384 385.459 130.62 385.172 130.851C384.186 131.649 383.149 132.368 382.062 133.01C380.976 133.651 379.846 134.178 378.674 134.591C377.501 135.004 376.3 135.254 375.071 135.339L377.731 106.961C377.902 106.362 377.817 105.836 377.473 105.38C377.13 104.924 376.687 104.61 376.144 104.439C375.6 104.268 375.021 104.283 374.406 104.482C373.791 104.682 373.284 105.138 372.883 105.849C372.683 106.932 372.475 108.414 372.262 110.294C372.047 112.174 371.832 114.226 371.618 116.449C371.404 118.671 371.189 120.965 370.975 123.329C370.76 125.695 370.574 127.903 370.417 129.954C370.41 130.045 370.404 130.127 370.397 130.217C370.147 130.429 369.904 130.642 369.645 130.851C368.659 131.649 367.621 132.368 366.535 133.01C365.448 133.651 364.319 134.178 363.147 134.591C361.974 135.004 360.773 135.254 359.543 135.339L362.203 106.961C362.375 106.362 362.289 105.836 361.946 105.38C361.603 104.924 361.159 104.61 360.616 104.439C360.073 104.268 359.493 104.283 358.879 104.482C358.264 104.682 357.757 105.138 357.356 105.849C357.156 106.932 356.949 108.414 356.735 110.294C356.519 112.174 356.306 114.226 356.091 116.449C355.876 118.671 355.662 120.965 355.448 123.329C355.234 125.695 355.047 127.903 354.89 129.954C354.887 129.995 354.884 130.032 354.88 130.074C354.431 130.281 353.942 130.464 353.41 130.616C352.867 130.774 352.252 130.866 351.566 130.895C351.68 130.381 351.772 129.811 351.844 129.184C351.916 128.558 351.974 127.903 352.017 127.218C352.06 126.535 352.073 125.851 352.06 125.167C352.044 124.483 352.009 123.857 351.952 123.286C351.808 122.062 351.544 120.901 351.159 119.803C350.772 118.707 350.251 117.788 349.593 117.047C348.935 116.306 348.113 115.807 347.126 115.551C346.14 115.295 344.988 115.38 343.674 115.807C341.728 115.551 339.977 115.73 338.419 116.342C336.86 116.955 335.509 117.845 334.365 119.013C333.222 120.182 332.285 121.556 331.556 123.137C330.827 124.718 330.34 126.343 330.098 128.009C329.995 128.715 329.945 129.419 329.93 130.12C329.487 131.024 329.002 131.813 328.468 132.476C327.71 133.416 326.924 134.185 326.109 134.783C325.294 135.382 324.486 135.838 323.686 136.151C322.884 136.465 322.17 136.679 321.541 136.792C320.797 136.935 320.082 136.949 319.396 136.835C318.71 136.722 318.08 136.393 317.509 135.852C317.051 135.453 316.701 134.812 316.458 133.929C316.215 133.045 316.072 132.042 316.03 130.916C315.987 129.79 316.03 128.615 316.157 127.39C316.286 126.165 316.507 125.003 316.822 123.907C317.137 122.81 317.536 121.827 318.024 120.957C318.509 120.089 319.081 119.469 319.74 119.098C320.11 119.156 320.34 119.376 320.426 119.76C320.512 120.145 320.532 120.601 320.489 121.128C320.447 121.656 320.383 122.197 320.297 122.752C320.211 123.308 320.168 123.772 320.168 124.141C320.311 124.911 320.59 125.509 321.005 125.937C321.419 126.364 321.884 126.614 322.399 126.684C322.913 126.756 323.42 126.635 323.922 126.321C324.421 126.008 324.828 125.509 325.144 124.825C325.172 124.854 325.215 124.868 325.272 124.868L325.873 119.44C326.044 118.699 325.93 118.044 325.53 117.474C325.129 116.905 324.6 116.577 323.943 116.491C323.113 115.295 321.991 114.661 320.575 114.589C319.16 114.518 317.709 114.981 316.222 115.979C315.307 116.635 314.499 117.538 313.798 118.692C313.097 119.847 312.526 121.128 312.083 122.539C311.639 123.949 311.325 125.438 311.139 127.005C310.953 128.572 310.918 130.097 311.031 131.578C311.146 133.06 311.411 134.456 311.826 135.766C312.24 137.077 312.819 138.174 313.563 139.057C314.192 139.826 314.906 140.39 315.707 140.746C316.507 141.102 317.344 141.322 318.216 141.408C319.088 141.493 319.953 141.457 320.811 141.301C321.669 141.145 322.484 140.924 323.257 140.638C324.257 140.269 325.287 139.798 326.345 139.228C327.402 138.659 328.418 137.975 329.39 137.176C329.902 136.757 330.394 136.299 330.87 135.808C331.086 136.344 331.329 136.863 331.621 137.348C332.393 138.63 333.436 139.67 334.752 140.468C336.066 141.265 337.683 141.649 339.598 141.621C341.658 141.593 343.559 141.073 345.303 140.062C347.048 139.051 348.477 137.561 349.593 135.595C351.263 135.595 352.907 135.321 354.523 134.776C354.509 134.949 354.495 135.13 354.482 135.297C354.369 136.807 354.311 137.832 354.311 138.374C354.283 139.314 354.218 140.475 354.118 141.856C354.018 143.238 353.954 144.691 353.925 146.215C353.897 147.74 353.954 149.278 354.097 150.832C354.24 152.384 354.54 153.795 354.998 155.063C355.454 156.33 356.104 157.406 356.949 158.29C357.792 159.172 358.9 159.7 360.273 159.871C361.732 160.07 362.99 159.814 364.048 159.102C365.105 158.389 365.963 157.413 366.622 156.174C367.279 154.934 367.743 153.503 368.016 151.879C368.287 150.255 368.365 148.624 368.252 146.985C368.136 145.346 367.836 143.801 367.35 142.349C366.864 140.895 366.191 139.698 365.334 138.758C365.85 138.616 366.463 138.345 367.179 137.946C367.893 137.547 368.629 137.098 369.388 136.6C369.574 136.477 369.758 136.348 369.944 136.222C369.874 137.232 369.838 137.952 369.838 138.374C369.81 139.314 369.746 140.475 369.645 141.856C369.546 143.238 369.481 144.691 369.452 146.215C369.424 147.74 369.481 149.278 369.624 150.832C369.766 152.384 370.067 153.795 370.524 155.063C370.981 156.33 371.633 157.406 372.475 158.29C373.319 159.172 374.428 159.7 375.801 159.871C377.258 160.07 378.516 159.814 379.574 159.102C380.633 158.389 381.491 157.413 382.148 156.174C382.806 154.934 383.27 153.503 383.542 151.879C383.814 150.255 383.892 148.624 383.778 146.985C383.664 145.346 383.363 143.801 382.878 142.349C382.391 140.895 381.72 139.698 380.861 138.758C381.376 138.616 381.991 138.345 382.706 137.946C383.421 137.547 384.157 137.098 384.916 136.6C385.309 136.34 385.7 136.073 386.091 135.798C386.238 137.192 386.555 138.414 387.059 139.442C387.675 140.696 388.51 141.664 389.569 142.349C390.626 143.032 391.87 143.41 393.301 143.481C394.731 143.551 396.288 143.288 397.976 142.69C399.234 142.234 400.328 141.664 401.257 140.981C402.186 140.296 403.022 139.463 403.767 138.48C403.81 138.424 403.85 138.362 403.892 138.304C404.024 138.703 404.171 139.087 404.345 139.442C404.961 140.696 405.797 141.664 406.855 142.349C407.912 143.032 409.157 143.41 410.586 143.481C412.016 143.551 413.575 143.288 415.262 142.69C416.521 142.234 417.614 141.664 418.543 140.981C419.472 140.296 420.309 139.463 421.053 138.48C421.796 137.497 422.475 136.364 423.09 135.082C423.705 133.8 424.326 132.334 424.956 130.68C425.07 130.225 424.963 129.819 424.634 129.463Z" fill="#0D0C23"/>
</svg>
