<svg width="539" height="250" viewBox="0 0 539 250" fill="none" xmlns="http://www.w3.org/2000/svg">
<path d="M0 70.6C0 56.4615 9.8397 45 21.9775 45H467.023C479.16 45 489 56.4615 489 70.6V179.4C489 193.539 479.16 205 467.023 205H21.9775C9.8397 205 0 193.539 0 179.4V70.6Z" fill="#FFDD00"/>
<path d="M78.5219 97.62L78.4549 97.5787L78.299 97.5291C78.362 97.5843 78.4399 97.6163 78.5219 97.62Z" fill="#0D0C22"/>
<path d="M79.507 104.936L79.432 104.957L79.507 104.936Z" fill="#0D0C22"/>
<path d="M78.5489 97.6075C78.5399 97.6064 78.5319 97.6044 78.5239 97.6016C78.5229 97.6071 78.5229 97.6126 78.5239 97.6181C78.5329 97.6169 78.5409 97.6132 78.5489 97.6075Z" fill="#0D0C22"/>
<path d="M78.5229 97.6223H78.5359V97.6145L78.5229 97.6223Z" fill="#0D0C22"/>
<path d="M79.447 104.922L79.56 104.855L79.602 104.83L79.64 104.787C79.569 104.82 79.503 104.865 79.447 104.922Z" fill="#0D0C22"/>
<path d="M78.715 97.7803L78.604 97.6701L78.5291 97.6274C78.5701 97.7019 78.636 97.7568 78.715 97.7803Z" fill="#0D0C22"/>
<path d="M50.8801 168.768C50.7916 168.808 50.7142 168.87 50.6548 168.95L50.7246 168.903C50.772 168.858 50.8392 168.803 50.8801 168.768Z" fill="#0D0C22"/>
<path d="M67.0456 165.442C67.0456 165.338 66.9968 165.357 67.0087 165.729C67.0087 165.699 67.0206 165.668 67.0258 165.639C67.0324 165.573 67.0377 165.508 67.0456 165.442Z" fill="#0D0C22"/>
<path d="M65.3761 168.768C65.2877 168.808 65.2103 168.87 65.1509 168.95L65.2207 168.903C65.2681 168.858 65.3353 168.803 65.3761 168.768Z" fill="#0D0C22"/>
<path d="M39.4886 169.559C39.4215 169.499 39.3393 169.458 39.2515 169.443C39.3226 169.48 39.3937 169.516 39.4412 169.543L39.4886 169.559Z" fill="#0D0C22"/>
<path d="M36.9304 166.994C36.92 166.886 36.8881 166.781 36.8369 166.686C36.8732 166.784 36.9035 166.886 36.9278 166.989L36.9304 166.994Z" fill="#0D0C22"/>
<path d="M54.1368 121.103C50.6195 122.678 46.628 124.463 41.4549 124.463C39.2908 124.459 37.1373 124.148 35.0527 123.54L38.6306 161.955C38.7572 163.56 39.4567 165.057 40.59 166.148C41.7233 167.24 43.2076 167.845 44.7482 167.844C44.7482 167.844 49.8212 168.12 51.514 168.12C53.3358 168.12 58.7988 167.844 58.7988 167.844C60.3391 167.844 61.8231 167.239 62.9562 166.148C64.0892 165.056 64.7885 163.56 64.9151 161.955L68.7472 119.505C67.0347 118.893 65.3064 118.487 63.358 118.487C59.9883 118.486 57.2733 119.699 54.1368 121.103Z" fill="white"/>
<path d="M23.9844 104.715L24.045 104.774L24.0845 104.799C24.0541 104.767 24.0205 104.739 23.9844 104.715Z" fill="#0D0C22"/>
<path d="M84.299 101.169L83.761 98.3274C83.277 95.7774 82.18 93.368 79.677 92.4464C78.875 92.1516 77.964 92.0248 77.349 91.4146C76.734 90.8043 76.552 89.8566 76.41 88.9776C76.147 87.3644 75.899 85.7499 75.629 84.1395C75.396 82.7551 75.211 81.1997 74.604 79.9297C73.814 78.2241 72.174 77.2268 70.543 76.5669C69.707 76.2407 68.854 75.9647 67.9884 75.7404C63.9139 74.6162 59.63 74.2029 55.4382 73.9674C50.407 73.6771 45.3623 73.7645 40.343 74.2292C36.6071 74.5845 32.6723 75.0144 29.1221 76.3657C27.8245 76.8604 26.4875 77.4541 25.5008 78.5024C24.2902 79.7905 23.895 81.7825 24.7789 83.3887C25.4073 84.5294 26.4717 85.3353 27.6006 85.8684C29.0711 86.5553 30.6068 87.078 32.1822 87.4278C36.5689 88.4418 41.1124 88.8399 45.5939 89.0093C50.561 89.219 55.5362 89.049 60.4796 88.501C61.7021 88.3605 62.9224 88.1919 64.1405 87.9954C65.575 87.7654 66.4958 85.8036 66.073 84.4371C65.5671 82.8033 64.2077 82.1696 62.6703 82.4161C62.4438 82.4534 62.2185 82.4878 61.9919 82.5223L61.8286 82.5471C61.3078 82.6159 60.787 82.6802 60.2662 82.7399C59.1904 82.8611 58.112 82.9604 57.0309 83.0374C54.6097 83.2137 52.1818 83.2951 49.7553 83.2992C47.371 83.2992 44.9853 83.2289 42.6062 83.065C41.5207 82.9906 40.4379 82.896 39.3577 82.7812C38.8663 82.7275 38.3763 82.671 37.8862 82.6076L37.4199 82.5456L37.3185 82.5305L36.835 82.4575C35.847 82.3018 34.859 82.1227 33.8816 81.9064C33.783 81.8835 33.6947 81.8262 33.6315 81.7438C33.5683 81.6614 33.5338 81.5588 33.5338 81.4532C33.5338 81.3476 33.5683 81.2451 33.6315 81.1627C33.6947 81.0803 33.783 81.0229 33.8816 81H33.9C34.7471 80.8112 35.6007 80.6501 36.4569 80.5095C36.7424 80.4628 37.0287 80.4168 37.3158 80.3718H37.3237C37.8599 80.3346 38.3987 80.2341 38.9322 80.1679C43.574 79.663 48.2434 79.4909 52.9077 79.6527C55.1721 79.7216 57.4353 79.8607 59.6892 80.1004C60.174 80.1528 60.6562 80.2079 61.1383 80.2698C61.3227 80.2933 61.5085 80.3209 61.6942 80.3443L62.0683 80.4008C63.1591 80.5706 64.2441 80.7768 65.3234 81.0193C66.9227 81.3829 68.976 81.5014 69.688 83.3337C69.914 83.915 70.017 84.5611 70.142 85.1714L70.302 85.9496C70.306 85.9636 70.309 85.978 70.311 85.9924C70.688 87.8292 71.065 89.6659 71.442 91.5028C71.47 91.6384 71.471 91.7787 71.444 91.9146C71.418 92.0505 71.365 92.1794 71.289 92.293C71.213 92.4066 71.115 92.5026 71.002 92.575C70.889 92.6474 70.762 92.6945 70.631 92.7137H70.62L70.39 92.7467L70.162 92.7784C69.44 92.8767 68.717 92.9685 67.9936 93.0539C66.5683 93.2238 65.1408 93.3708 63.711 93.4947C60.87 93.7418 58.0233 93.9039 55.1708 93.981C53.7174 94.0215 52.2644 94.0403 50.8118 94.0375C45.0301 94.0328 39.2534 93.6814 33.5101 92.985C32.8883 92.9079 32.2666 92.8252 31.6448 92.7412C32.1269 92.806 31.2944 92.6916 31.1258 92.6668C30.7306 92.609 30.3354 92.5488 29.9402 92.4863C28.6136 92.2783 27.295 92.0221 25.9711 91.7976C24.3705 91.522 22.8398 91.6599 21.3921 92.4863C20.2037 93.1664 19.2419 94.2093 18.6349 95.4757C18.0105 96.8258 17.8248 98.2957 17.5455 99.7462C17.2662 101.197 16.8315 102.758 16.9962 104.247C17.3505 107.461 19.4991 110.073 22.5895 110.657C25.4968 111.208 28.42 111.654 31.351 112.034C42.8648 113.509 54.4968 113.685 66.0466 112.561C66.9872 112.469 67.9265 112.369 68.864 112.26C69.157 112.227 69.454 112.262 69.732 112.364C70.01 112.465 70.263 112.631 70.472 112.848C70.681 113.065 70.842 113.328 70.941 113.619C71.04 113.909 71.076 114.218 71.046 114.525L70.753 117.498C70.164 123.505 69.575 129.512 68.986 135.518C68.371 141.826 67.7521 148.133 67.1295 154.439C66.9538 156.216 66.7782 157.991 66.6025 159.767C66.4339 161.515 66.4102 163.318 66.0927 165.046C65.5922 167.762 63.8335 169.431 61.2674 170.041C58.9164 170.6 56.5148 170.894 54.1038 170.917C51.431 170.931 48.7594 170.808 46.0866 170.823C43.2333 170.839 39.7384 170.564 37.5358 168.343C35.6007 166.393 35.3333 163.338 35.0698 160.698C34.7185 157.202 34.3703 153.706 34.0252 150.21L32.0887 130.774L30.8359 118.198C30.8149 117.99 30.7938 117.784 30.774 117.575C30.6239 116.075 29.6082 114.606 28.0077 114.682C26.6376 114.745 25.0806 115.963 25.2413 117.575L26.17 126.899L28.0906 146.185C28.6378 151.664 29.1836 157.142 29.7281 162.622C29.8335 163.672 29.9323 164.725 30.0429 165.774C30.6449 171.511 34.834 174.602 40.0216 175.472C43.0515 175.982 46.1551 176.087 49.2297 176.139C53.1711 176.205 57.1521 176.364 61.029 175.618C66.7738 174.515 71.084 170.504 71.699 164.281C71.875 162.485 72.051 160.687 72.226 158.891C72.81 152.947 73.393 147.002 73.976 141.058L75.88 121.633L76.754 112.731C76.797 112.29 76.976 111.875 77.262 111.548C77.549 111.221 77.929 110.998 78.345 110.914C79.988 110.58 81.558 110.008 82.727 108.701C84.587 106.619 84.957 103.905 84.299 101.169ZM22.5052 103.09C22.5302 103.077 22.4841 103.302 22.4644 103.407C22.4604 103.248 22.4683 103.108 22.5052 103.09ZM22.6646 104.379C22.6778 104.37 22.7173 104.425 22.7581 104.491C22.6962 104.43 22.6567 104.385 22.6633 104.379H22.6646ZM22.8214 104.595C22.878 104.696 22.9083 104.759 22.8214 104.595V104.595ZM23.1362 104.863H23.1441C23.1441 104.872 23.1586 104.882 23.1639 104.892C23.1551 104.881 23.1454 104.871 23.1349 104.863H23.1362ZM78.269 104.463C77.679 105.05 76.789 105.323 75.911 105.459C66.0572 106.988 56.06 107.762 46.0984 107.421C38.9691 107.166 31.9148 106.338 24.8566 105.295C24.165 105.193 23.4155 105.061 22.9399 104.528C22.0441 103.522 22.4841 101.497 22.7173 100.282C22.9307 99.1691 23.3391 97.6854 24.605 97.5269C26.581 97.2845 28.8758 98.1565 30.8307 98.4664C33.1843 98.8421 35.5467 99.1428 37.9179 99.3688C48.0375 100.333 58.3271 100.183 68.402 98.7723C70.238 98.5142 72.068 98.2144 73.891 97.8728C75.516 97.5682 77.316 96.9966 78.298 98.7558C78.971 99.9542 79.06 101.558 78.956 102.912C78.924 103.502 78.678 104.057 78.267 104.463H78.269Z" fill="#0D0C22"/>
<path fill-rule="evenodd" clip-rule="evenodd" d="M139.036 133.094C138.461 134.242 137.67 135.242 136.663 136.091C135.656 136.94 134.482 137.632 133.139 138.164C131.797 138.698 130.446 139.056 129.088 139.238C127.729 139.421 126.41 139.405 125.133 139.188C123.854 138.972 122.766 138.531 121.872 137.864L122.88 126.924C123.806 126.591 124.972 126.25 126.379 125.9C127.785 125.55 129.231 125.3 130.718 125.151C132.205 125 133.61 125.018 134.937 125.201C136.263 125.384 137.31 125.825 138.077 126.525C138.493 126.924 138.845 127.357 139.132 127.823C139.42 128.29 139.595 128.773 139.66 129.272C139.819 130.671 139.612 131.945 139.036 133.094ZM124.413 109.789C125.084 109.356 125.892 108.973 126.834 108.639C127.777 108.307 128.744 108.073 129.735 107.94C130.725 107.808 131.692 107.79 132.636 107.89C133.578 107.99 134.41 108.265 135.129 108.714C135.848 109.164 136.383 109.814 136.735 110.662C137.086 111.512 137.182 112.586 137.022 113.885C136.895 114.918 136.502 115.792 135.848 116.508C135.193 117.224 134.393 117.823 133.451 118.306C132.508 118.79 131.509 119.173 130.455 119.455C129.399 119.739 128.384 119.947 127.41 120.08C126.435 120.213 125.588 120.297 124.869 120.329C124.15 120.363 123.678 120.379 123.454 120.379L124.413 109.789ZM144.214 126.025C143.703 124.86 143.016 123.835 142.153 122.952C141.29 122.07 140.266 121.429 139.084 121.029C139.595 120.596 140.099 119.914 140.595 118.981C141.09 118.049 141.513 117.032 141.865 115.933C142.216 114.834 142.457 113.727 142.584 112.611C142.711 111.496 142.663 110.538 142.441 109.738C141.896 107.741 141.042 106.175 139.875 105.043C138.708 103.911 137.35 103.128 135.8 102.694C134.249 102.263 132.54 102.17 130.67 102.42C128.8 102.67 126.89 103.161 124.941 103.894C124.941 103.727 124.957 103.553 124.989 103.369C125.02 103.187 125.036 102.995 125.036 102.795C125.036 102.295 124.797 101.863 124.317 101.496C123.838 101.13 123.287 100.914 122.664 100.846C122.04 100.78 121.433 100.921 120.841 101.271C120.25 101.621 119.842 102.263 119.619 103.194C119.363 106.192 119.107 109.306 118.852 112.536C118.596 115.767 118.324 119.031 118.037 122.328C117.749 125.625 117.461 128.897 117.174 132.144C116.886 135.392 116.598 138.514 116.311 141.511C116.407 142.41 116.646 143.11 117.03 143.609C117.413 144.109 117.861 144.409 118.372 144.509C118.883 144.609 119.419 144.516 119.978 144.234C120.537 143.952 121.025 143.459 121.441 142.76C122.719 143.493 124.158 143.967 125.756 144.184C127.354 144.4 128.975 144.4 130.623 144.184C132.268 143.967 133.89 143.56 135.488 142.96C137.086 142.361 138.541 141.611 139.851 140.712C141.162 139.813 142.264 138.788 143.16 137.64C144.054 136.49 144.646 135.25 144.933 133.918C145.221 132.552 145.301 131.187 145.173 129.821C145.045 128.456 144.725 127.191 144.214 126.025Z" fill="#0D0C23"/>
<path fill-rule="evenodd" clip-rule="evenodd" d="M190.989 152.401C190.814 153.5 190.565 154.657 190.246 155.874C189.926 157.088 189.551 158.196 189.12 159.196C188.688 160.195 188.209 161.001 187.682 161.618C187.154 162.234 186.586 162.492 185.979 162.393C185.5 162.325 185.196 162.009 185.069 161.443C184.94 160.877 184.94 160.177 185.069 159.346C185.196 158.512 185.443 157.571 185.811 156.522C186.179 155.473 186.627 154.432 187.154 153.4C187.682 152.367 188.281 151.377 188.952 150.427C189.623 149.479 190.326 148.687 191.061 148.055C191.221 148.255 191.293 148.754 191.277 149.554C191.26 150.353 191.165 151.303 190.989 152.401ZM207.243 130.72C206.811 130.22 206.284 129.938 205.66 129.871C205.037 129.804 204.405 130.17 203.767 130.97C203.351 131.769 202.823 132.535 202.184 133.268C201.545 134.001 200.882 134.666 200.195 135.266C199.507 135.865 198.852 136.382 198.229 136.814C197.606 137.248 197.118 137.564 196.767 137.764C196.639 136.698 196.566 135.549 196.551 134.317C196.534 133.084 196.559 131.836 196.623 130.57C196.718 128.772 196.918 126.957 197.222 125.125C197.526 123.293 197.965 121.495 198.541 119.729C198.541 118.797 198.332 118.039 197.917 117.456C197.501 116.874 196.998 116.507 196.407 116.357C195.815 116.208 195.209 116.291 194.585 116.607C193.962 116.924 193.427 117.499 192.979 118.33C192.596 119.43 192.156 120.662 191.661 122.027C191.165 123.393 190.606 124.783 189.983 126.198C189.359 127.615 188.664 128.988 187.897 130.32C187.13 131.653 186.291 132.835 185.38 133.867C184.469 134.9 183.478 135.708 182.408 136.29C181.336 136.873 180.179 137.131 178.932 137.065C178.356 136.898 177.94 136.449 177.685 135.715C177.429 134.983 177.277 134.067 177.23 132.968C177.182 131.869 177.23 130.662 177.373 129.346C177.517 128.031 177.709 126.723 177.949 125.425C178.188 124.125 178.452 122.893 178.739 121.728C179.027 120.562 179.298 119.579 179.554 118.78C179.938 117.815 179.938 117.006 179.554 116.357C179.171 115.707 178.644 115.275 177.973 115.058C177.302 114.842 176.598 114.851 175.863 115.083C175.128 115.316 174.6 115.832 174.281 116.632C173.737 117.998 173.241 119.529 172.794 121.228C172.347 122.926 171.987 124.684 171.716 126.498C171.444 128.314 171.291 130.113 171.26 131.894C171.258 132.01 171.263 132.12 171.263 132.236C170.566 134.172 169.902 135.635 169.271 136.615C168.456 137.881 167.536 138.43 166.514 138.263C166.065 138.063 165.771 137.598 165.627 136.864C165.482 136.132 165.435 135.233 165.482 134.166C165.531 133.102 165.651 131.894 165.842 130.545C166.035 129.196 166.273 127.798 166.561 126.349C166.849 124.899 167.153 123.443 167.472 121.977C167.792 120.512 168.079 119.13 168.336 117.831C168.304 116.665 167.976 115.775 167.352 115.158C166.73 114.543 165.858 114.301 164.74 114.434C163.973 114.767 163.405 115.2 163.038 115.733C162.67 116.265 162.374 116.948 162.151 117.781C162.022 118.214 161.831 119.08 161.575 120.379C161.319 121.677 160.992 123.168 160.592 124.85C160.193 126.532 159.721 128.289 159.178 130.12C158.635 131.952 158.027 133.61 157.357 135.091C156.685 136.573 155.95 137.764 155.151 138.663C154.352 139.562 153.489 139.929 152.562 139.762C152.05 139.662 151.723 139.112 151.579 138.114C151.435 137.114 151.412 135.883 151.507 134.417C151.603 132.951 151.795 131.344 152.082 129.596C152.37 127.848 152.665 126.191 152.969 124.625C153.273 123.06 153.553 121.677 153.809 120.479C154.064 119.279 154.24 118.48 154.336 118.081C154.336 117.115 154.127 116.341 153.713 115.758C153.297 115.176 152.794 114.809 152.202 114.659C151.61 114.509 151.003 114.592 150.381 114.908C149.757 115.225 149.222 115.8 148.774 116.632C148.614 117.531 148.406 118.572 148.151 119.754C147.895 120.936 147.648 122.152 147.408 123.401C147.168 124.65 146.944 125.874 146.737 127.073C146.529 128.272 146.377 129.321 146.281 130.22C146.217 130.92 146.145 131.778 146.066 132.793C145.985 133.81 145.945 134.883 145.945 136.015C145.945 137.148 146.025 138.272 146.186 139.387C146.345 140.504 146.633 141.528 147.048 142.459C147.463 143.392 148.047 144.158 148.799 144.757C149.549 145.357 150.5 145.69 151.651 145.757C152.833 145.823 153.864 145.732 154.744 145.482C155.622 145.232 156.421 144.84 157.141 144.307C157.86 143.776 158.515 143.143 159.107 142.409C159.697 141.677 160.281 140.878 160.856 140.012C161.4 141.278 162.103 142.26 162.966 142.959C163.829 143.658 164.74 144.075 165.699 144.208C166.657 144.34 167.633 144.2 168.624 143.783C169.614 143.367 170.509 142.66 171.308 141.66C171.835 141.047 172.331 140.351 172.797 139.581C172.995 139.941 173.205 140.289 173.442 140.611C174.225 141.677 175.288 142.409 176.631 142.809C178.069 143.209 179.474 143.276 180.849 143.009C182.223 142.743 183.534 142.26 184.78 141.561C186.027 140.861 187.185 140.021 188.257 139.038C189.327 138.055 190.262 137.032 191.061 135.965C191.029 136.731 191.013 137.456 191.013 138.138C191.013 138.821 190.997 139.562 190.966 140.361C189.367 141.528 187.857 142.926 186.435 144.558C185.012 146.189 183.765 147.929 182.695 149.778C181.624 151.626 180.785 153.5 180.179 155.398C179.571 157.297 179.275 159.071 179.291 160.72C179.307 162.368 179.682 163.808 180.418 165.04C181.152 166.273 182.351 167.154 184.013 167.687C185.74 168.254 187.257 168.27 188.569 167.738C189.879 167.204 191.021 166.322 191.996 165.09C192.971 163.858 193.77 162.368 194.394 160.619C195.017 158.871 195.512 157.047 195.88 155.149C196.247 153.251 196.479 151.384 196.575 149.554C196.671 147.722 196.671 146.089 196.575 144.657C199.324 143.459 201.577 141.943 203.335 140.111C205.093 138.281 206.547 136.348 207.698 134.317C208.049 133.817 208.169 133.218 208.058 132.518C207.945 131.819 207.674 131.219 207.243 130.72Z" fill="#0D0C23"/>
<path fill-rule="evenodd" clip-rule="evenodd" d="M267.724 127.524C267.82 126.758 267.964 125.95 268.155 125.101C268.347 124.252 268.587 123.427 268.875 122.628C269.162 121.829 269.498 121.138 269.882 120.555C270.265 119.972 270.673 119.556 271.104 119.306C271.536 119.057 271.974 119.081 272.423 119.38C272.902 119.681 273.197 120.313 273.31 121.279C273.421 122.246 273.31 123.278 272.974 124.377C272.638 125.476 272.039 126.508 271.176 127.474C270.313 128.44 269.146 129.072 267.676 129.372C267.612 128.907 267.628 128.29 267.724 127.524ZM284.336 129.572C283.809 129.406 283.306 129.389 282.826 129.522C282.347 129.655 282.043 130.005 281.916 130.572C281.659 131.637 281.251 132.728 280.692 133.843C280.133 134.959 279.446 136.017 278.632 137.016C277.817 138.015 276.897 138.898 275.875 139.663C274.851 140.43 273.781 140.979 272.662 141.312C271.543 141.679 270.616 141.72 269.882 141.437C269.146 141.155 268.563 140.671 268.132 139.988C267.7 139.306 267.388 138.481 267.197 137.516C267.005 136.55 266.893 135.551 266.861 134.518C268.683 134.651 270.305 134.31 271.728 133.494C273.149 132.678 274.356 131.595 275.347 130.247C276.337 128.898 277.089 127.383 277.6 125.7C278.111 124.019 278.399 122.345 278.463 120.68C278.495 119.114 278.272 117.791 277.792 116.708C277.313 115.627 276.665 114.784 275.85 114.185C275.036 113.586 274.1 113.236 273.046 113.137C271.992 113.036 270.92 113.187 269.833 113.586C268.522 114.052 267.412 114.81 266.501 115.859C265.59 116.908 264.831 118.124 264.224 119.506C263.617 120.888 263.137 122.378 262.786 123.977C262.434 125.576 262.178 127.149 262.019 128.698C261.875 130.088 261.798 131.417 261.771 132.7C261.702 132.863 261.636 133.019 261.563 133.194C261.067 134.377 260.491 135.534 259.837 136.666C259.182 137.799 258.454 138.748 257.656 139.514C256.857 140.28 256.026 140.546 255.163 140.313C254.651 140.18 254.372 139.563 254.324 138.465C254.276 137.365 254.331 136 254.491 134.368C254.651 132.737 254.835 130.97 255.043 129.072C255.25 127.174 255.354 125.36 255.354 123.627C255.354 122.129 255.082 120.689 254.539 119.306C253.995 117.925 253.252 116.775 252.31 115.859C251.367 114.943 250.272 114.335 249.026 114.036C247.779 113.735 246.437 113.936 244.999 114.635C243.56 115.334 242.417 116.317 241.571 117.582C240.723 118.849 239.948 120.18 239.245 121.579C238.989 120.513 238.614 119.523 238.118 118.607C237.623 117.691 237.016 116.892 236.297 116.208C235.577 115.526 234.769 114.993 233.876 114.61C232.981 114.228 232.037 114.036 231.046 114.036C230.088 114.036 229.201 114.228 228.386 114.61C227.571 114.993 226.828 115.484 226.156 116.084C225.485 116.684 224.878 117.357 224.334 118.107C223.791 118.856 223.311 119.598 222.896 120.33C222.831 119.464 222.76 118.707 222.681 118.056C222.6 117.408 222.456 116.858 222.249 116.409C222.041 115.959 221.746 115.618 221.362 115.384C220.978 115.152 220.435 115.035 219.732 115.035C219.38 115.035 219.028 115.109 218.677 115.259C218.325 115.409 218.013 115.618 217.742 115.884C217.47 116.151 217.263 116.475 217.119 116.858C216.975 117.241 216.936 117.683 216.999 118.182C217.031 118.549 217.119 118.989 217.263 119.506C217.406 120.022 217.542 120.698 217.67 121.529C217.798 122.362 217.902 123.37 217.982 124.552C218.062 125.734 218.085 127.183 218.054 128.898C218.021 130.614 217.902 132.62 217.694 134.918C217.486 137.216 217.158 139.88 216.711 142.91C216.647 143.61 216.903 144.177 217.479 144.609C218.054 145.042 218.709 145.291 219.444 145.358C220.179 145.425 220.875 145.291 221.53 144.959C222.185 144.625 222.561 144.043 222.656 143.211C222.752 141.645 222.936 139.98 223.208 138.214C223.479 136.45 223.815 134.701 224.215 132.969C224.614 131.238 225.069 129.589 225.581 128.023C226.092 126.458 226.66 125.076 227.283 123.877C227.907 122.678 228.554 121.721 229.225 121.005C229.896 120.289 230.599 119.931 231.335 119.931C232.229 119.931 232.924 120.355 233.42 121.204C233.915 122.054 234.266 123.145 234.475 124.476C234.682 125.809 234.778 127.267 234.763 128.848C234.746 130.43 234.682 131.953 234.571 133.419C234.459 134.885 234.331 136.191 234.187 137.341C234.043 138.49 233.939 139.281 233.876 139.713C233.876 140.48 234.155 141.087 234.714 141.537C235.273 141.986 235.896 142.253 236.584 142.336C237.272 142.42 237.918 142.286 238.526 141.936C239.133 141.586 239.485 140.996 239.581 140.163C239.9 137.765 240.34 135.359 240.899 132.945C241.458 130.53 242.098 128.366 242.817 126.45C243.536 124.535 244.335 122.97 245.214 121.754C246.093 120.539 247.028 119.931 248.019 119.931C248.53 119.931 248.922 120.298 249.193 121.03C249.465 121.762 249.601 122.761 249.601 124.027C249.601 124.96 249.529 125.917 249.386 126.9C249.241 127.882 249.074 128.898 248.882 129.947C248.69 130.996 248.522 132.07 248.378 133.169C248.235 134.269 248.163 135.417 248.163 136.616C248.163 137.449 248.243 138.415 248.403 139.514C248.562 140.612 248.865 141.654 249.313 142.636C249.761 143.619 250.376 144.451 251.16 145.133C251.943 145.816 252.941 146.158 254.155 146.158C255.978 146.158 257.591 145.75 258.998 144.934C260.404 144.118 261.611 143.053 262.618 141.737C262.67 141.668 262.718 141.594 262.769 141.526C262.846 141.721 262.914 141.927 263.001 142.112C263.688 143.577 264.623 144.709 265.806 145.509C266.988 146.308 268.379 146.749 269.978 146.833C271.575 146.915 273.317 146.607 275.204 145.908C276.609 145.375 277.832 144.709 278.871 143.91C279.909 143.11 280.844 142.136 281.675 140.987C282.507 139.838 283.265 138.514 283.953 137.016C284.641 135.517 285.335 133.802 286.038 131.87C286.166 131.338 286.046 130.863 285.679 130.446C285.311 130.031 284.864 129.739 284.336 129.572Z" fill="#0D0C23"/>
<path fill-rule="evenodd" clip-rule="evenodd" d="M310.393 123.999C310.233 124.982 310.018 126.065 309.746 127.247C309.474 128.43 309.131 129.653 308.715 130.919C308.3 132.185 307.788 133.325 307.181 134.341C306.574 135.357 305.878 136.164 305.096 136.764C304.312 137.363 303.41 137.613 302.387 137.513C301.875 137.447 301.483 137.081 301.212 136.414C300.94 135.748 300.797 134.899 300.78 133.866C300.764 132.834 300.852 131.702 301.044 130.469C301.236 129.238 301.531 128.03 301.932 126.847C302.331 125.666 302.818 124.574 303.393 123.575C303.969 122.576 304.632 121.801 305.383 121.252C306.134 120.702 306.958 120.445 307.852 120.478C308.747 120.511 309.706 120.977 310.729 121.876C310.664 122.31 310.553 123.018 310.393 123.999ZM327.437 127.821C326.941 127.555 326.43 127.497 325.903 127.647C325.376 127.796 325 128.305 324.777 129.17C324.649 130.103 324.361 131.202 323.914 132.467C323.466 133.733 322.914 134.933 322.26 136.064C321.604 137.197 320.853 138.138 320.006 138.887C319.159 139.637 318.256 139.978 317.298 139.91C316.498 139.845 315.938 139.42 315.62 138.637C315.299 137.854 315.132 136.873 315.116 135.689C315.099 134.508 315.212 133.176 315.451 131.694C315.691 130.212 315.979 128.738 316.314 127.272C316.65 125.807 316.994 124.399 317.346 123.051C317.697 121.702 317.984 120.561 318.209 119.629C318.464 118.796 318.384 118.089 317.969 117.505C317.553 116.923 317.034 116.506 316.411 116.257C315.787 116.007 315.155 115.94 314.516 116.057C313.877 116.174 313.462 116.532 313.27 117.13C311.384 115.432 309.57 114.516 307.829 114.383C306.086 114.25 304.48 114.65 303.01 115.582C301.539 116.514 300.237 117.863 299.103 119.629C297.968 121.395 297.049 123.317 296.345 125.399C295.642 127.48 295.203 129.604 295.027 131.768C294.851 133.933 294.987 135.907 295.435 137.688C295.883 139.47 296.673 140.928 297.808 142.059C298.942 143.191 300.485 143.758 302.435 143.758C303.298 143.758 304.129 143.575 304.928 143.209C305.726 142.842 306.462 142.409 307.133 141.909C307.804 141.41 308.395 140.885 308.908 140.336C309.418 139.786 309.818 139.329 310.106 138.962C310.329 140.161 310.697 141.177 311.209 142.01C311.719 142.842 312.303 143.525 312.958 144.057C313.613 144.59 314.301 144.981 315.02 145.232C315.739 145.481 316.435 145.606 317.105 145.606C318.608 145.606 320.013 145.073 321.325 144.007C322.635 142.942 323.81 141.634 324.849 140.086C325.887 138.537 326.743 136.906 327.413 135.19C328.085 133.475 328.532 131.951 328.756 130.619C328.98 130.119 328.939 129.595 328.636 129.046C328.332 128.496 327.933 128.089 327.437 127.821Z" fill="#0D0C23"/>
<path fill-rule="evenodd" clip-rule="evenodd" d="M413.738 155.401C413.467 156.533 413.043 157.492 412.467 158.274C411.892 159.056 411.173 159.464 410.31 159.498C409.767 159.531 409.351 159.231 409.063 158.599C408.776 157.965 408.576 157.15 408.464 156.151C408.352 155.151 408.304 154.035 408.32 152.803C408.336 151.572 408.384 150.355 408.464 149.156C408.543 147.958 408.64 146.841 408.752 145.81C408.863 144.776 408.951 143.979 409.015 143.412C410.102 143.545 411.006 144.036 411.724 144.885C412.443 145.735 412.995 146.742 413.378 147.908C413.762 149.073 413.985 150.331 414.05 151.679C414.113 153.028 414.009 154.269 413.738 155.401ZM396.382 155.401C396.111 156.533 395.687 157.492 395.112 158.274C394.537 159.056 393.817 159.464 392.954 159.498C392.411 159.531 391.996 159.231 391.708 158.599C391.42 157.965 391.22 157.15 391.109 156.151C390.996 155.151 390.948 154.035 390.965 152.803C390.98 151.572 391.028 150.355 391.109 149.156C391.188 147.958 391.284 146.841 391.396 145.81C391.508 144.776 391.595 143.979 391.66 143.412C392.746 143.545 393.65 144.036 394.368 144.885C395.088 145.735 395.639 146.742 396.023 147.908C396.407 149.073 396.63 150.331 396.694 151.679C396.757 153.028 396.653 154.269 396.382 155.401ZM378.572 127.026C378.539 127.825 378.467 128.533 378.355 129.149C378.243 129.766 378.092 130.156 377.9 130.323C377.548 130.123 377.116 129.608 376.605 128.774C376.094 127.942 375.695 127 375.406 125.951C375.119 124.902 375.03 123.871 375.143 122.854C375.254 121.839 375.758 121.048 376.653 120.481C377.004 120.281 377.308 120.356 377.564 120.706C377.82 121.056 378.027 121.564 378.188 122.23C378.347 122.896 378.458 123.662 378.523 124.528C378.587 125.394 378.603 126.226 378.572 127.026ZM374.328 136.992C373.832 137.541 373.28 138.016 372.674 138.416C372.066 138.816 371.443 139.115 370.804 139.315C370.164 139.515 369.589 139.565 369.078 139.465C367.64 139.166 366.537 138.515 365.77 137.517C365.003 136.518 364.515 135.344 364.308 133.995C364.1 132.646 364.123 131.205 364.38 129.673C364.635 128.142 365.066 126.718 365.674 125.402C366.281 124.087 367.017 122.954 367.879 122.005C368.742 121.056 369.685 120.465 370.708 120.231C370.324 121.93 370.197 123.687 370.324 125.502C370.452 127.317 370.868 129.024 371.571 130.622C372.018 131.589 372.554 132.471 373.177 133.27C373.801 134.07 374.56 134.753 375.455 135.319C375.199 135.885 374.823 136.443 374.328 136.992ZM427.378 127.526C427.474 126.76 427.617 125.951 427.81 125.102C428.001 124.253 428.241 123.429 428.528 122.63C428.816 121.83 429.152 121.139 429.536 120.557C429.92 119.974 430.326 119.557 430.758 119.307C431.19 119.058 431.629 119.082 432.076 119.382C432.556 119.683 432.851 120.315 432.963 121.28C433.075 122.247 432.963 123.279 432.628 124.378C432.292 125.477 431.693 126.51 430.83 127.475C429.968 128.442 428.8 129.074 427.33 129.374C427.266 128.908 427.282 128.292 427.378 127.526ZM446.7 127.526C446.796 126.76 446.939 125.951 447.131 125.102C447.323 124.253 447.563 123.429 447.851 122.63C448.138 121.83 448.473 121.139 448.857 120.557C449.241 119.974 449.649 119.557 450.08 119.307C450.512 119.058 450.951 119.082 451.398 119.382C451.878 119.683 452.173 120.315 452.285 121.28C452.397 122.247 452.285 123.279 451.95 124.378C451.614 125.477 451.015 126.51 450.152 127.475C449.289 128.442 448.122 129.074 446.652 129.374C446.588 128.908 446.604 128.292 446.7 127.526ZM464.655 130.448C464.287 130.032 463.84 129.741 463.313 129.573C462.785 129.407 462.282 129.391 461.802 129.524C461.323 129.657 461.018 130.007 460.891 130.573C460.635 131.639 460.228 132.73 459.669 133.844C459.109 134.961 458.422 136.018 457.607 137.017C456.792 138.016 455.873 138.899 454.851 139.665C453.827 140.431 452.757 140.981 451.639 141.313C450.519 141.68 449.592 141.722 448.857 141.438C448.122 141.156 447.539 140.673 447.107 139.99C446.676 139.307 446.365 138.483 446.172 137.517C445.981 136.551 445.868 135.552 445.837 134.519C447.659 134.653 449.281 134.312 450.703 133.495C452.125 132.679 453.332 131.596 454.324 130.248C455.314 128.9 456.065 127.384 456.576 125.702C457.087 124.02 457.375 122.347 457.44 120.681C457.471 119.116 457.247 117.792 456.768 116.71C456.289 115.628 455.642 114.786 454.827 114.187C454.011 113.587 453.077 113.238 452.021 113.138C450.967 113.037 449.896 113.188 448.809 113.587C447.498 114.054 446.388 114.811 445.478 115.86C444.567 116.91 443.807 118.126 443.2 119.507C442.592 120.89 442.113 122.379 441.761 123.978C441.409 125.577 441.154 127.151 440.995 128.699C440.839 130.202 440.755 131.64 440.736 133.017C440.615 133.291 440.486 133.567 440.347 133.844C439.787 134.961 439.1 136.018 438.285 137.017C437.471 138.016 436.551 138.899 435.529 139.665C434.506 140.431 433.435 140.981 432.317 141.313C431.197 141.68 430.271 141.722 429.536 141.438C428.8 141.156 428.217 140.673 427.786 139.99C427.355 139.307 427.043 138.483 426.851 137.517C426.659 136.551 426.547 135.552 426.515 134.519C428.337 134.653 429.959 134.312 431.382 133.495C432.803 132.679 434.01 131.596 435.001 130.248C435.992 128.9 436.743 127.384 437.254 125.702C437.765 124.02 438.054 122.347 438.117 120.681C438.149 119.116 437.926 117.792 437.447 116.71C436.967 115.628 436.319 114.786 435.504 114.187C434.689 113.587 433.755 113.238 432.7 113.138C431.645 113.037 430.574 113.188 429.488 113.587C428.176 114.054 427.066 114.811 426.156 115.86C425.245 116.91 424.485 118.126 423.878 119.507C423.271 120.89 422.792 122.379 422.44 123.978C422.088 125.577 421.832 127.151 421.673 128.699C421.582 129.573 421.522 130.419 421.477 131.251C421.168 131.525 420.867 131.8 420.546 132.071C419.444 133.004 418.284 133.844 417.07 134.594C415.855 135.344 414.592 135.96 413.283 136.443C411.971 136.926 410.629 137.217 409.255 137.317L412.228 104.145C412.42 103.446 412.324 102.83 411.94 102.297C411.557 101.764 411.061 101.398 410.454 101.198C409.847 100.998 409.199 101.015 408.512 101.248C407.824 101.482 407.258 102.015 406.81 102.846C406.586 104.112 406.354 105.844 406.115 108.042C405.875 110.24 405.635 112.638 405.396 115.236C405.156 117.834 404.916 120.515 404.677 123.279C404.437 126.044 404.229 128.625 404.053 131.022C404.045 131.129 404.039 131.225 404.031 131.33C403.751 131.577 403.48 131.826 403.19 132.071C402.088 133.004 400.928 133.844 399.714 134.594C398.499 135.344 397.237 135.96 395.927 136.443C394.616 136.926 393.273 137.217 391.899 137.317L394.872 104.145C395.064 103.446 394.968 102.83 394.585 102.297C394.201 101.764 393.705 101.398 393.098 101.198C392.491 100.998 391.843 101.015 391.156 101.248C390.469 101.482 389.902 102.015 389.454 102.846C389.23 104.112 388.999 105.844 388.76 108.042C388.519 110.24 388.28 112.638 388.04 115.236C387.8 117.834 387.561 120.515 387.321 123.279C387.082 126.044 386.873 128.625 386.698 131.022C386.694 131.07 386.691 131.114 386.687 131.162C386.185 131.405 385.638 131.618 385.043 131.797C384.436 131.98 383.749 132.089 382.982 132.122C383.11 131.522 383.213 130.855 383.293 130.123C383.373 129.391 383.438 128.625 383.486 127.825C383.534 127.026 383.549 126.226 383.534 125.427C383.517 124.627 383.477 123.895 383.414 123.229C383.253 121.798 382.958 120.44 382.527 119.157C382.095 117.876 381.512 116.802 380.777 115.935C380.041 115.069 379.123 114.486 378.019 114.187C376.917 113.887 375.63 113.987 374.161 114.486C371.986 114.187 370.029 114.396 368.287 115.111C366.545 115.828 365.034 116.868 363.756 118.233C362.478 119.6 361.431 121.206 360.616 123.054C359.801 124.902 359.257 126.801 358.986 128.749C358.871 129.575 358.815 130.397 358.798 131.217C358.303 132.273 357.761 133.195 357.164 133.97C356.317 135.069 355.438 135.968 354.527 136.667C353.616 137.367 352.713 137.9 351.819 138.266C350.923 138.633 350.124 138.883 349.421 139.015C348.59 139.182 347.791 139.199 347.024 139.065C346.257 138.933 345.553 138.55 344.915 137.916C344.403 137.451 344.011 136.701 343.74 135.668C343.468 134.636 343.309 133.463 343.261 132.146C343.213 130.831 343.261 129.457 343.404 128.025C343.548 126.593 343.795 125.236 344.147 123.954C344.499 122.671 344.945 121.522 345.49 120.506C346.032 119.491 346.672 118.766 347.408 118.333C347.822 118.4 348.079 118.658 348.175 119.107C348.271 119.557 348.294 120.09 348.246 120.706C348.199 121.323 348.127 121.955 348.031 122.604C347.935 123.254 347.887 123.796 347.887 124.228C348.047 125.127 348.358 125.827 348.822 126.326C349.285 126.826 349.805 127.118 350.38 127.2C350.955 127.284 351.522 127.143 352.083 126.776C352.641 126.41 353.096 125.827 353.449 125.027C353.48 125.061 353.528 125.077 353.592 125.077L354.264 118.733C354.455 117.867 354.327 117.101 353.88 116.435C353.432 115.769 352.841 115.386 352.106 115.286C351.179 113.887 349.924 113.146 348.342 113.063C346.76 112.98 345.138 113.521 343.476 114.687C342.453 115.453 341.55 116.51 340.767 117.859C339.983 119.208 339.345 120.706 338.85 122.355C338.353 124.003 338.002 125.744 337.795 127.576C337.587 129.407 337.547 131.19 337.674 132.92C337.802 134.653 338.098 136.285 338.562 137.816C339.025 139.349 339.672 140.631 340.504 141.663C341.207 142.562 342.005 143.22 342.9 143.637C343.795 144.053 344.73 144.311 345.705 144.411C346.68 144.51 347.647 144.468 348.606 144.286C349.565 144.103 350.476 143.845 351.339 143.511C352.457 143.079 353.609 142.529 354.791 141.863C355.973 141.197 357.108 140.398 358.195 139.465C358.767 138.974 359.317 138.439 359.849 137.866C360.091 138.492 360.362 139.098 360.688 139.665C361.551 141.163 362.717 142.379 364.188 143.312C365.657 144.244 367.464 144.693 369.605 144.66C371.907 144.627 374.032 144.02 375.982 142.837C377.932 141.656 379.53 139.914 380.777 137.617C382.644 137.617 384.481 137.296 386.287 136.659C386.272 136.861 386.256 137.073 386.242 137.267C386.115 139.033 386.05 140.231 386.05 140.864C386.019 141.963 385.947 143.32 385.835 144.935C385.723 146.55 385.651 148.249 385.619 150.03C385.588 151.812 385.651 153.611 385.811 155.426C385.971 157.241 386.306 158.89 386.818 160.373C387.328 161.853 388.055 163.111 388.999 164.145C389.941 165.176 391.18 165.793 392.715 165.992C394.345 166.225 395.751 165.925 396.934 165.093C398.116 164.26 399.075 163.12 399.811 161.671C400.546 160.222 401.064 158.549 401.369 156.651C401.672 154.752 401.76 152.845 401.633 150.929C401.504 149.015 401.168 147.208 400.625 145.51C400.082 143.811 399.33 142.412 398.372 141.313C398.948 141.147 399.634 140.831 400.434 140.364C401.232 139.898 402.055 139.373 402.903 138.79C403.111 138.647 403.316 138.496 403.524 138.349C403.446 139.529 403.406 140.371 403.406 140.864C403.375 141.963 403.303 143.32 403.19 144.935C403.079 146.55 403.007 148.249 402.975 150.03C402.943 151.812 403.007 153.611 403.167 155.426C403.326 157.241 403.662 158.89 404.173 160.373C404.684 161.853 405.412 163.111 406.354 164.145C407.297 165.176 408.536 165.793 410.071 165.992C411.7 166.225 413.106 165.925 414.289 165.093C415.472 164.26 416.431 163.12 417.166 161.671C417.901 160.222 418.42 158.549 418.724 156.651C419.028 154.752 419.115 152.845 418.988 150.929C418.86 149.015 418.524 147.208 417.982 145.51C417.437 143.811 416.687 142.412 415.727 141.313C416.303 141.147 416.99 140.831 417.789 140.364C418.588 139.898 419.411 139.373 420.259 138.79C420.699 138.487 421.136 138.175 421.573 137.854C421.737 139.482 422.091 140.911 422.655 142.113C423.343 143.579 424.277 144.711 425.46 145.51C426.642 146.309 428.033 146.751 429.632 146.834C431.23 146.916 432.971 146.609 434.858 145.909C436.264 145.377 437.486 144.711 438.525 143.911C439.563 143.111 440.498 142.137 441.33 140.989C441.378 140.922 441.423 140.85 441.47 140.783C441.618 141.249 441.782 141.698 441.977 142.113C442.665 143.579 443.6 144.711 444.782 145.51C445.964 146.309 447.355 146.751 448.953 146.834C450.551 146.916 452.293 146.609 454.179 145.909C455.586 145.377 456.808 144.711 457.847 143.911C458.885 143.111 459.82 142.137 460.652 140.989C461.483 139.839 462.241 138.515 462.929 137.017C463.616 135.518 464.311 133.804 465.015 131.871C465.142 131.339 465.022 130.864 464.655 130.448Z" fill="#0D0C23"/>
</svg>
