<svg width="539" height="250" viewBox="0 0 539 250" fill="none" xmlns="http://www.w3.org/2000/svg">
<path d="M0 70.6C0 56.4615 9.8397 45 21.9775 45H467.023C479.16 45 489 56.4615 489 70.6V179.4C489 193.539 479.16 205 467.023 205H21.9775C9.8397 205 0 193.539 0 179.4V70.6Z" fill="#FFDD00"/>
<path d="M78.5219 97.62L78.4549 97.5787L78.299 97.5291C78.362 97.5843 78.4399 97.6163 78.5219 97.62Z" fill="#0D0C22"/>
<path d="M79.507 104.936L79.432 104.957L79.507 104.936Z" fill="#0D0C22"/>
<path d="M78.5489 97.6075C78.5399 97.6064 78.5319 97.6044 78.5239 97.6016C78.5229 97.6071 78.5229 97.6126 78.5239 97.6181C78.5329 97.6169 78.5409 97.6132 78.5489 97.6075Z" fill="#0D0C22"/>
<path d="M78.5229 97.6223H78.5359V97.6145L78.5229 97.6223Z" fill="#0D0C22"/>
<path d="M79.447 104.922L79.56 104.855L79.602 104.83L79.64 104.787C79.569 104.82 79.503 104.865 79.447 104.922Z" fill="#0D0C22"/>
<path d="M78.715 97.7803L78.604 97.6701L78.5291 97.6274C78.5701 97.7019 78.636 97.7568 78.715 97.7803Z" fill="#0D0C22"/>
<path d="M50.8801 168.768C50.7916 168.808 50.7142 168.87 50.6548 168.95L50.7246 168.903C50.772 168.858 50.8392 168.803 50.8801 168.768Z" fill="#0D0C22"/>
<path d="M67.0456 165.442C67.0456 165.338 66.9968 165.357 67.0087 165.729C67.0087 165.699 67.0206 165.668 67.0258 165.639C67.0324 165.573 67.0377 165.508 67.0456 165.442Z" fill="#0D0C22"/>
<path d="M65.3761 168.768C65.2877 168.808 65.2103 168.87 65.1509 168.95L65.2207 168.903C65.2681 168.858 65.3353 168.803 65.3761 168.768Z" fill="#0D0C22"/>
<path d="M39.4886 169.559C39.4215 169.499 39.3393 169.458 39.2515 169.443C39.3226 169.48 39.3937 169.516 39.4412 169.543L39.4886 169.559Z" fill="#0D0C22"/>
<path d="M36.9304 166.994C36.92 166.886 36.8881 166.781 36.8369 166.686C36.8732 166.784 36.9035 166.886 36.9278 166.989L36.9304 166.994Z" fill="#0D0C22"/>
<path d="M54.1368 121.103C50.6195 122.678 46.628 124.463 41.4549 124.463C39.2908 124.459 37.1373 124.148 35.0527 123.54L38.6306 161.955C38.7572 163.56 39.4567 165.057 40.59 166.148C41.7233 167.24 43.2076 167.845 44.7482 167.844C44.7482 167.844 49.8212 168.12 51.514 168.12C53.3358 168.12 58.7988 167.844 58.7988 167.844C60.3391 167.844 61.8231 167.239 62.9562 166.148C64.0892 165.056 64.7885 163.56 64.9151 161.955L68.7472 119.505C67.0347 118.893 65.3064 118.487 63.358 118.487C59.9883 118.486 57.2733 119.699 54.1368 121.103Z" fill="white"/>
<path d="M23.9844 104.715L24.045 104.774L24.0845 104.799C24.0541 104.767 24.0205 104.739 23.9844 104.715Z" fill="#0D0C22"/>
<path d="M84.299 101.169L83.761 98.3274C83.277 95.7774 82.18 93.368 79.677 92.4464C78.875 92.1516 77.964 92.0248 77.349 91.4146C76.734 90.8043 76.552 89.8566 76.41 88.9776C76.147 87.3644 75.899 85.7499 75.629 84.1395C75.396 82.7551 75.211 81.1997 74.604 79.9297C73.814 78.2241 72.174 77.2268 70.543 76.5669C69.707 76.2407 68.854 75.9647 67.9884 75.7404C63.9139 74.6162 59.63 74.2029 55.4382 73.9674C50.407 73.6771 45.3623 73.7645 40.343 74.2292C36.6071 74.5845 32.6723 75.0144 29.1221 76.3657C27.8245 76.8604 26.4875 77.4541 25.5008 78.5024C24.2902 79.7905 23.895 81.7825 24.7789 83.3887C25.4073 84.5294 26.4717 85.3353 27.6006 85.8684C29.0711 86.5553 30.6068 87.078 32.1822 87.4278C36.5689 88.4418 41.1124 88.8399 45.5939 89.0093C50.561 89.219 55.5362 89.049 60.4796 88.501C61.7021 88.3605 62.9224 88.1919 64.1405 87.9954C65.575 87.7654 66.4958 85.8036 66.073 84.4371C65.5671 82.8033 64.2077 82.1696 62.6703 82.4161C62.4438 82.4534 62.2185 82.4878 61.9919 82.5223L61.8286 82.5471C61.3078 82.6159 60.787 82.6802 60.2662 82.7399C59.1904 82.8611 58.112 82.9604 57.0309 83.0374C54.6097 83.2137 52.1818 83.2951 49.7553 83.2992C47.371 83.2992 44.9853 83.2289 42.6062 83.065C41.5207 82.9906 40.4379 82.896 39.3577 82.7812C38.8663 82.7275 38.3763 82.671 37.8862 82.6076L37.4199 82.5456L37.3185 82.5305L36.835 82.4575C35.847 82.3018 34.859 82.1227 33.8816 81.9064C33.783 81.8835 33.6947 81.8262 33.6315 81.7438C33.5683 81.6614 33.5338 81.5588 33.5338 81.4532C33.5338 81.3476 33.5683 81.2451 33.6315 81.1627C33.6947 81.0803 33.783 81.0229 33.8816 81H33.9C34.7471 80.8112 35.6007 80.6501 36.4569 80.5095C36.7424 80.4628 37.0287 80.4168 37.3158 80.3718H37.3237C37.8599 80.3346 38.3987 80.2341 38.9322 80.1679C43.574 79.663 48.2434 79.4909 52.9077 79.6527C55.1721 79.7216 57.4353 79.8607 59.6892 80.1004C60.174 80.1528 60.6562 80.2079 61.1383 80.2698C61.3227 80.2933 61.5085 80.3209 61.6942 80.3443L62.0683 80.4008C63.1591 80.5706 64.2441 80.7768 65.3234 81.0193C66.9227 81.3829 68.976 81.5014 69.688 83.3337C69.914 83.915 70.017 84.5611 70.142 85.1714L70.302 85.9496C70.306 85.9636 70.309 85.978 70.311 85.9924C70.688 87.8292 71.065 89.6659 71.442 91.5028C71.47 91.6384 71.471 91.7787 71.444 91.9146C71.418 92.0505 71.365 92.1794 71.289 92.293C71.213 92.4066 71.115 92.5026 71.002 92.575C70.889 92.6474 70.762 92.6945 70.631 92.7137H70.62L70.39 92.7467L70.162 92.7784C69.44 92.8767 68.717 92.9685 67.9936 93.0539C66.5683 93.2238 65.1408 93.3708 63.711 93.4947C60.87 93.7418 58.0233 93.9039 55.1708 93.981C53.7174 94.0215 52.2644 94.0403 50.8118 94.0375C45.0301 94.0328 39.2534 93.6814 33.5101 92.985C32.8883 92.9079 32.2666 92.8252 31.6448 92.7412C32.1269 92.806 31.2944 92.6916 31.1258 92.6668C30.7306 92.609 30.3354 92.5488 29.9402 92.4863C28.6136 92.2783 27.295 92.0221 25.9711 91.7976C24.3705 91.522 22.8398 91.6599 21.3921 92.4863C20.2037 93.1664 19.2419 94.2093 18.6349 95.4757C18.0105 96.8258 17.8248 98.2957 17.5455 99.7462C17.2662 101.197 16.8315 102.758 16.9962 104.247C17.3505 107.461 19.4991 110.073 22.5895 110.657C25.4968 111.208 28.42 111.654 31.351 112.034C42.8648 113.509 54.4968 113.685 66.0466 112.561C66.9872 112.469 67.9265 112.369 68.864 112.26C69.157 112.227 69.454 112.262 69.732 112.364C70.01 112.465 70.263 112.631 70.472 112.848C70.681 113.065 70.842 113.328 70.941 113.619C71.04 113.909 71.076 114.218 71.046 114.525L70.753 117.498C70.164 123.505 69.575 129.512 68.986 135.518C68.371 141.826 67.7521 148.133 67.1295 154.439C66.9538 156.216 66.7782 157.991 66.6025 159.767C66.4339 161.515 66.4102 163.318 66.0927 165.046C65.5922 167.762 63.8335 169.431 61.2674 170.041C58.9164 170.6 56.5148 170.894 54.1038 170.917C51.431 170.931 48.7594 170.808 46.0866 170.823C43.2333 170.839 39.7384 170.564 37.5358 168.343C35.6007 166.393 35.3333 163.338 35.0698 160.698C34.7185 157.202 34.3703 153.706 34.0252 150.21L32.0887 130.774L30.8359 118.198C30.8149 117.99 30.7938 117.784 30.774 117.575C30.6239 116.075 29.6082 114.606 28.0077 114.682C26.6376 114.745 25.0806 115.963 25.2413 117.575L26.17 126.899L28.0906 146.185C28.6378 151.664 29.1836 157.142 29.7281 162.622C29.8335 163.672 29.9323 164.725 30.0429 165.774C30.6449 171.511 34.834 174.602 40.0216 175.472C43.0515 175.982 46.1551 176.087 49.2297 176.139C53.1711 176.205 57.1521 176.364 61.029 175.618C66.7738 174.515 71.084 170.504 71.699 164.281C71.875 162.485 72.051 160.687 72.226 158.891C72.81 152.947 73.393 147.002 73.976 141.058L75.88 121.633L76.754 112.731C76.797 112.29 76.976 111.875 77.262 111.548C77.549 111.221 77.929 110.998 78.345 110.914C79.988 110.58 81.558 110.008 82.727 108.701C84.587 106.619 84.957 103.905 84.299 101.169ZM22.5052 103.09C22.5302 103.077 22.4841 103.302 22.4644 103.407C22.4604 103.248 22.4683 103.108 22.5052 103.09ZM22.6646 104.379C22.6778 104.37 22.7173 104.425 22.7581 104.491C22.6962 104.43 22.6567 104.385 22.6633 104.379H22.6646ZM22.8214 104.595C22.878 104.696 22.9083 104.759 22.8214 104.595V104.595ZM23.1362 104.863H23.1441C23.1441 104.872 23.1586 104.882 23.1639 104.892C23.1551 104.881 23.1454 104.871 23.1349 104.863H23.1362ZM78.269 104.463C77.679 105.05 76.789 105.323 75.911 105.459C66.0572 106.988 56.06 107.762 46.0984 107.421C38.9691 107.166 31.9148 106.338 24.8566 105.295C24.165 105.193 23.4155 105.061 22.9399 104.528C22.0441 103.522 22.4841 101.497 22.7173 100.282C22.9307 99.1691 23.3391 97.6854 24.605 97.5269C26.581 97.2845 28.8758 98.1565 30.8307 98.4664C33.1843 98.8421 35.5467 99.1428 37.9179 99.3688C48.0375 100.333 58.3271 100.183 68.402 98.7723C70.238 98.5142 72.068 98.2144 73.891 97.8728C75.516 97.5682 77.316 96.9966 78.298 98.7558C78.971 99.9542 79.06 101.558 78.956 102.912C78.924 103.502 78.678 104.057 78.267 104.463H78.269Z" fill="#0D0C22"/>
<path fill-rule="evenodd" clip-rule="evenodd" d="M139.036 150.094C138.461 151.242 137.67 152.242 136.663 153.091C135.656 153.94 134.482 154.632 133.139 155.164C131.797 155.698 130.446 156.056 129.088 156.238C127.729 156.421 126.41 156.405 125.133 156.188C123.854 155.972 122.766 155.531 121.872 154.864L122.88 143.924C123.806 143.591 124.972 143.25 126.379 142.9C127.785 142.55 129.231 142.3 130.718 142.151C132.205 142 133.61 142.018 134.937 142.201C136.263 142.384 137.31 142.825 138.077 143.525C138.493 143.924 138.845 144.357 139.132 144.823C139.42 145.29 139.595 145.773 139.66 146.272C139.819 147.671 139.612 148.945 139.036 150.094ZM124.413 126.789C125.084 126.356 125.892 125.973 126.834 125.639C127.777 125.307 128.744 125.073 129.735 124.94C130.725 124.808 131.692 124.79 132.636 124.89C133.578 124.99 134.41 125.265 135.129 125.714C135.848 126.164 136.383 126.814 136.735 127.662C137.086 128.512 137.182 129.586 137.022 130.885C136.895 131.918 136.502 132.792 135.848 133.508C135.193 134.224 134.393 134.823 133.451 135.306C132.508 135.79 131.509 136.173 130.455 136.455C129.399 136.739 128.384 136.947 127.41 137.08C126.435 137.213 125.588 137.297 124.869 137.329C124.15 137.363 123.678 137.379 123.454 137.379L124.413 126.789ZM144.214 143.025C143.703 141.86 143.016 140.835 142.153 139.952C141.29 139.07 140.266 138.429 139.084 138.029C139.595 137.596 140.099 136.914 140.595 135.981C141.09 135.049 141.513 134.032 141.865 132.933C142.216 131.834 142.457 130.727 142.584 129.611C142.711 128.496 142.663 127.538 142.441 126.738C141.896 124.741 141.042 123.175 139.875 122.043C138.708 120.911 137.35 120.128 135.8 119.694C134.249 119.263 132.54 119.17 130.67 119.42C128.8 119.67 126.89 120.161 124.941 120.894C124.941 120.727 124.957 120.553 124.989 120.369C125.02 120.187 125.036 119.995 125.036 119.795C125.036 119.295 124.797 118.863 124.317 118.496C123.838 118.13 123.287 117.914 122.664 117.846C122.04 117.78 121.433 117.921 120.841 118.271C120.25 118.621 119.842 119.263 119.619 120.194C119.363 123.192 119.107 126.306 118.852 129.536C118.596 132.767 118.324 136.031 118.037 139.328C117.749 142.625 117.461 145.897 117.174 149.144C116.886 152.392 116.598 155.514 116.311 158.511C116.407 159.41 116.646 160.11 117.03 160.609C117.413 161.109 117.861 161.409 118.372 161.509C118.883 161.609 119.419 161.516 119.978 161.234C120.537 160.952 121.025 160.459 121.441 159.76C122.719 160.493 124.158 160.967 125.756 161.184C127.354 161.4 128.975 161.4 130.623 161.184C132.268 160.967 133.89 160.56 135.488 159.96C137.086 159.361 138.541 158.611 139.851 157.712C141.162 156.813 142.264 155.788 143.16 154.64C144.054 153.49 144.646 152.25 144.933 150.918C145.221 149.552 145.301 148.187 145.173 146.821C145.045 145.456 144.725 144.191 144.214 143.025Z" fill="#0D0C23"/>
<path fill-rule="evenodd" clip-rule="evenodd" d="M190.989 169.401C190.814 170.5 190.565 171.657 190.246 172.874C189.926 174.088 189.551 175.196 189.12 176.196C188.688 177.195 188.209 178.001 187.682 178.618C187.154 179.234 186.586 179.492 185.979 179.393C185.5 179.325 185.196 179.009 185.069 178.443C184.94 177.877 184.94 177.177 185.069 176.346C185.196 175.512 185.443 174.571 185.811 173.522C186.179 172.473 186.627 171.432 187.154 170.4C187.682 169.367 188.281 168.377 188.952 167.427C189.623 166.479 190.326 165.687 191.061 165.055C191.221 165.255 191.293 165.754 191.277 166.554C191.26 167.353 191.165 168.303 190.989 169.401ZM207.243 147.72C206.811 147.22 206.284 146.938 205.66 146.871C205.037 146.804 204.405 147.17 203.767 147.97C203.351 148.769 202.823 149.535 202.184 150.268C201.545 151.001 200.882 151.666 200.195 152.266C199.507 152.865 198.852 153.382 198.229 153.814C197.606 154.248 197.118 154.564 196.767 154.764C196.639 153.698 196.566 152.549 196.551 151.317C196.534 150.084 196.559 148.836 196.623 147.57C196.718 145.772 196.918 143.957 197.222 142.125C197.526 140.293 197.965 138.495 198.541 136.729C198.541 135.797 198.332 135.039 197.917 134.456C197.501 133.874 196.998 133.507 196.407 133.357C195.815 133.208 195.209 133.291 194.585 133.607C193.962 133.924 193.427 134.499 192.979 135.33C192.596 136.43 192.156 137.662 191.661 139.027C191.165 140.393 190.606 141.783 189.983 143.198C189.359 144.615 188.664 145.988 187.897 147.32C187.13 148.653 186.291 149.835 185.38 150.867C184.469 151.9 183.478 152.708 182.408 153.29C181.336 153.873 180.179 154.131 178.932 154.065C178.356 153.898 177.94 153.449 177.685 152.715C177.429 151.983 177.277 151.067 177.23 149.968C177.182 148.869 177.23 147.662 177.373 146.346C177.517 145.031 177.709 143.723 177.949 142.425C178.188 141.125 178.452 139.893 178.739 138.728C179.027 137.562 179.298 136.579 179.554 135.78C179.938 134.815 179.938 134.006 179.554 133.357C179.171 132.707 178.644 132.275 177.973 132.058C177.302 131.842 176.598 131.851 175.863 132.083C175.128 132.316 174.6 132.832 174.281 133.632C173.737 134.998 173.241 136.529 172.794 138.228C172.347 139.926 171.987 141.684 171.716 143.498C171.444 145.314 171.291 147.113 171.26 148.894C171.258 149.01 171.263 149.12 171.263 149.236C170.566 151.172 169.902 152.635 169.271 153.615C168.456 154.881 167.536 155.43 166.514 155.263C166.065 155.063 165.771 154.598 165.627 153.864C165.482 153.132 165.435 152.233 165.482 151.166C165.531 150.102 165.651 148.894 165.842 147.545C166.035 146.196 166.273 144.798 166.561 143.349C166.849 141.899 167.153 140.443 167.472 138.977C167.792 137.512 168.079 136.13 168.336 134.831C168.304 133.665 167.976 132.775 167.352 132.158C166.73 131.543 165.858 131.301 164.74 131.434C163.973 131.767 163.405 132.2 163.038 132.733C162.67 133.265 162.374 133.948 162.151 134.781C162.022 135.214 161.831 136.08 161.575 137.379C161.319 138.677 160.992 140.168 160.592 141.85C160.193 143.532 159.721 145.289 159.178 147.12C158.635 148.952 158.027 150.61 157.357 152.091C156.685 153.573 155.95 154.764 155.151 155.663C154.352 156.562 153.489 156.929 152.562 156.762C152.05 156.662 151.723 156.112 151.579 155.114C151.435 154.114 151.412 152.883 151.507 151.417C151.603 149.951 151.795 148.344 152.082 146.596C152.37 144.848 152.665 143.191 152.969 141.625C153.273 140.06 153.553 138.677 153.809 137.479C154.064 136.279 154.24 135.48 154.336 135.081C154.336 134.115 154.127 133.341 153.713 132.758C153.297 132.176 152.794 131.809 152.202 131.659C151.61 131.509 151.003 131.592 150.381 131.908C149.757 132.225 149.222 132.8 148.774 133.632C148.614 134.531 148.406 135.572 148.151 136.754C147.895 137.936 147.648 139.152 147.408 140.401C147.168 141.65 146.944 142.874 146.737 144.073C146.529 145.272 146.377 146.321 146.281 147.22C146.217 147.92 146.145 148.778 146.066 149.793C145.985 150.81 145.945 151.883 145.945 153.015C145.945 154.148 146.025 155.272 146.186 156.387C146.345 157.503 146.633 158.528 147.048 159.459C147.463 160.392 148.047 161.158 148.799 161.757C149.549 162.357 150.5 162.69 151.651 162.757C152.833 162.823 153.864 162.732 154.744 162.482C155.622 162.232 156.421 161.84 157.141 161.307C157.86 160.776 158.515 160.143 159.107 159.409C159.697 158.677 160.281 157.878 160.856 157.012C161.4 158.278 162.103 159.26 162.966 159.959C163.829 160.658 164.74 161.075 165.699 161.208C166.657 161.34 167.633 161.2 168.624 160.783C169.614 160.367 170.509 159.66 171.308 158.66C171.835 158.047 172.331 157.351 172.797 156.581C172.995 156.941 173.205 157.289 173.442 157.611C174.225 158.677 175.288 159.409 176.631 159.809C178.069 160.209 179.474 160.276 180.849 160.009C182.223 159.743 183.534 159.26 184.78 158.561C186.027 157.861 187.185 157.021 188.257 156.038C189.327 155.055 190.262 154.032 191.061 152.965C191.029 153.731 191.013 154.456 191.013 155.138C191.013 155.821 190.997 156.562 190.966 157.361C189.367 158.528 187.857 159.926 186.435 161.558C185.012 163.189 183.765 164.929 182.695 166.778C181.624 168.626 180.785 170.5 180.179 172.398C179.571 174.297 179.275 176.071 179.291 177.72C179.307 179.368 179.682 180.808 180.418 182.04C181.152 183.273 182.351 184.154 184.013 184.687C185.74 185.254 187.257 185.27 188.569 184.738C189.879 184.204 191.021 183.322 191.996 182.09C192.971 180.858 193.77 179.368 194.394 177.619C195.017 175.871 195.512 174.047 195.88 172.149C196.247 170.251 196.479 168.384 196.575 166.554C196.671 164.722 196.671 163.089 196.575 161.657C199.324 160.459 201.577 158.943 203.335 157.111C205.093 155.281 206.547 153.348 207.698 151.317C208.049 150.817 208.169 150.218 208.058 149.518C207.945 148.819 207.674 148.219 207.243 147.72Z" fill="#0D0C23"/>
<path fill-rule="evenodd" clip-rule="evenodd" d="M267.724 144.524C267.82 143.758 267.964 142.95 268.155 142.101C268.347 141.252 268.587 140.427 268.875 139.628C269.162 138.829 269.498 138.138 269.882 137.555C270.265 136.972 270.673 136.556 271.104 136.306C271.536 136.057 271.974 136.081 272.423 136.38C272.902 136.681 273.197 137.313 273.31 138.279C273.421 139.246 273.31 140.278 272.974 141.377C272.638 142.476 272.039 143.508 271.176 144.474C270.313 145.44 269.146 146.072 267.676 146.372C267.612 145.907 267.628 145.29 267.724 144.524ZM284.336 146.572C283.809 146.406 283.306 146.389 282.826 146.522C282.347 146.655 282.043 147.005 281.916 147.572C281.659 148.637 281.251 149.728 280.692 150.843C280.133 151.959 279.446 153.017 278.632 154.016C277.817 155.015 276.897 155.898 275.875 156.663C274.851 157.43 273.781 157.979 272.662 158.312C271.543 158.679 270.616 158.72 269.882 158.437C269.146 158.155 268.563 157.671 268.132 156.988C267.7 156.306 267.388 155.481 267.197 154.516C267.005 153.55 266.893 152.551 266.861 151.518C268.683 151.651 270.305 151.31 271.728 150.494C273.149 149.678 274.356 148.595 275.347 147.247C276.337 145.898 277.089 144.383 277.6 142.7C278.111 141.019 278.399 139.345 278.463 137.68C278.495 136.114 278.272 134.791 277.792 133.708C277.313 132.627 276.665 131.784 275.85 131.185C275.036 130.586 274.1 130.236 273.046 130.137C271.992 130.036 270.92 130.187 269.833 130.586C268.522 131.052 267.412 131.81 266.501 132.859C265.59 133.908 264.831 135.124 264.224 136.506C263.617 137.888 263.137 139.378 262.786 140.977C262.434 142.576 262.178 144.149 262.019 145.698C261.875 147.088 261.798 148.417 261.771 149.7C261.702 149.863 261.636 150.019 261.563 150.194C261.067 151.377 260.491 152.534 259.837 153.666C259.182 154.799 258.454 155.748 257.656 156.514C256.857 157.28 256.026 157.546 255.163 157.313C254.651 157.18 254.372 156.563 254.324 155.465C254.276 154.365 254.331 153 254.491 151.368C254.651 149.737 254.835 147.97 255.043 146.072C255.25 144.174 255.354 142.36 255.354 140.627C255.354 139.129 255.082 137.689 254.539 136.306C253.995 134.925 253.252 133.775 252.31 132.859C251.367 131.943 250.272 131.335 249.026 131.036C247.779 130.735 246.437 130.936 244.999 131.635C243.56 132.334 242.417 133.317 241.571 134.582C240.723 135.849 239.948 137.18 239.245 138.579C238.989 137.513 238.614 136.523 238.118 135.607C237.623 134.691 237.016 133.892 236.297 133.208C235.577 132.526 234.769 131.993 233.876 131.61C232.981 131.228 232.037 131.036 231.046 131.036C230.088 131.036 229.201 131.228 228.386 131.61C227.571 131.993 226.828 132.484 226.156 133.084C225.485 133.684 224.878 134.357 224.334 135.107C223.791 135.856 223.311 136.598 222.896 137.33C222.831 136.464 222.76 135.707 222.681 135.056C222.6 134.408 222.456 133.858 222.249 133.409C222.041 132.959 221.746 132.618 221.362 132.384C220.978 132.152 220.435 132.035 219.732 132.035C219.38 132.035 219.028 132.109 218.677 132.259C218.325 132.409 218.013 132.618 217.742 132.884C217.47 133.151 217.263 133.475 217.119 133.858C216.975 134.241 216.936 134.683 216.999 135.182C217.031 135.549 217.119 135.989 217.263 136.506C217.406 137.022 217.542 137.698 217.67 138.529C217.798 139.362 217.902 140.37 217.982 141.552C218.062 142.734 218.085 144.183 218.054 145.898C218.021 147.614 217.902 149.62 217.694 151.918C217.486 154.216 217.158 156.88 216.711 159.91C216.647 160.61 216.903 161.177 217.479 161.609C218.054 162.042 218.709 162.291 219.444 162.358C220.179 162.425 220.875 162.291 221.53 161.959C222.185 161.625 222.561 161.043 222.656 160.211C222.752 158.645 222.936 156.98 223.208 155.214C223.479 153.45 223.815 151.701 224.215 149.969C224.614 148.238 225.069 146.589 225.581 145.023C226.092 143.458 226.66 142.076 227.283 140.877C227.907 139.678 228.554 138.721 229.225 138.005C229.896 137.289 230.599 136.931 231.335 136.931C232.229 136.931 232.924 137.355 233.42 138.204C233.915 139.054 234.266 140.145 234.475 141.476C234.682 142.809 234.778 144.267 234.763 145.848C234.746 147.43 234.682 148.953 234.571 150.419C234.459 151.885 234.331 153.191 234.187 154.341C234.043 155.49 233.939 156.281 233.876 156.713C233.876 157.48 234.155 158.087 234.714 158.537C235.273 158.986 235.896 159.253 236.584 159.336C237.272 159.42 237.918 159.286 238.526 158.936C239.133 158.586 239.485 157.996 239.581 157.163C239.9 154.765 240.34 152.359 240.899 149.945C241.458 147.53 242.098 145.366 242.817 143.45C243.536 141.535 244.335 139.97 245.214 138.754C246.093 137.539 247.028 136.931 248.019 136.931C248.53 136.931 248.922 137.298 249.193 138.03C249.465 138.762 249.601 139.761 249.601 141.027C249.601 141.96 249.529 142.917 249.386 143.9C249.241 144.882 249.074 145.898 248.882 146.947C248.69 147.996 248.522 149.07 248.378 150.169C248.235 151.269 248.163 152.417 248.163 153.616C248.163 154.449 248.243 155.415 248.403 156.514C248.562 157.612 248.865 158.654 249.313 159.636C249.761 160.619 250.376 161.451 251.16 162.133C251.943 162.816 252.941 163.158 254.155 163.158C255.978 163.158 257.591 162.75 258.998 161.934C260.404 161.118 261.611 160.053 262.618 158.737C262.67 158.668 262.718 158.594 262.769 158.526C262.846 158.721 262.914 158.927 263.001 159.112C263.688 160.577 264.623 161.709 265.806 162.509C266.988 163.308 268.379 163.749 269.978 163.833C271.575 163.915 273.317 163.607 275.204 162.908C276.609 162.375 277.832 161.709 278.871 160.91C279.909 160.11 280.844 159.136 281.675 157.987C282.507 156.838 283.265 155.514 283.953 154.016C284.641 152.517 285.335 150.802 286.038 148.87C286.166 148.338 286.046 147.863 285.679 147.446C285.311 147.031 284.864 146.739 284.336 146.572Z" fill="#0D0C23"/>
<path fill-rule="evenodd" clip-rule="evenodd" d="M310.393 140.999C310.233 141.982 310.018 143.065 309.746 144.247C309.474 145.43 309.131 146.653 308.715 147.919C308.3 149.185 307.788 150.325 307.181 151.341C306.574 152.357 305.878 153.164 305.096 153.764C304.312 154.363 303.41 154.613 302.387 154.513C301.875 154.447 301.483 154.081 301.212 153.414C300.94 152.748 300.797 151.899 300.78 150.866C300.764 149.834 300.852 148.702 301.044 147.469C301.236 146.238 301.531 145.03 301.932 143.847C302.331 142.666 302.818 141.574 303.393 140.575C303.969 139.576 304.632 138.801 305.383 138.252C306.134 137.702 306.958 137.445 307.852 137.478C308.747 137.511 309.706 137.977 310.729 138.876C310.664 139.31 310.553 140.018 310.393 140.999ZM327.437 144.821C326.941 144.555 326.43 144.497 325.903 144.647C325.376 144.796 325 145.305 324.777 146.17C324.649 147.103 324.361 148.202 323.914 149.467C323.466 150.733 322.914 151.933 322.26 153.064C321.604 154.197 320.853 155.138 320.006 155.887C319.159 156.637 318.256 156.978 317.298 156.91C316.498 156.845 315.938 156.42 315.62 155.637C315.299 154.854 315.132 153.873 315.116 152.689C315.099 151.508 315.212 150.176 315.451 148.694C315.691 147.212 315.979 145.738 316.314 144.272C316.65 142.807 316.994 141.399 317.346 140.051C317.697 138.702 317.984 137.561 318.209 136.629C318.464 135.796 318.384 135.089 317.969 134.505C317.553 133.923 317.034 133.506 316.411 133.257C315.787 133.007 315.155 132.94 314.516 133.057C313.877 133.174 313.462 133.532 313.27 134.13C311.384 132.432 309.57 131.516 307.829 131.383C306.086 131.25 304.48 131.65 303.01 132.582C301.539 133.514 300.237 134.863 299.103 136.629C297.968 138.395 297.049 140.317 296.345 142.399C295.642 144.48 295.203 146.604 295.027 148.768C294.851 150.933 294.987 152.907 295.435 154.688C295.883 156.47 296.673 157.928 297.808 159.059C298.942 160.191 300.485 160.758 302.435 160.758C303.298 160.758 304.129 160.575 304.928 160.209C305.726 159.842 306.462 159.409 307.133 158.909C307.804 158.41 308.395 157.885 308.908 157.336C309.418 156.786 309.818 156.329 310.106 155.962C310.329 157.161 310.697 158.177 311.209 159.01C311.719 159.842 312.303 160.525 312.958 161.057C313.613 161.59 314.301 161.981 315.02 162.232C315.739 162.481 316.435 162.606 317.105 162.606C318.608 162.606 320.013 162.073 321.325 161.007C322.635 159.942 323.81 158.634 324.849 157.086C325.887 155.537 326.743 153.906 327.413 152.19C328.085 150.475 328.532 148.951 328.756 147.619C328.98 147.119 328.939 146.595 328.636 146.046C328.332 145.496 327.933 145.089 327.437 144.821Z" fill="#0D0C23"/>
<path fill-rule="evenodd" clip-rule="evenodd" d="M413.738 172.401C413.467 173.533 413.043 174.492 412.467 175.274C411.892 176.056 411.173 176.464 410.31 176.498C409.767 176.531 409.351 176.231 409.063 175.599C408.776 174.965 408.576 174.15 408.464 173.151C408.352 172.151 408.304 171.035 408.32 169.803C408.336 168.572 408.384 167.355 408.464 166.156C408.543 164.958 408.64 163.841 408.752 162.81C408.863 161.776 408.951 160.979 409.015 160.412C410.102 160.545 411.006 161.036 411.724 161.885C412.443 162.735 412.995 163.742 413.378 164.908C413.762 166.073 413.985 167.331 414.05 168.679C414.113 170.028 414.009 171.269 413.738 172.401ZM396.382 172.401C396.111 173.533 395.687 174.492 395.112 175.274C394.537 176.056 393.817 176.464 392.954 176.498C392.411 176.531 391.996 176.231 391.708 175.599C391.42 174.965 391.22 174.15 391.109 173.151C390.996 172.151 390.948 171.035 390.965 169.803C390.98 168.572 391.028 167.355 391.109 166.156C391.188 164.958 391.284 163.841 391.396 162.81C391.508 161.776 391.595 160.979 391.66 160.412C392.746 160.545 393.65 161.036 394.368 161.885C395.088 162.735 395.639 163.742 396.023 164.908C396.407 166.073 396.63 167.331 396.694 168.679C396.757 170.028 396.653 171.269 396.382 172.401ZM378.572 144.026C378.539 144.825 378.467 145.533 378.355 146.149C378.243 146.766 378.092 147.156 377.9 147.323C377.548 147.123 377.116 146.608 376.605 145.774C376.094 144.942 375.695 144 375.406 142.951C375.119 141.902 375.03 140.871 375.143 139.854C375.254 138.839 375.758 138.048 376.653 137.481C377.004 137.281 377.308 137.356 377.564 137.706C377.82 138.056 378.027 138.564 378.188 139.23C378.347 139.896 378.458 140.662 378.523 141.528C378.587 142.394 378.603 143.226 378.572 144.026ZM374.328 153.992C373.832 154.541 373.28 155.016 372.674 155.416C372.066 155.816 371.443 156.115 370.804 156.315C370.164 156.515 369.589 156.565 369.078 156.465C367.64 156.166 366.537 155.515 365.77 154.517C365.003 153.518 364.515 152.344 364.308 150.995C364.1 149.646 364.123 148.205 364.38 146.673C364.635 145.142 365.066 143.718 365.674 142.402C366.281 141.087 367.017 139.954 367.879 139.005C368.742 138.056 369.685 137.465 370.708 137.231C370.324 138.93 370.197 140.687 370.324 142.502C370.452 144.317 370.868 146.024 371.571 147.622C372.018 148.589 372.554 149.471 373.177 150.27C373.801 151.07 374.56 151.753 375.455 152.319C375.199 152.885 374.823 153.443 374.328 153.992ZM427.378 144.526C427.474 143.76 427.617 142.951 427.81 142.102C428.001 141.253 428.241 140.429 428.528 139.63C428.816 138.83 429.152 138.139 429.536 137.557C429.92 136.974 430.326 136.557 430.758 136.307C431.19 136.058 431.629 136.082 432.076 136.382C432.556 136.683 432.851 137.315 432.963 138.28C433.075 139.247 432.963 140.279 432.628 141.378C432.292 142.477 431.693 143.51 430.83 144.475C429.968 145.442 428.8 146.074 427.33 146.374C427.266 145.908 427.282 145.292 427.378 144.526ZM446.7 144.526C446.796 143.76 446.939 142.951 447.131 142.102C447.323 141.253 447.563 140.429 447.851 139.63C448.138 138.83 448.473 138.139 448.857 137.557C449.241 136.974 449.649 136.557 450.08 136.307C450.512 136.058 450.951 136.082 451.398 136.382C451.878 136.683 452.173 137.315 452.285 138.28C452.397 139.247 452.285 140.279 451.95 141.378C451.614 142.477 451.015 143.51 450.152 144.475C449.289 145.442 448.122 146.074 446.652 146.374C446.588 145.908 446.604 145.292 446.7 144.526ZM464.655 147.448C464.287 147.032 463.84 146.741 463.313 146.573C462.785 146.407 462.282 146.391 461.802 146.524C461.323 146.657 461.018 147.007 460.891 147.573C460.635 148.639 460.228 149.73 459.669 150.844C459.109 151.961 458.422 153.018 457.607 154.017C456.792 155.016 455.873 155.899 454.851 156.665C453.827 157.431 452.757 157.981 451.639 158.313C450.519 158.68 449.592 158.722 448.857 158.438C448.122 158.156 447.539 157.673 447.107 156.99C446.676 156.307 446.365 155.483 446.172 154.517C445.981 153.551 445.868 152.552 445.837 151.519C447.659 151.653 449.281 151.312 450.703 150.495C452.125 149.679 453.332 148.596 454.324 147.248C455.314 145.9 456.065 144.384 456.576 142.702C457.087 141.02 457.375 139.347 457.44 137.681C457.471 136.116 457.247 134.792 456.768 133.71C456.289 132.628 455.642 131.786 454.827 131.187C454.011 130.587 453.077 130.238 452.021 130.138C450.967 130.037 449.896 130.188 448.809 130.587C447.498 131.054 446.388 131.811 445.478 132.86C444.567 133.91 443.807 135.126 443.2 136.507C442.592 137.89 442.113 139.379 441.761 140.978C441.409 142.577 441.154 144.151 440.995 145.699C440.839 147.202 440.755 148.64 440.736 150.017C440.615 150.291 440.486 150.567 440.347 150.844C439.787 151.961 439.1 153.018 438.285 154.017C437.471 155.016 436.551 155.899 435.529 156.665C434.506 157.431 433.435 157.981 432.317 158.313C431.197 158.68 430.271 158.722 429.536 158.438C428.8 158.156 428.217 157.673 427.786 156.99C427.355 156.307 427.043 155.483 426.851 154.517C426.659 153.551 426.547 152.552 426.515 151.519C428.337 151.653 429.959 151.312 431.382 150.495C432.803 149.679 434.01 148.596 435.001 147.248C435.992 145.9 436.743 144.384 437.254 142.702C437.765 141.02 438.054 139.347 438.117 137.681C438.149 136.116 437.926 134.792 437.447 133.71C436.967 132.628 436.319 131.786 435.504 131.187C434.689 130.587 433.755 130.238 432.7 130.138C431.645 130.037 430.574 130.188 429.488 130.587C428.176 131.054 427.066 131.811 426.156 132.86C425.245 133.91 424.485 135.126 423.878 136.507C423.271 137.89 422.792 139.379 422.44 140.978C422.088 142.577 421.832 144.151 421.673 145.699C421.582 146.573 421.522 147.419 421.477 148.251C421.168 148.525 420.867 148.8 420.546 149.071C419.444 150.004 418.284 150.844 417.07 151.594C415.855 152.344 414.592 152.96 413.283 153.443C411.971 153.926 410.629 154.217 409.255 154.317L412.228 121.145C412.42 120.446 412.324 119.83 411.94 119.297C411.557 118.764 411.061 118.398 410.454 118.198C409.847 117.998 409.199 118.015 408.512 118.248C407.824 118.482 407.258 119.015 406.81 119.846C406.586 121.112 406.354 122.844 406.115 125.042C405.875 127.24 405.635 129.638 405.396 132.236C405.156 134.834 404.916 137.515 404.677 140.279C404.437 143.044 404.229 145.625 404.053 148.022C404.045 148.129 404.039 148.225 404.031 148.33C403.751 148.577 403.48 148.826 403.19 149.071C402.088 150.004 400.928 150.844 399.714 151.594C398.499 152.344 397.237 152.96 395.927 153.443C394.616 153.926 393.273 154.217 391.899 154.317L394.872 121.145C395.064 120.446 394.968 119.83 394.585 119.297C394.201 118.764 393.705 118.398 393.098 118.198C392.491 117.998 391.843 118.015 391.156 118.248C390.469 118.482 389.902 119.015 389.454 119.846C389.23 121.112 388.999 122.844 388.76 125.042C388.519 127.24 388.28 129.638 388.04 132.236C387.8 134.834 387.561 137.515 387.321 140.279C387.082 143.044 386.873 145.625 386.698 148.022C386.694 148.07 386.691 148.114 386.687 148.162C386.185 148.405 385.638 148.618 385.043 148.797C384.436 148.98 383.749 149.089 382.982 149.122C383.11 148.522 383.213 147.855 383.293 147.123C383.373 146.391 383.438 145.625 383.486 144.825C383.534 144.026 383.549 143.226 383.534 142.427C383.517 141.627 383.477 140.895 383.414 140.229C383.253 138.798 382.958 137.44 382.527 136.157C382.095 134.876 381.512 133.802 380.777 132.935C380.041 132.069 379.123 131.486 378.019 131.187C376.917 130.887 375.63 130.987 374.161 131.486C371.986 131.187 370.029 131.396 368.287 132.111C366.545 132.828 365.034 133.868 363.756 135.233C362.478 136.6 361.431 138.206 360.616 140.054C359.801 141.902 359.257 143.801 358.986 145.749C358.871 146.575 358.815 147.397 358.798 148.217C358.303 149.273 357.761 150.195 357.164 150.97C356.317 152.069 355.438 152.968 354.527 153.667C353.616 154.367 352.713 154.9 351.819 155.266C350.923 155.633 350.124 155.883 349.421 156.015C348.59 156.182 347.791 156.199 347.024 156.065C346.257 155.933 345.553 155.55 344.915 154.916C344.403 154.451 344.011 153.701 343.74 152.668C343.468 151.636 343.309 150.463 343.261 149.146C343.213 147.831 343.261 146.457 343.404 145.025C343.548 143.593 343.795 142.236 344.147 140.954C344.499 139.671 344.945 138.522 345.49 137.506C346.032 136.491 346.672 135.766 347.408 135.333C347.822 135.4 348.079 135.658 348.175 136.107C348.271 136.557 348.294 137.09 348.246 137.706C348.199 138.323 348.127 138.955 348.031 139.604C347.935 140.254 347.887 140.796 347.887 141.228C348.047 142.127 348.358 142.827 348.822 143.326C349.285 143.826 349.805 144.118 350.38 144.2C350.955 144.284 351.522 144.143 352.083 143.776C352.641 143.41 353.096 142.827 353.449 142.027C353.48 142.061 353.528 142.077 353.592 142.077L354.264 135.733C354.455 134.867 354.327 134.101 353.88 133.435C353.432 132.769 352.841 132.386 352.106 132.286C351.179 130.887 349.924 130.146 348.342 130.063C346.76 129.98 345.138 130.521 343.476 131.687C342.453 132.453 341.55 133.51 340.767 134.859C339.983 136.208 339.345 137.706 338.85 139.355C338.353 141.003 338.002 142.744 337.795 144.576C337.587 146.407 337.547 148.19 337.674 149.92C337.802 151.653 338.098 153.285 338.562 154.816C339.025 156.349 339.672 157.631 340.504 158.663C341.207 159.562 342.005 160.22 342.9 160.637C343.795 161.053 344.73 161.311 345.705 161.411C346.68 161.51 347.647 161.468 348.606 161.286C349.565 161.103 350.476 160.845 351.339 160.511C352.457 160.079 353.609 159.529 354.791 158.863C355.973 158.197 357.108 157.398 358.195 156.465C358.767 155.974 359.317 155.439 359.849 154.866C360.091 155.492 360.362 156.098 360.688 156.665C361.551 158.163 362.717 159.379 364.188 160.312C365.657 161.244 367.464 161.693 369.605 161.66C371.907 161.627 374.032 161.02 375.982 159.837C377.932 158.656 379.53 156.914 380.777 154.617C382.644 154.617 384.481 154.296 386.287 153.659C386.272 153.861 386.256 154.073 386.242 154.267C386.115 156.033 386.05 157.231 386.05 157.864C386.019 158.963 385.947 160.32 385.835 161.935C385.723 163.55 385.651 165.249 385.619 167.03C385.588 168.812 385.651 170.611 385.811 172.426C385.971 174.241 386.306 175.89 386.818 177.373C387.328 178.853 388.055 180.111 388.999 181.145C389.941 182.176 391.18 182.793 392.715 182.992C394.345 183.225 395.751 182.925 396.934 182.093C398.116 181.26 399.075 180.12 399.811 178.671C400.546 177.222 401.064 175.549 401.369 173.651C401.672 171.752 401.76 169.845 401.633 167.929C401.504 166.015 401.168 164.208 400.625 162.51C400.082 160.811 399.33 159.412 398.372 158.313C398.948 158.147 399.634 157.831 400.434 157.364C401.232 156.898 402.055 156.373 402.903 155.79C403.111 155.647 403.316 155.496 403.524 155.349C403.446 156.529 403.406 157.371 403.406 157.864C403.375 158.963 403.303 160.32 403.19 161.935C403.079 163.55 403.007 165.249 402.975 167.03C402.943 168.812 403.007 170.611 403.167 172.426C403.326 174.241 403.662 175.89 404.173 177.373C404.684 178.853 405.412 180.111 406.354 181.145C407.297 182.176 408.536 182.793 410.071 182.992C411.7 183.225 413.106 182.925 414.289 182.093C415.472 181.26 416.431 180.12 417.166 178.671C417.901 177.222 418.42 175.549 418.724 173.651C419.028 171.752 419.115 169.845 418.988 167.929C418.86 166.015 418.524 164.208 417.982 162.51C417.437 160.811 416.687 159.412 415.727 158.313C416.303 158.147 416.99 157.831 417.789 157.364C418.588 156.898 419.411 156.373 420.259 155.79C420.699 155.487 421.136 155.175 421.573 154.854C421.737 156.482 422.091 157.911 422.655 159.113C423.343 160.579 424.277 161.711 425.46 162.51C426.642 163.309 428.033 163.751 429.632 163.834C431.23 163.916 432.971 163.609 434.858 162.909C436.264 162.377 437.486 161.711 438.525 160.911C439.563 160.111 440.498 159.137 441.33 157.989C441.378 157.922 441.423 157.85 441.47 157.783C441.618 158.249 441.782 158.698 441.977 159.113C442.665 160.579 443.6 161.711 444.782 162.51C445.964 163.309 447.355 163.751 448.953 163.834C450.551 163.916 452.293 163.609 454.179 162.909C455.586 162.377 456.808 161.711 457.847 160.911C458.885 160.111 459.82 159.137 460.652 157.989C461.483 156.839 462.241 155.515 462.929 154.017C463.616 152.518 464.311 150.804 465.015 148.871C465.142 148.339 465.022 147.864 464.655 147.448Z" fill="#0D0C23"/>
<path d="M121.386 97.6932H116V80.2387H121.625C123.318 80.2387 124.767 80.5881 125.971 81.287C127.176 81.9801 128.099 82.9773 128.741 84.2784C129.383 85.5739 129.704 87.125 129.704 88.9318C129.704 90.75 129.38 92.3154 128.733 93.6279C128.085 94.9347 127.142 95.9404 125.903 96.6449C124.664 97.3438 123.159 97.6932 121.386 97.6932ZM118.113 95.8182H121.25C122.693 95.8182 123.889 95.5398 124.838 94.983C125.787 94.4262 126.494 93.6335 126.96 92.6051C127.426 91.5767 127.659 90.3523 127.659 88.9318C127.659 87.5227 127.429 86.3097 126.968 85.2926C126.508 84.2699 125.821 83.4858 124.906 82.9404C123.991 82.3892 122.852 82.1137 121.488 82.1137H118.113V95.8182ZM147.977 88.9659C147.977 90.8068 147.645 92.3977 146.98 93.7387C146.315 95.0796 145.403 96.1137 144.244 96.8409C143.085 97.5682 141.761 97.9318 140.272 97.9318C138.784 97.9318 137.46 97.5682 136.301 96.8409C135.142 96.1137 134.23 95.0796 133.565 93.7387C132.9 92.3977 132.568 90.8068 132.568 88.9659C132.568 87.125 132.9 85.5341 133.565 84.1932C134.23 82.8523 135.142 81.8182 136.301 81.0909C137.46 80.3637 138.784 80 140.272 80C141.761 80 143.085 80.3637 144.244 81.0909C145.403 81.8182 146.315 82.8523 146.98 84.1932C147.645 85.5341 147.977 87.125 147.977 88.9659ZM145.931 88.9659C145.931 87.4546 145.679 86.179 145.173 85.1392C144.673 84.0994 143.994 83.3125 143.136 82.7784C142.284 82.2443 141.329 81.9773 140.272 81.9773C139.216 81.9773 138.258 82.2443 137.4 82.7784C136.548 83.3125 135.869 84.0994 135.363 85.1392C134.863 86.179 134.613 87.4546 134.613 88.9659C134.613 90.4773 134.863 91.7529 135.363 92.7926C135.869 93.8324 136.548 94.6193 137.4 95.1534C138.258 95.6875 139.216 95.9546 140.272 95.9546C141.329 95.9546 142.284 95.6875 143.136 95.1534C143.994 94.6193 144.673 93.8324 145.173 92.7926C145.679 91.7529 145.931 90.4773 145.931 88.9659ZM165.372 80.2387V97.6932H163.326L153.815 83.9887H153.645V97.6932H151.531V80.2387H153.576L163.122 93.9773H163.292V80.2387H165.372ZM170.317 97.6932H168.101L174.51 80.2387H176.692L183.101 97.6932H180.885L175.669 83H175.533L170.317 97.6932ZM171.135 90.875H180.067V92.75H171.135V90.875ZM182.826 82.1137V80.2387H195.917V82.1137H190.429V97.6932H188.315V82.1137H182.826ZM199.179 97.6932V80.2387H209.713V82.1137H201.293V88.0114H209.168V89.8864H201.293V95.8182H209.85V97.6932H199.179ZM223.444 97.6932L218.671 80.2387H220.819L224.466 94.4546H224.637L228.353 80.2387H230.739L234.455 94.4546H234.625L238.273 80.2387H240.421L235.648 97.6932H233.466L229.614 83.7841H229.478L225.625 97.6932H223.444ZM245.168 80.2387V97.6932H243.054V80.2387H245.168ZM248.451 82.1137V80.2387H261.542V82.1137H256.054V97.6932H253.94V82.1137H248.451ZM264.804 97.6932V80.2387H266.918V88.0114H276.225V80.2387H278.338V97.6932H276.225V89.8864H266.918V97.6932H264.804Z" fill="black" fill-opacity="0.55"/>
</svg>
