<svg width="405" height="150" viewBox="0 0 405 150" fill="none" xmlns="http://www.w3.org/2000/svg">
<path d="M364.865 15H0V135H364.865V15Z" fill="#FFDD00"/>
<path d="M64.2104 55.8503L64.1591 55.8203L64.0398 55.7838C64.0879 55.8243 64.1476 55.8478 64.2104 55.8503Z" fill="#0D0C22"/>
<path d="M64.2233 55.8389C64.216 55.8381 64.2095 55.8365 64.203 55.834C64.2022 55.8389 64.2022 55.843 64.203 55.8478C64.2103 55.847 64.2168 55.8438 64.2233 55.8389Z" fill="#0D0C22"/>
<path d="M64.2022 55.8495H64.2127V55.843L64.2022 55.8495Z" fill="#0D0C22"/>
<path d="M64.8726 60.9211L64.9623 60.87L64.9956 60.8514L65.0258 60.8189C64.9695 60.8433 64.9171 60.8781 64.8726 60.9211Z" fill="#0D0C22"/>
<path d="M64.3536 55.9687L64.2654 55.8843L64.2059 55.8527C64.2384 55.9087 64.2908 55.9508 64.3536 55.9687Z" fill="#0D0C22"/>
<path d="M46.5129 72.1362C43.9615 73.2284 41.0661 74.4673 37.3136 74.4673C35.7438 74.4641 34.1816 74.2484 32.6695 73.8268L35.2649 100.473C35.3567 101.586 35.8641 102.625 36.6862 103.382C37.5083 104.139 38.585 104.559 39.7025 104.559C39.7025 104.559 43.3824 104.75 44.6103 104.75C45.9319 104.75 49.8946 104.559 49.8946 104.559C51.012 104.559 52.0884 104.139 52.9104 103.382C53.7323 102.624 54.2395 101.586 54.3314 100.473L57.1111 71.0278C55.8689 70.6038 54.6152 70.3216 53.2018 70.3216C50.7575 70.3208 48.7881 71.1624 46.5129 72.1362Z" fill="white"/>
<path d="M24.6399 60.7686L24.689 60.8141L24.7211 60.8335C24.6964 60.8092 24.6692 60.7873 24.6399 60.7686Z" fill="#0D0C22"/>
<path d="M69.1172 58.3095L68.727 56.3376C68.3759 54.569 67.5801 52.8977 65.7645 52.2584C65.1827 52.0539 64.5219 51.966 64.0758 51.5427C63.6297 51.1194 63.4977 50.4619 63.3946 49.8523C63.2038 48.7333 63.024 47.6134 62.8281 46.4963C62.6591 45.536 62.5249 44.4572 62.0846 43.5761C61.5115 42.3931 60.3219 41.7013 59.1388 41.2436C58.5324 41.0173 57.9136 40.8259 57.2857 40.6703C54.3301 39.8904 51.2227 39.6038 48.1819 39.4404C44.5323 39.239 40.873 39.2997 37.232 39.622C34.5221 39.8685 31.6678 40.1667 29.0925 41.104C28.1513 41.4471 27.1815 41.8589 26.4657 42.5861C25.5875 43.4796 25.3009 44.8614 25.9421 45.9755C26.3979 46.7668 27.1699 47.3257 27.9889 47.6955C29.0556 48.172 30.1695 48.5346 31.3123 48.7772C34.4943 49.4806 37.7902 49.7568 41.041 49.8743C44.6441 50.0197 48.2531 49.9018 51.8389 49.5216C52.7257 49.4243 53.6109 49.3073 54.4945 49.171C55.535 49.0114 56.203 47.6506 55.8963 46.7027C55.5294 45.5694 54.5432 45.1299 53.4281 45.3009C53.2637 45.3268 53.1003 45.3506 52.9359 45.3745L52.8174 45.3917C52.4397 45.4395 52.0619 45.484 51.6841 45.5255C50.9038 45.6096 50.1215 45.6784 49.3373 45.7318C47.581 45.8542 45.8198 45.9106 44.0596 45.9135C42.3301 45.9135 40.5995 45.8646 38.8738 45.751C38.0864 45.6993 37.3009 45.6338 36.5173 45.5541C36.1609 45.5169 35.8054 45.4776 35.4499 45.4337L35.1117 45.3907L35.0381 45.3803L34.6874 45.3296C33.9707 45.2216 33.254 45.0974 32.5451 44.9474C32.4735 44.9315 32.4094 44.8917 32.3636 44.8346C32.3178 44.7774 32.2927 44.7062 32.2927 44.6329C32.2927 44.5597 32.3178 44.4886 32.3636 44.4315C32.4094 44.3743 32.4735 44.3345 32.5451 44.3186H32.5584C33.1729 44.1876 33.792 44.0758 34.4131 43.9784C34.6202 43.9459 34.8279 43.914 35.0362 43.8829H35.0419C35.4308 43.857 35.8217 43.7873 36.2087 43.7414C39.5758 43.3912 42.9629 43.2718 46.3464 43.384C47.9889 43.4318 49.6306 43.5284 51.2655 43.6946C51.6173 43.7309 51.9671 43.7692 52.3168 43.8121C52.4505 43.8284 52.5853 43.8475 52.72 43.8637L52.9914 43.903C53.7826 44.0207 54.5697 44.1638 55.3526 44.332C56.5127 44.5842 58.0021 44.6664 58.5186 45.9374C58.6825 46.3406 58.7573 46.7887 58.8479 47.212L58.9639 47.7519C58.9669 47.7616 58.9691 47.7716 58.9705 47.7816C59.244 49.0557 59.5175 50.3297 59.7909 51.6039C59.8112 51.6979 59.812 51.7952 59.7924 51.8895C59.7735 51.9838 59.735 52.0732 59.68 52.152C59.6248 52.2308 59.5537 52.2975 59.4718 52.3476C59.3898 52.3978 59.2977 52.4305 59.2027 52.4438H59.1946L59.0278 52.4667L58.8624 52.4887C58.3387 52.5569 57.8142 52.6206 57.2895 52.6798C56.2556 52.7976 55.2201 52.8996 54.1829 52.9856C52.1221 53.157 50.0571 53.2695 47.988 53.3229C46.9337 53.3509 45.8797 53.3641 44.826 53.362C40.632 53.3588 36.4417 53.1151 32.2755 52.6321C31.8245 52.5785 31.3735 52.5212 30.9225 52.4629C31.2722 52.5079 30.6683 52.4285 30.546 52.4113C30.2593 52.3712 29.9727 52.3295 29.686 52.2861C28.7237 52.1419 27.7672 51.9641 26.8069 51.8084C25.6458 51.6173 24.5354 51.7129 23.4853 52.2861C22.6232 52.7578 21.9255 53.4812 21.4852 54.3597C21.0323 55.2965 20.8976 56.3157 20.695 57.3219C20.4924 58.3281 20.177 59.4105 20.2965 60.4435C20.5536 62.6732 22.1121 64.4846 24.3538 64.89C26.4628 65.2727 28.5833 65.5816 30.7094 65.8459C39.0613 66.8684 47.4991 66.9908 55.8772 66.2108C56.5595 66.1468 57.2408 66.0778 57.9208 66.0024C58.1334 65.9789 58.3489 66.0032 58.5505 66.0738C58.7522 66.1443 58.9356 66.2594 59.0873 66.4103C59.2389 66.5603 59.3557 66.7435 59.4275 66.9446C59.4993 67.1457 59.5254 67.3605 59.5037 67.5738L59.2911 69.6357C58.8639 73.8024 58.4366 77.9692 58.0094 82.1351C57.5633 86.5103 57.1143 90.8854 56.6627 95.2597C56.5352 96.4922 56.4079 97.7238 56.2804 98.9554C56.1581 100.168 56.1409 101.419 55.9106 102.617C55.5475 104.501 54.2718 105.659 52.4104 106.082C50.705 106.47 48.9629 106.674 47.214 106.69C45.2752 106.7 43.3372 106.614 41.3984 106.624C39.3286 106.636 36.7935 106.445 35.1958 104.904C33.792 103.552 33.5981 101.432 33.4069 99.6016C33.1521 97.1765 32.8995 94.7513 32.6492 92.3262L31.2444 78.844L30.3357 70.1205C30.3204 69.9762 30.3052 69.8343 30.2908 69.6892C30.1819 68.6481 29.4452 67.6297 28.2842 67.6824C27.2903 67.7262 26.1609 68.5711 26.2774 69.6892L26.9511 76.1562L28.3443 89.5346C28.7412 93.3349 29.1371 97.1351 29.5321 100.936C29.6085 101.664 29.6802 102.395 29.7605 103.122C30.1972 107.102 33.2359 109.246 36.9989 109.849C39.1968 110.204 41.4481 110.276 43.6784 110.312C46.5374 110.358 49.4252 110.468 52.2375 109.95C56.4046 109.185 59.5312 106.404 59.9774 102.087C60.105 100.841 60.2327 99.5943 60.3596 98.3481C60.7832 94.2243 61.2062 90.1013 61.6291 85.9776L63.0102 72.5043L63.6442 66.3292C63.6754 66.0227 63.8052 65.7349 64.0127 65.5078C64.2208 65.2808 64.4965 65.1267 64.7983 65.0692C65.9901 64.8365 67.129 64.44 67.9769 63.5335C69.3262 62.0895 69.5946 60.2067 69.1172 58.3095ZM24.2927 59.6408C24.3109 59.6327 24.2774 59.7884 24.2631 59.8613C24.2602 59.7511 24.266 59.6538 24.2927 59.6408ZM24.4083 60.5359C24.4179 60.5286 24.4466 60.5667 24.4762 60.613C24.4313 60.5708 24.4026 60.5392 24.4074 60.5359H24.4083ZM24.5221 60.6859C24.5851 60.7995 24.5631 60.7557 24.5221 60.6859ZM24.7504 60.8708H24.7562C24.7562 60.8773 24.7667 60.8846 24.7705 60.8911C24.7641 60.8838 24.7571 60.8773 24.7495 60.8708H24.7504ZM64.7432 60.5935C64.3151 61.0005 63.6696 61.1903 63.0327 61.2851C55.8848 62.3457 48.633 62.8824 41.407 62.6457C36.2355 62.4689 31.1184 61.894 25.9984 61.1708C25.4967 61.1003 24.953 61.0086 24.608 60.6389C23.9582 59.9416 24.2774 58.5365 24.4466 57.694C24.6014 56.9213 24.8976 55.8924 25.8159 55.7822C27.2492 55.6143 28.9138 56.2192 30.332 56.434C32.0392 56.6951 33.7528 56.9035 35.4729 57.06C42.8136 57.7289 50.2775 57.6251 57.5857 56.6465C58.9176 56.4673 60.245 56.2597 61.5674 56.0222C62.7461 55.8113 64.0519 55.4149 64.7642 56.6351C65.2524 57.4662 65.317 58.5786 65.2415 59.5176C65.2183 59.927 65.0398 60.3122 64.7417 60.5935H64.7432Z" fill="#0D0C22"/>
<path fill-rule="evenodd" clip-rule="evenodd" d="M108.097 80.4535C107.681 81.2505 107.106 81.9438 106.376 82.5324C105.646 83.1219 104.794 83.6011 103.82 83.9708C102.846 84.3405 101.866 84.5895 100.881 84.7159C99.8959 84.8424 98.9392 84.8319 98.0124 84.6811C97.0849 84.5311 96.2959 84.2254 95.6473 83.7624L96.3786 76.174C97.05 75.943 97.8957 75.7062 98.9165 75.4638C99.9365 75.2213 100.985 75.0478 102.064 74.944C103.142 74.8395 104.162 74.8516 105.124 74.9781C106.086 75.1054 106.845 75.4111 107.402 75.8968C107.704 76.1741 107.959 76.4741 108.167 76.7976C108.376 77.1211 108.504 77.4559 108.551 77.803C108.666 78.7727 108.516 79.6565 108.097 80.4535ZM97.4903 64.2884C97.9768 63.9876 98.563 63.7216 99.2465 63.4905C99.9308 63.2603 100.632 63.0981 101.351 63.0057C102.069 62.914 102.77 62.9019 103.455 62.9708C104.138 63.0405 104.742 63.2311 105.264 63.5424C105.785 63.8546 106.173 64.3054 106.429 64.894C106.683 65.4835 106.753 66.2286 106.637 67.1295C106.545 67.8454 106.259 68.4519 105.785 68.9489C105.31 69.4459 104.73 69.8611 104.046 70.1959C103.362 70.5316 102.637 70.7976 101.873 70.993C101.107 71.19 100.371 71.3343 99.6641 71.4259C98.957 71.5192 98.3424 71.5768 97.8211 71.5995C97.2997 71.623 96.9568 71.6343 96.7946 71.6343L97.4903 64.2884ZM111.854 75.5497C111.483 74.7422 110.985 74.0319 110.359 73.4189C109.733 72.8068 108.99 72.3624 108.132 72.0851C108.504 71.7843 108.868 71.3108 109.228 70.6638C109.588 70.0176 109.894 69.313 110.149 68.55C110.404 67.7878 110.579 67.02 110.672 66.2457C110.763 65.4722 110.728 64.8081 110.568 64.2527C110.172 62.867 109.553 61.7813 108.706 60.9957C107.86 60.2108 106.875 59.6676 105.75 59.3668C104.625 59.0676 103.386 59.0035 102.029 59.177C100.673 59.3497 99.287 59.6903 97.873 60.1986C97.873 60.0835 97.8851 59.9627 97.9078 59.8354C97.9305 59.7089 97.9419 59.5751 97.9419 59.4365C97.9419 59.0903 97.7692 58.7903 97.4205 58.5357C97.0735 58.2819 96.6738 58.1319 96.2213 58.0849C95.7689 58.0395 95.3286 58.1367 94.8989 58.38C94.4708 58.6224 94.1749 59.0676 94.0127 59.7138C93.827 61.7927 93.6414 63.9535 93.4565 66.1938C93.2708 68.4349 93.0738 70.6986 92.8654 72.9859C92.6562 75.2732 92.447 77.5427 92.2395 79.7951C92.0303 82.0476 91.8211 84.2132 91.6135 86.2922C91.6824 86.9157 91.8559 87.4013 92.1349 87.7476C92.4122 88.0946 92.7373 88.303 93.1078 88.3719C93.4792 88.4408 93.8676 88.3767 94.273 88.1805C94.6784 87.9851 95.0327 87.6438 95.3343 87.1589C96.2611 87.6673 97.3054 87.9965 98.4649 88.1465C99.6235 88.2965 100.799 88.2965 101.995 88.1465C103.188 87.9965 104.365 87.7135 105.524 87.2976C106.683 86.8816 107.739 86.3619 108.689 85.7384C109.639 85.1141 110.439 84.4038 111.089 83.6068C111.738 82.8097 112.167 81.9495 112.375 81.0251C112.584 80.0781 112.642 79.1311 112.549 78.184C112.456 77.237 112.224 76.3597 111.854 75.5497Z" fill="#0D0C23"/>
<path fill-rule="evenodd" clip-rule="evenodd" d="M145.784 93.8457C145.656 94.6087 145.476 95.4114 145.245 96.2546C145.013 97.097 144.74 97.8657 144.428 98.5597C144.114 99.2522 143.767 99.8116 143.385 100.24C143.002 100.667 142.59 100.846 142.15 100.777C141.802 100.73 141.581 100.511 141.49 100.118C141.396 99.7249 141.396 99.24 141.49 98.6635C141.581 98.0854 141.761 97.4319 142.027 96.7046C142.295 95.9773 142.619 95.2549 143.002 94.5397C143.385 93.823 143.819 93.1362 144.306 92.477C144.793 91.8195 145.303 91.2706 145.836 90.8319C145.952 90.9697 146.004 91.3168 145.992 91.8714C145.98 92.426 145.911 93.0843 145.784 93.8457ZM157.574 78.8068C157.261 78.4606 156.878 78.2643 156.426 78.2181C155.974 78.1719 155.515 78.4257 155.053 78.9803C154.751 79.5349 154.368 80.066 153.904 80.5743C153.441 81.0827 152.96 81.5449 152.462 81.96C151.962 82.376 151.487 82.7343 151.035 83.0343C150.584 83.3351 150.229 83.5541 149.975 83.6927C149.882 82.9541 149.829 82.157 149.818 81.3016C149.806 80.447 149.824 79.5811 149.87 78.703C149.939 77.456 150.084 76.1968 150.305 74.9262C150.525 73.6557 150.844 72.4079 151.262 71.1827C151.262 70.5365 151.11 70.0111 150.809 69.6065C150.508 69.2027 150.143 68.9481 149.714 68.8443C149.284 68.7406 148.845 68.7981 148.392 69.0179C147.941 69.2376 147.552 69.6357 147.227 70.213C146.95 70.976 146.63 71.8297 146.271 72.7768C145.911 73.7246 145.506 74.6887 145.054 75.6706C144.602 76.6533 144.097 77.606 143.541 78.5295C142.984 79.4538 142.376 80.2743 141.715 80.9903C141.054 81.7062 140.335 82.2665 139.559 82.6711C138.782 83.0749 137.942 83.2541 137.038 83.2079C136.62 83.0927 136.318 82.7805 136.133 82.2722C135.947 81.7646 135.837 81.1289 135.803 80.366C135.768 79.6038 135.803 78.7662 135.906 77.8541C136.011 76.9419 136.151 76.0346 136.325 75.1338C136.498 74.233 136.69 73.3784 136.897 72.57C137.106 71.7608 137.304 71.0789 137.489 70.5252C137.767 69.8554 137.767 69.2943 137.489 68.8443C137.211 68.3935 136.828 68.0935 136.342 67.9427C135.855 67.7935 135.345 67.7992 134.811 67.9606C134.278 68.1227 133.895 68.4803 133.664 69.0349C133.269 69.9827 132.91 71.0449 132.585 72.223C132.261 73.4011 132 74.6197 131.803 75.8789C131.606 77.1381 131.495 78.386 131.472 79.6216C131.471 79.7019 131.475 79.7781 131.475 79.8584C130.969 81.2019 130.487 82.217 130.03 82.8957C129.439 83.7746 128.771 84.1557 128.029 84.0397C127.704 83.9011 127.491 83.5776 127.386 83.0692C127.281 82.5616 127.247 81.9373 127.281 81.1978C127.317 80.4592 127.404 79.6216 127.542 78.686C127.682 77.7503 127.855 76.7797 128.064 75.7751C128.273 74.7697 128.493 73.7595 128.724 72.7427C128.957 71.7268 129.165 70.7676 129.351 69.8668C129.328 69.0576 129.09 68.4406 128.638 68.0124C128.187 67.586 127.554 67.4181 126.743 67.5097C126.186 67.7408 125.775 68.0416 125.509 68.4114C125.241 68.7803 125.027 69.2546 124.865 69.8319C124.772 70.1327 124.633 70.7327 124.447 71.6343C124.262 72.5343 124.024 73.5689 123.734 74.7349C123.444 75.9024 123.102 77.1203 122.708 78.3908C122.314 79.6614 121.873 80.8119 121.387 81.8392C120.9 82.8673 120.366 83.6927 119.787 84.317C119.208 84.9406 118.582 85.1943 117.909 85.0792C117.538 85.0095 117.301 84.6284 117.196 83.936C117.092 83.2427 117.075 82.3881 117.144 81.3714C117.213 80.3546 117.353 79.2397 117.561 78.0276C117.769 76.8146 117.984 75.6657 118.204 74.5792C118.425 73.4935 118.628 72.5343 118.814 71.7033C118.999 70.8714 119.126 70.3168 119.196 70.0403C119.196 69.3697 119.044 68.833 118.744 68.4284C118.442 68.0246 118.078 67.77 117.648 67.6662C117.219 67.5624 116.778 67.62 116.327 67.8389C115.875 68.0587 115.486 68.4576 115.161 69.0349C115.045 69.6584 114.894 70.3808 114.709 71.2006C114.524 72.0203 114.345 72.8635 114.17 73.7303C113.997 74.597 113.834 75.446 113.684 76.277C113.533 77.1089 113.423 77.837 113.353 78.4606C113.307 78.9454 113.254 79.5405 113.197 80.2451C113.138 80.9505 113.109 81.6949 113.109 82.4797C113.109 83.2662 113.167 84.0454 113.284 84.8189C113.399 85.5933 113.608 86.3035 113.909 86.9506C114.21 87.5976 114.634 88.1287 115.18 88.5438C115.724 88.9597 116.413 89.1908 117.248 89.2378C118.106 89.2833 118.854 89.22 119.492 89.0465C120.129 88.8738 120.709 88.6022 121.231 88.2325C121.752 87.8635 122.227 87.4241 122.657 86.9157C123.085 86.4073 123.508 85.8535 123.925 85.2519C124.32 86.1308 124.83 86.8119 125.456 87.2968C126.082 87.7816 126.743 88.0711 127.438 88.1627C128.133 88.2551 128.841 88.1579 129.56 87.8684C130.279 87.5797 130.927 87.0892 131.507 86.396C131.89 85.9703 132.25 85.4879 132.587 84.9535C132.731 85.2033 132.883 85.4449 133.055 85.6678C133.623 86.4073 134.394 86.9157 135.368 87.193C136.412 87.4703 137.431 87.5165 138.428 87.3316C139.425 87.1468 140.376 86.8119 141.28 86.327C142.185 85.8414 143.025 85.2584 143.802 84.5765C144.578 83.8954 145.256 83.1851 145.836 82.4457C145.813 82.9768 145.801 83.4795 145.801 83.953C145.801 84.4265 145.789 84.9406 145.767 85.4951C144.607 86.3035 143.512 87.2741 142.481 88.406C141.448 89.537 140.544 90.7443 139.768 92.027C138.99 93.3081 138.382 94.6087 137.942 95.9246C137.501 97.2422 137.286 98.4722 137.298 99.6162C137.31 100.759 137.582 101.758 138.116 102.613C138.648 103.468 139.518 104.08 140.724 104.449C141.976 104.843 143.076 104.854 144.028 104.484C144.979 104.115 145.806 103.502 146.514 102.648C147.221 101.793 147.801 100.759 148.254 99.5465C148.705 98.3343 149.064 97.0687 149.332 95.7519C149.598 94.436 149.766 93.1411 149.835 91.8714C149.905 90.6 149.905 89.4681 149.835 88.4749C151.83 87.6438 153.464 86.5922 154.739 85.3216C156.015 84.0519 157.069 82.7116 157.904 81.3016C158.159 80.9554 158.246 80.5395 158.166 80.0546C158.083 79.5689 157.887 79.153 157.574 78.8068Z" fill="#0D0C23"/>
<path fill-rule="evenodd" clip-rule="evenodd" d="M201.446 76.59C201.516 76.0589 201.62 75.4986 201.759 74.9092C201.898 74.3205 202.072 73.7481 202.281 73.1943C202.489 72.6397 202.733 72.1605 203.012 71.7559C203.29 71.3521 203.586 71.0635 203.898 70.8892C204.212 70.7165 204.529 70.7335 204.855 70.9411C205.202 71.1494 205.416 71.5881 205.498 72.2578C205.579 72.9292 205.498 73.6443 205.254 74.4073C205.011 75.1694 204.576 75.8854 203.951 76.5551C203.324 77.2257 202.477 77.6643 201.411 77.8719C201.365 77.5492 201.376 77.1219 201.446 76.59ZM213.496 78.0105C213.114 77.8954 212.749 77.884 212.401 77.9765C212.054 78.0689 211.833 78.3113 211.741 78.7046C211.554 79.4432 211.258 80.1997 210.853 80.9732C210.448 81.7476 209.949 82.4813 209.359 83.1746C208.768 83.867 208.1 84.48 207.359 85.0102C206.616 85.5421 205.84 85.9232 205.028 86.1543C204.216 86.4089 203.544 86.4373 203.012 86.2411C202.477 86.0448 202.055 85.71 201.742 85.2365C201.429 84.763 201.203 84.1905 201.064 83.5208C200.925 82.8511 200.844 82.1578 200.82 81.4411C202.142 81.5343 203.318 81.2975 204.35 80.7308C205.382 80.1657 206.257 79.414 206.976 78.4784C207.694 77.5435 208.24 76.4919 208.61 75.3251C208.981 74.1592 209.19 72.9981 209.236 71.8427C209.26 70.757 209.098 69.8392 208.75 69.0876C208.402 68.3376 207.932 67.753 207.341 67.3378C206.75 66.9219 206.072 66.6794 205.307 66.6105C204.542 66.5408 203.765 66.6446 202.976 66.9219C202.025 67.2454 201.22 67.7708 200.559 68.4989C199.898 69.2262 199.348 70.0703 198.907 71.0286C198.467 71.987 198.119 73.0208 197.865 74.1292C197.609 75.2384 197.424 76.3305 197.308 77.4049C197.203 78.3689 197.148 79.2908 197.128 80.1803C197.078 80.2938 197.03 80.4024 196.977 80.5232C196.618 81.3438 196.199 82.1465 195.725 82.9313C195.25 83.717 194.722 84.3754 194.143 84.9065C193.563 85.4384 192.961 85.6232 192.335 85.4611C191.964 85.3694 191.761 84.9413 191.726 84.1792C191.691 83.4162 191.731 82.47 191.847 81.3373C191.964 80.2062 192.096 78.9811 192.247 77.6643C192.397 76.3475 192.473 75.0892 192.473 73.8875C192.473 72.8473 192.276 71.8484 191.882 70.8892C191.488 69.9316 190.948 69.1338 190.265 68.4989C189.581 67.8632 188.787 67.4416 187.883 67.234C186.979 67.0257 186.005 67.1643 184.961 67.6492C183.918 68.1348 183.088 68.8159 182.475 69.694C181.86 70.5721 181.298 71.4965 180.788 72.4662C180.602 71.7267 180.33 71.04 179.97 70.4043C179.611 69.7694 179.171 69.2148 178.649 68.7413C178.127 68.2678 177.541 67.8981 176.893 67.6321C176.244 67.367 175.559 67.234 174.84 67.234C174.145 67.234 173.502 67.367 172.911 67.6321C172.319 67.8981 171.781 68.2386 171.294 68.6546C170.806 69.0705 170.366 69.5384 169.972 70.0581C169.578 70.5778 169.229 71.0919 168.928 71.6003C168.881 70.9994 168.829 70.474 168.773 70.0232C168.714 69.5732 168.609 69.1913 168.459 68.88C168.308 68.5678 168.094 68.3311 167.816 68.1697C167.537 68.0084 167.143 67.9265 166.633 67.9265C166.378 67.9265 166.123 67.9784 165.868 68.0821C165.613 68.1867 165.386 68.3311 165.19 68.5159C164.993 68.7016 164.842 68.9262 164.738 69.1913C164.634 69.4573 164.605 69.7638 164.651 70.11C164.674 70.3646 164.738 70.6703 164.842 71.0286C164.946 71.387 165.045 71.8548 165.138 72.4313C165.23 73.0094 165.306 73.7084 165.364 74.5281C165.422 75.3486 165.439 76.3532 165.416 77.5435C165.392 78.733 165.306 80.1243 165.155 81.7184C165.004 83.3124 164.766 85.1611 164.442 87.2627C164.395 87.7484 164.581 88.1416 164.999 88.4416C165.416 88.7416 165.891 88.9143 166.425 88.9613C166.957 89.0075 167.462 88.9143 167.938 88.684C168.413 88.4521 168.685 88.0484 168.754 87.4711C168.824 86.3854 168.958 85.2308 169.155 84.0057C169.352 82.7821 169.595 81.5692 169.885 80.3675C170.175 79.1659 170.505 78.0227 170.876 76.9362C171.246 75.8505 171.658 74.8921 172.111 74.0603C172.563 73.2284 173.033 72.5651 173.519 72.0681C174.006 71.5711 174.516 71.323 175.05 71.323C175.699 71.323 176.203 71.6173 176.562 72.2059C176.921 72.7954 177.176 73.5527 177.328 74.4762C177.478 75.4005 177.547 76.4116 177.537 77.5086C177.525 78.6057 177.478 79.663 177.397 80.6789C177.316 81.6957 177.223 82.6021 177.118 83.3992C177.015 84.1962 176.939 84.7451 176.893 85.0451C176.893 85.577 177.096 85.9978 177.501 86.31C177.906 86.6222 178.358 86.807 178.858 86.8646C179.356 86.923 179.825 86.8297 180.266 86.5873C180.706 86.344 180.962 85.9354 181.031 85.3573C181.263 83.6943 181.582 82.0248 181.987 80.3505C182.393 78.6754 182.857 77.1738 183.379 75.8457C183.901 74.5167 184.48 73.4311 185.118 72.5878C185.755 71.7454 186.434 71.323 187.152 71.323C187.523 71.323 187.807 71.5776 188.004 72.0851C188.201 72.5935 188.3 73.2859 188.3 74.164C188.3 74.8111 188.248 75.4759 188.144 76.157C188.038 76.8381 187.918 77.5435 187.778 78.2708C187.639 78.9989 187.517 79.7432 187.412 80.5062C187.309 81.2684 187.257 82.0654 187.257 82.8973C187.257 83.4746 187.315 84.1443 187.431 84.9065C187.546 85.6686 187.766 86.3919 188.091 87.0722C188.416 87.754 188.862 88.3313 189.431 88.8049C189.999 89.2784 190.723 89.5151 191.604 89.5151C192.926 89.5151 194.096 89.2321 195.117 88.6662C196.136 88.1011 197.012 87.3616 197.742 86.4494C197.78 86.4008 197.815 86.3505 197.852 86.3027C197.908 86.4373 197.957 86.5808 198.02 86.7089C198.518 87.7257 199.197 88.5105 200.055 89.0651C200.912 89.6197 201.921 89.9254 203.081 89.9838C204.24 90.0405 205.503 89.8273 206.872 89.3424C207.891 88.9727 208.778 88.5105 209.532 87.9559C210.285 87.4021 210.963 86.7259 211.566 85.9289C212.17 85.1319 212.719 84.2132 213.218 83.1746C213.718 82.1343 214.221 80.9448 214.731 79.6046C214.824 79.2357 214.737 78.9065 214.471 78.617C214.203 78.3292 213.88 78.1265 213.496 78.0105Z" fill="#0D0C23"/>
<path fill-rule="evenodd" clip-rule="evenodd" d="M232.398 74.1454C232.282 74.8273 232.126 75.5781 231.929 76.3979C231.731 77.2184 231.482 78.0673 231.181 78.9454C230.88 79.8227 230.509 80.6141 230.068 81.3187C229.628 82.0241 229.123 82.5835 228.555 82.9995C227.987 83.4154 227.333 83.5881 226.591 83.5192C226.219 83.473 225.935 83.2192 225.739 82.7562C225.541 82.2949 225.437 81.7054 225.425 80.9895C225.413 80.2735 225.478 79.4879 225.616 78.6333C225.756 77.7787 225.97 76.9411 226.261 76.1206C226.55 75.3008 226.903 74.5443 227.321 73.8503C227.738 73.1579 228.219 72.6203 228.764 72.2392C229.309 71.8581 229.906 71.6797 230.555 71.7024C231.204 71.726 231.9 72.0487 232.642 72.6722C232.595 72.973 232.514 73.4643 232.398 74.1454ZM244.762 76.796C244.402 76.6119 244.031 76.5714 243.649 76.6752C243.267 76.7789 242.994 77.1316 242.832 77.7324C242.739 78.3795 242.531 79.1408 242.206 80.0189C241.881 80.897 241.481 81.7289 241.006 82.5138C240.53 83.2995 239.985 83.9522 239.372 84.4719C238.757 84.9925 238.102 85.2292 237.407 85.1822C236.826 85.136 236.42 84.8416 236.19 84.2992C235.956 83.756 235.836 83.0749 235.824 82.2543C235.812 81.4346 235.894 80.5103 236.067 79.4822C236.241 78.4541 236.45 77.4324 236.693 76.4149C236.937 75.3989 237.186 74.4227 237.442 73.487C237.696 72.5514 237.905 71.76 238.068 71.1138C238.253 70.5357 238.194 70.0451 237.894 69.6406C237.592 69.2368 237.216 68.9473 236.763 68.7746C236.311 68.6011 235.853 68.5549 235.389 68.636C234.925 68.717 234.624 68.9652 234.485 69.3803C233.117 68.2022 231.801 67.5673 230.538 67.4749C229.274 67.3824 228.109 67.6597 227.042 68.3068C225.975 68.953 225.031 69.8887 224.209 71.1138C223.385 72.3381 222.718 73.6719 222.208 75.116C221.698 76.56 221.38 78.0324 221.252 79.5341C221.124 81.0357 221.222 82.4051 221.548 83.6408C221.873 84.8765 222.446 85.8876 223.269 86.6724C224.092 87.4581 225.211 87.8514 226.626 87.8514C227.252 87.8514 227.854 87.7241 228.434 87.4695C229.013 87.2149 229.546 86.9149 230.034 86.5687C230.52 86.2225 230.949 85.8584 231.321 85.4773C231.691 85.0954 231.981 84.7784 232.19 84.5238C232.352 85.3557 232.618 86.0611 232.99 86.6384C233.36 87.2149 233.784 87.6892 234.259 88.0581C234.734 88.4278 235.233 88.6995 235.755 88.873C236.276 89.0465 236.781 89.1333 237.267 89.1333C238.357 89.1333 239.376 88.7635 240.328 88.0241C241.279 87.2854 242.131 86.3781 242.884 85.3038C243.637 84.2295 244.258 83.0976 244.744 81.9073C245.231 80.7179 245.556 79.6614 245.719 78.737C245.881 78.39 245.851 78.0268 245.631 77.6457C245.411 77.2646 245.121 76.9816 244.762 76.796Z" fill="#0D0C23"/>
<path fill-rule="evenodd" clip-rule="evenodd" d="M307.364 95.927C307.167 96.7119 306.859 97.3768 306.441 97.92C306.024 98.4624 305.503 98.7454 304.877 98.7689C304.483 98.7916 304.181 98.5832 303.972 98.1454C303.764 97.7059 303.619 97.14 303.538 96.4476C303.456 95.7535 303.422 94.98 303.433 94.1254C303.445 93.2708 303.48 92.4268 303.538 91.5957C303.595 90.7646 303.666 89.9895 303.747 89.2735C303.827 88.5576 303.891 88.0038 303.937 87.6105C304.726 87.703 305.381 88.0435 305.903 88.633C306.424 89.2216 306.825 89.9205 307.102 90.7297C307.381 91.5381 307.542 92.4105 307.59 93.3454C307.635 94.2811 307.56 95.1413 307.364 95.927ZM294.773 95.927C294.577 96.7119 294.269 97.3768 293.852 97.92C293.435 98.4624 292.913 98.7454 292.287 98.7689C291.893 98.7916 291.592 98.5832 291.383 98.1454C291.174 97.7059 291.029 97.14 290.949 96.4476C290.866 95.7535 290.832 94.98 290.844 94.1254C290.855 93.2708 290.89 92.4268 290.949 91.5957C291.006 90.7646 291.075 89.9895 291.156 89.2735C291.238 88.5576 291.301 88.0038 291.349 87.6105C292.136 87.703 292.792 88.0435 293.312 88.633C293.835 89.2216 294.234 89.9205 294.513 90.7297C294.791 91.5381 294.954 92.4105 295 93.3454C295.046 94.2811 294.97 95.1413 294.773 95.927ZM281.854 76.2446C281.831 76.7984 281.778 77.2897 281.697 77.717C281.616 78.1451 281.506 78.4159 281.367 78.5319C281.111 78.3924 280.798 78.0357 280.428 77.4576C280.056 76.8803 279.768 76.2267 279.558 75.4994C279.349 74.7713 279.285 74.0562 279.367 73.3508C279.448 72.6462 279.813 72.0981 280.463 71.7049C280.717 71.5662 280.938 71.6181 281.123 71.8605C281.309 72.1038 281.459 72.4557 281.576 72.9178C281.691 73.38 281.771 73.9111 281.819 74.5119C281.865 75.1127 281.877 75.69 281.854 76.2446ZM278.776 83.1576C278.416 83.5386 278.016 83.8678 277.576 84.1451C277.135 84.4224 276.683 84.6308 276.22 84.7694C275.755 84.9081 275.338 84.9421 274.968 84.8724C273.924 84.6657 273.124 84.214 272.568 83.5216C272.012 82.8284 271.657 82.0143 271.507 81.0786C271.356 80.143 271.374 79.1432 271.56 78.0811C271.745 77.0189 272.057 76.0313 272.498 75.1184C272.938 74.2054 273.473 73.4205 274.098 72.7622C274.724 72.1038 275.408 71.6935 276.15 71.5313C275.871 72.7095 275.779 73.9289 275.871 75.1873C275.964 76.4465 276.266 77.6303 276.776 78.7395C277.1 79.41 277.489 80.0213 277.941 80.5759C278.394 81.1305 278.944 81.604 279.594 81.9965C279.408 82.3897 279.135 82.7765 278.776 83.1576ZM317.257 76.5908C317.327 76.0605 317.431 75.4995 317.571 74.91C317.71 74.3213 317.884 73.7497 318.092 73.1951C318.301 72.6405 318.545 72.1613 318.823 71.7567C319.102 71.353 319.396 71.0635 319.709 70.8908C320.023 70.7173 320.342 70.7343 320.666 70.9427C321.014 71.1511 321.228 71.5897 321.309 72.2595C321.39 72.9292 321.309 73.6451 321.066 74.4081C320.822 75.1703 320.388 75.8862 319.762 76.5559C319.137 77.2265 318.289 77.6651 317.223 77.8735C317.176 77.55 317.188 77.1227 317.257 76.5908ZM331.274 76.5908C331.344 76.0605 331.447 75.4995 331.586 74.91C331.725 74.3213 331.9 73.7497 332.109 73.1951C332.316 72.6405 332.56 72.1613 332.839 71.7567C333.117 71.353 333.413 71.0635 333.726 70.8908C334.039 70.7173 334.357 70.7343 334.682 70.9427C335.029 71.1511 335.243 71.5897 335.325 72.2595C335.406 72.9292 335.325 73.6451 335.082 74.4081C334.838 75.1703 334.403 75.8862 333.778 76.5559C333.152 77.2265 332.305 77.6651 331.239 77.8735C331.193 77.55 331.204 77.1227 331.274 76.5908ZM344.298 78.6186C344.031 78.33 343.707 78.1273 343.325 78.0113C342.941 77.8962 342.576 77.8849 342.229 77.9773C341.881 78.0697 341.659 78.3122 341.568 78.7046C341.382 79.444 341.087 80.2013 340.682 80.974C340.275 81.7492 339.777 82.4822 339.186 83.1746C338.595 83.8678 337.927 84.4808 337.186 85.0119C336.444 85.543 335.668 85.924 334.857 86.1551C334.044 86.4097 333.371 86.4381 332.839 86.2419C332.305 86.0457 331.882 85.7108 331.569 85.2373C331.256 84.763 331.031 84.1921 330.89 83.5216C330.752 82.8519 330.671 82.1586 330.648 81.4427C331.969 81.5351 333.146 81.2984 334.177 80.7316C335.209 80.1665 336.084 79.4149 336.804 78.4792C337.522 77.5443 338.067 76.4935 338.437 75.3267C338.809 74.16 339.017 72.9989 339.064 71.8435C339.087 70.7578 338.925 69.8392 338.577 69.0884C338.23 68.3384 337.76 67.7546 337.169 67.3386C336.577 66.9227 335.899 66.6803 335.133 66.6105C334.369 66.5416 333.592 66.6462 332.804 66.9227C331.853 67.2462 331.048 67.7716 330.388 68.4997C329.727 69.2278 329.175 70.0711 328.735 71.0294C328.294 71.9886 327.946 73.0216 327.691 74.1308C327.435 75.2392 327.251 76.3313 327.135 77.4057C327.022 78.4476 326.961 79.4449 326.947 80.4C326.86 80.5905 326.766 80.7819 326.665 80.974C326.259 81.7492 325.761 82.4822 325.169 83.1746C324.579 83.8678 323.912 84.4808 323.171 85.0119C322.429 85.543 321.651 85.924 320.84 86.1551C320.028 86.4097 319.356 86.4381 318.823 86.2419C318.289 86.0457 317.866 85.7108 317.554 85.2373C317.241 84.763 317.015 84.1921 316.875 83.5216C316.736 82.8519 316.655 82.1586 316.631 81.4427C317.953 81.5351 319.13 81.2984 320.162 80.7316C321.193 80.1665 322.069 79.4149 322.787 78.4792C323.506 77.5443 324.051 76.4935 324.422 75.3267C324.792 74.16 325.002 72.9989 325.048 71.8435C325.071 70.7578 324.909 69.8392 324.562 69.0884C324.213 68.3384 323.744 67.7546 323.152 67.3386C322.561 66.9227 321.884 66.6803 321.118 66.6105C320.353 66.5416 319.576 66.6462 318.788 66.9227C317.836 67.2462 317.031 67.7716 316.371 68.4997C315.71 69.2278 315.159 70.0711 314.719 71.0294C314.278 71.9886 313.931 73.0216 313.676 74.1308C313.421 75.2392 313.235 76.3313 313.12 77.4057C313.053 78.0113 313.009 78.5984 312.977 79.1749C312.753 79.3654 312.534 79.5567 312.302 79.744C311.502 80.3911 310.661 80.974 309.78 81.4946C308.899 82.0143 307.983 82.4416 307.033 82.7765C306.082 83.1113 305.108 83.314 304.112 83.383L306.268 60.3738C306.407 59.8881 306.338 59.4616 306.059 59.0919C305.781 58.7222 305.422 58.4676 304.982 58.3289C304.541 58.1903 304.071 58.2024 303.572 58.3638C303.074 58.5259 302.663 58.8957 302.338 59.4722C302.175 60.3503 302.007 61.5519 301.834 63.0762C301.66 64.6005 301.485 66.2643 301.312 68.0667C301.138 69.8684 300.964 71.7284 300.791 73.6451C300.616 75.5635 300.465 77.3538 300.338 79.0167C300.332 79.0905 300.328 79.157 300.322 79.23C300.119 79.4019 299.922 79.5746 299.712 79.744C298.913 80.3911 298.071 80.974 297.191 81.4946C296.309 82.0143 295.394 82.4416 294.444 82.7765C293.492 83.1113 292.519 83.314 291.521 83.383L293.678 60.3738C293.818 59.8881 293.748 59.4616 293.47 59.0919C293.192 58.7222 292.832 58.4676 292.391 58.3289C291.951 58.1903 291.481 58.2024 290.983 58.3638C290.484 58.5259 290.073 58.8957 289.748 59.4722C289.586 60.3503 289.418 61.5519 289.245 63.0762C289.069 64.6005 288.897 66.2643 288.722 68.0667C288.548 69.8684 288.375 71.7284 288.201 73.6451C288.028 75.5635 287.876 77.3538 287.749 79.0167C287.746 79.05 287.744 79.08 287.741 79.1141C287.376 79.2819 286.98 79.4303 286.549 79.5535C286.108 79.6816 285.61 79.7562 285.054 79.7797C285.146 79.363 285.221 78.9008 285.279 78.3924C285.337 77.8849 285.384 77.3538 285.419 76.7984C285.454 76.2446 285.465 75.69 285.454 75.1354C285.441 74.5808 285.413 74.0732 285.366 73.6103C285.25 72.6178 285.036 71.6765 284.724 70.7862C284.41 69.8976 283.987 69.1524 283.454 68.5516C282.92 67.9508 282.254 67.5462 281.454 67.3386C280.654 67.1311 279.72 67.2 278.655 67.5462C277.077 67.3386 275.657 67.4838 274.394 67.98C273.13 68.477 272.034 69.1986 271.107 70.1457C270.18 71.0935 269.42 72.2076 268.829 73.4895C268.238 74.7713 267.843 76.0889 267.647 77.4397C267.563 78.0122 267.523 78.583 267.511 79.1513C267.152 79.8843 266.758 80.524 266.325 81.0616C265.711 81.8238 265.074 82.4473 264.413 82.9322C263.752 83.4178 263.097 83.7876 262.448 84.0413C261.798 84.2959 261.219 84.4695 260.709 84.5611C260.106 84.677 259.526 84.6884 258.97 84.5959C258.414 84.5043 257.903 84.2376 257.44 83.7989C257.068 83.4754 256.785 82.9557 256.588 82.2397C256.391 81.523 256.275 80.7097 256.241 79.7967C256.206 78.8838 256.241 77.9311 256.344 76.9378C256.448 75.9446 256.627 75.0024 256.883 74.1138C257.138 73.2243 257.462 72.4273 257.857 71.7219C258.251 71.0181 258.714 70.5154 259.249 70.2146C259.549 70.2616 259.735 70.44 259.805 70.7513C259.875 71.0635 259.891 71.4332 259.856 71.8605C259.822 72.2886 259.77 72.7273 259.7 73.1773C259.631 73.6281 259.596 74.0043 259.596 74.3035C259.712 74.9278 259.938 75.4127 260.274 75.7597C260.61 76.1059 260.987 76.3086 261.405 76.3654C261.821 76.4238 262.232 76.3257 262.639 76.0711C263.044 75.8173 263.374 75.4127 263.63 74.8581C263.653 74.8816 263.688 74.893 263.734 74.893L264.221 70.4919C264.36 69.8911 264.268 69.36 263.943 68.8978C263.618 68.4365 263.189 68.1705 262.656 68.1008C261.983 67.1311 261.074 66.617 259.926 66.5586C258.778 66.5011 257.602 66.8765 256.396 67.6857C255.654 68.2176 254.999 68.9497 254.431 69.8854C253.862 70.8219 253.399 71.8605 253.04 73.0046C252.68 74.1478 252.426 75.3551 252.275 76.6257C252.124 77.8962 252.096 79.1327 252.187 80.3335C252.281 81.5351 252.495 82.667 252.832 83.7292C253.168 84.7922 253.637 85.6816 254.24 86.3976C254.75 87.0211 255.329 87.4784 255.979 87.767C256.627 88.0557 257.306 88.234 258.013 88.3038C258.72 88.3727 259.421 88.3435 260.117 88.217C260.813 88.0905 261.473 87.9113 262.1 87.6795C262.911 87.3803 263.746 86.9984 264.604 86.5362C265.461 86.0749 266.285 85.5203 267.073 84.8724C267.488 84.5327 267.887 84.1613 268.273 83.7632C268.448 84.1978 268.645 84.6186 268.882 85.0119C269.508 86.0513 270.354 86.8946 271.421 87.5416C272.486 88.1878 273.797 88.4992 275.35 88.4765C277.02 88.4538 278.561 88.0322 279.975 87.2124C281.39 86.3927 282.549 85.1846 283.454 83.5905C284.808 83.5905 286.141 83.3684 287.451 82.9265C287.44 83.0667 287.428 83.2135 287.418 83.3489C287.326 84.5732 287.279 85.4043 287.279 85.8438C287.256 86.6059 287.204 87.5473 287.123 88.667C287.042 89.7876 286.99 90.9657 286.966 92.2013C286.943 93.4378 286.99 94.6849 287.106 95.9449C287.222 97.2032 287.465 98.3473 287.836 99.3754C288.206 100.403 288.733 101.275 289.418 101.992C290.102 102.707 291 103.135 292.113 103.274C293.296 103.435 294.316 103.228 295.174 102.65C296.031 102.072 296.727 101.281 297.261 100.276C297.794 99.2708 298.17 98.1105 298.391 96.7938C298.611 95.477 298.674 94.1546 298.583 92.8257C298.489 91.4967 298.245 90.244 297.851 89.0667C297.457 87.8878 296.912 86.9173 296.217 86.1551C296.635 86.04 297.132 85.8203 297.713 85.4967C298.292 85.1732 298.888 84.8092 299.504 84.4054C299.655 84.3057 299.804 84.2011 299.955 84.0989C299.898 84.9178 299.869 85.5016 299.869 85.8438C299.846 86.6059 299.794 87.5473 299.712 88.667C299.632 89.7876 299.579 90.9657 299.556 92.2013C299.533 93.4378 299.579 94.6849 299.695 95.9449C299.81 97.2032 300.054 98.3473 300.425 99.3754C300.795 100.403 301.324 101.275 302.007 101.992C302.691 102.707 303.59 103.135 304.704 103.274C305.885 103.435 306.905 103.228 307.763 102.65C308.621 102.072 309.317 101.281 309.85 100.276C310.383 99.2708 310.759 98.1105 310.98 96.7938C311.201 95.477 311.264 94.1546 311.171 92.8257C311.079 91.4967 310.835 90.244 310.442 89.0667C310.047 87.8878 309.503 86.9173 308.806 86.1551C309.224 86.04 309.722 85.8203 310.302 85.4967C310.882 85.1732 311.479 84.8092 312.094 84.4054C312.413 84.1946 312.73 83.9781 313.047 83.7551C313.166 84.8854 313.423 85.8762 313.832 86.7097C314.331 87.7265 315.008 88.5113 315.867 89.0667C316.724 89.6205 317.732 89.927 318.893 89.9846C320.052 90.0413 321.315 89.8281 322.683 89.3432C323.703 88.9735 324.59 88.5113 325.343 87.9576C326.097 87.4022 326.775 86.7267 327.379 85.9297C327.414 85.8843 327.446 85.834 327.48 85.787C327.587 86.1105 327.706 86.4219 327.847 86.7097C328.347 87.7265 329.025 88.5113 329.882 89.0667C330.739 89.6205 331.749 89.927 332.908 89.9846C334.067 90.0413 335.331 89.8281 336.699 89.3432C337.72 88.9735 338.606 88.5113 339.359 87.9576C340.112 87.4022 340.791 86.7267 341.394 85.9297C341.997 85.1327 342.547 84.214 343.046 83.1746C343.545 82.1351 344.048 80.9465 344.559 79.6054C344.651 79.2365 344.565 78.9073 344.298 78.6186Z" fill="#0D0C23"/>
</svg>
