<svg width="405" height="250" viewBox="0 0 405 250" fill="none" xmlns="http://www.w3.org/2000/svg">
<path d="M364.865 65H0V185H364.865V65Z" fill="#FFDD00"/>
<path d="M64.2104 105.85L64.1591 105.82L64.0398 105.784C64.0879 105.824 64.1476 105.848 64.2104 105.85Z" fill="#0D0C22"/>
<path d="M64.2233 105.839C64.216 105.838 64.2095 105.836 64.203 105.834C64.2022 105.839 64.2022 105.843 64.203 105.848C64.2103 105.847 64.2168 105.844 64.2233 105.839Z" fill="#0D0C22"/>
<path d="M64.2022 105.849H64.2127V105.843L64.2022 105.849Z" fill="#0D0C22"/>
<path d="M64.8726 110.921L64.9623 110.87L64.9956 110.851L65.0258 110.819C64.9695 110.843 64.9171 110.878 64.8726 110.921Z" fill="#0D0C22"/>
<path d="M64.3536 105.969L64.2654 105.884L64.2059 105.853C64.2384 105.909 64.2908 105.951 64.3536 105.969Z" fill="#0D0C22"/>
<path d="M46.5129 122.136C43.9615 123.228 41.0661 124.467 37.3136 124.467C35.7438 124.464 34.1816 124.248 32.6695 123.827L35.2649 150.473C35.3567 151.586 35.8641 152.625 36.6862 153.382C37.5083 154.139 38.585 154.559 39.7025 154.559C39.7025 154.559 43.3824 154.75 44.6103 154.75C45.9319 154.75 49.8946 154.559 49.8946 154.559C51.012 154.559 52.0884 154.139 52.9104 153.382C53.7323 152.624 54.2395 151.586 54.3314 150.473L57.1111 121.028C55.8689 120.604 54.6152 120.322 53.2018 120.322C50.7575 120.321 48.7881 121.162 46.5129 122.136Z" fill="white"/>
<path d="M24.6399 110.769L24.689 110.814L24.7211 110.834C24.6964 110.809 24.6692 110.787 24.6399 110.769Z" fill="#0D0C22"/>
<path d="M69.1172 108.309L68.727 106.338C68.3759 104.569 67.5801 102.898 65.7645 102.258C65.1827 102.054 64.5219 101.966 64.0758 101.543C63.6297 101.119 63.4977 100.462 63.3946 99.8523C63.2038 98.7333 63.024 97.6134 62.8281 96.4963C62.6591 95.536 62.5249 94.4572 62.0846 93.5761C61.5115 92.3931 60.3219 91.7013 59.1388 91.2436C58.5324 91.0173 57.9136 90.8259 57.2857 90.6703C54.3301 89.8904 51.2227 89.6038 48.1819 89.4404C44.5323 89.239 40.873 89.2997 37.232 89.622C34.5221 89.8685 31.6678 90.1667 29.0925 91.104C28.1513 91.4471 27.1815 91.8589 26.4657 92.5861C25.5875 93.4796 25.3009 94.8614 25.9421 95.9755C26.3979 96.7668 27.1699 97.3257 27.9889 97.6955C29.0556 98.172 30.1695 98.5346 31.3123 98.7772C34.4943 99.4806 37.7902 99.7568 41.041 99.8743C44.6441 100.02 48.2531 99.9018 51.8389 99.5216C52.7257 99.4243 53.6109 99.3073 54.4945 99.171C55.535 99.0114 56.203 97.6506 55.8963 96.7027C55.5294 95.5694 54.5432 95.1299 53.4281 95.3009C53.2637 95.3268 53.1003 95.3506 52.9359 95.3745L52.8174 95.3917C52.4397 95.4395 52.0619 95.484 51.6841 95.5255C50.9038 95.6096 50.1215 95.6784 49.3373 95.7318C47.581 95.8542 45.8198 95.9106 44.0596 95.9135C42.3301 95.9135 40.5995 95.8646 38.8738 95.751C38.0864 95.6993 37.3009 95.6338 36.5173 95.5541C36.1609 95.5169 35.8054 95.4776 35.4499 95.4337L35.1117 95.3907L35.0381 95.3803L34.6874 95.3296C33.9707 95.2216 33.254 95.0974 32.5451 94.9474C32.4735 94.9315 32.4094 94.8917 32.3636 94.8346C32.3178 94.7774 32.2927 94.7062 32.2927 94.6329C32.2927 94.5597 32.3178 94.4886 32.3636 94.4315C32.4094 94.3743 32.4735 94.3345 32.5451 94.3186H32.5584C33.1729 94.1876 33.792 94.0758 34.4131 93.9784C34.6202 93.9459 34.8279 93.914 35.0362 93.8829H35.0419C35.4308 93.857 35.8217 93.7873 36.2087 93.7414C39.5758 93.3912 42.9629 93.2718 46.3464 93.384C47.9889 93.4318 49.6306 93.5284 51.2655 93.6946C51.6173 93.7309 51.9671 93.7692 52.3168 93.8121C52.4505 93.8284 52.5853 93.8475 52.72 93.8637L52.9914 93.903C53.7826 94.0207 54.5697 94.1638 55.3526 94.332C56.5127 94.5842 58.0021 94.6664 58.5186 95.9374C58.6825 96.3406 58.7573 96.7887 58.8479 97.212L58.9639 97.7519C58.9669 97.7616 58.9691 97.7716 58.9705 97.7816C59.244 99.0557 59.5175 100.33 59.7909 101.604C59.8112 101.698 59.812 101.795 59.7924 101.89C59.7735 101.984 59.735 102.073 59.68 102.152C59.6248 102.231 59.5537 102.297 59.4718 102.348C59.3898 102.398 59.2977 102.431 59.2027 102.444H59.1946L59.0278 102.467L58.8624 102.489C58.3387 102.557 57.8142 102.621 57.2895 102.68C56.2556 102.798 55.2201 102.9 54.1829 102.986C52.1221 103.157 50.0571 103.269 47.988 103.323C46.9337 103.351 45.8797 103.364 44.826 103.362C40.632 103.359 36.4417 103.115 32.2755 102.632C31.8245 102.578 31.3735 102.521 30.9225 102.463C31.2722 102.508 30.6683 102.428 30.546 102.411C30.2593 102.371 29.9727 102.329 29.686 102.286C28.7237 102.142 27.7672 101.964 26.8069 101.808C25.6458 101.617 24.5354 101.713 23.4853 102.286C22.6232 102.758 21.9255 103.481 21.4852 104.36C21.0323 105.296 20.8976 106.316 20.695 107.322C20.4924 108.328 20.177 109.411 20.2965 110.444C20.5536 112.673 22.1121 114.485 24.3538 114.89C26.4628 115.273 28.5833 115.582 30.7094 115.846C39.0613 116.868 47.4991 116.991 55.8772 116.211C56.5595 116.147 57.2408 116.078 57.9208 116.002C58.1334 115.979 58.3489 116.003 58.5505 116.074C58.7522 116.144 58.9356 116.259 59.0873 116.41C59.2389 116.56 59.3557 116.744 59.4275 116.945C59.4993 117.146 59.5254 117.361 59.5037 117.574L59.2911 119.636C58.8639 123.802 58.4366 127.969 58.0094 132.135C57.5633 136.51 57.1143 140.885 56.6627 145.26C56.5352 146.492 56.4079 147.724 56.2804 148.955C56.1581 150.168 56.1409 151.419 55.9106 152.617C55.5475 154.501 54.2718 155.659 52.4104 156.082C50.705 156.47 48.9629 156.674 47.214 156.69C45.2752 156.7 43.3372 156.614 41.3984 156.624C39.3286 156.636 36.7935 156.445 35.1958 154.904C33.792 153.552 33.5981 151.432 33.4069 149.602C33.1521 147.176 32.8995 144.751 32.6492 142.326L31.2444 128.844L30.3357 120.121C30.3204 119.976 30.3052 119.834 30.2908 119.689C30.1819 118.648 29.4452 117.63 28.2842 117.682C27.2903 117.726 26.1609 118.571 26.2774 119.689L26.9511 126.156L28.3443 139.535C28.7412 143.335 29.1371 147.135 29.5321 150.936C29.6085 151.664 29.6802 152.395 29.7605 153.122C30.1972 157.102 33.2359 159.246 36.9989 159.849C39.1968 160.204 41.4481 160.276 43.6784 160.312C46.5374 160.358 49.4252 160.468 52.2375 159.95C56.4046 159.185 59.5312 156.404 59.9774 152.087C60.105 150.841 60.2327 149.594 60.3596 148.348C60.7832 144.224 61.2062 140.101 61.6291 135.978L63.0102 122.504L63.6442 116.329C63.6754 116.023 63.8052 115.735 64.0127 115.508C64.2208 115.281 64.4965 115.127 64.7983 115.069C65.9901 114.836 67.129 114.44 67.9769 113.534C69.3262 112.089 69.5946 110.207 69.1172 108.309ZM24.2927 109.641C24.3109 109.633 24.2774 109.788 24.2631 109.861C24.2602 109.751 24.266 109.654 24.2927 109.641ZM24.4083 110.536C24.4179 110.529 24.4466 110.567 24.4762 110.613C24.4313 110.571 24.4026 110.539 24.4074 110.536H24.4083ZM24.5221 110.686C24.5851 110.799 24.5631 110.756 24.5221 110.686ZM24.7504 110.871H24.7562C24.7562 110.877 24.7667 110.885 24.7705 110.891C24.7641 110.884 24.7571 110.877 24.7495 110.871H24.7504ZM64.7432 110.594C64.3151 111.001 63.6696 111.19 63.0327 111.285C55.8848 112.346 48.633 112.882 41.407 112.646C36.2355 112.469 31.1184 111.894 25.9984 111.171C25.4967 111.1 24.953 111.009 24.608 110.639C23.9582 109.942 24.2774 108.536 24.4466 107.694C24.6014 106.921 24.8976 105.892 25.8159 105.782C27.2492 105.614 28.9138 106.219 30.332 106.434C32.0392 106.695 33.7528 106.904 35.4729 107.06C42.8136 107.729 50.2775 107.625 57.5857 106.646C58.9176 106.467 60.245 106.26 61.5674 106.022C62.7461 105.811 64.0519 105.415 64.7642 106.635C65.2524 107.466 65.317 108.579 65.2415 109.518C65.2183 109.927 65.0398 110.312 64.7417 110.594H64.7432Z" fill="#0D0C22"/>
<path fill-rule="evenodd" clip-rule="evenodd" d="M108.097 130.454C107.681 131.251 107.106 131.944 106.376 132.532C105.646 133.122 104.794 133.601 103.82 133.971C102.846 134.341 101.866 134.589 100.881 134.716C99.8959 134.842 98.9392 134.832 98.0124 134.681C97.0849 134.531 96.2959 134.225 95.6473 133.762L96.3786 126.174C97.05 125.943 97.8957 125.706 98.9165 125.464C99.9365 125.221 100.985 125.048 102.064 124.944C103.142 124.839 104.162 124.852 105.124 124.978C106.086 125.105 106.845 125.411 107.402 125.897C107.704 126.174 107.959 126.474 108.167 126.798C108.376 127.121 108.504 127.456 108.551 127.803C108.666 128.773 108.516 129.656 108.097 130.454ZM97.4903 114.288C97.9768 113.988 98.563 113.722 99.2465 113.491C99.9308 113.26 100.632 113.098 101.351 113.006C102.069 112.914 102.77 112.902 103.455 112.971C104.138 113.041 104.742 113.231 105.264 113.542C105.785 113.855 106.173 114.305 106.429 114.894C106.683 115.484 106.753 116.229 106.637 117.129C106.545 117.845 106.259 118.452 105.785 118.949C105.31 119.446 104.73 119.861 104.046 120.196C103.362 120.532 102.637 120.798 101.873 120.993C101.107 121.19 100.371 121.334 99.6641 121.426C98.957 121.519 98.3424 121.577 97.8211 121.599C97.2997 121.623 96.9568 121.634 96.7946 121.634L97.4903 114.288ZM111.854 125.55C111.483 124.742 110.985 124.032 110.359 123.419C109.733 122.807 108.99 122.362 108.132 122.085C108.504 121.784 108.868 121.311 109.228 120.664C109.588 120.018 109.894 119.313 110.149 118.55C110.404 117.788 110.579 117.02 110.672 116.246C110.763 115.472 110.728 114.808 110.568 114.253C110.172 112.867 109.553 111.781 108.706 110.996C107.86 110.211 106.875 109.668 105.75 109.367C104.625 109.068 103.386 109.004 102.029 109.177C100.673 109.35 99.287 109.69 97.873 110.199C97.873 110.084 97.8851 109.963 97.9078 109.835C97.9305 109.709 97.9419 109.575 97.9419 109.436C97.9419 109.09 97.7692 108.79 97.4205 108.536C97.0735 108.282 96.6738 108.132 96.2213 108.085C95.7689 108.039 95.3286 108.137 94.8989 108.38C94.4708 108.622 94.1749 109.068 94.0127 109.714C93.827 111.793 93.6414 113.954 93.4565 116.194C93.2708 118.435 93.0738 120.699 92.8654 122.986C92.6562 125.273 92.447 127.543 92.2395 129.795C92.0303 132.048 91.8211 134.213 91.6135 136.292C91.6824 136.916 91.8559 137.401 92.1349 137.748C92.4122 138.095 92.7373 138.303 93.1078 138.372C93.4792 138.441 93.8676 138.377 94.273 138.181C94.6784 137.985 95.0327 137.644 95.3343 137.159C96.2611 137.667 97.3054 137.996 98.4649 138.146C99.6235 138.296 100.799 138.296 101.995 138.146C103.188 137.996 104.365 137.714 105.524 137.298C106.683 136.882 107.739 136.362 108.689 135.738C109.639 135.114 110.439 134.404 111.089 133.607C111.738 132.81 112.167 131.949 112.375 131.025C112.584 130.078 112.642 129.131 112.549 128.184C112.456 127.237 112.224 126.36 111.854 125.55Z" fill="#0D0C23"/>
<path fill-rule="evenodd" clip-rule="evenodd" d="M145.784 143.846C145.656 144.609 145.476 145.411 145.245 146.255C145.013 147.097 144.74 147.866 144.428 148.56C144.114 149.252 143.767 149.812 143.385 150.24C143.002 150.667 142.59 150.846 142.15 150.777C141.802 150.73 141.581 150.511 141.49 150.118C141.396 149.725 141.396 149.24 141.49 148.664C141.581 148.085 141.761 147.432 142.027 146.705C142.295 145.977 142.619 145.255 143.002 144.54C143.385 143.823 143.819 143.136 144.306 142.477C144.793 141.819 145.303 141.271 145.836 140.832C145.952 140.97 146.004 141.317 145.992 141.871C145.98 142.426 145.911 143.084 145.784 143.846ZM157.574 128.807C157.261 128.461 156.878 128.264 156.426 128.218C155.974 128.172 155.515 128.426 155.053 128.98C154.751 129.535 154.368 130.066 153.904 130.574C153.441 131.083 152.96 131.545 152.462 131.96C151.962 132.376 151.487 132.734 151.035 133.034C150.584 133.335 150.229 133.554 149.975 133.693C149.882 132.954 149.829 132.157 149.818 131.302C149.806 130.447 149.824 129.581 149.87 128.703C149.939 127.456 150.084 126.197 150.305 124.926C150.525 123.656 150.844 122.408 151.262 121.183C151.262 120.536 151.11 120.011 150.809 119.606C150.508 119.203 150.143 118.948 149.714 118.844C149.284 118.741 148.845 118.798 148.392 119.018C147.941 119.238 147.552 119.636 147.227 120.213C146.95 120.976 146.63 121.83 146.271 122.777C145.911 123.725 145.506 124.689 145.054 125.671C144.602 126.653 144.097 127.606 143.541 128.529C142.984 129.454 142.376 130.274 141.715 130.99C141.054 131.706 140.335 132.266 139.559 132.671C138.782 133.075 137.942 133.254 137.038 133.208C136.62 133.093 136.318 132.781 136.133 132.272C135.947 131.765 135.837 131.129 135.803 130.366C135.768 129.604 135.803 128.766 135.906 127.854C136.011 126.942 136.151 126.035 136.325 125.134C136.498 124.233 136.69 123.378 136.897 122.57C137.106 121.761 137.304 121.079 137.489 120.525C137.767 119.855 137.767 119.294 137.489 118.844C137.211 118.394 136.828 118.094 136.342 117.943C135.855 117.794 135.345 117.799 134.811 117.961C134.278 118.123 133.895 118.48 133.664 119.035C133.269 119.983 132.91 121.045 132.585 122.223C132.261 123.401 132 124.62 131.803 125.879C131.606 127.138 131.495 128.386 131.472 129.622C131.471 129.702 131.475 129.778 131.475 129.858C130.969 131.202 130.487 132.217 130.03 132.896C129.439 133.775 128.771 134.156 128.029 134.04C127.704 133.901 127.491 133.578 127.386 133.069C127.281 132.562 127.247 131.937 127.281 131.198C127.317 130.459 127.404 129.622 127.542 128.686C127.682 127.75 127.855 126.78 128.064 125.775C128.273 124.77 128.493 123.759 128.724 122.743C128.957 121.727 129.165 120.768 129.351 119.867C129.328 119.058 129.09 118.441 128.638 118.012C128.187 117.586 127.554 117.418 126.743 117.51C126.186 117.741 125.775 118.042 125.509 118.411C125.241 118.78 125.027 119.255 124.865 119.832C124.772 120.133 124.633 120.733 124.447 121.634C124.262 122.534 124.024 123.569 123.734 124.735C123.444 125.902 123.102 127.12 122.708 128.391C122.314 129.661 121.873 130.812 121.387 131.839C120.9 132.867 120.366 133.693 119.787 134.317C119.208 134.941 118.582 135.194 117.909 135.079C117.538 135.009 117.301 134.628 117.196 133.936C117.092 133.243 117.075 132.388 117.144 131.371C117.213 130.355 117.353 129.24 117.561 128.028C117.769 126.815 117.984 125.666 118.204 124.579C118.425 123.494 118.628 122.534 118.814 121.703C118.999 120.871 119.126 120.317 119.196 120.04C119.196 119.37 119.044 118.833 118.744 118.428C118.442 118.025 118.078 117.77 117.648 117.666C117.219 117.562 116.778 117.62 116.327 117.839C115.875 118.059 115.486 118.458 115.161 119.035C115.045 119.658 114.894 120.381 114.709 121.201C114.524 122.02 114.345 122.864 114.17 123.73C113.997 124.597 113.834 125.446 113.684 126.277C113.533 127.109 113.423 127.837 113.353 128.461C113.307 128.945 113.254 129.541 113.197 130.245C113.138 130.951 113.109 131.695 113.109 132.48C113.109 133.266 113.167 134.045 113.284 134.819C113.399 135.593 113.608 136.304 113.909 136.951C114.21 137.598 114.634 138.129 115.18 138.544C115.724 138.96 116.413 139.191 117.248 139.238C118.106 139.283 118.854 139.22 119.492 139.047C120.129 138.874 120.709 138.602 121.231 138.232C121.752 137.864 122.227 137.424 122.657 136.916C123.085 136.407 123.508 135.854 123.925 135.252C124.32 136.131 124.83 136.812 125.456 137.297C126.082 137.782 126.743 138.071 127.438 138.163C128.133 138.255 128.841 138.158 129.56 137.868C130.279 137.58 130.927 137.089 131.507 136.396C131.89 135.97 132.25 135.488 132.587 134.954C132.731 135.203 132.883 135.445 133.055 135.668C133.623 136.407 134.394 136.916 135.368 137.193C136.412 137.47 137.431 137.516 138.428 137.332C139.425 137.147 140.376 136.812 141.28 136.327C142.185 135.841 143.025 135.258 143.802 134.577C144.578 133.895 145.256 133.185 145.836 132.446C145.813 132.977 145.801 133.479 145.801 133.953C145.801 134.427 145.789 134.941 145.767 135.495C144.607 136.304 143.512 137.274 142.481 138.406C141.448 139.537 140.544 140.744 139.768 142.027C138.99 143.308 138.382 144.609 137.942 145.925C137.501 147.242 137.286 148.472 137.298 149.616C137.31 150.759 137.582 151.758 138.116 152.613C138.648 153.468 139.518 154.08 140.724 154.449C141.976 154.843 143.076 154.854 144.028 154.484C144.979 154.115 145.806 153.502 146.514 152.648C147.221 151.793 147.801 150.759 148.254 149.547C148.705 148.334 149.064 147.069 149.332 145.752C149.598 144.436 149.766 143.141 149.835 141.871C149.905 140.6 149.905 139.468 149.835 138.475C151.83 137.644 153.464 136.592 154.739 135.322C156.015 134.052 157.069 132.712 157.904 131.302C158.159 130.955 158.246 130.539 158.166 130.055C158.083 129.569 157.887 129.153 157.574 128.807Z" fill="#0D0C23"/>
<path fill-rule="evenodd" clip-rule="evenodd" d="M201.446 126.59C201.516 126.059 201.62 125.499 201.759 124.909C201.898 124.321 202.072 123.748 202.281 123.194C202.489 122.64 202.733 122.161 203.012 121.756C203.29 121.352 203.586 121.063 203.898 120.889C204.212 120.716 204.529 120.734 204.855 120.941C205.202 121.149 205.416 121.588 205.498 122.258C205.579 122.929 205.498 123.644 205.254 124.407C205.011 125.169 204.576 125.885 203.951 126.555C203.324 127.226 202.477 127.664 201.411 127.872C201.365 127.549 201.376 127.122 201.446 126.59ZM213.496 128.011C213.114 127.895 212.749 127.884 212.401 127.976C212.054 128.069 211.833 128.311 211.741 128.705C211.554 129.443 211.258 130.2 210.853 130.973C210.448 131.748 209.949 132.481 209.359 133.175C208.768 133.867 208.1 134.48 207.359 135.01C206.616 135.542 205.84 135.923 205.028 136.154C204.216 136.409 203.544 136.437 203.012 136.241C202.477 136.045 202.055 135.71 201.742 135.236C201.429 134.763 201.203 134.191 201.064 133.521C200.925 132.851 200.844 132.158 200.82 131.441C202.142 131.534 203.318 131.298 204.35 130.731C205.382 130.166 206.257 129.414 206.976 128.478C207.694 127.543 208.24 126.492 208.61 125.325C208.981 124.159 209.19 122.998 209.236 121.843C209.26 120.757 209.098 119.839 208.75 119.088C208.402 118.338 207.932 117.753 207.341 117.338C206.75 116.922 206.072 116.679 205.307 116.611C204.542 116.541 203.765 116.645 202.976 116.922C202.025 117.245 201.22 117.771 200.559 118.499C199.898 119.226 199.348 120.07 198.907 121.029C198.467 121.987 198.119 123.021 197.865 124.129C197.609 125.238 197.424 126.331 197.308 127.405C197.203 128.369 197.148 129.291 197.128 130.18C197.078 130.294 197.03 130.402 196.977 130.523C196.618 131.344 196.199 132.146 195.725 132.931C195.25 133.717 194.722 134.375 194.143 134.906C193.563 135.438 192.961 135.623 192.335 135.461C191.964 135.369 191.761 134.941 191.726 134.179C191.691 133.416 191.731 132.47 191.847 131.337C191.964 130.206 192.096 128.981 192.247 127.664C192.397 126.348 192.473 125.089 192.473 123.888C192.473 122.847 192.276 121.848 191.882 120.889C191.488 119.932 190.948 119.134 190.265 118.499C189.581 117.863 188.787 117.442 187.883 117.234C186.979 117.026 186.005 117.164 184.961 117.649C183.918 118.135 183.088 118.816 182.475 119.694C181.86 120.572 181.298 121.496 180.788 122.466C180.602 121.727 180.33 121.04 179.97 120.404C179.611 119.769 179.171 119.215 178.649 118.741C178.127 118.268 177.541 117.898 176.893 117.632C176.244 117.367 175.559 117.234 174.84 117.234C174.145 117.234 173.502 117.367 172.911 117.632C172.319 117.898 171.781 118.239 171.294 118.655C170.806 119.071 170.366 119.538 169.972 120.058C169.578 120.578 169.229 121.092 168.928 121.6C168.881 120.999 168.829 120.474 168.773 120.023C168.714 119.573 168.609 119.191 168.459 118.88C168.308 118.568 168.094 118.331 167.816 118.17C167.537 118.008 167.143 117.926 166.633 117.926C166.378 117.926 166.123 117.978 165.868 118.082C165.613 118.187 165.386 118.331 165.19 118.516C164.993 118.702 164.842 118.926 164.738 119.191C164.634 119.457 164.605 119.764 164.651 120.11C164.674 120.365 164.738 120.67 164.842 121.029C164.946 121.387 165.045 121.855 165.138 122.431C165.23 123.009 165.306 123.708 165.364 124.528C165.422 125.349 165.439 126.353 165.416 127.543C165.392 128.733 165.306 130.124 165.155 131.718C165.004 133.312 164.766 135.161 164.442 137.263C164.395 137.748 164.581 138.142 164.999 138.442C165.416 138.742 165.891 138.914 166.425 138.961C166.957 139.008 167.462 138.914 167.938 138.684C168.413 138.452 168.685 138.048 168.754 137.471C168.824 136.385 168.958 135.231 169.155 134.006C169.352 132.782 169.595 131.569 169.885 130.368C170.175 129.166 170.505 128.023 170.876 126.936C171.246 125.851 171.658 124.892 172.111 124.06C172.563 123.228 173.033 122.565 173.519 122.068C174.006 121.571 174.516 121.323 175.05 121.323C175.699 121.323 176.203 121.617 176.562 122.206C176.921 122.795 177.176 123.553 177.328 124.476C177.478 125.401 177.547 126.412 177.537 127.509C177.525 128.606 177.478 129.663 177.397 130.679C177.316 131.696 177.223 132.602 177.118 133.399C177.015 134.196 176.939 134.745 176.893 135.045C176.893 135.577 177.096 135.998 177.501 136.31C177.906 136.622 178.358 136.807 178.858 136.865C179.356 136.923 179.825 136.83 180.266 136.587C180.706 136.344 180.962 135.935 181.031 135.357C181.263 133.694 181.582 132.025 181.987 130.351C182.393 128.675 182.857 127.174 183.379 125.846C183.901 124.517 184.48 123.431 185.118 122.588C185.755 121.745 186.434 121.323 187.152 121.323C187.523 121.323 187.807 121.578 188.004 122.085C188.201 122.593 188.3 123.286 188.3 124.164C188.3 124.811 188.248 125.476 188.144 126.157C188.038 126.838 187.918 127.543 187.778 128.271C187.639 128.999 187.517 129.743 187.412 130.506C187.309 131.268 187.257 132.065 187.257 132.897C187.257 133.475 187.315 134.144 187.431 134.906C187.546 135.669 187.766 136.392 188.091 137.072C188.416 137.754 188.862 138.331 189.431 138.805C189.999 139.278 190.723 139.515 191.604 139.515C192.926 139.515 194.096 139.232 195.117 138.666C196.136 138.101 197.012 137.362 197.742 136.449C197.78 136.401 197.815 136.351 197.852 136.303C197.908 136.437 197.957 136.581 198.02 136.709C198.518 137.726 199.197 138.511 200.055 139.065C200.912 139.62 201.921 139.925 203.081 139.984C204.24 140.041 205.503 139.827 206.872 139.342C207.891 138.973 208.778 138.511 209.532 137.956C210.285 137.402 210.963 136.726 211.566 135.929C212.17 135.132 212.719 134.213 213.218 133.175C213.718 132.134 214.221 130.945 214.731 129.605C214.824 129.236 214.737 128.906 214.471 128.617C214.203 128.329 213.88 128.126 213.496 128.011Z" fill="#0D0C23"/>
<path fill-rule="evenodd" clip-rule="evenodd" d="M232.398 124.145C232.282 124.827 232.126 125.578 231.929 126.398C231.731 127.218 231.482 128.067 231.181 128.945C230.88 129.823 230.509 130.614 230.068 131.319C229.628 132.024 229.123 132.584 228.555 132.999C227.987 133.415 227.333 133.588 226.591 133.519C226.219 133.473 225.935 133.219 225.739 132.756C225.541 132.295 225.437 131.705 225.425 130.989C225.413 130.274 225.478 129.488 225.616 128.633C225.756 127.779 225.97 126.941 226.261 126.121C226.55 125.301 226.903 124.544 227.321 123.85C227.738 123.158 228.219 122.62 228.764 122.239C229.309 121.858 229.906 121.68 230.555 121.702C231.204 121.726 231.9 122.049 232.642 122.672C232.595 122.973 232.514 123.464 232.398 124.145ZM244.762 126.796C244.402 126.612 244.031 126.571 243.649 126.675C243.267 126.779 242.994 127.132 242.832 127.732C242.739 128.379 242.531 129.141 242.206 130.019C241.881 130.897 241.481 131.729 241.006 132.514C240.53 133.299 239.985 133.952 239.372 134.472C238.757 134.992 238.102 135.229 237.407 135.182C236.826 135.136 236.42 134.842 236.19 134.299C235.956 133.756 235.836 133.075 235.824 132.254C235.812 131.435 235.894 130.51 236.067 129.482C236.241 128.454 236.45 127.432 236.693 126.415C236.937 125.399 237.186 124.423 237.442 123.487C237.696 122.551 237.905 121.76 238.068 121.114C238.253 120.536 238.194 120.045 237.894 119.641C237.592 119.237 237.216 118.947 236.763 118.775C236.311 118.601 235.853 118.555 235.389 118.636C234.925 118.717 234.624 118.965 234.485 119.38C233.117 118.202 231.801 117.567 230.538 117.475C229.274 117.382 228.109 117.66 227.042 118.307C225.975 118.953 225.031 119.889 224.209 121.114C223.385 122.338 222.718 123.672 222.208 125.116C221.698 126.56 221.38 128.032 221.252 129.534C221.124 131.036 221.222 132.405 221.548 133.641C221.873 134.876 222.446 135.888 223.269 136.672C224.092 137.458 225.211 137.851 226.626 137.851C227.252 137.851 227.854 137.724 228.434 137.469C229.013 137.215 229.546 136.915 230.034 136.569C230.52 136.222 230.949 135.858 231.321 135.477C231.691 135.095 231.981 134.778 232.19 134.524C232.352 135.356 232.618 136.061 232.99 136.638C233.36 137.215 233.784 137.689 234.259 138.058C234.734 138.428 235.233 138.699 235.755 138.873C236.276 139.047 236.781 139.133 237.267 139.133C238.357 139.133 239.376 138.764 240.328 138.024C241.279 137.285 242.131 136.378 242.884 135.304C243.637 134.229 244.258 133.098 244.744 131.907C245.231 130.718 245.556 129.661 245.719 128.737C245.881 128.39 245.851 128.027 245.631 127.646C245.411 127.265 245.121 126.982 244.762 126.796Z" fill="#0D0C23"/>
<path fill-rule="evenodd" clip-rule="evenodd" d="M307.364 145.927C307.167 146.712 306.859 147.377 306.441 147.92C306.024 148.462 305.503 148.745 304.877 148.769C304.483 148.792 304.181 148.583 303.972 148.145C303.764 147.706 303.619 147.14 303.538 146.448C303.456 145.754 303.422 144.98 303.433 144.125C303.445 143.271 303.48 142.427 303.538 141.596C303.595 140.765 303.666 139.989 303.747 139.274C303.827 138.558 303.891 138.004 303.937 137.611C304.726 137.703 305.381 138.044 305.903 138.633C306.424 139.222 306.825 139.921 307.102 140.73C307.381 141.538 307.542 142.411 307.59 143.345C307.635 144.281 307.56 145.141 307.364 145.927ZM294.773 145.927C294.577 146.712 294.269 147.377 293.852 147.92C293.435 148.462 292.913 148.745 292.287 148.769C291.893 148.792 291.592 148.583 291.383 148.145C291.174 147.706 291.029 147.14 290.949 146.448C290.866 145.754 290.832 144.98 290.844 144.125C290.855 143.271 290.89 142.427 290.949 141.596C291.006 140.765 291.075 139.989 291.156 139.274C291.238 138.558 291.301 138.004 291.349 137.611C292.136 137.703 292.792 138.044 293.312 138.633C293.835 139.222 294.234 139.921 294.513 140.73C294.791 141.538 294.954 142.411 295 143.345C295.046 144.281 294.97 145.141 294.773 145.927ZM281.854 126.245C281.831 126.798 281.778 127.29 281.697 127.717C281.616 128.145 281.506 128.416 281.367 128.532C281.111 128.392 280.798 128.036 280.428 127.458C280.056 126.88 279.768 126.227 279.558 125.499C279.349 124.771 279.285 124.056 279.367 123.351C279.448 122.646 279.813 122.098 280.463 121.705C280.717 121.566 280.938 121.618 281.123 121.861C281.309 122.104 281.459 122.456 281.576 122.918C281.691 123.38 281.771 123.911 281.819 124.512C281.865 125.113 281.877 125.69 281.854 126.245ZM278.776 133.158C278.416 133.539 278.016 133.868 277.576 134.145C277.135 134.422 276.683 134.631 276.22 134.769C275.755 134.908 275.338 134.942 274.968 134.872C273.924 134.666 273.124 134.214 272.568 133.522C272.012 132.828 271.657 132.014 271.507 131.079C271.356 130.143 271.374 129.143 271.56 128.081C271.745 127.019 272.057 126.031 272.498 125.118C272.938 124.205 273.473 123.421 274.098 122.762C274.724 122.104 275.408 121.694 276.15 121.531C275.871 122.709 275.779 123.929 275.871 125.187C275.964 126.446 276.266 127.63 276.776 128.739C277.1 129.41 277.489 130.021 277.941 130.576C278.394 131.131 278.944 131.604 279.594 131.996C279.408 132.39 279.135 132.776 278.776 133.158ZM317.257 126.591C317.327 126.061 317.431 125.499 317.571 124.91C317.71 124.321 317.884 123.75 318.092 123.195C318.301 122.641 318.545 122.161 318.823 121.757C319.102 121.353 319.396 121.064 319.709 120.891C320.023 120.717 320.342 120.734 320.666 120.943C321.014 121.151 321.228 121.59 321.309 122.259C321.39 122.929 321.309 123.645 321.066 124.408C320.822 125.17 320.388 125.886 319.762 126.556C319.137 127.226 318.289 127.665 317.223 127.874C317.176 127.55 317.188 127.123 317.257 126.591ZM331.274 126.591C331.344 126.061 331.447 125.499 331.586 124.91C331.725 124.321 331.9 123.75 332.109 123.195C332.316 122.641 332.56 122.161 332.839 121.757C333.117 121.353 333.413 121.064 333.726 120.891C334.039 120.717 334.357 120.734 334.682 120.943C335.029 121.151 335.243 121.59 335.325 122.259C335.406 122.929 335.325 123.645 335.082 124.408C334.838 125.17 334.403 125.886 333.778 126.556C333.152 127.226 332.305 127.665 331.239 127.874C331.193 127.55 331.204 127.123 331.274 126.591ZM344.298 128.619C344.031 128.33 343.707 128.127 343.325 128.011C342.941 127.896 342.576 127.885 342.229 127.977C341.881 128.07 341.659 128.312 341.568 128.705C341.382 129.444 341.087 130.201 340.682 130.974C340.275 131.749 339.777 132.482 339.186 133.175C338.595 133.868 337.927 134.481 337.186 135.012C336.444 135.543 335.668 135.924 334.857 136.155C334.044 136.41 333.371 136.438 332.839 136.242C332.305 136.046 331.882 135.711 331.569 135.237C331.256 134.763 331.031 134.192 330.89 133.522C330.752 132.852 330.671 132.159 330.648 131.443C331.969 131.535 333.146 131.298 334.177 130.732C335.209 130.166 336.084 129.415 336.804 128.479C337.522 127.544 338.067 126.494 338.437 125.327C338.809 124.16 339.017 122.999 339.064 121.844C339.087 120.758 338.925 119.839 338.577 119.088C338.23 118.338 337.76 117.755 337.169 117.339C336.577 116.923 335.899 116.68 335.133 116.611C334.369 116.542 333.592 116.646 332.804 116.923C331.853 117.246 331.048 117.772 330.388 118.5C329.727 119.228 329.175 120.071 328.735 121.029C328.294 121.989 327.946 123.022 327.691 124.131C327.435 125.239 327.251 126.331 327.135 127.406C327.022 128.448 326.961 129.445 326.947 130.4C326.86 130.591 326.766 130.782 326.665 130.974C326.259 131.749 325.761 132.482 325.169 133.175C324.579 133.868 323.912 134.481 323.171 135.012C322.429 135.543 321.651 135.924 320.84 136.155C320.028 136.41 319.356 136.438 318.823 136.242C318.289 136.046 317.866 135.711 317.554 135.237C317.241 134.763 317.015 134.192 316.875 133.522C316.736 132.852 316.655 132.159 316.631 131.443C317.953 131.535 319.13 131.298 320.162 130.732C321.193 130.166 322.069 129.415 322.787 128.479C323.506 127.544 324.051 126.494 324.422 125.327C324.792 124.16 325.002 122.999 325.048 121.844C325.071 120.758 324.909 119.839 324.562 119.088C324.213 118.338 323.744 117.755 323.152 117.339C322.561 116.923 321.884 116.68 321.118 116.611C320.353 116.542 319.576 116.646 318.788 116.923C317.836 117.246 317.031 117.772 316.371 118.5C315.71 119.228 315.159 120.071 314.719 121.029C314.278 121.989 313.931 123.022 313.676 124.131C313.421 125.239 313.235 126.331 313.12 127.406C313.053 128.011 313.009 128.598 312.977 129.175C312.753 129.365 312.534 129.557 312.302 129.744C311.502 130.391 310.661 130.974 309.78 131.495C308.899 132.014 307.983 132.442 307.033 132.776C306.082 133.111 305.108 133.314 304.112 133.383L306.268 110.374C306.407 109.888 306.338 109.462 306.059 109.092C305.781 108.722 305.422 108.468 304.982 108.329C304.541 108.19 304.071 108.202 303.572 108.364C303.074 108.526 302.663 108.896 302.338 109.472C302.175 110.35 302.007 111.552 301.834 113.076C301.66 114.601 301.485 116.264 301.312 118.067C301.138 119.868 300.964 121.728 300.791 123.645C300.616 125.564 300.465 127.354 300.338 129.017C300.332 129.091 300.328 129.157 300.322 129.23C300.119 129.402 299.922 129.575 299.712 129.744C298.913 130.391 298.071 130.974 297.191 131.495C296.309 132.014 295.394 132.442 294.444 132.776C293.492 133.111 292.519 133.314 291.521 133.383L293.678 110.374C293.818 109.888 293.748 109.462 293.47 109.092C293.192 108.722 292.832 108.468 292.391 108.329C291.951 108.19 291.481 108.202 290.983 108.364C290.484 108.526 290.073 108.896 289.748 109.472C289.586 110.35 289.418 111.552 289.245 113.076C289.069 114.601 288.897 116.264 288.722 118.067C288.548 119.868 288.375 121.728 288.201 123.645C288.028 125.564 287.876 127.354 287.749 129.017C287.746 129.05 287.744 129.08 287.741 129.114C287.376 129.282 286.98 129.43 286.549 129.554C286.108 129.682 285.61 129.756 285.054 129.78C285.146 129.363 285.221 128.901 285.279 128.392C285.337 127.885 285.384 127.354 285.419 126.798C285.454 126.245 285.465 125.69 285.454 125.135C285.441 124.581 285.413 124.073 285.366 123.61C285.25 122.618 285.036 121.676 284.724 120.786C284.41 119.898 283.987 119.152 283.454 118.552C282.92 117.951 282.254 117.546 281.454 117.339C280.654 117.131 279.72 117.2 278.655 117.546C277.077 117.339 275.657 117.484 274.394 117.98C273.13 118.477 272.034 119.199 271.107 120.146C270.18 121.094 269.42 122.208 268.829 123.489C268.238 124.771 267.843 126.089 267.647 127.44C267.563 128.012 267.523 128.583 267.511 129.151C267.152 129.884 266.758 130.524 266.325 131.062C265.711 131.824 265.074 132.447 264.413 132.932C263.752 133.418 263.097 133.788 262.448 134.041C261.798 134.296 261.219 134.469 260.709 134.561C260.106 134.677 259.526 134.688 258.97 134.596C258.414 134.504 257.903 134.238 257.44 133.799C257.068 133.475 256.785 132.956 256.588 132.24C256.391 131.523 256.275 130.71 256.241 129.797C256.206 128.884 256.241 127.931 256.344 126.938C256.448 125.945 256.627 125.002 256.883 124.114C257.138 123.224 257.462 122.427 257.857 121.722C258.251 121.018 258.714 120.515 259.249 120.215C259.549 120.262 259.735 120.44 259.805 120.751C259.875 121.064 259.891 121.433 259.856 121.861C259.822 122.289 259.77 122.727 259.7 123.177C259.631 123.628 259.596 124.004 259.596 124.304C259.712 124.928 259.938 125.413 260.274 125.76C260.61 126.106 260.987 126.309 261.405 126.365C261.821 126.424 262.232 126.326 262.639 126.071C263.044 125.817 263.374 125.413 263.63 124.858C263.653 124.882 263.688 124.893 263.734 124.893L264.221 120.492C264.36 119.891 264.268 119.36 263.943 118.898C263.618 118.436 263.189 118.171 262.656 118.101C261.983 117.131 261.074 116.617 259.926 116.559C258.778 116.501 257.602 116.876 256.396 117.686C255.654 118.218 254.999 118.95 254.431 119.885C253.862 120.822 253.399 121.861 253.04 123.005C252.68 124.148 252.426 125.355 252.275 126.626C252.124 127.896 252.096 129.133 252.187 130.334C252.281 131.535 252.495 132.667 252.832 133.729C253.168 134.792 253.637 135.682 254.24 136.398C254.75 137.021 255.329 137.478 255.979 137.767C256.627 138.056 257.306 138.234 258.013 138.304C258.72 138.373 259.421 138.344 260.117 138.217C260.813 138.091 261.473 137.911 262.1 137.679C262.911 137.38 263.746 136.998 264.604 136.536C265.461 136.075 266.285 135.52 267.073 134.872C267.488 134.533 267.887 134.161 268.273 133.763C268.448 134.198 268.645 134.619 268.882 135.012C269.508 136.051 270.354 136.895 271.421 137.542C272.486 138.188 273.797 138.499 275.35 138.476C277.02 138.454 278.561 138.032 279.975 137.212C281.39 136.393 282.549 135.185 283.454 133.591C284.808 133.591 286.141 133.368 287.451 132.926C287.44 133.067 287.428 133.214 287.418 133.349C287.326 134.573 287.279 135.404 287.279 135.844C287.256 136.606 287.204 137.547 287.123 138.667C287.042 139.788 286.99 140.966 286.966 142.201C286.943 143.438 286.99 144.685 287.106 145.945C287.222 147.203 287.465 148.347 287.836 149.375C288.206 150.403 288.733 151.275 289.418 151.992C290.102 152.707 291 153.135 292.113 153.274C293.296 153.435 294.316 153.228 295.174 152.65C296.031 152.072 296.727 151.281 297.261 150.276C297.794 149.271 298.17 148.111 298.391 146.794C298.611 145.477 298.674 144.155 298.583 142.826C298.489 141.497 298.245 140.244 297.851 139.067C297.457 137.888 296.912 136.917 296.217 136.155C296.635 136.04 297.132 135.82 297.713 135.497C298.292 135.173 298.888 134.809 299.504 134.405C299.655 134.306 299.804 134.201 299.955 134.099C299.898 134.918 299.869 135.502 299.869 135.844C299.846 136.606 299.794 137.547 299.712 138.667C299.632 139.788 299.579 140.966 299.556 142.201C299.533 143.438 299.579 144.685 299.695 145.945C299.81 147.203 300.054 148.347 300.425 149.375C300.795 150.403 301.324 151.275 302.007 151.992C302.691 152.707 303.59 153.135 304.704 153.274C305.885 153.435 306.905 153.228 307.763 152.65C308.621 152.072 309.317 151.281 309.85 150.276C310.383 149.271 310.759 148.111 310.98 146.794C311.201 145.477 311.264 144.155 311.171 142.826C311.079 141.497 310.835 140.244 310.442 139.067C310.047 137.888 309.503 136.917 308.806 136.155C309.224 136.04 309.722 135.82 310.302 135.497C310.882 135.173 311.479 134.809 312.094 134.405C312.413 134.195 312.73 133.978 313.047 133.755C313.166 134.885 313.423 135.876 313.832 136.71C314.331 137.726 315.008 138.511 315.867 139.067C316.724 139.621 317.732 139.927 318.893 139.985C320.052 140.041 321.315 139.828 322.683 139.343C323.703 138.974 324.59 138.511 325.343 137.958C326.097 137.402 326.775 136.727 327.379 135.93C327.414 135.884 327.446 135.834 327.48 135.787C327.587 136.111 327.706 136.422 327.847 136.71C328.347 137.726 329.025 138.511 329.882 139.067C330.739 139.621 331.749 139.927 332.908 139.985C334.067 140.041 335.331 139.828 336.699 139.343C337.72 138.974 338.606 138.511 339.359 137.958C340.112 137.402 340.791 136.727 341.394 135.93C341.997 135.133 342.547 134.214 343.046 133.175C343.545 132.135 344.048 130.946 344.559 129.605C344.651 129.236 344.565 128.907 344.298 128.619Z" fill="#0D0C23"/>
</svg>
