<svg width="932" height="183" viewBox="0 0 932 183" fill="none" xmlns="http://www.w3.org/2000/svg">
<g clip-path="url(#clip0_203_4)">
<rect width="932" height="183" fill="#0B75FF"/>
<path d="M143.279 27.922C149.584 14.8044 166.334 10.7672 177.923 19.5718L543.521 297.335L491.148 308.089L277.052 352.049L-44.2178 418.015L143.279 27.922Z" fill="#0A6AE8"/>
<path d="M144.126 23.4225C152.941 11.8411 170.161 11.2553 179.742 22.211L482 367.832H428.535H209.972H-118L144.126 23.4225Z" fill="#579DF9"/>
<path d="M864.53 -73.8146C873.603 -86.1629 891.986 -86.3538 901.314 -74.1966L1254 385.5H945.183H538V370.608L864.53 -73.8146Z" fill="#76B2FF"/>
<path d="M319.512 110.076C326.481 97.2989 343.416 94.1252 354.538 103.512L705.423 399.644L652.568 407.7L436.501 440.632L112.273 490.05L319.512 110.076Z" fill="#145BB7"/>
<path d="M319.126 106.422C327.941 94.8411 345.161 94.2553 354.742 105.211L657 450.832H603.535H384.972H57L319.126 106.422Z" fill="#80B6FF"/>
<path d="M470.583 50.75C459.643 50.75 449.151 55.096 441.415 62.8318C433.679 70.5677 429.333 81.0598 429.333 92H415.583L433.412 109.829L433.733 110.471L452.25 92H438.5C438.5 74.2625 452.846 59.9167 470.583 59.9167C488.321 59.9167 502.667 74.2625 502.667 92C502.667 109.738 488.321 124.083 470.583 124.083C461.737 124.083 453.717 120.463 447.942 114.642L441.433 121.15C445.253 124.991 449.796 128.038 454.799 130.114C459.802 132.191 465.166 133.257 470.583 133.25C481.523 133.25 492.016 128.904 499.751 121.168C507.487 113.432 511.833 102.94 511.833 92C511.833 81.0598 507.487 70.5677 499.751 62.8318C492.016 55.096 481.523 50.75 470.583 50.75V50.75ZM466 73.6667V96.5833L485.617 108.225L488.917 102.679L472.875 93.1458V73.6667H466Z" fill="white" fill-opacity="0.75"/>
</g>
<defs>
<clipPath id="clip0_203_4">
<rect width="932" height="183" fill="white"/>
</clipPath>
</defs>
</svg>
