<svg width="932" height="183" viewBox="0 0 932 183" fill="none" xmlns="http://www.w3.org/2000/svg">
<g clip-path="url(#clip0_203_24)">
<rect width="932" height="183" fill="#0B75FF"/>
<path d="M56.5305 71.6854C65.6031 59.3371 83.9863 59.1462 93.3135 71.3034L446 531H137.183H-270V516.108L56.5305 71.6854Z" fill="#A0CAFF"/>
<path d="M190.512 -9.9238C197.481 -22.7011 214.416 -25.8748 225.538 -16.4879L576.423 279.644L523.568 287.7L307.501 320.632L-16.727 370.05L190.512 -9.9238Z" fill="#145BB7"/>
<path d="M190.126 -13.5775C198.941 -25.1589 216.161 -25.7447 225.742 -14.789L528 330.832H474.535H255.972H-72L190.126 -13.5775Z" fill="#80B6FF"/>
<path d="M716.279 32.922C722.584 19.8044 739.334 15.7672 750.923 24.5718L1116.52 302.335L1064.15 313.089L850.052 357.049L528.782 423.015L716.279 32.922Z" fill="#0A6AE8"/>
<path d="M717.126 28.4225C725.941 16.8411 743.161 16.2553 752.742 27.211L1055 372.832H1001.53H782.972H455L717.126 28.4225Z" fill="#579DF9"/>
<path d="M493.5 105.75V119.5H438.5V105.75H429.333V119.5C429.333 124.542 433.458 128.667 438.5 128.667H493.5C498.542 128.667 502.667 124.542 502.667 119.5V105.75H493.5ZM488.917 87.4166L482.454 80.9541L470.583 92.7791V55.3333H461.417V92.7791L449.546 80.9541L443.083 87.4166L466 110.333L488.917 87.4166Z" fill="white" fill-opacity="0.75"/>
</g>
<defs>
<clipPath id="clip0_203_24">
<rect width="932" height="183" fill="white"/>
</clipPath>
</defs>
</svg>
