<svg width="932" height="183" viewBox="0 0 932 183" fill="none" xmlns="http://www.w3.org/2000/svg">
<g clip-path="url(#clip0_203_32)">
<rect width="932" height="183" fill="#0B75FF"/>
<path d="M-0.720652 -42.078C5.58429 -55.1956 22.3343 -59.2328 33.9232 -50.4282L399.521 227.335L347.148 238.089L133.052 282.049L-188.218 348.015L-0.720652 -42.078Z" fill="#0A6AE8"/>
<path d="M0.126287 -46.5775C8.94077 -58.1589 26.1605 -58.7447 35.7416 -47.789L338 297.832H284.535H65.9724H-262L0.126287 -46.5775Z" fill="#579DF9"/>
<path d="M461.417 119.5H470.583V110.333H461.417V119.5ZM466 46.1667C440.7 46.1667 420.167 66.7001 420.167 92.0001C420.167 117.3 440.7 137.833 466 137.833C491.3 137.833 511.833 117.3 511.833 92.0001C511.833 66.7001 491.3 46.1667 466 46.1667ZM466 128.667C445.788 128.667 429.333 112.213 429.333 92.0001C429.333 71.7876 445.788 55.3334 466 55.3334C486.213 55.3334 502.667 71.7876 502.667 92.0001C502.667 112.213 486.213 128.667 466 128.667ZM466 64.5001C455.871 64.5001 447.667 72.7042 447.667 82.8334H456.833C456.833 77.7917 460.958 73.6667 466 73.6667C471.042 73.6667 475.167 77.7917 475.167 82.8334C475.167 92.0001 461.417 90.8542 461.417 105.75H470.583C470.583 95.4376 484.333 94.2917 484.333 82.8334C484.333 72.7042 476.129 64.5001 466 64.5001Z" fill="white" fill-opacity="0.75"/>
<path d="M768.512 -26.9238C775.481 -39.7011 792.416 -42.8748 803.538 -33.4879L1154.42 262.644L1101.57 270.7L885.501 303.632L561.273 353.05L768.512 -26.9238Z" fill="#145BB7"/>
<path d="M768.126 -30.5775C776.941 -42.1589 794.161 -42.7447 803.742 -31.789L1106 313.832H1052.53H833.972H506L768.126 -30.5775Z" fill="#80B6FF"/>
<path d="M325.276 101.741C334.182 92.5288 348.898 92.3697 358.001 101.388L830 569H423.707H-112V554.108L325.276 101.741Z" fill="#A0CAFF"/>
</g>
<defs>
<clipPath id="clip0_203_32">
<rect width="932" height="183" fill="white"/>
</clipPath>
</defs>
</svg>
