<svg width="364" height="150" viewBox="0 0 364 150" fill="none" xmlns="http://www.w3.org/2000/svg">
<path d="M324.324 15H0V135H324.324V15Z" fill="black"/>
<path d="M198.387 92.537H198.299C198.343 92.537 198.343 92.5808 198.387 92.5808H198.431L198.387 92.537ZM198.387 92.5808C198.037 92.5808 197.121 92.7551 196.161 92.7551C193.15 92.7551 192.102 91.3589 192.102 89.5257V77.3935H198.256C198.605 77.3935 198.867 77.0878 198.867 76.6516V70.0613C198.867 69.7127 198.561 69.407 198.256 69.407H192.102V61.2024C192.102 60.8968 191.884 60.7224 191.535 60.7224H183.156C182.807 60.7224 182.632 60.9405 182.632 61.2024V69.6251C182.632 69.6251 178.399 70.6727 178.138 70.7165C177.832 70.8032 177.657 71.0651 177.657 71.3708V76.6516C177.657 77.0878 177.962 77.3935 178.312 77.3935H182.589V90.137C182.589 99.6065 189.178 100.567 193.674 100.567C195.725 100.567 198.212 99.9122 198.605 99.694C198.823 99.6065 198.954 99.3454 198.954 99.0835V93.2789C198.954 92.9295 198.736 92.6676 198.387 92.5808ZM290.295 84.0705C290.295 77.0441 287.459 76.1278 284.492 76.4335C282.178 76.5641 280.301 77.7422 280.301 77.7422V91.4027C280.301 91.4027 282.178 92.7113 285.015 92.7989C288.986 92.8865 290.295 91.4457 290.295 84.0705ZM299.722 83.4592C299.722 96.7703 295.402 100.567 287.895 100.567C281.523 100.567 278.119 97.3378 278.119 97.3378C278.119 97.3378 277.989 99.1265 277.771 99.3454C277.639 99.5635 277.465 99.6503 277.203 99.6503H271.486C271.093 99.6503 270.744 99.3454 270.744 98.9959L270.831 55.9216C270.831 55.573 271.137 55.2673 271.486 55.2673H279.735C280.083 55.2673 280.389 55.573 280.389 55.9216V70.5414C280.389 70.5414 283.575 68.4908 288.244 68.4908L288.201 68.4032C292.827 68.4032 299.722 70.1489 299.722 83.4592ZM265.9 69.4508H257.739C257.303 69.4508 257.085 69.7565 257.085 70.1927V91.2713C257.085 91.2713 254.946 92.7551 252.022 92.7551C249.142 92.7551 248.269 91.4457 248.269 88.5219V70.1051C248.269 69.7565 247.964 69.4508 247.614 69.4508H239.322C238.974 69.4508 238.668 69.7565 238.668 70.1051V89.9619C238.668 98.4722 243.425 100.61 249.971 100.61C255.383 100.61 259.747 97.6427 259.747 97.6427C259.747 97.6427 259.965 99.1703 260.052 99.3884C260.14 99.5635 260.401 99.7378 260.663 99.7378H265.857C266.293 99.7378 266.511 99.4322 266.511 99.0835L266.599 70.1051C266.642 69.7565 266.293 69.4508 265.9 69.4508ZM173.991 69.407H165.743C165.394 69.407 165.088 69.7565 165.088 70.1927V98.6465C165.088 99.4322 165.612 99.694 166.267 99.694H173.729C174.515 99.694 174.689 99.3454 174.689 98.6465V70.0613C174.646 69.7127 174.341 69.407 173.991 69.407ZM169.889 56.2711C166.922 56.2711 164.521 58.6273 164.521 61.6387C164.521 64.6062 166.878 67.007 169.889 67.007C172.813 67.007 175.169 64.65 175.169 61.6387C175.169 58.6711 172.813 56.2711 169.889 56.2711ZM233.867 55.3111H225.662C225.314 55.3111 225.008 55.6168 225.008 55.9654V71.807H212.178V55.9654C212.178 55.6168 211.872 55.3111 211.523 55.3111H203.274C202.926 55.3111 202.62 55.6168 202.62 55.9654V99.0397C202.62 99.3884 202.969 99.694 203.274 99.694H211.523C211.872 99.694 212.178 99.3884 212.178 99.0397V80.623H225.008L224.921 99.0397C224.921 99.3884 225.226 99.694 225.576 99.694H233.823C234.173 99.694 234.478 99.3884 234.478 99.0397V55.9654C234.522 55.6168 234.217 55.3111 233.867 55.3111ZM160.681 74.3822V96.6389C160.681 96.7703 160.637 97.0759 160.463 97.1197C160.463 97.1197 155.618 100.567 147.632 100.567C137.987 100.567 126.509 97.5559 126.509 77.6116C126.509 57.6673 136.503 53.5652 146.279 53.6089C154.746 53.6089 158.149 55.5292 158.673 55.8778C158.804 56.0968 158.891 56.2273 158.891 56.4016L157.32 63.3405C157.32 63.69 156.971 64.1262 156.534 63.9957C155.138 63.5595 153.044 62.73 148.112 62.73C142.395 62.73 136.285 64.3443 136.285 77.2192C136.285 90.0495 142.09 91.577 146.279 91.577C149.857 91.577 151.123 91.1408 151.123 91.1408V82.2373H145.406C144.97 82.2373 144.664 81.9324 144.664 81.583V74.4259C144.664 74.0765 144.97 73.7708 145.406 73.7708H159.939C160.375 73.7278 160.681 74.0327 160.681 74.3822Z" fill="white"/>
<path fill-rule="evenodd" clip-rule="evenodd" d="M64.8764 42.5676C46.5033 42.5676 31.6216 57.4492 31.6216 75.8222C31.6216 90.5295 41.1355 102.967 54.3588 107.375C56.0172 107.637 56.6718 106.677 56.6718 105.804C56.6718 105.019 56.6282 102.4 56.6282 99.6065C48.2926 101.134 46.1106 97.5559 45.4559 95.7227C45.0632 94.7627 43.4485 91.7951 42.0519 91.0095C40.8736 90.3981 39.2152 88.8276 42.0083 88.7838C44.6268 88.74 46.5033 91.1838 47.1144 92.1876C50.1256 97.2065 54.8825 95.8103 56.8028 94.937C57.1082 92.7989 57.981 91.3151 58.9412 90.4857C51.5657 89.6562 43.7976 86.7762 43.7976 74.0765C43.7976 70.4546 45.1068 67.4432 47.2016 65.13C46.8525 64.3014 45.7178 60.8968 47.5508 56.3149C47.5508 56.3149 50.3438 55.4416 56.7154 59.7186C59.3776 58.9768 62.2143 58.5843 65.0073 58.5843C67.844 58.5843 70.637 58.9768 73.2992 59.7186C79.6708 55.3978 82.4206 56.3149 82.4206 56.3149C84.253 60.8968 83.0749 64.3014 82.7692 65.13C84.9081 67.4432 86.173 70.4108 86.173 74.0765C86.173 86.82 78.4052 89.6562 70.9862 90.4857C72.2082 91.5332 73.2555 93.497 73.2555 96.6389C73.2555 101.09 73.2119 104.669 73.2119 105.761C73.2119 106.633 73.8229 107.681 75.4812 107.331C89.01 102.749 98.1308 90.0495 98.1308 75.7784C98.1308 57.4492 83.2492 42.5676 64.8764 42.5676Z" fill="white"/>
</svg>
