<svg width="500" height="250" viewBox="0 0 500 250" fill="none" xmlns="http://www.w3.org/2000/svg">
<path d="M350.507 59H21.4933C9.62289 59 0 68.6035 0 80.45V169.55C0 181.397 9.62289 191 21.4933 191H350.507C362.377 191 372 181.397 372 169.55V80.45C372 68.6035 362.377 59 350.507 59Z" fill="black"/>
<path d="M161.041 92.0922C160.834 91.4597 160.562 90.8929 160.224 90.3919C159.892 89.8846 159.494 89.4525 159.031 89.0956C158.573 88.7386 158.054 88.4661 157.471 88.2783C156.889 88.0904 156.25 87.9965 155.555 87.9965C154.415 87.9965 153.379 88.2908 152.446 88.8795C151.513 89.4682 150.77 90.3356 150.219 91.4816C149.669 92.6276 149.392 94.0336 149.392 95.6995C149.392 97.3654 149.671 98.7713 150.229 99.9174C150.786 101.063 151.541 101.931 152.492 102.519C153.445 103.108 154.515 103.403 155.706 103.403C156.808 103.403 157.778 103.168 158.617 102.698C159.463 102.222 160.121 101.552 160.59 100.688C161.067 99.8172 161.304 98.7933 161.304 97.6158L162.018 97.7661H156.231V95.6995H163.559V97.7661C163.559 99.3506 163.221 100.728 162.544 101.899C161.874 103.071 160.948 103.979 159.764 104.624C158.587 105.263 157.233 105.582 155.706 105.582C154.002 105.582 152.506 105.181 151.215 104.379C149.931 103.578 148.929 102.438 148.209 100.96C147.495 99.4821 147.138 97.7286 147.138 95.6995C147.138 94.1777 147.341 92.8093 147.749 91.5943C148.162 90.3732 148.744 89.3335 149.496 88.4756C150.247 87.6176 151.137 86.96 152.164 86.5028C153.191 86.0456 154.321 85.8171 155.555 85.8171C156.57 85.8171 157.515 85.9705 158.392 86.2774C159.275 86.5779 160.061 87.007 160.75 87.5643C161.445 88.1155 162.025 88.7761 162.488 89.5465C162.951 90.3105 163.271 91.1591 163.446 92.0922H161.041ZM167.549 105.319V86.0801H179.16V88.1468H169.879V94.6474H178.559V96.714H169.879V103.252H179.31V105.319H167.549ZM182.307 88.1468V86.0801H196.736V88.1468H190.686V105.319H188.357V88.1468H182.307ZM210.101 86.0801V105.319H207.772V86.0801H210.101ZM213.72 88.1468V86.0801H228.149V88.1468H222.099V105.319H219.77V88.1468H213.72ZM255.417 95.6995C255.417 97.7286 255.051 99.4821 254.318 100.96C253.586 102.438 252.58 103.578 251.303 104.379C250.025 105.181 248.566 105.582 246.925 105.582C245.284 105.582 243.825 105.181 242.548 104.379C241.27 103.578 240.265 102.438 239.532 100.96C238.8 99.4821 238.434 97.7286 238.434 95.6995C238.434 93.6704 238.8 91.9169 239.532 90.4389C240.265 88.9609 241.27 87.8211 242.548 87.0195C243.825 86.2178 245.284 85.8171 246.925 85.8171C248.566 85.8171 250.025 86.2178 251.303 87.0195C252.58 87.8211 253.586 88.9609 254.318 90.4389C255.051 91.9169 255.417 93.6704 255.417 95.6995ZM253.163 95.6995C253.163 94.0336 252.884 92.6276 252.326 91.4816C251.776 90.3356 251.027 89.4682 250.082 88.8795C249.142 88.2908 248.09 87.9965 246.925 87.9965C245.76 87.9965 244.705 88.2908 243.76 88.8795C242.82 89.4682 242.072 90.3356 241.515 91.4816C240.963 92.6276 240.688 94.0336 240.688 95.6995C240.688 97.3654 240.963 98.7713 241.515 99.9174C242.072 101.063 242.82 101.931 243.76 102.519C244.705 103.108 245.76 103.403 246.925 103.403C248.09 103.403 249.142 103.108 250.082 102.519C251.027 101.931 251.776 101.063 252.326 99.9174C252.884 98.7713 253.163 97.3654 253.163 95.6995ZM274.59 86.0801V105.319H272.336L261.852 90.2135H261.665V105.319H259.335V86.0801H261.589L272.11 101.223H272.298V86.0801H274.59Z" fill="white"/>
<path fill-rule="evenodd" clip-rule="evenodd" d="M73.4147 82C48.8756 82 29 101.876 29 126.415C29 146.069 41.7137 162.668 59.3686 168.553C61.5893 168.942 62.4221 167.61 62.4221 166.443C62.4221 165.389 62.3666 161.891 62.3666 158.171C51.2074 160.225 48.3204 155.451 47.4321 152.952C46.9325 151.676 44.7673 147.733 42.8796 146.679C41.3251 145.846 39.1043 143.792 42.8241 143.737C46.3217 143.681 48.8201 146.956 49.6529 148.289C53.6502 155.006 60.0348 153.119 62.5886 151.954C62.9772 149.066 64.1432 147.123 65.4201 146.013C55.5378 144.902 45.2113 141.071 45.2113 124.083C45.2113 119.253 46.9325 115.255 49.7639 112.146C49.3197 111.036 47.7653 106.484 50.208 100.377C50.208 100.377 53.9278 99.2108 62.4221 104.929C65.9752 103.93 69.7505 103.43 73.5258 103.43C77.3011 103.43 81.0763 103.93 84.6295 104.929C93.1237 99.1552 96.8437 100.377 96.8437 100.377C99.2865 106.484 97.7315 111.036 97.2876 112.146C100.119 115.255 101.84 119.198 101.84 124.083C101.84 141.127 91.458 144.902 81.5759 146.013C83.186 147.4 84.5739 150.065 84.5739 154.229C84.5739 160.17 84.5184 164.945 84.5184 166.443C84.5184 167.61 85.3512 168.997 87.5718 168.553C96.389 165.576 104.051 159.909 109.478 152.35C114.906 144.791 117.827 135.72 117.829 126.415C117.829 101.876 97.9539 82 73.4147 82Z" fill="white"/>
<path fill-rule="evenodd" clip-rule="evenodd" d="M227.257 158.358H227.169C227.208 158.358 227.235 158.402 227.274 158.407H227.301L227.257 158.362V158.358ZM227.274 158.407C226.864 158.411 225.833 158.626 224.744 158.626C221.305 158.626 220.115 157.039 220.115 154.968V141.163H227.125C227.522 141.163 227.83 140.81 227.83 140.326V132.83C227.83 132.434 227.477 132.081 227.125 132.081H220.115V122.778C220.115 122.425 219.894 122.205 219.497 122.205H209.974C209.577 122.205 209.356 122.425 209.356 122.778V132.345C209.356 132.345 204.551 133.535 204.243 133.58C203.89 133.668 203.669 133.977 203.669 134.329V140.326C203.669 140.81 204.022 141.163 204.419 141.163H209.313V155.624C209.313 166.382 216.808 167.484 221.922 167.484C224.259 167.484 227.08 166.734 227.522 166.515C227.786 166.426 227.918 166.118 227.918 165.809V159.195C227.924 159.008 227.862 158.825 227.744 158.679C227.626 158.533 227.46 158.435 227.274 158.402V158.407ZM331.748 148.702C331.748 140.723 328.529 139.664 325.134 140.017C322.489 140.193 320.373 141.516 320.373 141.516V157.035C320.373 157.035 322.533 158.534 325.751 158.622C330.293 158.755 331.748 157.124 331.748 148.702ZM342.461 147.997C342.461 163.119 337.567 167.44 329.014 167.44C321.783 167.44 317.903 163.781 317.903 163.781C317.903 163.781 317.727 165.809 317.507 166.073C317.374 166.338 317.154 166.426 316.889 166.426H310.364C309.924 166.426 309.527 166.073 309.527 165.676L309.614 116.694C309.614 116.297 309.967 115.944 310.364 115.944H319.755C320.152 115.944 320.505 116.297 320.505 116.694V133.316C320.505 133.316 324.12 130.979 329.411 130.979L329.367 130.89C334.658 130.89 342.461 132.874 342.461 147.997ZM304.015 132.081H294.757C294.272 132.081 294.007 132.434 294.007 132.919V156.903C294.007 156.903 291.582 158.622 288.276 158.622C284.969 158.622 283.999 157.124 283.999 153.817V132.874C283.999 132.477 283.646 132.125 283.25 132.125H273.815C273.418 132.125 273.065 132.477 273.065 132.874V155.404C273.065 165.103 278.488 167.528 285.939 167.528C292.068 167.528 297.049 164.134 297.049 164.134C297.049 164.134 297.27 165.853 297.402 166.118C297.491 166.338 297.799 166.515 298.107 166.515H304.015C304.501 166.515 304.765 166.162 304.765 165.765L304.853 132.83C304.853 132.434 304.501 132.081 304.015 132.081ZM199.525 132.037H190.134C189.737 132.037 189.384 132.434 189.384 132.919V165.28C189.384 166.162 189.958 166.47 190.707 166.47H199.172C200.054 166.47 200.275 166.073 200.275 165.28V132.787C200.275 132.39 199.922 132.037 199.525 132.037ZM194.895 117.134C191.5 117.134 188.811 119.824 188.811 123.219C188.811 126.614 191.5 129.303 194.895 129.303C198.202 129.303 200.891 126.614 200.891 123.219C200.891 119.824 198.202 117.134 194.895 117.134ZM267.598 116.032H258.295C257.898 116.032 257.546 116.385 257.546 116.782V134.814H242.952V116.782C242.952 116.385 242.6 116.032 242.203 116.032H232.812C232.415 116.032 232.062 116.385 232.062 116.782V165.765C232.062 166.162 232.459 166.515 232.812 166.515H242.203C242.6 166.515 242.952 166.162 242.952 165.765V144.823H257.546L257.458 165.765C257.458 166.162 257.811 166.515 258.207 166.515H267.598C267.995 166.515 268.347 166.162 268.347 165.765V116.782C268.347 116.385 267.995 116.032 267.598 116.032ZM184.403 137.724V163.031C184.403 163.208 184.358 163.516 184.138 163.605C184.138 163.605 178.627 167.528 169.544 167.528C158.566 167.528 145.56 164.089 145.56 141.428C145.56 118.766 156.935 114.092 168.045 114.137C177.657 114.137 181.537 116.297 182.154 116.694C182.33 116.915 182.419 117.091 182.419 117.311L180.567 125.159C180.567 125.556 180.17 126.041 179.685 125.909C178.098 125.423 175.717 124.454 170.118 124.454C163.637 124.454 156.67 126.305 156.67 140.899C156.67 155.492 163.284 157.211 168.045 157.211C172.102 157.211 173.557 156.727 173.557 156.727V146.586H167.076C166.59 146.586 166.237 146.233 166.237 145.836V137.724C166.237 137.327 166.59 136.974 167.076 136.974H183.564C184.05 136.974 184.403 137.327 184.403 137.724Z" fill="white"/>
</svg>
