<svg width="400" height="250" viewBox="0 0 400 250" fill="none" xmlns="http://www.w3.org/2000/svg">
<path d="M400 51H0V199H400V51Z" fill="black"/>
<path d="M244.677 146.629H244.569C244.623 146.629 244.623 146.683 244.677 146.683H244.731L244.677 146.629ZM244.677 146.683C244.246 146.683 243.116 146.898 241.932 146.898C238.218 146.898 236.926 145.176 236.926 142.915V127.952H244.516C244.946 127.952 245.269 127.575 245.269 127.037V118.909C245.269 118.479 244.892 118.102 244.516 118.102H236.926V107.983C236.926 107.606 236.657 107.391 236.227 107.391H225.892C225.462 107.391 225.246 107.66 225.246 107.983V118.371C225.246 118.371 220.026 119.663 219.703 119.717C219.326 119.824 219.11 120.147 219.11 120.524V127.037C219.11 127.575 219.487 127.952 219.918 127.952H225.193V143.669C225.193 155.348 233.32 156.533 238.864 156.533C241.394 156.533 244.462 155.725 244.946 155.456C245.215 155.348 245.377 155.026 245.377 154.703V147.544C245.377 147.113 245.108 146.79 244.677 146.683ZM358.031 136.187C358.031 127.521 354.533 126.391 350.873 126.768C348.02 126.929 345.705 128.382 345.705 128.382V145.23C345.705 145.23 348.02 146.844 351.518 146.952C356.416 147.06 358.031 145.283 358.031 136.187ZM369.657 135.433C369.657 151.85 364.329 156.533 355.071 156.533C347.212 156.533 343.014 152.55 343.014 152.55C343.014 152.55 342.853 154.756 342.584 155.026C342.422 155.295 342.207 155.402 341.884 155.402H334.833C334.348 155.402 333.918 155.026 333.918 154.595L334.025 101.47C334.025 101.04 334.402 100.663 334.833 100.663H345.006C345.436 100.663 345.813 101.04 345.813 101.47V119.501C345.813 119.501 349.742 116.972 355.501 116.972L355.448 116.864C361.153 116.864 369.657 119.017 369.657 135.433ZM327.943 118.156H317.878C317.34 118.156 317.071 118.533 317.071 119.071V145.068C317.071 145.068 314.433 146.898 310.827 146.898C307.275 146.898 306.198 145.283 306.198 141.677V118.963C306.198 118.533 305.822 118.156 305.391 118.156H295.164C294.734 118.156 294.357 118.533 294.357 118.963V143.453C294.357 153.949 300.224 156.586 308.297 156.586C314.972 156.586 320.354 152.926 320.354 152.926C320.354 152.926 320.623 154.81 320.731 155.079C320.839 155.295 321.161 155.51 321.484 155.51H327.89C328.428 155.51 328.697 155.133 328.697 154.703L328.805 118.963C328.858 118.533 328.428 118.156 327.943 118.156ZM214.589 118.102H204.416C203.986 118.102 203.609 118.533 203.609 119.071V154.164C203.609 155.133 204.255 155.456 205.062 155.456H214.266C215.235 155.456 215.45 155.026 215.45 154.164V118.909C215.397 118.479 215.02 118.102 214.589 118.102ZM209.53 101.901C205.87 101.901 202.909 104.807 202.909 108.521C202.909 112.181 205.816 115.142 209.53 115.142C213.136 115.142 216.042 112.235 216.042 108.521C216.042 104.861 213.136 101.901 209.53 101.901ZM288.436 100.717H278.317C277.887 100.717 277.51 101.094 277.51 101.524V121.062H261.686V101.524C261.686 101.094 261.309 100.717 260.878 100.717H250.705C250.275 100.717 249.898 101.094 249.898 101.524V154.649C249.898 155.079 250.329 155.456 250.705 155.456H260.878C261.309 155.456 261.686 155.079 261.686 154.649V131.935H277.51L277.402 154.649C277.402 155.079 277.779 155.456 278.21 155.456H288.382C288.813 155.456 289.19 155.079 289.19 154.649V101.524C289.244 101.094 288.867 100.717 288.436 100.717ZM198.173 124.238V151.688C198.173 151.85 198.119 152.227 197.904 152.281C197.904 152.281 191.929 156.533 182.079 156.533C170.184 156.533 156.028 152.819 156.028 128.221C156.028 103.623 168.354 98.5638 180.411 98.6176C190.853 98.6176 195.051 100.986 195.697 101.416C195.858 101.686 195.966 101.847 195.966 102.062L194.028 110.62C194.028 111.051 193.598 111.589 193.059 111.428C191.337 110.89 188.754 109.867 182.671 109.867C175.62 109.867 168.085 111.858 168.085 127.737C168.085 143.561 175.244 145.445 180.411 145.445C184.824 145.445 186.385 144.907 186.385 144.907V133.926H179.334C178.796 133.926 178.419 133.55 178.419 133.119V124.292C178.419 123.861 178.796 123.484 179.334 123.484H197.258C197.796 123.431 198.173 123.807 198.173 124.238Z" fill="white"/>
<path fill-rule="evenodd" clip-rule="evenodd" d="M80.0142 85C57.3541 85 39 103.354 39 126.014C39 144.153 50.7337 159.493 67.0425 164.929C69.0878 165.252 69.8952 164.068 69.8952 162.991C69.8952 162.023 69.8414 158.793 69.8414 155.348C59.5609 157.232 56.8697 152.819 56.0623 150.558C55.5779 149.374 53.5864 145.714 51.864 144.745C50.4108 143.991 48.3654 142.054 51.8102 142C55.0397 141.946 57.3541 144.96 58.1077 146.198C61.8215 152.388 67.6884 150.666 70.0567 149.589C70.4334 146.952 71.5099 145.122 72.6941 144.099C63.5977 143.076 54.017 139.524 54.017 123.861C54.017 119.394 55.6317 115.68 58.2153 112.827C57.7847 111.805 56.3853 107.606 58.6459 101.955C58.6459 101.955 62.0907 100.878 69.949 106.153C73.2323 105.238 76.7309 104.754 80.1756 104.754C83.6742 104.754 87.119 105.238 90.4023 106.153C98.2606 100.824 101.652 101.955 101.652 101.955C103.912 107.606 102.459 111.805 102.082 112.827C104.72 115.68 106.28 119.34 106.28 123.861C106.28 139.578 96.6997 143.076 87.5496 144.099C89.0567 145.391 90.3484 147.813 90.3484 151.688C90.3484 157.178 90.2946 161.592 90.2946 162.938C90.2946 164.014 91.0482 165.306 93.0935 164.875C109.779 159.224 121.028 143.561 121.028 125.96C121.028 103.354 102.674 85 80.0142 85Z" fill="white"/>
</svg>
