<svg width="450" height="250" viewBox="0 0 450 250" fill="none" xmlns="http://www.w3.org/2000/svg">
<path d="M395.733 50H24.2667C10.8646 50 0 60.8427 0 74.2177V174.815C0 188.19 10.8646 199.032 24.2667 199.032H395.733C409.135 199.032 420 188.19 420 174.815V74.2177C420 60.8427 409.135 50 395.733 50Z" fill="black"/>
<path d="M181.82 87.3622C181.587 86.648 181.28 86.0081 180.898 85.4425C180.523 84.8697 180.074 84.3819 179.551 83.9788C179.034 83.5758 178.448 83.2682 177.79 83.0562C177.133 82.844 176.412 82.738 175.627 82.738C174.34 82.738 173.169 83.0702 172.117 83.7349C171.063 84.3996 170.225 85.3788 169.602 86.6728C168.981 87.9667 168.669 89.5541 168.669 91.4349C168.669 93.3157 168.983 94.903 169.613 96.197C170.242 97.491 171.095 98.4703 172.169 99.1349C173.244 99.7996 174.453 100.132 175.797 100.132C177.041 100.132 178.137 99.8667 179.084 99.3364C180.039 98.7991 180.782 98.0425 181.312 97.0667C181.849 96.0839 182.117 94.9279 182.117 93.5985L182.924 93.7682H176.39V91.4349H184.663V93.7682C184.663 95.5571 184.282 97.1127 183.517 98.4349C182.761 99.7571 181.715 100.782 180.378 101.511C179.049 102.232 177.522 102.593 175.797 102.593C173.873 102.593 172.184 102.14 170.727 101.235C169.277 100.33 168.146 99.043 167.333 97.3743C166.527 95.7056 166.124 93.7258 166.124 91.4349C166.124 89.7167 166.353 88.1718 166.813 86.8C167.28 85.4213 167.937 84.2476 168.786 83.2788C169.634 82.3101 170.638 81.5678 171.798 81.0515C172.958 80.5354 174.233 80.2773 175.627 80.2773C176.772 80.2773 177.84 80.4506 178.83 80.797C179.827 81.1364 180.714 81.6208 181.492 82.25C182.277 82.8723 182.931 83.6182 183.454 84.488C183.977 85.3506 184.338 86.3086 184.536 87.3622H181.82ZM189.168 102.296V80.5743H202.277V82.9077H191.799V90.247H201.599V92.5804H191.799V99.9622H202.447V102.296H189.168ZM205.83 82.9077V80.5743H222.121V82.9077H215.291V102.296H212.661V82.9077H205.83ZM237.211 80.5743V102.296H234.581V80.5743H237.211ZM241.297 82.9077V80.5743H257.588V82.9077H250.757V102.296H248.127V82.9077H241.297ZM288.374 91.4349C288.374 93.7258 287.961 95.7056 287.133 97.3743C286.306 99.043 285.171 100.33 283.729 101.235C282.286 102.14 280.639 102.593 278.786 102.593C276.934 102.593 275.286 102.14 273.844 101.235C272.401 100.33 271.267 99.043 270.44 97.3743C269.613 95.7056 269.199 93.7258 269.199 91.4349C269.199 89.144 269.613 87.1642 270.44 85.4955C271.267 83.8268 272.401 82.5399 273.844 81.6349C275.286 80.7298 276.934 80.2773 278.786 80.2773C280.639 80.2773 282.286 80.7298 283.729 81.6349C285.171 82.5399 286.306 83.8268 287.133 85.4955C287.961 87.1642 288.374 89.144 288.374 91.4349ZM285.829 91.4349C285.829 89.5541 285.515 87.9667 284.885 86.6728C284.263 85.3788 283.418 84.3996 282.351 83.7349C281.29 83.0702 280.101 82.738 278.786 82.738C277.471 82.738 276.28 83.0702 275.213 83.7349C274.151 84.3996 273.307 85.3788 272.678 86.6728C272.055 87.9667 271.744 89.5541 271.744 91.4349C271.744 93.3157 272.055 94.903 272.678 96.197C273.307 97.491 274.151 98.4703 275.213 99.1349C276.28 99.7996 277.471 100.132 278.786 100.132C280.101 100.132 281.29 99.7996 282.351 99.1349C283.418 98.4703 284.263 97.491 284.885 96.197C285.515 94.903 285.829 93.3157 285.829 91.4349ZM310.021 80.5743V102.296H307.476L295.64 85.241H295.428V102.296H292.798V80.5743H295.343L307.221 97.6713H307.433V80.5743H310.021Z" fill="white"/>
<path fill-rule="evenodd" clip-rule="evenodd" d="M82.8876 75.9677C55.1822 75.9677 32.7419 98.408 32.7419 126.113C32.7419 148.303 47.0961 167.045 67.0291 173.689C69.5364 174.128 70.4765 172.624 70.4765 171.307C70.4765 170.116 70.4139 166.167 70.4139 161.967C57.8148 164.287 54.5553 158.897 53.5524 156.075C52.9883 154.634 50.5437 150.183 48.4124 148.992C46.6574 148.052 44.1501 145.733 48.3498 145.67C52.2987 145.608 55.1194 149.306 56.0597 150.81C60.5728 158.394 67.7812 156.264 70.6646 154.948C71.1033 151.687 72.4197 149.494 73.8614 148.241C62.704 146.986 51.0451 142.661 51.0451 123.481C51.0451 118.028 52.9883 113.514 56.185 110.004C55.6836 108.751 53.9285 103.611 56.6865 96.7156C56.6865 96.7156 60.8862 95.3993 70.4765 101.856C74.4882 100.727 78.7506 100.163 83.013 100.163C87.2754 100.163 91.5377 100.727 95.5494 101.856C105.14 95.3366 109.34 96.7156 109.34 96.7156C112.098 103.611 110.342 108.751 109.841 110.004C113.038 113.514 114.981 117.965 114.981 123.481C114.981 142.724 103.259 146.986 92.1018 148.241C93.9197 149.807 95.4867 152.816 95.4867 157.517C95.4867 164.224 95.4241 169.615 95.4241 171.307C95.4241 172.624 96.3643 174.19 98.8714 173.689C108.826 170.328 117.476 163.93 123.605 155.396C129.733 146.861 133.03 136.62 133.033 126.113C133.033 98.408 110.593 75.9677 82.8876 75.9677Z" fill="white"/>
<path fill-rule="evenodd" clip-rule="evenodd" d="M256.58 162.178H256.481C256.525 162.178 256.555 162.228 256.6 162.233H256.63L256.58 162.183V162.178ZM256.6 162.233C256.137 162.238 254.972 162.482 253.743 162.482C249.86 162.482 248.516 160.69 248.516 158.351V142.765H256.431C256.879 142.765 257.227 142.366 257.227 141.819V133.357C257.227 132.909 256.829 132.51 256.431 132.51H248.516V122.008C248.516 121.609 248.267 121.361 247.819 121.361H237.067C236.619 121.361 236.37 121.609 236.37 122.008V132.809C236.37 132.809 230.945 134.153 230.596 134.203C230.198 134.302 229.949 134.651 229.949 135.049V141.819C229.949 142.366 230.347 142.765 230.795 142.765H236.321V159.092C236.321 171.238 244.783 172.482 250.557 172.482C253.195 172.482 256.381 171.636 256.879 171.387C257.178 171.288 257.327 170.939 257.327 170.59V163.124C257.334 162.912 257.264 162.706 257.13 162.54C256.997 162.376 256.809 162.265 256.6 162.228V162.233ZM374.554 151.277C374.554 142.267 370.919 141.073 367.087 141.47C364.1 141.67 361.711 143.163 361.711 143.163V160.685C361.711 160.685 364.15 162.377 367.783 162.477C372.911 162.626 374.554 160.785 374.554 151.277ZM386.65 150.481C386.65 167.554 381.124 172.433 371.467 172.433C363.303 172.433 358.923 168.301 358.923 168.301C358.923 168.301 358.724 170.59 358.475 170.889C358.326 171.188 358.077 171.288 357.778 171.288H350.411C349.914 171.288 349.466 170.889 349.466 170.441L349.565 115.138C349.565 114.69 349.963 114.292 350.411 114.292H361.014C361.462 114.292 361.86 114.69 361.86 115.138V133.905C361.86 133.905 365.942 131.266 371.915 131.266L371.866 131.166C377.839 131.166 386.65 133.406 386.65 150.481ZM343.243 132.51H332.79C332.242 132.51 331.943 132.909 331.943 133.457V160.536C331.943 160.536 329.206 162.477 325.473 162.477C321.739 162.477 320.644 160.785 320.644 157.051V133.406C320.644 132.958 320.246 132.561 319.798 132.561H309.146C308.698 132.561 308.299 132.958 308.299 133.406V158.843C308.299 169.794 314.422 172.532 322.834 172.532C329.754 172.532 335.378 168.699 335.378 168.699C335.378 168.699 335.627 170.641 335.777 170.939C335.876 171.188 336.225 171.387 336.573 171.387H343.243C343.791 171.387 344.09 170.989 344.09 170.541L344.189 133.357C344.189 132.909 343.791 132.51 343.243 132.51ZM225.27 132.461H214.667C214.219 132.461 213.821 132.909 213.821 133.457V169.993C213.821 170.989 214.468 171.337 215.314 171.337H224.871C225.867 171.337 226.116 170.889 226.116 169.993V133.307C226.116 132.859 225.718 132.461 225.27 132.461ZM220.043 115.636C216.21 115.636 213.174 118.673 213.174 122.505C213.174 126.338 216.21 129.374 220.043 129.374C223.777 129.374 226.813 126.338 226.813 122.505C226.813 118.673 223.777 115.636 220.043 115.636ZM302.127 114.392H291.623C291.175 114.392 290.778 114.79 290.778 115.238V135.597H274.301V115.238C274.301 114.79 273.903 114.392 273.455 114.392H262.852C262.404 114.392 262.006 114.79 262.006 115.238V170.541C262.006 170.989 262.454 171.387 262.852 171.387H273.455C273.903 171.387 274.301 170.989 274.301 170.541V146.897H290.778L290.678 170.541C290.678 170.989 291.076 171.387 291.524 171.387H302.127C302.575 171.387 302.973 170.989 302.973 170.541V115.238C302.973 114.79 302.575 114.392 302.127 114.392ZM208.196 138.882V167.454C208.196 167.654 208.146 168.002 207.898 168.102C207.898 168.102 201.675 172.532 191.421 172.532C179.026 172.532 164.342 168.649 164.342 143.064C164.342 117.478 177.185 112.201 189.729 112.251C200.58 112.251 204.961 114.69 205.658 115.138C205.857 115.387 205.956 115.586 205.956 115.835L203.866 124.696C203.866 125.144 203.418 125.691 202.87 125.542C201.078 124.994 198.39 123.899 192.068 123.899C184.751 123.899 176.886 125.99 176.886 142.466C176.886 158.942 184.353 160.884 189.729 160.884C194.308 160.884 195.951 160.337 195.951 160.337V148.888H188.634C188.086 148.888 187.687 148.489 187.687 148.041V138.882C187.687 138.434 188.086 138.036 188.634 138.036H207.25C207.798 138.036 208.196 138.434 208.196 138.882Z" fill="white"/>
</svg>
