<svg width="500" height="250" viewBox="0 0 500 250" fill="none" xmlns="http://www.w3.org/2000/svg">
<rect y="40" width="447" height="171" fill="black"/>
<path d="M187.727 78C187.477 77.2348 187.148 76.5492 186.739 75.9432C186.337 75.3295 185.856 74.8068 185.295 74.375C184.742 73.9432 184.114 73.6136 183.409 73.3864C182.705 73.1591 181.932 73.0455 181.091 73.0455C179.712 73.0455 178.458 73.4015 177.33 74.1136C176.201 74.8258 175.303 75.875 174.636 77.2614C173.97 78.6477 173.636 80.3485 173.636 82.3636C173.636 84.3788 173.973 86.0795 174.648 87.4659C175.322 88.8523 176.235 89.9015 177.386 90.6136C178.538 91.3258 179.833 91.6818 181.273 91.6818C182.606 91.6818 183.78 91.3977 184.795 90.8295C185.818 90.2538 186.614 89.4432 187.182 88.3977C187.758 87.3447 188.045 86.1061 188.045 84.6818L188.909 84.8636H181.909V82.3636H190.773V84.8636C190.773 86.7803 190.364 88.447 189.545 89.8636C188.735 91.2803 187.614 92.3788 186.182 93.1591C184.758 93.9318 183.121 94.3182 181.273 94.3182C179.212 94.3182 177.402 93.8333 175.841 92.8636C174.288 91.8939 173.076 90.5152 172.205 88.7273C171.341 86.9394 170.909 84.8182 170.909 82.3636C170.909 80.5227 171.155 78.8674 171.648 77.3977C172.148 75.9205 172.852 74.6629 173.761 73.625C174.67 72.5871 175.746 71.7917 176.989 71.2386C178.231 70.6856 179.598 70.4091 181.091 70.4091C182.318 70.4091 183.462 70.5947 184.523 70.9659C185.591 71.3295 186.542 71.8485 187.375 72.5227C188.216 73.1894 188.917 73.9886 189.477 74.9205C190.038 75.8447 190.424 76.8712 190.636 78H187.727ZM195.599 94V70.7273H209.645V73.2273H198.418V81.0909H208.918V83.5909H198.418V91.5H209.827V94H195.599ZM213.452 73.2273V70.7273H230.906V73.2273H223.588V94H220.77V73.2273H213.452ZM247.074 70.7273V94H244.256V70.7273H247.074ZM251.452 73.2273V70.7273H268.906V73.2273H261.588V94H258.77V73.2273H251.452ZM301.892 82.3636C301.892 84.8182 301.449 86.9394 300.562 88.7273C299.676 90.5152 298.46 91.8939 296.915 92.8636C295.369 93.8333 293.604 94.3182 291.619 94.3182C289.634 94.3182 287.869 93.8333 286.324 92.8636C284.778 91.8939 283.563 90.5152 282.676 88.7273C281.79 86.9394 281.347 84.8182 281.347 82.3636C281.347 79.9091 281.79 77.7879 282.676 76C283.563 74.2121 284.778 72.8333 286.324 71.8636C287.869 70.8939 289.634 70.4091 291.619 70.4091C293.604 70.4091 295.369 70.8939 296.915 71.8636C298.46 72.8333 299.676 74.2121 300.562 76C301.449 77.7879 301.892 79.9091 301.892 82.3636ZM299.165 82.3636C299.165 80.3485 298.828 78.6477 298.153 77.2614C297.487 75.875 296.581 74.8258 295.438 74.1136C294.301 73.4015 293.028 73.0455 291.619 73.0455C290.21 73.0455 288.934 73.4015 287.79 74.1136C286.653 74.8258 285.748 75.875 285.074 77.2614C284.407 78.6477 284.074 80.3485 284.074 82.3636C284.074 84.3788 284.407 86.0795 285.074 87.4659C285.748 88.8523 286.653 89.9015 287.79 90.6136C288.934 91.3258 290.21 91.6818 291.619 91.6818C293.028 91.6818 294.301 91.3258 295.438 90.6136C296.581 89.9015 297.487 88.8523 298.153 87.4659C298.828 86.0795 299.165 84.3788 299.165 82.3636ZM325.085 70.7273V94H322.358L309.676 75.7273H309.449V94H306.631V70.7273H309.358L322.085 89.0455H322.312V70.7273H325.085Z" fill="white"/>
<g clip-path="url(#clip0_1_12)">
<path fill-rule="evenodd" clip-rule="evenodd" d="M86.7275 71.7918C57.0431 71.7918 33 95.8348 33 125.519C33 149.294 48.3795 169.374 69.7362 176.493C72.4226 176.963 73.4299 175.352 73.4299 173.941C73.4299 172.665 73.3628 168.434 73.3628 163.934C59.8638 166.419 56.3715 160.644 55.2969 157.621C54.6925 156.077 52.0733 151.308 49.7898 150.032C47.9094 149.025 45.223 146.54 49.7227 146.473C53.9537 146.406 56.9759 150.368 57.9833 151.98C62.8188 160.106 70.5421 157.823 73.6314 156.413C74.1015 152.92 75.5119 150.57 77.0566 149.227C65.1022 147.883 52.6105 143.249 52.6105 122.699C52.6105 116.856 54.6925 112.02 58.1176 108.259C57.5803 106.916 55.6999 101.409 58.6549 94.0215C58.6549 94.0215 63.1546 92.6112 73.4299 99.5286C77.7281 98.3197 82.295 97.7153 86.8618 97.7153C91.4287 97.7153 95.9955 98.3197 100.294 99.5286C110.569 92.544 115.069 94.0215 115.069 94.0215C118.024 101.409 116.143 106.916 115.606 108.259C119.031 112.02 121.113 116.789 121.113 122.699C121.113 143.317 108.554 147.883 96.5999 149.227C98.5476 150.906 100.227 154.129 100.227 159.166C100.227 166.352 100.159 172.128 100.159 173.941C100.159 175.352 101.167 177.031 103.853 176.493C114.519 172.892 123.787 166.037 130.353 156.893C136.919 147.749 140.452 136.776 140.455 125.519C140.455 95.8348 116.412 71.7918 86.7275 71.7918Z" fill="white"/>
</g>
<g clip-path="url(#clip1_1_12)">
<path fill-rule="evenodd" clip-rule="evenodd" d="M269.347 166.385H269.238C269.287 166.385 269.32 166.439 269.368 166.444H269.401L269.347 166.39V166.385ZM269.368 166.444C268.864 166.45 267.594 166.716 266.253 166.716C262.02 166.716 260.555 164.762 260.555 162.211V145.219H269.184C269.672 145.219 270.052 144.785 270.052 144.188V134.962C270.052 134.474 269.618 134.04 269.184 134.04H260.555V122.589C260.555 122.155 260.284 121.883 259.795 121.883H248.073C247.584 121.883 247.313 122.155 247.313 122.589V134.365C247.313 134.365 241.398 135.831 241.018 135.885C240.584 135.993 240.312 136.373 240.312 136.807V144.188C240.312 144.785 240.746 145.219 241.235 145.219H247.259V163.02C247.259 176.262 256.485 177.619 262.78 177.619C265.656 177.619 269.13 176.696 269.672 176.425C269.998 176.316 270.161 175.936 270.161 175.556V167.416C270.168 167.185 270.092 166.959 269.947 166.78C269.801 166.6 269.596 166.479 269.368 166.439V166.444ZM397.967 154.5C397.967 144.677 394.005 143.374 389.827 143.808C386.57 144.025 383.965 145.654 383.965 145.654V164.757C383.965 164.757 386.625 166.602 390.586 166.71C396.176 166.873 397.967 164.865 397.967 154.5ZM411.155 153.631C411.155 172.246 405.131 177.564 394.602 177.564C385.702 177.564 380.926 173.06 380.926 173.06C380.926 173.06 380.709 175.556 380.438 175.882C380.275 176.208 380.004 176.316 379.678 176.316H371.646C371.103 176.316 370.615 175.882 370.615 175.394L370.723 115.099C370.723 114.611 371.158 114.177 371.646 114.177H383.206C383.694 114.177 384.128 114.611 384.128 115.099V135.559C384.128 135.559 388.578 132.683 395.091 132.683L395.037 132.574C401.549 132.574 411.155 135.017 411.155 153.631V153.631ZM363.831 134.04H352.434C351.837 134.04 351.512 134.474 351.512 135.071V164.594C351.512 164.594 348.527 166.71 344.457 166.71C340.386 166.71 339.193 164.865 339.193 160.795V135.017C339.193 134.528 338.758 134.094 338.27 134.094H326.656C326.168 134.094 325.733 134.528 325.733 135.017V162.749C325.733 174.688 332.409 177.673 341.58 177.673C349.124 177.673 355.256 173.494 355.256 173.494C355.256 173.494 355.528 175.611 355.691 175.936C355.799 176.208 356.179 176.425 356.559 176.425H363.831C364.428 176.425 364.754 175.991 364.754 175.502L364.862 134.962C364.862 134.474 364.428 134.04 363.831 134.04V134.04ZM235.211 133.985H223.651C223.163 133.985 222.729 134.474 222.729 135.071V174.905C222.729 175.991 223.434 176.37 224.357 176.37H234.777C235.862 176.37 236.133 175.882 236.133 174.905V134.908C236.133 134.42 235.699 133.985 235.211 133.985V133.985ZM229.512 115.642C225.334 115.642 222.023 118.953 222.023 123.131C222.023 127.31 225.334 130.621 229.512 130.621C233.583 130.621 236.893 127.31 236.893 123.131C236.893 118.953 233.583 115.642 229.512 115.642ZM319.004 114.285H307.553C307.065 114.285 306.63 114.72 306.63 115.208V137.404H288.667V115.208C288.667 114.72 288.233 114.285 287.744 114.285H276.185C275.696 114.285 275.262 114.72 275.262 115.208V175.502C275.262 175.991 275.751 176.425 276.185 176.425H287.744C288.233 176.425 288.667 175.991 288.667 175.502V149.724H306.63L306.522 175.502C306.522 175.991 306.956 176.425 307.444 176.425H319.004C319.492 176.425 319.927 175.991 319.927 175.502V115.208C319.927 114.72 319.492 114.285 319.004 114.285V114.285ZM216.596 140.986V172.137C216.596 172.354 216.542 172.734 216.27 172.843C216.27 172.843 209.487 177.673 198.307 177.673C184.794 177.673 168.784 173.44 168.784 145.545C168.784 117.65 182.786 111.897 196.462 111.952C208.293 111.952 213.069 114.611 213.828 115.099C214.045 115.371 214.154 115.588 214.154 115.859L211.875 125.519C211.875 126.008 211.386 126.605 210.789 126.442C208.835 125.845 205.905 124.651 199.013 124.651C191.035 124.651 182.46 126.93 182.46 144.894C182.46 162.857 190.601 164.974 196.462 164.974C201.455 164.974 203.246 164.377 203.246 164.377V151.895H195.268C194.671 151.895 194.237 151.46 194.237 150.972V140.986C194.237 140.498 194.671 140.064 195.268 140.064H215.565C216.162 140.064 216.596 140.498 216.596 140.986Z" fill="white"/>
</g>
<defs>
<clipPath id="clip0_1_12">
<rect width="107.455" height="107.455" fill="white" transform="translate(33 71.7918)"/>
</clipPath>
<clipPath id="clip1_1_12">
<rect width="244.216" height="86.8323" fill="white" transform="translate(168.784 101.098)"/>
</clipPath>
</defs>
</svg>
