<svg width="364" height="250" viewBox="0 0 364 250" fill="none" xmlns="http://www.w3.org/2000/svg">
<path d="M324.324 65H0V185H324.324V65Z" fill="black"/>
<path d="M198.387 142.537H198.299C198.343 142.537 198.343 142.581 198.387 142.581H198.431L198.387 142.537ZM198.387 142.581C198.037 142.581 197.121 142.755 196.161 142.755C193.15 142.755 192.102 141.359 192.102 139.526V127.394H198.256C198.605 127.394 198.867 127.088 198.867 126.652V120.061C198.867 119.713 198.561 119.407 198.256 119.407H192.102V111.202C192.102 110.897 191.884 110.722 191.535 110.722H183.156C182.807 110.722 182.632 110.941 182.632 111.202V119.625C182.632 119.625 178.399 120.673 178.138 120.716C177.832 120.803 177.657 121.065 177.657 121.371V126.652C177.657 127.088 177.962 127.394 178.312 127.394H182.589V140.137C182.589 149.606 189.178 150.567 193.674 150.567C195.725 150.567 198.212 149.912 198.605 149.694C198.823 149.606 198.954 149.345 198.954 149.084V143.279C198.954 142.929 198.736 142.668 198.387 142.581ZM290.295 134.071C290.295 127.044 287.459 126.128 284.492 126.434C282.178 126.564 280.301 127.742 280.301 127.742V141.403C280.301 141.403 282.178 142.711 285.015 142.799C288.986 142.886 290.295 141.446 290.295 134.071ZM299.722 133.459C299.722 146.77 295.402 150.567 287.895 150.567C281.523 150.567 278.119 147.338 278.119 147.338C278.119 147.338 277.989 149.126 277.771 149.345C277.639 149.564 277.465 149.65 277.203 149.65H271.486C271.093 149.65 270.744 149.345 270.744 148.996L270.831 105.922C270.831 105.573 271.137 105.267 271.486 105.267H279.735C280.083 105.267 280.389 105.573 280.389 105.922V120.541C280.389 120.541 283.575 118.491 288.244 118.491L288.201 118.403C292.827 118.403 299.722 120.149 299.722 133.459ZM265.9 119.451H257.739C257.303 119.451 257.085 119.756 257.085 120.193V141.271C257.085 141.271 254.946 142.755 252.022 142.755C249.142 142.755 248.269 141.446 248.269 138.522V120.105C248.269 119.756 247.964 119.451 247.614 119.451H239.322C238.974 119.451 238.668 119.756 238.668 120.105V139.962C238.668 148.472 243.425 150.61 249.971 150.61C255.383 150.61 259.747 147.643 259.747 147.643C259.747 147.643 259.965 149.17 260.052 149.388C260.14 149.564 260.401 149.738 260.663 149.738H265.857C266.293 149.738 266.511 149.432 266.511 149.084L266.599 120.105C266.642 119.756 266.293 119.451 265.9 119.451ZM173.991 119.407H165.743C165.394 119.407 165.088 119.756 165.088 120.193V148.646C165.088 149.432 165.612 149.694 166.267 149.694H173.729C174.515 149.694 174.689 149.345 174.689 148.646V120.061C174.646 119.713 174.341 119.407 173.991 119.407ZM169.889 106.271C166.922 106.271 164.521 108.627 164.521 111.639C164.521 114.606 166.878 117.007 169.889 117.007C172.813 117.007 175.169 114.65 175.169 111.639C175.169 108.671 172.813 106.271 169.889 106.271ZM233.867 105.311H225.662C225.314 105.311 225.008 105.617 225.008 105.965V121.807H212.178V105.965C212.178 105.617 211.872 105.311 211.523 105.311H203.274C202.926 105.311 202.62 105.617 202.62 105.965V149.04C202.62 149.388 202.969 149.694 203.274 149.694H211.523C211.872 149.694 212.178 149.388 212.178 149.04V130.623H225.008L224.921 149.04C224.921 149.388 225.226 149.694 225.576 149.694H233.823C234.173 149.694 234.478 149.388 234.478 149.04V105.965C234.522 105.617 234.217 105.311 233.867 105.311ZM160.681 124.382V146.639C160.681 146.77 160.637 147.076 160.463 147.12C160.463 147.12 155.618 150.567 147.632 150.567C137.987 150.567 126.509 147.556 126.509 127.612C126.509 107.667 136.503 103.565 146.279 103.609C154.746 103.609 158.149 105.529 158.673 105.878C158.804 106.097 158.891 106.227 158.891 106.402L157.32 113.341C157.32 113.69 156.971 114.126 156.534 113.996C155.138 113.559 153.044 112.73 148.112 112.73C142.395 112.73 136.285 114.344 136.285 127.219C136.285 140.049 142.09 141.577 146.279 141.577C149.857 141.577 151.123 141.141 151.123 141.141V132.237H145.406C144.97 132.237 144.664 131.932 144.664 131.583V124.426C144.664 124.076 144.97 123.771 145.406 123.771H159.939C160.375 123.728 160.681 124.033 160.681 124.382Z" fill="white"/>
<path fill-rule="evenodd" clip-rule="evenodd" d="M64.8764 92.5676C46.5033 92.5676 31.6216 107.449 31.6216 125.822C31.6216 140.529 41.1355 152.967 54.3588 157.375C56.0172 157.637 56.6718 156.677 56.6718 155.804C56.6718 155.019 56.6282 152.4 56.6282 149.606C48.2926 151.134 46.1106 147.556 45.4559 145.723C45.0632 144.763 43.4485 141.795 42.0519 141.009C40.8736 140.398 39.2152 138.828 42.0083 138.784C44.6268 138.74 46.5033 141.184 47.1144 142.188C50.1256 147.206 54.8825 145.81 56.8028 144.937C57.1082 142.799 57.981 141.315 58.9412 140.486C51.5657 139.656 43.7976 136.776 43.7976 124.076C43.7976 120.455 45.1068 117.443 47.2016 115.13C46.8525 114.301 45.7178 110.897 47.5508 106.315C47.5508 106.315 50.3438 105.442 56.7154 109.719C59.3776 108.977 62.2143 108.584 65.0073 108.584C67.844 108.584 70.637 108.977 73.2992 109.719C79.6708 105.398 82.4206 106.315 82.4206 106.315C84.253 110.897 83.0749 114.301 82.7692 115.13C84.9081 117.443 86.173 120.411 86.173 124.076C86.173 136.82 78.4052 139.656 70.9862 140.486C72.2082 141.533 73.2555 143.497 73.2555 146.639C73.2555 151.09 73.2119 154.669 73.2119 155.761C73.2119 156.633 73.8229 157.681 75.4812 157.331C89.01 152.749 98.1308 140.049 98.1308 125.778C98.1308 107.449 83.2492 92.5676 64.8764 92.5676Z" fill="white"/>
</svg>
