<svg width="500" height="250" viewBox="0 0 500 250" fill="none" xmlns="http://www.w3.org/2000/svg">
<rect y="40" width="450" height="160" rx="26" fill="black"/>
<path d="M190.727 77C190.477 76.2348 190.148 75.5492 189.739 74.9432C189.337 74.3295 188.856 73.8068 188.295 73.375C187.742 72.9432 187.114 72.6136 186.409 72.3864C185.705 72.1591 184.932 72.0455 184.091 72.0455C182.712 72.0455 181.458 72.4015 180.33 73.1136C179.201 73.8258 178.303 74.875 177.636 76.2614C176.97 77.6477 176.636 79.3485 176.636 81.3636C176.636 83.3788 176.973 85.0795 177.648 86.4659C178.322 87.8523 179.235 88.9015 180.386 89.6136C181.538 90.3258 182.833 90.6818 184.273 90.6818C185.606 90.6818 186.78 90.3977 187.795 89.8295C188.818 89.2538 189.614 88.4432 190.182 87.3977C190.758 86.3447 191.045 85.1061 191.045 83.6818L191.909 83.8636H184.909V81.3636H193.773V83.8636C193.773 85.7803 193.364 87.447 192.545 88.8636C191.735 90.2803 190.614 91.3788 189.182 92.1591C187.758 92.9318 186.121 93.3182 184.273 93.3182C182.212 93.3182 180.402 92.8333 178.841 91.8636C177.288 90.8939 176.076 89.5152 175.205 87.7273C174.341 85.9394 173.909 83.8182 173.909 81.3636C173.909 79.5227 174.155 77.8674 174.648 76.3977C175.148 74.9205 175.852 73.6629 176.761 72.625C177.67 71.5871 178.746 70.7917 179.989 70.2386C181.231 69.6856 182.598 69.4091 184.091 69.4091C185.318 69.4091 186.462 69.5947 187.523 69.9659C188.591 70.3295 189.542 70.8485 190.375 71.5227C191.216 72.1894 191.917 72.9886 192.477 73.9205C193.038 74.8447 193.424 75.8712 193.636 77H190.727ZM198.599 93V69.7273H212.645V72.2273H201.418V80.0909H211.918V82.5909H201.418V90.5H212.827V93H198.599ZM216.452 72.2273V69.7273H233.906V72.2273H226.588V93H223.77V72.2273H216.452ZM250.074 69.7273V93H247.256V69.7273H250.074ZM254.452 72.2273V69.7273H271.906V72.2273H264.588V93H261.77V72.2273H254.452ZM304.892 81.3636C304.892 83.8182 304.449 85.9394 303.562 87.7273C302.676 89.5152 301.46 90.8939 299.915 91.8636C298.369 92.8333 296.604 93.3182 294.619 93.3182C292.634 93.3182 290.869 92.8333 289.324 91.8636C287.778 90.8939 286.563 89.5152 285.676 87.7273C284.79 85.9394 284.347 83.8182 284.347 81.3636C284.347 78.9091 284.79 76.7879 285.676 75C286.563 73.2121 287.778 71.8333 289.324 70.8636C290.869 69.8939 292.634 69.4091 294.619 69.4091C296.604 69.4091 298.369 69.8939 299.915 70.8636C301.46 71.8333 302.676 73.2121 303.562 75C304.449 76.7879 304.892 78.9091 304.892 81.3636ZM302.165 81.3636C302.165 79.3485 301.828 77.6477 301.153 76.2614C300.487 74.875 299.581 73.8258 298.438 73.1136C297.301 72.4015 296.028 72.0455 294.619 72.0455C293.21 72.0455 291.934 72.4015 290.79 73.1136C289.653 73.8258 288.748 74.875 288.074 76.2614C287.407 77.6477 287.074 79.3485 287.074 81.3636C287.074 83.3788 287.407 85.0795 288.074 86.4659C288.748 87.8523 289.653 88.9015 290.79 89.6136C291.934 90.3258 293.21 90.6818 294.619 90.6818C296.028 90.6818 297.301 90.3258 298.438 89.6136C299.581 88.9015 300.487 87.8523 301.153 86.4659C301.828 85.0795 302.165 83.3788 302.165 81.3636ZM328.085 69.7273V93H325.358L312.676 74.7273H312.449V93H309.631V69.7273H312.358L325.085 88.0455H325.312V69.7273H328.085Z" fill="white"/>
<g clip-path="url(#clip0_1_12)">
<path fill-rule="evenodd" clip-rule="evenodd" d="M84.7275 64.7917C55.0431 64.7917 31 88.8348 31 118.519C31 142.294 46.3795 162.374 67.7362 169.493C70.4226 169.963 71.4299 168.352 71.4299 166.941C71.4299 165.665 71.3628 161.434 71.3628 156.934C57.8638 159.419 54.3715 153.644 53.2969 150.621C52.6925 149.077 50.0733 144.308 47.7898 143.032C45.9094 142.025 43.223 139.54 47.7227 139.473C51.9537 139.406 54.9759 143.368 55.9833 144.98C60.8188 153.106 68.5421 150.823 71.6314 149.413C72.1015 145.92 73.5119 143.57 75.0566 142.227C63.1022 140.883 50.6105 136.249 50.6105 115.699C50.6105 109.856 52.6925 105.02 56.1176 101.259C55.5803 99.9161 53.6999 94.409 56.6549 87.0215C56.6549 87.0215 61.1546 85.6112 71.4299 92.5286C75.7281 91.3197 80.295 90.7153 84.8618 90.7153C89.4287 90.7153 93.9955 91.3197 98.2937 92.5286C108.569 85.544 113.069 87.0215 113.069 87.0215C116.024 94.409 114.143 99.9161 113.606 101.259C117.031 105.02 119.113 109.789 119.113 115.699C119.113 136.316 106.554 140.883 94.5999 142.227C96.5476 143.905 98.2265 147.129 98.2265 152.166C98.2265 159.352 98.1594 165.128 98.1594 166.941C98.1594 168.352 99.1668 170.03 101.853 169.493C112.519 165.892 121.787 159.037 128.353 149.893C134.919 140.749 138.452 129.776 138.455 118.519C138.455 88.8348 114.412 64.7917 84.7275 64.7917Z" fill="white"/>
</g>
<g clip-path="url(#clip1_1_12)">
<path fill-rule="evenodd" clip-rule="evenodd" d="M270.827 157.16H270.72C270.768 157.16 270.8 157.213 270.848 157.219H270.88L270.827 157.165V157.16ZM270.848 157.219C270.352 157.224 269.104 157.485 267.787 157.485C263.627 157.485 262.187 155.565 262.187 153.059V136.36H270.667C271.147 136.36 271.52 135.933 271.52 135.347V126.28C271.52 125.8 271.093 125.373 270.667 125.373H262.187V114.12C262.187 113.693 261.92 113.427 261.44 113.427H249.92C249.44 113.427 249.173 113.693 249.173 114.12V125.693C249.173 125.693 243.36 127.133 242.987 127.187C242.56 127.293 242.293 127.667 242.293 128.093V135.347C242.293 135.933 242.72 136.36 243.2 136.36H249.12V153.853C249.12 166.867 258.187 168.2 264.373 168.2C267.2 168.2 270.613 167.293 271.147 167.027C271.467 166.92 271.627 166.547 271.627 166.173V158.173C271.634 157.946 271.559 157.725 271.416 157.548C271.273 157.372 271.072 157.253 270.848 157.213V157.219ZM397.227 145.48C397.227 135.827 393.333 134.547 389.227 134.973C386.027 135.187 383.467 136.787 383.467 136.787V155.56C383.467 155.56 386.08 157.373 389.973 157.48C395.467 157.64 397.227 155.667 397.227 145.48ZM410.187 144.627C410.187 162.92 404.267 168.147 393.92 168.147C385.173 168.147 380.48 163.72 380.48 163.72C380.48 163.72 380.267 166.173 380 166.493C379.84 166.813 379.573 166.92 379.253 166.92H371.36C370.827 166.92 370.347 166.493 370.347 166.013L370.453 106.76C370.453 106.28 370.88 105.853 371.36 105.853H382.72C383.2 105.853 383.627 106.28 383.627 106.76V126.867C383.627 126.867 388 124.04 394.4 124.04L394.347 123.933C400.747 123.933 410.187 126.333 410.187 144.627V144.627ZM363.68 125.373H352.48C351.893 125.373 351.573 125.8 351.573 126.387V155.4C351.573 155.4 348.64 157.48 344.64 157.48C340.64 157.48 339.467 155.667 339.467 151.667V126.333C339.467 125.853 339.04 125.427 338.56 125.427H327.147C326.667 125.427 326.24 125.853 326.24 126.333V153.587C326.24 165.32 332.8 168.253 341.813 168.253C349.227 168.253 355.253 164.147 355.253 164.147C355.253 164.147 355.52 166.227 355.68 166.547C355.787 166.813 356.16 167.027 356.533 167.027H363.68C364.267 167.027 364.587 166.6 364.587 166.12L364.693 126.28C364.693 125.8 364.267 125.373 363.68 125.373V125.373ZM237.28 125.32H225.92C225.44 125.32 225.013 125.8 225.013 126.387V165.533C225.013 166.6 225.707 166.973 226.613 166.973H236.853C237.92 166.973 238.187 166.493 238.187 165.533V126.227C238.187 125.747 237.76 125.32 237.28 125.32V125.32ZM231.68 107.293C227.573 107.293 224.32 110.547 224.32 114.653C224.32 118.76 227.573 122.013 231.68 122.013C235.68 122.013 238.933 118.76 238.933 114.653C238.933 110.547 235.68 107.293 231.68 107.293ZM319.627 105.96H308.373C307.893 105.96 307.467 106.387 307.467 106.867V128.68H289.813V106.867C289.813 106.387 289.387 105.96 288.907 105.96H277.547C277.067 105.96 276.64 106.387 276.64 106.867V166.12C276.64 166.6 277.12 167.027 277.547 167.027H288.907C289.387 167.027 289.813 166.6 289.813 166.12V140.787H307.467L307.36 166.12C307.36 166.6 307.787 167.027 308.267 167.027H319.627C320.107 167.027 320.533 166.6 320.533 166.12V106.867C320.533 106.387 320.107 105.96 319.627 105.96V105.96ZM218.987 132.2V162.813C218.987 163.027 218.933 163.4 218.667 163.507C218.667 163.507 212 168.253 201.013 168.253C187.733 168.253 172 164.093 172 136.68C172 109.267 185.76 103.613 199.2 103.667C210.827 103.667 215.52 106.28 216.267 106.76C216.48 107.027 216.587 107.24 216.587 107.507L214.347 117C214.347 117.48 213.867 118.067 213.28 117.907C211.36 117.32 208.48 116.147 201.707 116.147C193.867 116.147 185.44 118.387 185.44 136.04C185.44 153.693 193.44 155.773 199.2 155.773C204.107 155.773 205.867 155.187 205.867 155.187V142.92H198.027C197.44 142.92 197.013 142.493 197.013 142.013V132.2C197.013 131.72 197.44 131.293 198.027 131.293H217.973C218.56 131.293 218.987 131.72 218.987 132.2Z" fill="white"/>
</g>
<defs>
<clipPath id="clip0_1_12">
<rect x="31" y="64.7917" width="107.455" height="107.455" rx="26" fill="white"/>
</clipPath>
<clipPath id="clip1_1_12">
<rect x="172" y="93" width="240" height="85.3333" rx="26" fill="white"/>
</clipPath>
</defs>
</svg>
