<svg width="450" height="250" viewBox="0 0 450 250" fill="none" xmlns="http://www.w3.org/2000/svg">
<rect y="51" width="400" height="148" fill="#F0F1F4"/>
<path d="M138.721 98.0255C138.021 98.0255 137.427 98.5335 137.317 99.2252L129.217 150.592C129.188 150.779 129.2 150.971 129.251 151.154C129.303 151.336 129.394 151.506 129.517 151.65C129.641 151.795 129.794 151.91 129.966 151.99C130.139 152.069 130.327 152.111 130.517 152.111H140.122C140.821 152.111 141.416 151.602 141.526 150.911L143.905 135.827C144.013 135.136 144.609 134.627 145.309 134.627H154.042C164.246 134.627 172.908 127.182 174.49 117.093C176.085 106.919 168.137 98.0476 156.872 98.0255H138.721ZM148.058 109.492H155.046C160.798 109.492 162.672 112.887 162.079 116.64C161.487 120.402 158.578 123.173 153.013 123.173H145.901L148.058 109.492ZM194.027 112.984C191.601 112.993 188.81 113.49 185.677 114.795C178.49 117.791 175.038 123.982 173.572 128.496C173.572 128.496 168.907 142.267 179.447 149.833C179.447 149.833 189.223 157.116 200.227 149.384L200.037 150.592C200.008 150.779 200.019 150.971 200.071 151.153C200.122 151.336 200.213 151.505 200.336 151.649C200.459 151.794 200.612 151.91 200.785 151.989C200.957 152.069 201.144 152.11 201.334 152.111H210.453C211.153 152.111 211.747 151.602 211.856 150.911L217.403 115.735C217.433 115.547 217.422 115.355 217.37 115.173C217.319 114.99 217.228 114.82 217.105 114.676C216.982 114.531 216.829 114.415 216.656 114.335C216.484 114.256 216.296 114.214 216.106 114.214H206.987C206.288 114.214 205.692 114.723 205.584 115.414L205.286 117.307C205.286 117.307 201.304 112.957 194.027 112.984ZM194.325 124.095C195.372 124.095 196.33 124.239 197.189 124.515C201.123 125.778 203.354 129.558 202.709 133.655C201.912 138.7 197.775 142.415 192.469 142.415C191.423 142.415 190.466 142.271 189.605 141.995C185.672 140.732 183.427 136.952 184.072 132.855C184.869 127.81 189.019 124.095 194.325 124.095Z" fill="#003087"/>
<path d="M270.035 98.0255C269.336 98.0255 268.741 98.5335 268.632 99.2252L260.532 150.592C260.503 150.779 260.514 150.971 260.566 151.154C260.618 151.336 260.708 151.506 260.832 151.65C260.955 151.795 261.109 151.91 261.281 151.99C261.454 152.069 261.641 152.111 261.831 152.111H271.437C272.136 152.111 272.731 151.602 272.84 150.911L275.22 135.827C275.328 135.136 275.923 134.627 276.623 134.627H285.356C295.56 134.627 304.221 127.182 305.803 117.093C307.399 106.919 299.452 98.0476 288.186 98.0255H270.035ZM279.373 109.492H286.36C292.113 109.492 293.986 112.887 293.394 116.64C292.802 120.402 289.893 123.173 284.327 123.173H277.216L279.373 109.492ZM325.34 112.984C322.915 112.993 320.124 113.49 316.99 114.795C309.803 117.791 306.352 123.982 304.886 128.496C304.886 128.496 300.223 142.267 310.763 149.833C310.763 149.833 320.536 157.116 331.541 149.384L331.352 150.592C331.322 150.779 331.334 150.971 331.386 151.154C331.437 151.336 331.528 151.506 331.652 151.65C331.775 151.795 331.928 151.91 332.101 151.99C332.273 152.069 332.461 152.111 332.651 152.111H341.769C342.468 152.111 343.063 151.602 343.172 150.911L348.721 115.735C348.751 115.547 348.739 115.355 348.688 115.172C348.636 114.989 348.545 114.82 348.422 114.675C348.298 114.53 348.145 114.414 347.972 114.335C347.8 114.255 347.612 114.214 347.422 114.214H338.303C337.603 114.214 337.008 114.723 336.899 115.414L336.601 117.307C336.601 117.307 332.618 112.957 325.34 112.984ZM325.638 124.095C326.685 124.095 327.643 124.239 328.503 124.515C332.437 125.778 334.668 129.558 334.022 133.655C333.226 138.7 329.089 142.415 323.783 142.415C322.737 142.415 321.779 142.271 320.919 141.995C316.985 140.732 314.741 136.952 315.386 132.855C316.182 127.81 320.333 124.095 325.638 124.095Z" fill="#0070E0"/>
<path d="M221.73 114.214C221.007 114.214 220.493 114.92 220.714 115.607L230.711 146.63L221.672 161.249C221.233 161.959 221.743 162.876 222.577 162.876H233.261C233.567 162.876 233.867 162.796 234.133 162.646C234.399 162.496 234.622 162.28 234.78 162.018L262.701 115.83C263.129 115.121 262.617 114.213 261.788 114.213H251.105C250.797 114.213 250.493 114.294 250.226 114.447C249.958 114.6 249.734 114.82 249.577 115.085L238.587 133.64L233.008 115.223C232.826 114.624 232.273 114.213 231.648 114.213L221.73 114.214Z" fill="#003087"/>
<path d="M359.082 98.0255C358.383 98.0255 357.788 98.5345 357.678 99.2252L349.576 150.59C349.547 150.777 349.558 150.969 349.61 151.152C349.661 151.335 349.752 151.505 349.875 151.65C349.999 151.794 350.152 151.91 350.325 151.99C350.497 152.069 350.685 152.111 350.875 152.111H360.481C361.18 152.111 361.775 151.602 361.885 150.911L369.984 99.5445C370.014 99.357 370.002 99.1654 369.951 98.9828C369.899 98.8002 369.808 98.6309 369.685 98.4866C369.562 98.3423 369.409 98.2264 369.237 98.1468C369.064 98.0672 368.877 98.0258 368.687 98.0255H359.082Z" fill="#0070E0"/>
<path d="M58.6401 98.0255C58.0213 98.026 57.423 98.2472 56.9527 98.6493C56.4823 99.0513 56.1707 99.6079 56.074 100.219L51.8103 127.261C52.0091 125.998 53.0973 125.068 54.3763 125.068H66.8703C79.4446 125.068 90.1144 115.895 92.0641 103.464C92.2091 102.536 92.2914 101.599 92.3101 100.66C89.1145 98.9843 85.3608 98.0255 81.2477 98.0255H58.6401Z" fill="#001C64"/>
<path d="M92.3104 100.661C92.2917 101.6 92.2095 102.537 92.0644 103.465C90.1148 115.896 79.444 125.069 66.8707 125.069H54.3767C53.0987 125.069 52.0094 125.998 51.8107 127.262L47.8903 152.112L45.4347 167.701C45.3867 168.002 45.4047 168.31 45.4873 168.603C45.57 168.897 45.7154 169.169 45.9135 169.401C46.1115 169.633 46.3575 169.819 46.6345 169.947C46.9115 170.074 47.2129 170.14 47.5178 170.14H61.079C61.6978 170.14 62.296 169.919 62.7664 169.516C63.2367 169.114 63.5483 168.558 63.645 167.947L67.217 145.291C67.3138 144.679 67.6257 144.122 68.0964 143.72C68.5672 143.318 69.166 143.097 69.7851 143.097H77.7694C90.3437 143.097 101.014 133.924 102.963 121.494C104.348 112.671 99.9042 104.642 92.3104 100.661Z" fill="#0070E0"/>
<path d="M43.234 80C41.956 80 40.8667 80.9296 40.668 82.1916L30.0262 149.672C29.8244 150.953 30.8143 152.112 32.1114 152.112H47.8923L51.8106 127.262L56.0743 100.22C56.1711 99.6091 56.4827 99.0525 56.953 98.6504C57.4233 98.2484 58.0216 98.0272 58.6404 98.0267H81.248C85.3622 98.0267 89.1149 98.9864 92.3105 100.661C92.5293 89.3436 83.1906 80 70.3513 80H43.234Z" fill="#003087"/>
</svg>
