<svg width="500" height="250" viewBox="0 0 500 250" fill="none" xmlns="http://www.w3.org/2000/svg">
<path d="M350.507 59H21.4933C9.62289 59 0 68.6035 0 80.45V169.55C0 181.397 9.62289 191 21.4933 191H350.507C362.377 191 372 181.397 372 169.55V80.45C372 68.6035 362.377 59 350.507 59Z" fill="#F1F2F4"/>
<path d="M159.96 110.453H143.885C142.785 110.453 141.85 111.253 141.678 112.338L135.177 153.558C135.048 154.372 135.677 155.105 136.502 155.105H144.176C145.277 155.105 146.213 154.306 146.384 153.218L148.137 142.1C148.306 141.012 149.244 140.213 150.342 140.213H155.431C166.019 140.213 172.131 135.089 173.726 124.934C174.446 120.492 173.757 117.001 171.677 114.557C169.392 111.873 165.34 110.453 159.96 110.453ZM161.814 125.508C160.935 131.276 156.528 131.276 152.267 131.276H149.842L151.543 120.504C151.644 119.853 152.208 119.373 152.866 119.373H153.978C156.881 119.373 159.619 119.373 161.034 121.028C161.878 122.015 162.137 123.482 161.814 125.508Z" fill="#253B80"/>
<path d="M208.01 125.325H200.313C199.657 125.325 199.09 125.805 198.989 126.455L198.649 128.609L198.11 127.828C196.444 125.409 192.727 124.601 189.019 124.601C180.513 124.601 173.247 131.043 171.833 140.081C171.097 144.589 172.143 148.9 174.699 151.906C177.046 154.67 180.402 155.822 184.395 155.822C191.249 155.822 195.049 151.415 195.049 151.415L194.706 153.553C194.577 154.372 195.207 155.105 196.027 155.105H202.962C204.064 155.105 204.994 154.306 205.169 153.218L209.329 126.871C209.461 126.06 208.833 125.325 208.01 125.325ZM197.281 140.307C196.537 144.704 193.047 147.657 188.596 147.657C186.36 147.657 184.574 146.939 183.427 145.581C182.289 144.232 181.857 142.311 182.219 140.173C182.912 135.812 186.461 132.764 190.845 132.764C193.031 132.764 194.808 133.49 195.979 134.861C197.151 136.245 197.616 138.177 197.281 140.307Z" fill="#253B80"/>
<path d="M249.007 125.325H241.272C240.534 125.325 239.84 125.691 239.422 126.305L228.753 142.02L224.231 126.918C223.946 125.973 223.074 125.325 222.087 125.325H214.486C213.562 125.325 212.92 126.227 213.214 127.097L221.734 152.101L213.724 163.409C213.094 164.3 213.729 165.524 214.818 165.524H222.543C223.277 165.524 223.963 165.167 224.379 164.565L250.107 127.428C250.723 126.539 250.091 125.325 249.007 125.325Z" fill="#253B80"/>
<path d="M274.618 110.456H258.54C257.443 110.456 256.507 111.255 256.335 112.341L249.834 153.561C249.705 154.374 250.335 155.107 251.155 155.107H259.406C260.172 155.107 260.827 154.548 260.947 153.786L262.792 142.102C262.962 141.014 263.899 140.215 264.997 140.215H270.084C280.675 140.215 286.783 135.09 288.382 124.937C289.104 120.495 288.41 117.004 286.33 114.559C284.048 111.875 279.998 110.456 274.618 110.456ZM276.472 125.51C275.595 131.279 271.188 131.279 266.924 131.279H264.501L266.205 120.506C266.307 119.855 266.865 119.376 267.526 119.376H268.638C271.539 119.376 274.279 119.376 275.694 121.031C276.537 122.018 276.794 123.484 276.472 125.51Z" fill="#179BD7"/>
<path d="M322.665 125.325H314.972C314.312 125.325 313.75 125.805 313.651 126.455L313.311 128.609L312.77 127.828C311.104 125.409 307.389 124.601 303.681 124.601C295.174 124.601 287.911 131.043 286.496 140.081C285.763 144.589 286.804 148.9 289.361 151.906C291.712 154.67 295.064 155.822 299.057 155.822C305.911 155.822 309.712 151.415 309.712 151.415L309.369 153.553C309.239 154.372 309.869 155.105 310.694 155.105H317.626C318.724 155.105 319.659 154.306 319.831 153.218L323.993 126.871C324.12 126.06 323.49 125.325 322.665 125.325ZM311.935 140.307C311.198 144.704 307.703 147.657 303.25 147.657C301.02 147.657 299.229 146.939 298.082 145.581C296.944 144.232 296.516 142.311 296.874 140.173C297.572 135.812 301.117 132.764 305.5 132.764C307.686 132.764 309.463 133.49 310.633 134.861C311.811 136.245 312.277 138.177 311.935 140.307Z" fill="#179BD7"/>
<path d="M331.74 111.586L325.143 153.561C325.013 154.374 325.643 155.107 326.464 155.107H333.097C334.199 155.107 335.135 154.308 335.303 153.22L341.81 112.003C341.939 111.189 341.309 110.453 340.489 110.453H333.062C332.406 110.456 331.841 110.935 331.74 111.586Z" fill="#179BD7"/>
<path d="M50.7272 163.153L52.1472 154.134L48.9842 154.061H33.8806L44.3769 87.5078C44.4094 87.3068 44.5153 87.1195 44.6701 86.9865C44.8248 86.8535 45.023 86.7802 45.2293 86.7802H70.6961C79.1506 86.7802 84.9854 88.5395 88.0317 92.012C89.4594 93.641 90.3687 95.3433 90.8085 97.2167C91.2706 99.1823 91.2789 101.531 90.8275 104.395L90.7953 104.604V106.44L92.2237 107.248C93.4257 107.887 94.3822 108.617 95.1146 109.453C96.3364 110.846 97.1267 112.616 97.4607 114.715C97.8054 116.873 97.6913 119.442 97.1267 122.349C96.4753 125.695 95.4213 128.608 93.9986 130.991C92.69 133.187 91.0234 135.009 89.0444 136.421C87.1546 137.762 84.9094 138.781 82.3706 139.432C79.9108 140.073 77.1062 140.396 74.0301 140.396H72.0482C70.631 140.396 69.2544 140.907 68.1739 141.821C67.0906 142.755 66.3738 144.032 66.1539 145.427L66.0045 146.239L63.4959 162.135L63.3818 162.718C63.352 162.904 63.3004 162.995 63.2244 163.058C63.1565 163.115 63.0588 163.153 62.9637 163.153H50.7272Z" fill="#253B80"/>
<path d="M93.5754 104.816C93.4993 105.302 93.4125 105.799 93.315 106.309C89.9562 123.552 78.4665 129.509 63.7919 129.509H56.3202C54.5255 129.509 53.0133 130.812 52.7337 132.582L48.9082 156.843L47.8249 163.72C47.643 164.883 48.539 165.931 49.7119 165.931H62.9638C64.5331 165.931 65.8661 164.79 66.1132 163.243L66.2435 162.57L68.7386 146.736L68.8988 145.867C69.1432 144.314 70.4789 143.174 72.0482 143.174H74.0302C86.8695 143.174 96.9201 137.961 99.858 122.876C101.085 116.575 100.45 111.313 97.2028 107.612C96.2199 106.497 95.0006 105.571 93.5754 104.816Z" fill="#179BD7"/>
<path d="M90.062 103.415C89.5495 103.266 89.0196 103.13 88.4765 103.008C87.9309 102.888 87.3721 102.782 86.7959 102.69C84.7813 102.364 82.5742 102.21 80.2095 102.21H60.2488C59.7573 102.21 59.2904 102.321 58.8722 102.522C57.9519 102.964 57.2677 103.836 57.1021 104.903L52.8558 131.798L52.7336 132.582C53.0132 130.812 54.5255 129.509 56.3201 129.509H63.7918C78.4665 129.509 89.9562 123.549 93.315 106.309C93.415 105.799 93.4993 105.302 93.5754 104.816C92.7255 104.365 91.8055 103.98 90.8143 103.651C90.5696 103.57 90.3175 103.491 90.062 103.415Z" fill="#222D65"/>
<path d="M57.102 104.903C57.2677 103.836 57.9518 102.964 58.8722 102.525C59.2931 102.324 59.7573 102.212 60.2487 102.212H80.2095C82.5743 102.212 84.7813 102.367 86.7959 102.693C87.3721 102.785 87.9309 102.891 88.4765 103.01C89.0196 103.133 89.5487 103.268 90.062 103.418C90.3175 103.494 90.5696 103.572 90.8168 103.651C91.808 103.98 92.728 104.368 93.5778 104.816C94.5773 98.4439 93.5704 94.1053 90.1249 90.1766C86.3263 85.8517 79.4709 84 70.6988 84H45.2321C43.4401 84 41.9116 85.3032 41.6347 87.0761L31.0271 154.313C30.8181 155.644 31.8444 156.843 33.1855 156.843H48.9082L52.8558 131.798L57.102 104.903Z" fill="#253B80"/>
<path d="M141.36 99.7067H136.908V85.2776H141.558C142.957 85.2776 144.155 85.5665 145.15 86.1442C146.146 86.7172 146.909 87.5415 147.44 88.6171C147.971 89.688 148.236 90.9703 148.236 92.4639C148.236 93.967 147.968 95.261 147.434 96.346C146.898 97.4263 146.118 98.2577 145.094 98.8401C144.07 99.4178 142.826 99.7067 141.36 99.7067ZM138.654 98.1567H141.248C142.44 98.1567 143.429 97.9265 144.214 97.4662C144.998 97.006 145.583 96.3507 145.968 95.5005C146.353 94.6504 146.546 93.6382 146.546 92.4639C146.546 91.2991 146.356 90.2963 145.974 89.4555C145.594 88.6101 145.026 87.9619 144.27 87.511C143.513 87.0554 142.572 86.8276 141.444 86.8276H138.654V98.1567ZM163.342 92.4921C163.342 94.0139 163.067 95.3291 162.518 96.4376C161.968 97.5461 161.214 98.4009 160.256 99.0021C159.298 99.6033 158.203 99.9039 156.972 99.9039C155.742 99.9039 154.648 99.6033 153.69 99.0021C152.732 98.4009 151.978 97.5461 151.428 96.4376C150.878 95.3291 150.604 94.0139 150.604 92.4921C150.604 90.9703 150.878 89.6551 151.428 88.5467C151.978 87.4382 152.732 86.5833 153.69 85.9821C154.648 85.3809 155.742 85.0803 156.972 85.0803C158.203 85.0803 159.298 85.3809 160.256 85.9821C161.214 86.5833 161.968 87.4382 162.518 88.5467C163.067 89.6551 163.342 90.9703 163.342 92.4921ZM161.651 92.4921C161.651 91.2428 161.442 90.1883 161.024 89.3287C160.611 88.4691 160.049 87.8186 159.34 87.3771C158.636 86.9356 157.846 86.7149 156.972 86.7149C156.099 86.7149 155.308 86.9356 154.598 87.3771C153.894 87.8186 153.333 88.4691 152.914 89.3287C152.501 90.1883 152.294 91.2428 152.294 92.4921C152.294 93.7415 152.501 94.796 152.914 95.6555C153.333 96.5151 153.894 97.1656 154.598 97.6071C155.308 98.0486 156.099 98.2694 156.972 98.2694C157.846 98.2694 158.636 98.0486 159.34 97.6071C160.049 97.1656 160.611 96.5151 161.024 95.6555C161.442 94.796 161.651 93.7415 161.651 92.4921ZM177.722 85.2776V99.7067H176.03L168.168 88.3776H168.027V99.7067H166.28V85.2776H167.97L175.862 96.6349H176.002V85.2776H177.722ZM181.81 99.7067H179.978L185.276 85.2776H187.08L192.378 99.7067H190.546L186.234 87.5603H186.122L181.81 99.7067ZM182.486 94.0703H189.87V95.6203H182.486V94.0703ZM192.15 86.8276V85.2776H202.972V86.8276H198.436V99.7067H196.688V86.8276H192.15ZM205.669 99.7067V85.2776H214.377V86.8276H207.416V91.703H213.926V93.253H207.416V98.1567H214.49V99.7067H205.669ZM225.728 99.7067L221.782 85.2776H223.558L226.573 97.0294H226.714L229.786 85.2776H231.759L234.83 97.0294H234.971L237.987 85.2776H239.762L235.817 99.7067H234.013L230.829 88.2085H230.716L227.531 99.7067H225.728ZM243.686 85.2776V99.7067H241.939V85.2776H243.686ZM246.4 86.8276V85.2776H257.222V86.8276H252.686V99.7067H250.938V86.8276H246.4ZM259.919 99.7067V85.2776H261.666V91.703H269.36V85.2776H271.107V99.7067H269.36V93.253H261.666V99.7067H259.919Z" fill="black" fill-opacity="0.55"/>
</svg>
