<svg width="500" height="250" viewBox="0 0 500 250" fill="none" xmlns="http://www.w3.org/2000/svg">
<rect y="40" width="480" height="160" rx="26" fill="#F1F2F4"/>
<path d="M208 104H188.555C187.224 104 186.093 104.967 185.885 106.28L178.02 156.143C177.864 157.127 178.626 158.014 179.624 158.014H188.907C190.238 158.014 191.37 157.047 191.577 155.731L193.698 142.282C193.903 140.966 195.037 139.999 196.365 139.999H202.521C215.33 139.999 222.723 133.801 224.653 121.517C225.523 116.144 224.69 111.921 222.174 108.964C219.41 105.717 214.508 104 208 104ZM210.243 122.211C209.18 129.189 203.849 129.189 198.694 129.189H195.76L197.818 116.158C197.94 115.37 198.623 114.79 199.419 114.79H200.764C204.275 114.79 207.588 114.79 209.299 116.792C210.32 117.986 210.633 119.76 210.243 122.211Z" fill="#253B80"/>
<path d="M266.125 121.99H256.814C256.02 121.99 255.335 122.57 255.213 123.357L254.801 125.962L254.149 125.018C252.134 122.092 247.638 121.114 243.152 121.114C232.862 121.114 224.073 128.907 222.362 139.84C221.472 145.293 222.737 150.508 225.83 154.144C228.668 157.488 232.728 158.881 237.559 158.881C245.85 158.881 250.448 153.55 250.448 153.55L250.032 156.137C249.876 157.127 250.638 158.014 251.63 158.014H260.018C261.352 158.014 262.477 157.047 262.688 155.731L267.72 123.86C267.88 122.879 267.121 121.99 266.125 121.99ZM253.146 140.113C252.247 145.432 248.025 149.004 242.64 149.004C239.936 149.004 237.775 148.136 236.387 146.493C235.011 144.861 234.488 142.538 234.926 139.951C235.765 134.676 240.058 130.989 245.361 130.989C248.005 130.989 250.155 131.867 251.571 133.525C252.989 135.199 253.552 137.537 253.146 140.113Z" fill="#253B80"/>
<path d="M315.718 121.99H306.361C305.468 121.99 304.629 122.433 304.123 123.175L291.217 142.185L285.747 123.917C285.403 122.774 284.348 121.99 283.154 121.99H273.959C272.841 121.99 272.065 123.081 272.42 124.133L282.727 154.38L273.037 168.059C272.275 169.137 273.043 170.618 274.36 170.618H283.705C284.593 170.618 285.423 170.186 285.926 169.458L317.049 124.534C317.794 123.459 317.029 121.99 315.718 121.99Z" fill="#253B80"/>
<path d="M346.699 104.003H327.25C325.923 104.003 324.791 104.97 324.583 106.283L316.719 156.146C316.562 157.13 317.325 158.017 318.317 158.017H328.297C329.224 158.017 330.017 157.34 330.162 156.419L332.394 142.285C332.599 140.968 333.733 140.002 335.061 140.002H341.214C354.026 140.002 361.415 133.803 363.349 121.52C364.222 116.147 363.383 111.924 360.867 108.967C358.106 105.72 353.207 104.003 346.699 104.003ZM348.942 122.214C347.881 129.192 342.55 129.192 337.392 129.192H334.461L336.522 116.161C336.645 115.373 337.321 114.793 338.12 114.793H339.465C342.974 114.793 346.289 114.793 348.001 116.795C349.021 117.989 349.331 119.763 348.942 122.214Z" fill="#179BD7"/>
<path d="M404.821 121.99H395.515C394.716 121.99 394.036 122.57 393.917 123.357L393.505 125.962L392.851 125.018C390.835 122.092 386.342 121.114 381.856 121.114C371.566 121.114 362.78 128.907 361.068 139.84C360.181 145.293 361.441 150.508 364.534 154.144C367.378 157.488 371.432 158.881 376.263 158.881C384.554 158.881 389.152 153.55 389.152 153.55L388.737 156.137C388.58 157.127 389.342 158.014 390.34 158.014H398.725C400.053 158.014 401.184 157.047 401.392 155.731L406.427 123.86C406.581 122.879 405.819 121.99 404.821 121.99ZM391.841 140.113C390.949 145.432 386.721 149.004 381.335 149.004C378.637 149.004 376.471 148.136 375.083 146.493C373.707 144.861 373.189 142.538 373.622 139.951C374.466 134.676 378.754 130.989 384.056 130.989C386.701 130.989 388.85 131.867 390.266 133.525C391.691 135.199 392.254 137.537 391.841 140.113Z" fill="#179BD7"/>
<path d="M415.799 105.37L407.818 156.146C407.661 157.13 408.423 158.017 409.416 158.017H417.44C418.773 158.017 419.905 157.05 420.109 155.734L427.98 105.874C428.136 104.89 427.374 104 426.382 104H417.397C416.604 104.003 415.921 104.583 415.799 105.37Z" fill="#179BD7"/>
<path d="M75.8636 167.75L77.5813 156.84L73.7551 156.751H55.4846L68.1817 76.2433C68.2211 76.0002 68.3492 75.7736 68.5364 75.6127C68.7236 75.4518 68.9633 75.3631 69.2129 75.3631H100.019C110.247 75.3631 117.305 77.4913 120.99 81.6919C122.717 83.6625 123.817 85.7217 124.349 87.9879C124.908 90.3657 124.918 93.2066 124.372 96.6715L124.333 96.9244V99.1446L126.061 100.123C127.515 100.895 128.672 101.779 129.558 102.79C131.036 104.475 131.992 106.616 132.396 109.155C132.813 111.766 132.675 114.873 131.992 118.39C131.204 122.437 129.929 125.961 128.208 128.844C126.625 131.501 124.609 133.705 122.215 135.413C119.929 137.035 117.213 138.267 114.142 139.055C111.166 139.83 107.774 140.221 104.053 140.221H101.655C99.9407 140.221 98.2755 140.839 96.9684 141.945C95.658 143.075 94.7909 144.619 94.5249 146.307L94.3442 147.289L91.3096 166.518L91.1716 167.224C91.1355 167.448 91.0731 167.559 90.9811 167.635C90.899 167.704 90.7808 167.75 90.6658 167.75H75.8636Z" fill="#253B80"/>
<path d="M127.696 97.1806C127.604 97.7685 127.499 98.3695 127.381 98.987C123.318 119.845 109.419 127.051 91.6676 127.051H82.6292C80.4583 127.051 78.629 128.628 78.2907 130.769L73.6631 160.117L72.3527 168.436C72.1327 169.842 73.2165 171.11 74.6353 171.11H90.6659C92.5642 171.11 94.1768 169.73 94.4756 167.858L94.6333 167.044L97.6515 147.89L97.8453 146.839C98.1409 144.96 99.7567 143.581 101.655 143.581H104.053C119.584 143.581 131.742 137.275 135.296 119.028C136.78 111.405 136.012 105.04 132.084 100.563C130.895 99.2136 129.42 98.0936 127.696 97.1806Z" fill="#179BD7"/>
<path d="M123.446 95.4859C122.826 95.3053 122.185 95.1411 121.528 94.9933C120.868 94.8488 120.192 94.7207 119.495 94.609C117.058 94.2149 114.388 94.0277 111.528 94.0277H87.3816C86.7871 94.0277 86.2222 94.1624 85.7164 94.4054C84.6031 94.9407 83.7754 95.995 83.5751 97.2857L78.4385 129.82L78.2907 130.769C78.6289 128.628 80.4583 127.051 82.6292 127.051H91.6675C109.419 127.051 123.318 119.842 127.381 98.987C127.502 98.3695 127.604 97.7685 127.696 97.1806C126.668 96.6354 125.555 96.1691 124.356 95.7717C124.06 95.6731 123.755 95.5779 123.446 95.4859Z" fill="#222D65"/>
<path d="M83.575 97.2857C83.7754 95.995 84.603 94.9407 85.7164 94.4087C86.2255 94.1656 86.7871 94.031 87.3815 94.031H111.528C114.388 94.031 117.058 94.2182 119.495 94.6123C120.192 94.7239 120.868 94.852 121.528 94.9965C122.185 95.1443 122.826 95.3085 123.446 95.4892C123.755 95.5811 124.06 95.6764 124.359 95.7716C125.558 96.169 126.671 96.6387 127.699 97.1806C128.908 89.4724 127.69 84.2241 123.522 79.4717C118.927 74.2399 110.634 72 100.023 72H69.2162C67.0485 72 65.1995 73.5765 64.8645 75.7211L52.0328 157.056C51.7799 158.666 53.0214 160.117 54.6438 160.117H73.6631L78.4384 129.82L83.575 97.2857Z" fill="#253B80"/>
<path d="M185.5 91H180.114V73.5455H185.739C187.432 73.5455 188.881 73.8949 190.085 74.5938C191.29 75.2869 192.213 76.2841 192.855 77.5852C193.497 78.8807 193.818 80.4318 193.818 82.2386C193.818 84.0568 193.494 85.6222 192.847 86.9347C192.199 88.2415 191.256 89.2472 190.017 89.9517C188.778 90.6506 187.273 91 185.5 91ZM182.227 89.125H185.364C186.807 89.125 188.003 88.8466 188.952 88.2898C189.901 87.733 190.608 86.9403 191.074 85.9119C191.54 84.8835 191.773 83.6591 191.773 82.2386C191.773 80.8295 191.543 79.6165 191.082 78.5994C190.622 77.5767 189.935 76.7926 189.02 76.2472C188.105 75.696 186.966 75.4205 185.602 75.4205H182.227V89.125ZM212.091 82.2727C212.091 84.1136 211.759 85.7045 211.094 87.0455C210.429 88.3864 209.517 89.4205 208.358 90.1477C207.199 90.875 205.875 91.2386 204.386 91.2386C202.898 91.2386 201.574 90.875 200.415 90.1477C199.256 89.4205 198.344 88.3864 197.679 87.0455C197.014 85.7045 196.682 84.1136 196.682 82.2727C196.682 80.4318 197.014 78.8409 197.679 77.5C198.344 76.1591 199.256 75.125 200.415 74.3977C201.574 73.6705 202.898 73.3068 204.386 73.3068C205.875 73.3068 207.199 73.6705 208.358 74.3977C209.517 75.125 210.429 76.1591 211.094 77.5C211.759 78.8409 212.091 80.4318 212.091 82.2727ZM210.045 82.2727C210.045 80.7614 209.793 79.4858 209.287 78.446C208.787 77.4062 208.108 76.6193 207.25 76.0852C206.398 75.5511 205.443 75.2841 204.386 75.2841C203.33 75.2841 202.372 75.5511 201.514 76.0852C200.662 76.6193 199.983 77.4062 199.477 78.446C198.977 79.4858 198.727 80.7614 198.727 82.2727C198.727 83.7841 198.977 85.0597 199.477 86.0994C199.983 87.1392 200.662 87.9261 201.514 88.4602C202.372 88.9943 203.33 89.2614 204.386 89.2614C205.443 89.2614 206.398 88.9943 207.25 88.4602C208.108 87.9261 208.787 87.1392 209.287 86.0994C209.793 85.0597 210.045 83.7841 210.045 82.2727ZM229.486 73.5455V91H227.44L217.929 77.2955H217.759V91H215.645V73.5455H217.69L227.236 87.2841H227.406V73.5455H229.486ZM234.431 91H232.215L238.624 73.5455H240.806L247.215 91H244.999L239.783 76.3068H239.647L234.431 91ZM235.249 84.1818H244.181V86.0568H235.249V84.1818ZM246.94 75.4205V73.5455H260.031V75.4205H254.543V91H252.429V75.4205H246.94ZM263.293 91V73.5455H273.827V75.4205H265.407V81.3182H273.282V83.1932H265.407V89.125H273.964V91H263.293ZM287.558 91L282.785 73.5455H284.933L288.58 87.7614H288.751L292.467 73.5455H294.853L298.569 87.7614H298.739L302.387 73.5455H304.535L299.762 91H297.58L293.728 77.0909H293.592L289.739 91H287.558ZM309.282 73.5455V91H307.168V73.5455H309.282ZM312.565 75.4205V73.5455H325.656V75.4205H320.168V91H318.054V75.4205H312.565ZM328.918 91V73.5455H331.032V81.3182H340.339V73.5455H342.452V91H340.339V83.1932H331.032V91H328.918Z" fill="black" fill-opacity="0.55"/>
</svg>
