<svg width="500" height="250" viewBox="0 0 500 250" fill="none" xmlns="http://www.w3.org/2000/svg">
<rect y="40" width="447" height="171" fill="#F1F2F4"/>
<path d="M190 118H170.555C169.224 118 168.093 118.967 167.885 120.28L160.02 170.143C159.864 171.127 160.626 172.014 161.624 172.014H170.907C172.238 172.014 173.37 171.047 173.577 169.731L175.698 156.282C175.903 154.966 177.037 153.999 178.365 153.999H184.521C197.33 153.999 204.723 147.801 206.653 135.517C207.523 130.144 206.69 125.921 204.174 122.964C201.41 119.717 196.508 118 190 118ZM192.243 136.211C191.18 143.189 185.849 143.189 180.694 143.189H177.76L179.818 130.158C179.94 129.37 180.623 128.79 181.419 128.79H182.764C186.275 128.79 189.588 128.79 191.299 130.792C192.32 131.986 192.633 133.76 192.243 136.211Z" fill="#253B80"/>
<path d="M248.125 135.99H238.814C238.02 135.99 237.335 136.57 237.213 137.357L236.801 139.962L236.149 139.018C234.134 136.092 229.638 135.114 225.152 135.114C214.862 135.114 206.073 142.907 204.362 153.84C203.472 159.293 204.737 164.508 207.83 168.144C210.668 171.488 214.728 172.881 219.559 172.881C227.85 172.881 232.448 167.55 232.448 167.55L232.032 170.137C231.876 171.127 232.638 172.014 233.63 172.014H242.018C243.352 172.014 244.477 171.047 244.688 169.731L249.72 137.86C249.88 136.879 249.121 135.99 248.125 135.99ZM235.146 154.113C234.247 159.432 230.025 163.004 224.64 163.004C221.936 163.004 219.775 162.136 218.387 160.493C217.011 158.861 216.488 156.538 216.926 153.951C217.765 148.676 222.058 144.989 227.361 144.989C230.005 144.989 232.155 145.867 233.571 147.525C234.989 149.199 235.552 151.537 235.146 154.113Z" fill="#253B80"/>
<path d="M297.718 135.99H288.361C287.468 135.99 286.629 136.433 286.123 137.175L273.217 156.185L267.747 137.917C267.403 136.774 266.348 135.99 265.154 135.99H255.959C254.841 135.99 254.065 137.081 254.42 138.133L264.727 168.38L255.037 182.059C254.275 183.137 255.043 184.618 256.36 184.618H265.705C266.593 184.618 267.423 184.186 267.926 183.458L299.049 138.534C299.794 137.459 299.029 135.99 297.718 135.99Z" fill="#253B80"/>
<path d="M328.699 118.003H309.25C307.923 118.003 306.791 118.97 306.583 120.283L298.719 170.146C298.562 171.13 299.325 172.017 300.317 172.017H310.297C311.224 172.017 312.017 171.34 312.162 170.419L314.394 156.285C314.599 154.968 315.733 154.002 317.061 154.002H323.214C336.026 154.002 343.415 147.803 345.349 135.52C346.222 130.147 345.383 125.924 342.867 122.967C340.106 119.72 335.207 118.003 328.699 118.003ZM330.942 136.214C329.881 143.192 324.55 143.192 319.392 143.192H316.461L318.522 130.161C318.645 129.373 319.321 128.793 320.12 128.793H321.465C324.974 128.793 328.289 128.793 330.001 130.795C331.021 131.989 331.331 133.763 330.942 136.214Z" fill="#179BD7"/>
<path d="M386.821 135.99H377.515C376.716 135.99 376.036 136.57 375.917 137.357L375.505 139.962L374.851 139.018C372.835 136.092 368.342 135.114 363.856 135.114C353.566 135.114 344.78 142.907 343.068 153.84C342.181 159.293 343.441 164.508 346.534 168.144C349.378 171.488 353.432 172.881 358.263 172.881C366.554 172.881 371.152 167.55 371.152 167.55L370.737 170.137C370.58 171.127 371.342 172.014 372.34 172.014H380.725C382.053 172.014 383.184 171.047 383.392 169.731L388.427 137.86C388.581 136.879 387.819 135.99 386.821 135.99ZM373.841 154.113C372.949 159.432 368.721 163.004 363.335 163.004C360.637 163.004 358.471 162.136 357.083 160.493C355.707 158.861 355.189 156.538 355.622 153.951C356.466 148.676 360.754 144.989 366.056 144.989C368.701 144.989 370.85 145.867 372.266 147.525C373.691 149.199 374.254 151.537 373.841 154.113Z" fill="#179BD7"/>
<path d="M397.799 119.37L389.818 170.146C389.661 171.13 390.423 172.017 391.416 172.017H399.44C400.773 172.017 401.905 171.05 402.109 169.734L409.98 119.874C410.136 118.89 409.374 118 408.382 118H399.397C398.604 118.003 397.921 118.583 397.799 119.37Z" fill="#179BD7"/>
<path d="M60.8636 169.75L62.5813 158.84L58.7551 158.751H40.4846L53.1817 78.2433C53.2211 78.0002 53.3492 77.7736 53.5364 77.6127C53.7236 77.4518 53.9633 77.3631 54.2129 77.3631H85.0195C95.2467 77.3631 102.305 79.4913 105.99 83.6919C107.717 85.6625 108.817 87.7217 109.349 89.9879C109.908 92.3657 109.918 95.2066 109.372 98.6715L109.333 98.9244V101.145L111.061 102.123C112.515 102.895 113.672 103.779 114.558 104.79C116.036 106.475 116.992 108.616 117.396 111.155C117.813 113.766 117.675 116.873 116.992 120.39C116.204 124.437 114.929 127.961 113.208 130.844C111.625 133.501 109.609 135.705 107.215 137.413C104.929 139.035 102.213 140.267 99.1419 141.055C96.1663 141.83 92.7737 142.221 89.0526 142.221H86.6551C84.9407 142.221 83.2755 142.839 81.9684 143.945C80.658 145.075 79.7909 146.619 79.5249 148.307L79.3442 149.289L76.3096 168.518L76.1716 169.224C76.1355 169.448 76.0731 169.559 75.9811 169.635C75.899 169.704 75.7808 169.75 75.6658 169.75H60.8636Z" fill="#253B80"/>
<path d="M112.696 99.1806C112.604 99.7685 112.499 100.37 112.381 100.987C108.318 121.845 94.4191 129.051 76.6676 129.051H67.6292C65.4583 129.051 63.629 130.628 63.2907 132.769L58.6631 162.117L57.3527 170.436C57.1327 171.842 58.2165 173.11 59.6353 173.11H75.6659C77.5642 173.11 79.1767 171.73 79.4756 169.858L79.6333 169.044L82.6515 149.89L82.8453 148.839C83.1409 146.96 84.7567 145.581 86.6551 145.581H89.0526C104.584 145.581 116.742 139.275 120.296 121.028C121.78 113.405 121.012 107.04 117.084 102.563C115.895 101.214 114.42 100.094 112.696 99.1806Z" fill="#179BD7"/>
<path d="M108.446 97.4859C107.826 97.3053 107.185 97.1411 106.528 96.9933C105.868 96.8488 105.192 96.7207 104.495 96.609C102.058 96.2149 99.3882 96.0277 96.5276 96.0277H72.3816C71.7871 96.0277 71.2222 96.1623 70.7164 96.4054C69.6031 96.9407 68.7754 97.995 68.5751 99.2857L63.4385 131.82L63.2907 132.769C63.6289 130.628 65.4583 129.051 67.6292 129.051H76.6675C94.4191 129.051 108.318 121.842 112.381 100.987C112.502 100.37 112.604 99.7685 112.696 99.1806C111.668 98.6354 110.555 98.169 109.356 97.7716C109.06 97.6731 108.755 97.5779 108.446 97.4859Z" fill="#222D65"/>
<path d="M68.575 99.2857C68.7754 97.995 69.603 96.9407 70.7164 96.4087C71.2255 96.1656 71.7871 96.031 72.3815 96.031H96.5276C99.3882 96.031 102.058 96.2182 104.495 96.6123C105.192 96.7239 105.868 96.852 106.528 96.9965C107.185 97.1443 107.825 97.3085 108.446 97.4892C108.755 97.5811 109.06 97.6764 109.359 97.7716C110.558 98.169 111.671 98.6387 112.699 99.1806C113.908 91.4724 112.69 86.2241 108.522 81.4717C103.927 76.2399 95.6342 74 85.0227 74H54.2162C52.0485 74 50.1995 75.5765 49.8645 77.7211L37.0328 159.056C36.7799 160.666 38.0214 162.117 39.6438 162.117H58.6631L63.4384 131.82L68.575 99.2857Z" fill="#253B80"/>
<path d="M167.5 93H162.114V75.5455H167.739C169.432 75.5455 170.881 75.8949 172.085 76.5938C173.29 77.2869 174.213 78.2841 174.855 79.5852C175.497 80.8807 175.818 82.4318 175.818 84.2386C175.818 86.0568 175.494 87.6222 174.847 88.9347C174.199 90.2415 173.256 91.2472 172.017 91.9517C170.778 92.6506 169.273 93 167.5 93ZM164.227 91.125H167.364C168.807 91.125 170.003 90.8466 170.952 90.2898C171.901 89.733 172.608 88.9403 173.074 87.9119C173.54 86.8835 173.773 85.6591 173.773 84.2386C173.773 82.8295 173.543 81.6165 173.082 80.5994C172.622 79.5767 171.935 78.7926 171.02 78.2472C170.105 77.696 168.966 77.4205 167.602 77.4205H164.227V91.125ZM194.091 84.2727C194.091 86.1136 193.759 87.7045 193.094 89.0455C192.429 90.3864 191.517 91.4205 190.358 92.1477C189.199 92.875 187.875 93.2386 186.386 93.2386C184.898 93.2386 183.574 92.875 182.415 92.1477C181.256 91.4205 180.344 90.3864 179.679 89.0455C179.014 87.7045 178.682 86.1136 178.682 84.2727C178.682 82.4318 179.014 80.8409 179.679 79.5C180.344 78.1591 181.256 77.125 182.415 76.3977C183.574 75.6705 184.898 75.3068 186.386 75.3068C187.875 75.3068 189.199 75.6705 190.358 76.3977C191.517 77.125 192.429 78.1591 193.094 79.5C193.759 80.8409 194.091 82.4318 194.091 84.2727ZM192.045 84.2727C192.045 82.7614 191.793 81.4858 191.287 80.446C190.787 79.4062 190.108 78.6193 189.25 78.0852C188.398 77.5511 187.443 77.2841 186.386 77.2841C185.33 77.2841 184.372 77.5511 183.514 78.0852C182.662 78.6193 181.983 79.4062 181.477 80.446C180.977 81.4858 180.727 82.7614 180.727 84.2727C180.727 85.7841 180.977 87.0597 181.477 88.0994C181.983 89.1392 182.662 89.9261 183.514 90.4602C184.372 90.9943 185.33 91.2614 186.386 91.2614C187.443 91.2614 188.398 90.9943 189.25 90.4602C190.108 89.9261 190.787 89.1392 191.287 88.0994C191.793 87.0597 192.045 85.7841 192.045 84.2727ZM211.486 75.5455V93H209.44L199.929 79.2955H199.759V93H197.645V75.5455H199.69L209.236 89.2841H209.406V75.5455H211.486ZM216.431 93H214.215L220.624 75.5455H222.806L229.215 93H226.999L221.783 78.3068H221.647L216.431 93ZM217.249 86.1818H226.181V88.0568H217.249V86.1818ZM228.94 77.4205V75.5455H242.031V77.4205H236.543V93H234.429V77.4205H228.94ZM245.293 93V75.5455H255.827V77.4205H247.407V83.3182H255.282V85.1932H247.407V91.125H255.964V93H245.293ZM269.558 93L264.785 75.5455H266.933L270.58 89.7614H270.751L274.467 75.5455H276.853L280.569 89.7614H280.739L284.387 75.5455H286.535L281.762 93H279.58L275.728 79.0909H275.592L271.739 93H269.558ZM291.282 75.5455V93H289.168V75.5455H291.282ZM294.565 77.4205V75.5455H307.656V77.4205H302.168V93H300.054V77.4205H294.565ZM310.918 93V75.5455H313.032V83.3182H322.339V75.5455H324.452V93H322.339V85.1932H313.032V93H310.918Z" fill="black" fill-opacity="0.55"/>
</svg>
