<svg width="364" height="150" viewBox="0 0 364 150" fill="none" xmlns="http://www.w3.org/2000/svg">
<path d="M324.324 15H0V135H324.324V15Z" fill="#F0F1F4"/>
<path d="M112.476 53.1288C111.909 53.1288 111.427 53.5407 111.338 54.1015L104.771 95.7503C104.747 95.9019 104.757 96.0576 104.798 96.206C104.84 96.3535 104.914 96.4913 105.014 96.6081C105.114 96.7257 105.238 96.8189 105.378 96.8838C105.518 96.9478 105.671 96.9819 105.825 96.9819H113.612C114.179 96.9819 114.662 96.5692 114.751 96.0089L116.68 83.7786C116.767 83.2184 117.251 82.8057 117.818 82.8057H124.899C133.172 82.8057 140.196 76.7692 141.478 68.5889C142.772 60.3397 136.327 53.1467 127.194 53.1288H112.476ZM120.047 62.4259H125.713C130.377 62.4259 131.896 65.1787 131.415 68.2216C130.935 71.2719 128.577 73.5186 124.065 73.5186H118.298L120.047 62.4259ZM157.319 65.2573C155.352 65.2646 153.089 65.6676 150.549 66.7257C144.722 69.1549 141.923 74.1746 140.734 77.8346C140.734 77.8346 136.952 89.0003 145.498 95.1349C145.498 95.1349 153.424 101.04 162.346 94.7708L162.192 95.7503C162.169 95.9019 162.178 96.0576 162.22 96.2051C162.261 96.3535 162.335 96.4905 162.435 96.6073C162.534 96.7249 162.658 96.8189 162.799 96.883C162.938 96.9478 163.09 96.9811 163.244 96.9819H170.638C171.205 96.9819 171.687 96.5692 171.775 96.0089L176.273 67.4878C176.297 67.3354 176.288 67.1797 176.246 67.0322C176.205 66.8838 176.131 66.746 176.031 66.6292C175.931 66.5116 175.807 66.4176 175.667 66.3527C175.528 66.2887 175.375 66.2546 175.221 66.2546H167.827C167.261 66.2546 166.777 66.6673 166.69 67.2276L166.448 68.7624C166.448 68.7624 163.219 65.2354 157.319 65.2573ZM157.561 74.2662C158.41 74.2662 159.186 74.383 159.883 74.6068C163.073 75.6308 164.882 78.6957 164.359 82.0176C163.712 86.1081 160.358 89.1203 156.056 89.1203C155.208 89.1203 154.432 89.0035 153.734 88.7797C150.545 87.7557 148.725 84.6908 149.248 81.3689C149.894 77.2784 153.259 74.2662 157.561 74.2662Z" fill="#003087"/>
<path d="M218.947 53.1288C218.381 53.1288 217.898 53.5407 217.81 54.1015L211.242 95.7503C211.219 95.9019 211.228 96.0576 211.27 96.206C211.312 96.3535 211.385 96.4913 211.485 96.6081C211.585 96.7257 211.71 96.8189 211.849 96.8838C211.99 96.9478 212.141 96.9819 212.295 96.9819H220.084C220.651 96.9819 221.133 96.5692 221.222 96.0089L223.151 83.7786C223.239 83.2184 223.721 82.8057 224.289 82.8057H231.37C239.643 82.8057 246.666 76.7692 247.948 68.5889C249.242 60.3397 242.799 53.1467 233.664 53.1288H218.947ZM226.519 62.4259H232.184C236.848 62.4259 238.367 65.1787 237.887 68.2216C237.407 71.2719 235.048 73.5186 230.535 73.5186H224.77L226.519 62.4259ZM263.789 65.2573C261.823 65.2646 259.56 65.6676 257.019 66.7257C251.192 69.1549 248.393 74.1746 247.205 77.8346C247.205 77.8346 243.424 89.0003 251.97 95.1349C251.97 95.1349 259.894 101.04 268.817 94.7708L268.664 95.7503C268.639 95.9019 268.649 96.0576 268.691 96.206C268.733 96.3535 268.806 96.4913 268.907 96.6081C269.007 96.7257 269.131 96.8189 269.271 96.8838C269.411 96.9478 269.563 96.9819 269.717 96.9819H277.11C277.677 96.9819 278.159 96.5692 278.248 96.0089L282.747 67.4878C282.771 67.3354 282.761 67.1797 282.72 67.0314C282.678 66.883 282.604 66.746 282.504 66.6284C282.404 66.5108 282.28 66.4168 282.139 66.3527C282 66.2878 281.848 66.2546 281.694 66.2546H274.3C273.732 66.2546 273.25 66.6673 273.161 67.2276L272.92 68.7624C272.92 68.7624 269.69 65.2354 263.789 65.2573ZM264.031 74.2662C264.88 74.2662 265.656 74.383 266.354 74.6068C269.543 75.6308 271.352 78.6957 270.829 82.0176C270.183 86.1081 266.829 89.1203 262.527 89.1203C261.679 89.1203 260.902 89.0035 260.205 88.7797C257.015 87.7557 255.195 84.6908 255.718 81.3689C256.364 77.2784 259.729 74.2662 264.031 74.2662Z" fill="#0070E0"/>
<path d="M179.781 66.2546C179.195 66.2546 178.778 66.827 178.957 67.3841L187.063 92.5378L179.734 104.391C179.378 104.967 179.792 105.71 180.468 105.71H189.131C189.379 105.71 189.622 105.645 189.838 105.524C190.053 105.402 190.234 105.227 190.362 105.015L213.001 67.5649C213.348 66.99 212.933 66.2538 212.261 66.2538H203.599C203.349 66.2538 203.102 66.3195 202.886 66.4435C202.669 66.5676 202.487 66.7459 202.36 66.9608L193.449 82.0054L188.925 67.0727C188.778 66.587 188.329 66.2538 187.823 66.2538L179.781 66.2546Z" fill="#003087"/>
<path d="M291.148 53.1288C290.581 53.1288 290.098 53.5415 290.009 54.1015L283.44 95.7486C283.416 95.9003 283.425 96.0559 283.468 96.2043C283.509 96.3527 283.583 96.4905 283.682 96.6081C283.783 96.7249 283.907 96.8189 284.047 96.8838C284.187 96.9478 284.339 96.9819 284.493 96.9819H292.282C292.849 96.9819 293.331 96.5692 293.42 96.0089L299.987 54.3604C300.011 54.2084 300.002 54.053 299.96 53.905C299.918 53.7569 299.844 53.6197 299.745 53.5027C299.645 53.3857 299.521 53.2917 299.381 53.2271C299.241 53.1626 299.089 53.129 298.935 53.1288H291.148Z" fill="#0070E0"/>
<path d="M47.546 53.1288C47.0443 53.1292 46.5592 53.3085 46.1779 53.6346C45.7965 53.9605 45.5438 54.4118 45.4654 54.9073L42.0083 76.8332C42.1695 75.8092 43.0519 75.0551 44.0889 75.0551H54.2192C64.4145 75.0551 73.0657 67.6176 74.6466 57.5384C74.7641 56.7859 74.8309 56.0262 74.846 55.2649C72.255 53.9062 69.2115 53.1288 65.8765 53.1288H47.546Z" fill="#001C64"/>
<path d="M74.8463 55.2657C74.8311 56.027 74.7645 56.7868 74.6468 57.5392C73.066 67.6184 64.414 75.0559 54.2195 75.0559H44.0892C43.053 75.0559 42.1698 75.8092 42.0087 76.8341L38.83 96.9827L36.8389 109.622C36.8 109.866 36.8146 110.116 36.8816 110.354C36.9486 110.592 37.0665 110.813 37.2272 111.001C37.3877 111.189 37.5872 111.34 37.8118 111.444C38.0363 111.546 38.2807 111.6 38.5279 111.6H49.5235C50.0252 111.6 50.5103 111.421 50.8917 111.094C51.273 110.768 51.5256 110.317 51.604 109.822L54.5003 91.4522C54.5788 90.9559 54.8316 90.5043 55.2133 90.1784C55.595 89.8524 56.0805 89.6732 56.5825 89.6732H63.0563C73.2516 89.6732 81.9032 82.2357 83.4835 72.1573C84.6065 65.0035 81.0034 58.4935 74.8463 55.2657Z" fill="#0070E0"/>
<path d="M35.0546 38.5135C34.0184 38.5135 33.1352 39.2672 32.974 40.2905L24.3456 95.0043C24.1819 96.043 24.9846 96.9827 26.0363 96.9827H38.8316L42.0086 76.8341L45.4656 54.9081C45.5441 54.4128 45.7968 53.9615 46.1781 53.6355C46.5594 53.3095 47.0445 53.1302 47.5463 53.1298H65.8768C69.2126 53.1298 72.2553 53.9079 74.8463 55.2657C75.0238 46.0894 67.4518 38.5135 57.0416 38.5135H35.0546Z" fill="#003087"/>
</svg>
