<svg width="450" height="250" viewBox="0 0 450 250" fill="none" xmlns="http://www.w3.org/2000/svg">
<path d="M395.733 50H24.2667C10.8646 50 0 60.8427 0 74.2177V174.815C0 188.19 10.8646 199.032 24.2667 199.032H395.733C409.135 199.032 420 188.19 420 174.815V74.2177C420 60.8427 409.135 50 395.733 50Z" fill="#F1F2F4"/>
<path d="M180.6 108.092H162.451C161.209 108.092 160.153 108.995 159.959 110.22L152.619 156.759C152.473 157.678 153.184 158.506 154.116 158.506H162.78C164.022 158.506 165.079 157.603 165.272 156.375L167.251 143.822C167.443 142.594 168.501 141.692 169.741 141.692H175.486C187.441 141.692 194.341 135.907 196.143 124.442C196.955 119.427 196.177 115.485 193.829 112.726C191.249 109.695 186.674 108.092 180.6 108.092ZM182.693 125.089C181.701 131.602 176.726 131.602 171.914 131.602H169.176L171.097 119.44C171.211 118.704 171.848 118.163 172.591 118.163H173.846C177.123 118.163 180.215 118.163 181.812 120.032C182.765 121.146 183.057 122.802 182.693 125.089Z" fill="#253B80"/>
<path d="M234.85 124.883H226.16C225.419 124.883 224.779 125.424 224.665 126.159L224.281 128.59L223.672 127.709C221.792 124.978 217.595 124.066 213.408 124.066C203.804 124.066 195.601 131.339 194.004 141.543C193.174 146.633 194.354 151.5 197.241 154.894C199.89 158.015 203.679 159.315 208.188 159.315C215.927 159.315 220.217 154.339 220.217 154.339L219.83 156.754C219.684 157.678 220.395 158.506 221.321 158.506H229.15C230.395 158.506 231.445 157.603 231.642 156.375L236.339 126.628C236.488 125.713 235.78 124.883 234.85 124.883ZM222.736 141.798C221.897 146.762 217.957 150.096 212.931 150.096C210.407 150.096 208.39 149.286 207.094 147.753C205.81 146.229 205.322 144.061 205.731 141.647C206.514 136.723 210.521 133.282 215.47 133.282C217.938 133.282 219.945 134.102 221.266 135.649C222.59 137.212 223.115 139.394 222.736 141.798Z" fill="#253B80"/>
<path d="M281.137 124.883H272.404C271.57 124.883 270.787 125.297 270.315 125.989L258.269 143.732L253.164 126.682C252.843 125.615 251.858 124.883 250.744 124.883H242.162C241.118 124.883 240.394 125.901 240.725 126.883L250.345 155.114L241.301 167.881C240.59 168.887 241.307 170.269 242.536 170.269H251.258C252.087 170.269 252.861 169.866 253.331 169.187L282.379 127.258C283.074 126.254 282.36 124.883 281.137 124.883Z" fill="#253B80"/>
<path d="M310.052 108.095H291.9C290.661 108.095 289.605 108.998 289.411 110.223L282.071 156.762C281.925 157.68 282.637 158.508 283.563 158.508H292.877C293.742 158.508 294.483 157.876 294.618 157.017L296.701 143.825C296.892 142.596 297.951 141.694 299.19 141.694H304.933C316.891 141.694 323.787 135.909 325.592 124.444C326.407 119.43 325.624 115.488 323.276 112.728C320.699 109.698 316.127 108.095 310.052 108.095ZM312.146 125.092C311.156 131.605 306.18 131.605 301.366 131.605H298.63L300.554 119.443C300.669 118.707 301.3 118.166 302.045 118.166H303.301C306.576 118.166 309.67 118.166 311.268 120.034C312.22 121.149 312.509 122.805 312.146 125.092Z" fill="#179BD7"/>
<path d="M364.3 124.883H355.614C354.868 124.883 354.234 125.424 354.122 126.159L353.738 128.59L353.128 127.709C351.246 124.978 347.052 124.066 342.866 124.066C333.262 124.066 325.061 131.339 323.463 141.543C322.636 146.633 323.812 151.5 326.698 154.894C329.353 158.015 333.136 159.315 337.645 159.315C345.384 159.315 349.675 154.339 349.675 154.339L349.288 156.754C349.141 157.678 349.852 158.506 350.784 158.506H358.61C359.849 158.506 360.905 157.603 361.099 156.375L365.798 126.628C365.942 125.713 365.231 124.883 364.3 124.883ZM352.185 141.798C351.352 146.762 347.406 150.096 342.379 150.096C339.861 150.096 337.84 149.286 336.544 147.753C335.26 146.229 334.776 144.061 335.18 141.647C335.968 136.723 339.97 133.282 344.919 133.282C347.388 133.282 349.393 134.102 350.715 135.649C352.045 137.212 352.57 139.394 352.185 141.798Z" fill="#179BD7"/>
<path d="M374.546 109.371L367.097 156.762C366.95 157.68 367.661 158.508 368.588 158.508H376.077C377.321 158.508 378.378 157.606 378.568 156.378L385.915 109.842C386.06 108.923 385.349 108.092 384.423 108.092H376.037C375.297 108.095 374.66 108.637 374.546 109.371Z" fill="#179BD7"/>
<path d="M57.2727 167.592L58.8758 157.41L55.3047 157.327H38.2523L50.1029 82.1862C50.1397 81.9593 50.2592 81.7478 50.4339 81.5976C50.6087 81.4475 50.8324 81.3647 51.0653 81.3647H79.8182C89.3635 81.3647 95.9513 83.351 99.3906 87.2716C101.002 89.1108 102.029 91.0327 102.526 93.1478C103.047 95.3671 103.057 98.0186 102.547 101.253L102.511 101.489V103.561L104.124 104.474C105.481 105.194 106.56 106.02 107.387 106.963C108.767 108.536 109.659 110.534 110.036 112.904C110.425 115.341 110.297 118.241 109.659 121.523C108.924 125.3 107.734 128.589 106.127 131.28C104.65 133.76 102.768 135.817 100.534 137.411C98.4004 138.925 95.8654 140.075 92.9991 140.81C90.2218 141.534 87.0554 141.899 83.5824 141.899H81.3447C79.7446 141.899 78.1904 142.476 76.9705 143.508C75.7474 144.562 74.9381 146.004 74.6899 147.579L74.5212 148.496L71.6889 166.443L71.5601 167.102C71.5264 167.311 71.4682 167.414 71.3823 167.485C71.3057 167.55 71.1954 167.592 71.088 167.592H57.2727Z" fill="#253B80"/>
<path d="M105.65 101.728C105.564 102.276 105.466 102.837 105.356 103.414C101.563 122.881 88.5912 129.607 72.0231 129.607H63.5873C61.5611 129.607 59.8537 131.079 59.538 133.077L55.2189 160.468L53.9959 168.233C53.7905 169.545 54.8021 170.728 56.1263 170.728H71.0882C72.8599 170.728 74.3649 169.44 74.6439 167.693L74.7911 166.934L77.6081 149.056L77.7889 148.076C78.0648 146.322 79.5729 145.035 81.3448 145.035H83.5824C98.0784 145.035 109.426 139.149 112.743 122.119C114.128 115.004 113.411 109.063 109.745 104.885C108.635 103.625 107.259 102.58 105.65 101.728Z" fill="#179BD7"/>
<path d="M101.683 100.146C101.104 99.9774 100.506 99.8242 99.8928 99.6862C99.2768 99.5514 98.6459 99.4318 97.9953 99.3275C95.7208 98.9597 93.229 98.785 90.5591 98.785H68.0228C67.468 98.785 66.9407 98.9107 66.4686 99.1375C65.4296 99.6371 64.6571 100.621 64.4701 101.826L59.6759 132.191L59.538 133.077C59.8536 131.079 61.5611 129.607 63.5873 129.607H72.023C88.5912 129.607 101.563 122.878 105.356 103.414C105.469 102.837 105.564 102.276 105.65 101.728C104.69 101.219 103.651 100.784 102.532 100.413C102.256 100.321 101.971 100.232 101.683 100.146Z" fill="#222D65"/>
<path d="M64.47 101.826C64.657 100.621 65.4295 99.6371 66.4686 99.1406C66.9438 98.9137 67.468 98.7881 68.0227 98.7881H90.5591C93.229 98.7881 95.7208 98.9628 97.9953 99.3306C98.6459 99.4348 99.2768 99.5543 99.8928 99.6892C100.506 99.8271 101.103 99.9804 101.683 100.149C101.971 100.235 102.256 100.324 102.535 100.413C103.654 100.784 104.693 101.222 105.652 101.728C106.781 94.5334 105.644 89.635 101.754 85.1994C97.4652 80.3164 89.7253 78.2258 79.8212 78.2258H51.0685C49.0453 78.2258 47.3195 79.6972 47.0069 81.6988L35.0306 157.611C34.7946 159.114 35.9533 160.468 37.4676 160.468H55.2189L59.6758 132.191L64.47 101.826Z" fill="#253B80"/>
<path d="M159.6 95.9591H154.573V79.6683H159.823C161.403 79.6683 162.756 79.9944 163.879 80.6467C165.004 81.2936 165.865 82.2243 166.465 83.4387C167.064 84.6478 167.363 86.0955 167.363 87.7818C167.363 89.4788 167.061 90.9399 166.457 92.1649C165.852 93.3845 164.972 94.3232 163.816 94.9807C162.659 95.633 161.255 95.9591 159.6 95.9591ZM156.545 94.2091H159.473C160.82 94.2091 161.936 93.9493 162.822 93.4296C163.708 92.91 164.367 92.1701 164.802 91.2103C165.237 90.2504 165.455 89.1076 165.455 87.7818C165.455 86.4667 165.24 85.3346 164.81 84.3853C164.381 83.4307 163.739 82.6989 162.885 82.1899C162.031 81.6754 160.968 81.4183 159.695 81.4183H156.545V94.2091ZM184.418 87.8137C184.418 89.5318 184.108 91.0167 183.488 92.2683C182.867 93.5198 182.016 94.4849 180.934 95.1637C179.852 95.8425 178.617 96.1818 177.227 96.1818C175.838 96.1818 174.602 95.8425 173.521 95.1637C172.439 94.4849 171.588 93.5198 170.967 92.2683C170.346 91.0167 170.037 89.5318 170.037 87.8137C170.037 86.0955 170.346 84.6107 170.967 83.3591C171.588 82.1076 172.439 81.1425 173.521 80.4637C174.602 79.7849 175.838 79.4455 177.227 79.4455C178.617 79.4455 179.852 79.7849 180.934 80.4637C182.016 81.1425 182.867 82.1076 183.488 83.3591C184.108 84.6107 184.418 86.0955 184.418 87.8137ZM182.509 87.8137C182.509 86.4031 182.273 85.2126 181.801 84.2421C181.335 83.2716 180.701 82.5372 179.9 82.0387C179.105 81.5402 178.213 81.291 177.227 81.291C176.241 81.291 175.347 81.5402 174.546 82.0387C173.751 82.5372 173.117 83.2716 172.645 84.2421C172.179 85.2126 171.945 86.4031 171.945 87.8137C171.945 89.2243 172.179 90.4149 172.645 91.3853C173.117 92.3557 173.751 93.0902 174.546 93.5887C175.347 94.0872 176.241 94.3365 177.227 94.3365C178.213 94.3365 179.105 94.0872 179.9 93.5887C180.701 93.0902 181.335 92.3557 181.801 91.3853C182.273 90.4149 182.509 89.2243 182.509 87.8137ZM200.654 79.6683V95.9591H198.744L189.867 83.1683H189.708V95.9591H187.735V79.6683H189.644L198.554 92.491H198.712V79.6683H200.654ZM205.269 95.9591H203.201L209.182 79.6683H211.219L217.201 95.9591H215.132L210.264 82.2455H210.137L205.269 95.9591ZM206.032 89.5955H214.369V91.3455H206.032V89.5955ZM216.944 81.4183V79.6683H229.162V81.4183H224.04V95.9591H222.067V81.4183H216.944ZM232.207 95.9591V79.6683H242.039V81.4183H234.18V86.9228H241.53V88.6728H234.18V94.2091H242.166V95.9591H232.207ZM254.854 95.9591L250.399 79.6683H252.404L255.808 92.9365H255.968L259.436 79.6683H261.663L265.131 92.9365H265.29L268.695 79.6683H270.699L266.245 95.9591H264.208L260.613 82.9773H260.486L256.89 95.9591H254.854ZM275.13 79.6683V95.9591H273.157V79.6683H275.13ZM278.194 81.4183V79.6683H290.412V81.4183H285.29V95.9591H283.317V81.4183H278.194ZM293.457 95.9591V79.6683H295.43V86.9228H304.116V79.6683H306.089V95.9591H304.116V88.6728H295.43V95.9591H293.457Z" fill="black" fill-opacity="0.55"/>
</svg>
