<svg width="500" height="250" viewBox="0 0 500 250" fill="none" xmlns="http://www.w3.org/2000/svg">
<rect y="40" width="450" height="160" rx="26" fill="#F1F2F4"/>
<path d="M193 104H173.555C172.224 104 171.093 104.967 170.885 106.28L163.02 156.143C162.864 157.127 163.626 158.014 164.624 158.014H173.907C175.238 158.014 176.37 157.047 176.577 155.731L178.698 142.282C178.903 140.966 180.037 139.999 181.365 139.999H187.521C200.33 139.999 207.723 133.801 209.653 121.517C210.523 116.144 209.69 111.921 207.174 108.964C204.41 105.717 199.508 104 193 104ZM195.243 122.211C194.18 129.189 188.849 129.189 183.694 129.189H180.76L182.818 116.158C182.94 115.37 183.623 114.79 184.419 114.79H185.764C189.275 114.79 192.588 114.79 194.299 116.792C195.32 117.986 195.633 119.76 195.243 122.211Z" fill="#253B80"/>
<path d="M251.125 121.99H241.814C241.02 121.99 240.335 122.57 240.213 123.357L239.801 125.962L239.149 125.018C237.134 122.092 232.638 121.114 228.152 121.114C217.862 121.114 209.073 128.907 207.362 139.84C206.472 145.293 207.737 150.508 210.83 154.144C213.668 157.488 217.728 158.881 222.559 158.881C230.85 158.881 235.447 153.55 235.447 153.55L235.032 156.137C234.876 157.127 235.638 158.014 236.63 158.014H245.018C246.352 158.014 247.477 157.047 247.688 155.731L252.72 123.86C252.88 122.879 252.121 121.99 251.125 121.99ZM238.146 140.113C237.247 145.432 233.025 149.004 227.64 149.004C224.936 149.004 222.775 148.136 221.387 146.493C220.011 144.861 219.488 142.538 219.926 139.951C220.765 134.676 225.058 130.989 230.361 130.989C233.005 130.989 235.155 131.867 236.571 133.525C237.989 135.199 238.552 137.537 238.146 140.113Z" fill="#253B80"/>
<path d="M300.718 121.99H291.361C290.468 121.99 289.629 122.433 289.123 123.175L276.217 142.185L270.747 123.917C270.403 122.774 269.348 121.99 268.154 121.99H258.959C257.841 121.99 257.065 123.081 257.42 124.133L267.727 154.38L258.037 168.059C257.275 169.137 258.043 170.618 259.36 170.618H268.705C269.593 170.618 270.423 170.186 270.926 169.458L302.049 124.534C302.794 123.459 302.029 121.99 300.718 121.99Z" fill="#253B80"/>
<path d="M331.699 104.003H312.25C310.923 104.003 309.791 104.97 309.583 106.283L301.719 156.146C301.562 157.13 302.325 158.017 303.317 158.017H313.297C314.224 158.017 315.017 157.34 315.162 156.419L317.394 142.285C317.599 140.968 318.733 140.002 320.061 140.002H326.214C339.026 140.002 346.415 133.803 348.349 121.52C349.222 116.147 348.383 111.924 345.867 108.967C343.106 105.72 338.207 104.003 331.699 104.003ZM333.942 122.214C332.881 129.192 327.55 129.192 322.392 129.192H319.461L321.522 116.161C321.645 115.373 322.321 114.793 323.12 114.793H324.465C327.974 114.793 331.289 114.793 333.001 116.795C334.021 117.989 334.331 119.763 333.942 122.214Z" fill="#179BD7"/>
<path d="M389.821 121.99H380.515C379.716 121.99 379.036 122.57 378.917 123.357L378.505 125.962L377.851 125.018C375.835 122.092 371.342 121.114 366.856 121.114C356.566 121.114 347.78 128.907 346.068 139.84C345.181 145.293 346.441 150.508 349.534 154.144C352.378 157.488 356.432 158.881 361.263 158.881C369.554 158.881 374.152 153.55 374.152 153.55L373.737 156.137C373.58 157.127 374.342 158.014 375.34 158.014H383.725C385.053 158.014 386.184 157.047 386.392 155.731L391.427 123.86C391.581 122.879 390.819 121.99 389.821 121.99ZM376.841 140.113C375.949 145.432 371.721 149.004 366.335 149.004C363.637 149.004 361.471 148.136 360.083 146.493C358.707 144.861 358.189 142.538 358.622 139.951C359.466 134.676 363.754 130.989 369.056 130.989C371.701 130.989 373.85 131.867 375.266 133.525C376.691 135.199 377.254 137.537 376.841 140.113Z" fill="#179BD7"/>
<path d="M400.799 105.37L392.818 156.146C392.661 157.13 393.423 158.017 394.416 158.017H402.44C403.773 158.017 404.905 157.05 405.109 155.734L412.98 105.874C413.136 104.89 412.374 104 411.382 104H402.397C401.604 104.003 400.921 104.583 400.799 105.37Z" fill="#179BD7"/>
<path d="M60.8636 167.75L62.5813 156.84L58.7551 156.751H40.4846L53.1817 76.2433C53.2211 76.0002 53.3492 75.7736 53.5364 75.6127C53.7236 75.4518 53.9633 75.3631 54.2129 75.3631H85.0195C95.2467 75.3631 102.305 77.4913 105.99 81.6919C107.717 83.6625 108.817 85.7217 109.349 87.9879C109.908 90.3657 109.918 93.2066 109.372 96.6715L109.333 96.9244V99.1446L111.061 100.123C112.515 100.895 113.672 101.779 114.558 102.79C116.036 104.475 116.992 106.616 117.396 109.155C117.813 111.766 117.675 114.873 116.992 118.39C116.204 122.437 114.929 125.961 113.208 128.844C111.625 131.501 109.609 133.705 107.215 135.413C104.929 137.035 102.213 138.267 99.1419 139.055C96.1663 139.83 92.7737 140.221 89.0526 140.221H86.6551C84.9407 140.221 83.2755 140.839 81.9684 141.945C80.658 143.075 79.7909 144.619 79.5249 146.307L79.3442 147.289L76.3096 166.518L76.1716 167.224C76.1355 167.448 76.0731 167.559 75.9811 167.635C75.899 167.704 75.7808 167.75 75.6658 167.75H60.8636Z" fill="#253B80"/>
<path d="M112.696 97.1806C112.604 97.7685 112.499 98.3695 112.381 98.987C108.318 119.845 94.4191 127.051 76.6676 127.051H67.6292C65.4583 127.051 63.629 128.628 63.2907 130.769L58.6631 160.117L57.3527 168.436C57.1327 169.842 58.2165 171.11 59.6353 171.11H75.6659C77.5642 171.11 79.1767 169.73 79.4756 167.858L79.6333 167.044L82.6515 147.89L82.8453 146.839C83.1409 144.96 84.7567 143.581 86.6551 143.581H89.0526C104.584 143.581 116.742 137.275 120.296 119.028C121.78 111.405 121.012 105.04 117.084 100.563C115.895 99.2136 114.42 98.0936 112.696 97.1806Z" fill="#179BD7"/>
<path d="M108.446 95.4859C107.826 95.3053 107.185 95.1411 106.528 94.9933C105.868 94.8488 105.192 94.7207 104.495 94.609C102.058 94.2149 99.3882 94.0277 96.5276 94.0277H72.3816C71.7871 94.0277 71.2222 94.1624 70.7164 94.4054C69.6031 94.9407 68.7754 95.995 68.5751 97.2857L63.4385 129.82L63.2907 130.769C63.6289 128.628 65.4583 127.051 67.6292 127.051H76.6675C94.4191 127.051 108.318 119.842 112.381 98.987C112.502 98.3695 112.604 97.7685 112.696 97.1806C111.668 96.6354 110.555 96.1691 109.356 95.7717C109.06 95.6731 108.755 95.5779 108.446 95.4859Z" fill="#222D65"/>
<path d="M68.575 97.2857C68.7754 95.995 69.603 94.9407 70.7164 94.4087C71.2255 94.1656 71.7871 94.031 72.3815 94.031H96.5276C99.3882 94.031 102.058 94.2182 104.495 94.6123C105.192 94.7239 105.868 94.852 106.528 94.9965C107.185 95.1443 107.825 95.3085 108.446 95.4892C108.755 95.5811 109.06 95.6764 109.359 95.7716C110.558 96.169 111.671 96.6387 112.699 97.1806C113.908 89.4724 112.69 84.2241 108.522 79.4717C103.927 74.2399 95.6342 72 85.0227 72H54.2162C52.0485 72 50.1995 73.5765 49.8645 75.7211L37.0328 157.056C36.7799 158.666 38.0214 160.117 39.6438 160.117H58.6631L63.4384 129.82L68.575 97.2857Z" fill="#253B80"/>
<path d="M170.5 91H165.114V73.5455H170.739C172.432 73.5455 173.881 73.8949 175.085 74.5938C176.29 75.2869 177.213 76.2841 177.855 77.5852C178.497 78.8807 178.818 80.4318 178.818 82.2386C178.818 84.0568 178.494 85.6222 177.847 86.9347C177.199 88.2415 176.256 89.2472 175.017 89.9517C173.778 90.6506 172.273 91 170.5 91ZM167.227 89.125H170.364C171.807 89.125 173.003 88.8466 173.952 88.2898C174.901 87.733 175.608 86.9403 176.074 85.9119C176.54 84.8835 176.773 83.6591 176.773 82.2386C176.773 80.8295 176.543 79.6165 176.082 78.5994C175.622 77.5767 174.935 76.7926 174.02 76.2472C173.105 75.696 171.966 75.4205 170.602 75.4205H167.227V89.125ZM197.091 82.2727C197.091 84.1136 196.759 85.7045 196.094 87.0455C195.429 88.3864 194.517 89.4205 193.358 90.1477C192.199 90.875 190.875 91.2386 189.386 91.2386C187.898 91.2386 186.574 90.875 185.415 90.1477C184.256 89.4205 183.344 88.3864 182.679 87.0455C182.014 85.7045 181.682 84.1136 181.682 82.2727C181.682 80.4318 182.014 78.8409 182.679 77.5C183.344 76.1591 184.256 75.125 185.415 74.3977C186.574 73.6705 187.898 73.3068 189.386 73.3068C190.875 73.3068 192.199 73.6705 193.358 74.3977C194.517 75.125 195.429 76.1591 196.094 77.5C196.759 78.8409 197.091 80.4318 197.091 82.2727ZM195.045 82.2727C195.045 80.7614 194.793 79.4858 194.287 78.446C193.787 77.4062 193.108 76.6193 192.25 76.0852C191.398 75.5511 190.443 75.2841 189.386 75.2841C188.33 75.2841 187.372 75.5511 186.514 76.0852C185.662 76.6193 184.983 77.4062 184.477 78.446C183.977 79.4858 183.727 80.7614 183.727 82.2727C183.727 83.7841 183.977 85.0597 184.477 86.0994C184.983 87.1392 185.662 87.9261 186.514 88.4602C187.372 88.9943 188.33 89.2614 189.386 89.2614C190.443 89.2614 191.398 88.9943 192.25 88.4602C193.108 87.9261 193.787 87.1392 194.287 86.0994C194.793 85.0597 195.045 83.7841 195.045 82.2727ZM214.486 73.5455V91H212.44L202.929 77.2955H202.759V91H200.645V73.5455H202.69L212.236 87.2841H212.406V73.5455H214.486ZM219.431 91H217.215L223.624 73.5455H225.806L232.215 91H229.999L224.783 76.3068H224.647L219.431 91ZM220.249 84.1818H229.181V86.0568H220.249V84.1818ZM231.94 75.4205V73.5455H245.031V75.4205H239.543V91H237.429V75.4205H231.94ZM248.293 91V73.5455H258.827V75.4205H250.407V81.3182H258.282V83.1932H250.407V89.125H258.964V91H248.293ZM272.558 91L267.785 73.5455H269.933L273.58 87.7614H273.751L277.467 73.5455H279.853L283.569 87.7614H283.739L287.387 73.5455H289.535L284.762 91H282.58L278.728 77.0909H278.592L274.739 91H272.558ZM294.282 73.5455V91H292.168V73.5455H294.282ZM297.565 75.4205V73.5455H310.656V75.4205H305.168V91H303.054V75.4205H297.565ZM313.918 91V73.5455H316.032V81.3182H325.339V73.5455H327.452V91H325.339V83.1932H316.032V91H313.918Z" fill="black" fill-opacity="0.55"/>
</svg>
