<svg width="364" height="250" viewBox="0 0 364 250" fill="none" xmlns="http://www.w3.org/2000/svg">
<path d="M324.324 65H0V185H324.324V65Z" fill="#F0F1F4"/>
<path d="M112.476 103.129C111.909 103.129 111.427 103.541 111.338 104.102L104.771 145.75C104.747 145.902 104.757 146.058 104.798 146.206C104.84 146.354 104.914 146.491 105.014 146.608C105.114 146.726 105.238 146.819 105.378 146.884C105.518 146.948 105.671 146.982 105.825 146.982H113.612C114.179 146.982 114.662 146.569 114.751 146.009L116.68 133.779C116.767 133.218 117.251 132.806 117.818 132.806H124.899C133.172 132.806 140.196 126.769 141.478 118.589C142.772 110.34 136.327 103.147 127.194 103.129H112.476ZM120.047 112.426H125.713C130.377 112.426 131.896 115.179 131.415 118.222C130.935 121.272 128.577 123.519 124.065 123.519H118.298L120.047 112.426ZM157.319 115.257C155.352 115.265 153.089 115.668 150.549 116.726C144.722 119.155 141.923 124.175 140.734 127.835C140.734 127.835 136.952 139 145.498 145.135C145.498 145.135 153.424 151.04 162.346 144.771L162.192 145.75C162.169 145.902 162.178 146.058 162.22 146.205C162.261 146.354 162.335 146.491 162.435 146.607C162.534 146.725 162.658 146.819 162.799 146.883C162.938 146.948 163.09 146.981 163.244 146.982H170.638C171.205 146.982 171.687 146.569 171.775 146.009L176.273 117.488C176.297 117.335 176.288 117.18 176.246 117.032C176.205 116.884 176.131 116.746 176.031 116.629C175.931 116.512 175.807 116.418 175.667 116.353C175.528 116.289 175.375 116.255 175.221 116.255H167.827C167.261 116.255 166.777 116.667 166.69 117.228L166.448 118.762C166.448 118.762 163.219 115.235 157.319 115.257ZM157.561 124.266C158.41 124.266 159.186 124.383 159.883 124.607C163.073 125.631 164.882 128.696 164.359 132.018C163.712 136.108 160.358 139.12 156.056 139.12C155.208 139.12 154.432 139.004 153.734 138.78C150.545 137.756 148.725 134.691 149.248 131.369C149.894 127.278 153.259 124.266 157.561 124.266Z" fill="#003087"/>
<path d="M218.947 103.129C218.381 103.129 217.898 103.541 217.81 104.102L211.242 145.75C211.219 145.902 211.228 146.058 211.27 146.206C211.312 146.354 211.385 146.491 211.485 146.608C211.585 146.726 211.71 146.819 211.849 146.884C211.99 146.948 212.141 146.982 212.295 146.982H220.084C220.651 146.982 221.133 146.569 221.222 146.009L223.151 133.779C223.239 133.218 223.721 132.806 224.289 132.806H231.37C239.643 132.806 246.666 126.769 247.948 118.589C249.242 110.34 242.799 103.147 233.664 103.129H218.947ZM226.519 112.426H232.184C236.848 112.426 238.367 115.179 237.887 118.222C237.407 121.272 235.048 123.519 230.535 123.519H224.77L226.519 112.426ZM263.789 115.257C261.823 115.265 259.56 115.668 257.019 116.726C251.192 119.155 248.393 124.175 247.205 127.835C247.205 127.835 243.424 139 251.97 145.135C251.97 145.135 259.894 151.04 268.817 144.771L268.664 145.75C268.639 145.902 268.649 146.058 268.691 146.206C268.733 146.354 268.806 146.491 268.907 146.608C269.007 146.726 269.131 146.819 269.271 146.884C269.411 146.948 269.563 146.982 269.717 146.982H277.11C277.677 146.982 278.159 146.569 278.248 146.009L282.747 117.488C282.771 117.335 282.761 117.18 282.72 117.031C282.678 116.883 282.604 116.746 282.504 116.628C282.404 116.511 282.28 116.417 282.139 116.353C282 116.288 281.848 116.255 281.694 116.255H274.3C273.732 116.255 273.25 116.667 273.161 117.228L272.92 118.762C272.92 118.762 269.69 115.235 263.789 115.257ZM264.031 124.266C264.88 124.266 265.656 124.383 266.354 124.607C269.543 125.631 271.352 128.696 270.829 132.018C270.183 136.108 266.829 139.12 262.527 139.12C261.679 139.12 260.902 139.004 260.205 138.78C257.015 137.756 255.195 134.691 255.718 131.369C256.364 127.278 259.729 124.266 264.031 124.266Z" fill="#0070E0"/>
<path d="M179.781 116.255C179.195 116.255 178.778 116.827 178.957 117.384L187.063 142.538L179.734 154.391C179.378 154.967 179.792 155.71 180.468 155.71H189.131C189.379 155.71 189.622 155.645 189.838 155.524C190.053 155.402 190.234 155.227 190.362 155.015L213.001 117.565C213.348 116.99 212.933 116.254 212.261 116.254H203.599C203.349 116.254 203.102 116.319 202.886 116.444C202.669 116.568 202.487 116.746 202.36 116.961L193.449 132.005L188.925 117.073C188.778 116.587 188.329 116.254 187.823 116.254L179.781 116.255Z" fill="#003087"/>
<path d="M291.148 103.129C290.581 103.129 290.098 103.541 290.009 104.102L283.44 145.749C283.416 145.9 283.425 146.056 283.468 146.204C283.509 146.353 283.583 146.491 283.682 146.608C283.783 146.725 283.907 146.819 284.047 146.884C284.187 146.948 284.339 146.982 284.493 146.982H292.282C292.849 146.982 293.331 146.569 293.42 146.009L299.987 104.36C300.011 104.208 300.002 104.053 299.96 103.905C299.918 103.757 299.844 103.62 299.745 103.503C299.645 103.386 299.521 103.292 299.381 103.227C299.241 103.163 299.089 103.129 298.935 103.129H291.148Z" fill="#0070E0"/>
<path d="M47.546 103.129C47.0443 103.129 46.5592 103.309 46.1779 103.635C45.7965 103.961 45.5438 104.412 45.4654 104.907L42.0083 126.833C42.1695 125.809 43.0519 125.055 44.0889 125.055H54.2192C64.4145 125.055 73.0657 117.618 74.6466 107.538C74.7641 106.786 74.8309 106.026 74.846 105.265C72.255 103.906 69.2115 103.129 65.8765 103.129H47.546Z" fill="#001C64"/>
<path d="M74.8463 105.266C74.8311 106.027 74.7645 106.787 74.6468 107.539C73.066 117.618 64.414 125.056 54.2195 125.056H44.0892C43.053 125.056 42.1698 125.809 42.0087 126.834L38.83 146.983L36.8389 159.622C36.8 159.866 36.8146 160.116 36.8816 160.354C36.9486 160.592 37.0665 160.813 37.2272 161.001C37.3877 161.189 37.5872 161.34 37.8118 161.444C38.0363 161.546 38.2807 161.6 38.5279 161.6H49.5235C50.0252 161.6 50.5103 161.421 50.8917 161.094C51.273 160.768 51.5256 160.317 51.604 159.822L54.5003 141.452C54.5788 140.956 54.8316 140.504 55.2133 140.178C55.595 139.852 56.0805 139.673 56.5825 139.673H63.0563C73.2516 139.673 81.9032 132.236 83.4835 122.157C84.6065 115.004 81.0034 108.494 74.8463 105.266Z" fill="#0070E0"/>
<path d="M35.0546 88.5135C34.0184 88.5135 33.1352 89.2672 32.974 90.2905L24.3456 145.004C24.1819 146.043 24.9846 146.983 26.0363 146.983H38.8316L42.0086 126.834L45.4656 104.908C45.5441 104.413 45.7968 103.961 46.1781 103.635C46.5594 103.31 47.0445 103.13 47.5463 103.13H65.8768C69.2126 103.13 72.2553 103.908 74.8463 105.266C75.0238 96.0894 67.4518 88.5135 57.0416 88.5135H35.0546Z" fill="#003087"/>
</svg>
