<svg width="450" height="250" viewBox="0 0 450 250" fill="none" xmlns="http://www.w3.org/2000/svg">
<path d="M395.733 50H24.2667C10.8646 50 0 60.8427 0 74.2177V174.815C0 188.19 10.8646 199.032 24.2667 199.032H395.733C409.135 199.032 420 188.19 420 174.815V74.2177C420 60.8427 409.135 50 395.733 50Z" fill="black"/>
<path d="M78.4301 175.247C106.781 175.247 129.763 152.265 129.763 123.914C129.763 95.5633 106.781 72.5807 78.4301 72.5807C50.0795 72.5807 27.0968 95.5633 27.0968 123.914C27.0968 152.265 50.0795 175.247 78.4301 175.247Z" fill="url(#paint0_linear_1_58)"/>
<path fill-rule="evenodd" clip-rule="evenodd" d="M50.3076 123.358C65.2674 116.861 75.2262 112.544 80.2271 110.449C94.46 104.509 97.4523 103.483 99.3759 103.44C99.8034 103.44 100.743 103.525 101.384 104.038C101.898 104.466 102.026 105.022 102.111 105.448C102.196 105.876 102.282 106.774 102.196 107.458C101.427 115.579 98.0935 135.282 96.3836 144.344C95.6566 148.191 94.2463 149.473 92.8787 149.601C89.8868 149.858 87.6214 147.635 84.7578 145.754C80.2271 142.805 77.7053 140.967 73.3029 138.061C68.2165 134.727 71.5077 132.889 74.4141 129.897C75.1835 129.128 88.3054 117.16 88.5617 116.091C88.6045 115.963 88.6045 115.451 88.3054 115.194C88.0061 114.938 87.5787 115.023 87.2368 115.108C86.7666 115.194 79.586 119.981 65.6092 129.428C63.5577 130.838 61.7198 131.522 60.0528 131.479C58.2149 131.436 54.7101 130.453 52.06 129.598C48.8543 128.573 46.2898 128.016 46.5035 126.222C46.6318 125.281 47.914 124.341 50.3076 123.358Z" fill="white"/>
<path d="M177.108 84.7141C176.875 83.9999 176.568 83.36 176.186 82.7944C175.811 82.2216 175.362 81.7337 174.838 81.3307C174.322 80.9277 173.736 80.6201 173.078 80.408C172.421 80.1959 171.699 80.0899 170.914 80.0899C169.627 80.0899 168.457 80.4221 167.404 81.0867C166.35 81.7515 165.512 82.7307 164.89 84.0247C164.268 85.3186 163.956 86.906 163.956 88.7868C163.956 90.6676 164.271 92.2549 164.901 93.5489C165.53 94.8429 166.382 95.8221 167.456 96.4868C168.532 97.1515 169.74 97.4837 171.084 97.4837C172.328 97.4837 173.424 97.2186 174.372 96.6883C175.326 96.1509 176.069 95.3944 176.599 94.4186C177.137 93.4358 177.405 92.2798 177.405 90.9504L178.211 91.1201H171.678V88.7868H179.951V91.1201C179.951 92.909 179.569 94.4646 178.805 95.7868C178.049 97.109 177.003 98.1343 175.666 98.8626C174.337 99.5838 172.809 99.9444 171.084 99.9444C169.161 99.9444 167.471 99.4918 166.014 98.5868C164.565 97.6817 163.434 96.3949 162.621 94.7262C161.814 93.0575 161.411 91.0777 161.411 88.7868C161.411 87.0686 161.641 85.5236 162.101 84.1519C162.568 82.7732 163.225 81.5994 164.073 80.6307C164.922 79.662 165.926 78.9196 167.086 78.4034C168.245 77.8873 169.521 77.6292 170.914 77.6292C172.06 77.6292 173.127 77.8024 174.118 78.1489C175.114 78.4882 176.002 78.9726 176.78 79.6019C177.564 80.2242 178.219 80.9701 178.741 81.8399C179.265 82.7024 179.625 83.6605 179.823 84.7141H177.108ZM184.455 99.6474V77.9262H197.565V80.2595H187.086V87.5989H196.886V89.9322H187.086V97.3141H197.735V99.6474H184.455ZM201.118 80.2595V77.9262H217.408V80.2595H210.578V99.6474H207.948V80.2595H201.118ZM232.499 77.9262V99.6474H229.868V77.9262H232.499ZM236.585 80.2595V77.9262H252.875V80.2595H246.045V99.6474H243.415V80.2595H236.585ZM283.662 88.7868C283.662 91.0777 283.249 93.0575 282.421 94.7262C281.594 96.3949 280.459 97.6817 279.017 98.5868C277.574 99.4918 275.927 99.9444 274.074 99.9444C272.221 99.9444 270.574 99.4918 269.132 98.5868C267.689 97.6817 266.555 96.3949 265.727 94.7262C264.9 93.0575 264.487 91.0777 264.487 88.7868C264.487 86.4959 264.9 84.5161 265.727 82.8474C266.555 81.1787 267.689 79.8918 269.132 78.9867C270.574 78.0817 272.221 77.6292 274.074 77.6292C275.927 77.6292 277.574 78.0817 279.017 78.9867C280.459 79.8918 281.594 81.1787 282.421 82.8474C283.249 84.5161 283.662 86.4959 283.662 88.7868ZM281.117 88.7868C281.117 86.906 280.802 85.3186 280.172 84.0247C279.551 82.7307 278.705 81.7515 277.638 81.0867C276.577 80.4221 275.389 80.0899 274.074 80.0899C272.759 80.0899 271.568 80.4221 270.5 81.0867C269.439 81.7515 268.594 82.7307 267.965 84.0247C267.343 85.3186 267.032 86.906 267.032 88.7868C267.032 90.6676 267.343 92.2549 267.965 93.5489C268.594 94.8429 269.439 95.8221 270.5 96.4868C271.568 97.1515 272.759 97.4837 274.074 97.4837C275.389 97.4837 276.577 97.1515 277.638 96.4868C278.705 95.8221 279.551 94.8429 280.172 93.5489C280.802 92.2549 281.117 90.6676 281.117 88.7868ZM305.309 77.9262V99.6474H302.764L290.927 82.5929H290.715V99.6474H288.085V77.9262H290.63L302.509 95.0232H302.721V77.9262H305.309Z" fill="white"/>
<path d="M275.198 175.335C273.6 175.041 272.079 174.595 270.528 174.133C270.517 172.503 270.661 170.81 270.971 169.265C284.906 173.286 288.135 170.653 288.373 161.742V159.601L286.573 161.245C284.231 163.385 281.94 164.15 278.525 163.931C271.741 163.495 267.984 158.534 267.973 149.998C267.966 144.893 269.094 141.65 271.933 138.615C275.718 134.567 282.199 133.789 286.729 136.838L288.373 137.943V136.786V135.627L291.29 135.724L294.209 135.821L294.306 147.328C294.456 165.268 293.931 168.771 290.58 172.185C286.088 175.976 281.498 175.963 275.198 175.335ZM284.027 157.672C284.803 157.276 286.097 156.344 286.904 155.6L288.373 154.246V148.648V143.05L287.327 142.171C283.751 139.162 279.906 138.933 277.003 141.557C275.12 143.258 274.29 145.714 274.265 149.662C274.234 154.43 275.261 156.846 277.833 158.053C279.537 158.851 282.012 158.699 284.027 157.672ZM199.627 161.449C196.217 158.197 194.613 153.104 195.296 147.701C195.85 143.311 197.189 140.45 199.822 138.023C201.91 136.098 203.873 135.288 206.967 135.076C214.503 134.56 218.971 139.699 218.992 148.911L218.999 151.33C213.247 151.483 206.669 150.967 201.321 151.769C202.104 156.723 205.685 160.427 210.66 160.5C213.651 160.5 215.802 159.741 218.676 159.174L218.764 163.737C218.764 163.737 212.05 165.331 209.494 165.311C205.569 165.327 201.844 163.546 199.627 161.449ZM212.993 145.743C212.986 142.903 211.139 140.235 208.885 139.812C205.327 139.144 202.6 141.207 201.706 145.243L201.392 146.66H207.194H212.995L212.993 145.743ZM243.319 161.449C239.909 158.197 238.305 153.104 238.988 147.701C239.542 143.311 240.881 140.45 243.514 138.023C245.603 136.098 247.565 135.288 250.659 135.076C258.195 134.56 262.663 139.699 262.684 148.911L262.691 151.33C256.551 151.25 250.671 151.276 244.86 151.228C245.206 157.078 248.985 160.803 254.353 160.5C257.371 160.559 260.02 159.736 262.368 159.174C262.891 159.497 262.763 163.195 262.214 163.651C261.456 164.28 255.742 165.331 253.186 165.312C249.261 165.328 245.535 163.545 243.319 161.449ZM256.685 145.743C256.678 142.903 254.831 140.235 252.577 139.812C249.019 139.144 246.292 141.207 245.398 145.243L245.085 146.66H250.886H256.687L256.685 145.743ZM326.644 164.882C322.47 163.325 320.415 158.836 321.784 154.267C322.331 152.44 324.422 150.194 326.537 149.159C328.538 148.18 332.585 147.357 335.482 147.339L337.4 147.323V144.972C337.288 138.62 332.268 139.033 327.316 140.832C325.983 141.31 324.244 141.707 323.923 141.806C323.882 140.316 323.726 139.293 323.726 137.012L326.478 136.142C328.312 135.562 330.345 135.208 332.571 135.081C337.92 134.776 340.812 135.949 342.501 139.111C343.196 140.41 343.245 141.006 343.404 149.881C343.571 159.261 343.573 159.279 344.38 160.138C344.863 160.653 346.635 161.152 347.178 161.152C347.162 163.11 347.389 163.03 347.153 164.867C346.374 165.077 343.787 165.337 342.821 165.257C340.931 165.1 339.76 164.308 338.858 162.575L338.379 161.652L337.139 162.644C334.28 164.932 329.511 165.948 326.644 164.878V164.882ZM333.651 159.863C334.387 159.604 335.529 159.041 336.19 158.613L337.392 157.833V154.414V150.996H335.961C332.598 150.996 328.59 152.722 327.769 154.525C326.863 156.513 327.621 158.874 329.454 159.777C330.818 160.449 331.917 160.472 333.643 159.862L333.651 159.863ZM173.305 147.328V129.983H166.468H159.63V127.649V125.314H176.473H193.316V127.649V129.983H186.48H179.642V147.328V164.671H176.473H173.305V147.328ZM226.336 143.825V122.98H229.337H232.34V143.825V164.671H229.337H226.336V143.825ZM302.714 150.162V135.627C304.659 135.693 306.683 135.602 308.628 135.666C308.609 136.866 308.68 138.061 308.75 139.258C311.487 136.252 314.388 135.478 316.819 135.219L319.057 134.987V137.846V140.705C315.304 139.603 311.392 142.083 309.604 144.492C308.917 145.447 308.876 145.931 308.717 154.999L308.55 164.505C306.605 164.569 304.659 164.633 302.714 164.697V150.162ZM352.409 150.162V135.653C354.411 135.653 356.412 135.653 358.413 135.653C358.413 136.982 358.413 139.3 358.413 140.629C360.945 137.782 364.009 135.103 367.418 135.153C371.587 134.99 373.294 137.683 375.154 140.674C380.366 134.805 389.872 133.119 392.81 140.099C393.092 149.631 392.928 153.168 392.778 164.66C390.843 164.724 389.063 164.634 387.128 164.697C387.217 157.282 387.11 148.899 386.929 141.936C386.187 140.477 384.81 139.33 382.436 139.958C380.062 140.585 377.914 142.433 375.678 145.042C375.678 151.508 375.756 158.206 375.756 164.672H372.766H369.778C369.714 157.093 369.649 149.514 369.586 141.937C368.387 140.55 367.43 139.738 365.166 140.277C362.902 140.817 359.894 142.607 358.413 145.447C358.413 151.855 358.335 158.263 358.335 164.672C356.334 164.672 354.41 164.672 352.408 164.672C352.408 159.835 352.409 154.999 352.409 150.162Z" fill="white"/>
<defs>
<linearGradient id="paint0_linear_1_58" x1="78.3873" y1="72.5807" x2="78.3873" y2="174.435" gradientUnits="userSpaceOnUse">
<stop stop-color="#2AABEE"/>
<stop offset="1" stop-color="#229ED9"/>
</linearGradient>
</defs>
</svg>
