<svg width="500" height="250" viewBox="0 0 500 250" fill="none" xmlns="http://www.w3.org/2000/svg">
<rect y="40" width="447" height="171" fill="black"/>
<path d="M84 74C53.6241 74 29 98.6241 29 129C29 159.376 53.6241 184 84 184C114.376 184 139 159.376 139 129C139 98.6241 114.376 74 84 74Z" fill="#40B3E0"/>
<path d="M110.762 105.638L100.938 155.168C100.938 155.168 99.5646 158.602 95.7863 156.954L73.1169 139.574L64.8737 135.59L50.9974 130.918C50.9974 130.918 48.8679 130.163 48.6616 128.514C48.4554 126.865 51.0662 125.972 51.0662 125.972L106.228 104.333C106.228 104.333 110.762 102.341 110.762 105.639" fill="white"/>
<path d="M71.3749 154.611C71.3749 154.611 70.7132 154.549 69.8882 151.938C69.0645 149.328 64.8737 135.589 64.8737 135.589L98.1909 114.431C98.1909 114.431 100.115 113.263 100.046 114.431C100.046 114.431 100.389 114.637 99.3583 115.599C98.3284 116.561 73.1861 139.161 73.1861 139.161" fill="#D2E5F1"/>
<path d="M81.809 146.237L72.8428 154.412C72.8428 154.412 72.1415 154.944 71.3749 154.611L73.092 139.426" fill="#B5CFE4"/>
<path d="M186.727 82C186.477 81.2348 186.148 80.5492 185.739 79.9432C185.337 79.3295 184.856 78.8068 184.295 78.375C183.742 77.9432 183.114 77.6136 182.409 77.3864C181.705 77.1591 180.932 77.0455 180.091 77.0455C178.712 77.0455 177.458 77.4015 176.33 78.1136C175.201 78.8258 174.303 79.875 173.636 81.2614C172.97 82.6477 172.636 84.3485 172.636 86.3636C172.636 88.3788 172.973 90.0795 173.648 91.4659C174.322 92.8523 175.235 93.9015 176.386 94.6136C177.538 95.3258 178.833 95.6818 180.273 95.6818C181.606 95.6818 182.78 95.3977 183.795 94.8295C184.818 94.2538 185.614 93.4432 186.182 92.3977C186.758 91.3447 187.045 90.1061 187.045 88.6818L187.909 88.8636H180.909V86.3636H189.773V88.8636C189.773 90.7803 189.364 92.447 188.545 93.8636C187.735 95.2803 186.614 96.3788 185.182 97.1591C183.758 97.9318 182.121 98.3182 180.273 98.3182C178.212 98.3182 176.402 97.8333 174.841 96.8636C173.288 95.8939 172.076 94.5152 171.205 92.7273C170.341 90.9394 169.909 88.8182 169.909 86.3636C169.909 84.5227 170.155 82.8674 170.648 81.3977C171.148 79.9205 171.852 78.6629 172.761 77.625C173.67 76.5871 174.746 75.7917 175.989 75.2386C177.231 74.6856 178.598 74.4091 180.091 74.4091C181.318 74.4091 182.462 74.5947 183.523 74.9659C184.591 75.3295 185.542 75.8485 186.375 76.5227C187.216 77.1894 187.917 77.9886 188.477 78.9205C189.038 79.8447 189.424 80.8712 189.636 82H186.727ZM194.599 98V74.7273H208.645V77.2273H197.418V85.0909H207.918V87.5909H197.418V95.5H208.827V98H194.599ZM212.452 77.2273V74.7273H229.906V77.2273H222.588V98H219.77V77.2273H212.452ZM246.074 74.7273V98H243.256V74.7273H246.074ZM250.452 77.2273V74.7273H267.906V77.2273H260.588V98H257.77V77.2273H250.452ZM300.892 86.3636C300.892 88.8182 300.449 90.9394 299.562 92.7273C298.676 94.5152 297.46 95.8939 295.915 96.8636C294.369 97.8333 292.604 98.3182 290.619 98.3182C288.634 98.3182 286.869 97.8333 285.324 96.8636C283.778 95.8939 282.563 94.5152 281.676 92.7273C280.79 90.9394 280.347 88.8182 280.347 86.3636C280.347 83.9091 280.79 81.7879 281.676 80C282.563 78.2121 283.778 76.8333 285.324 75.8636C286.869 74.8939 288.634 74.4091 290.619 74.4091C292.604 74.4091 294.369 74.8939 295.915 75.8636C297.46 76.8333 298.676 78.2121 299.562 80C300.449 81.7879 300.892 83.9091 300.892 86.3636ZM298.165 86.3636C298.165 84.3485 297.828 82.6477 297.153 81.2614C296.487 79.875 295.581 78.8258 294.438 78.1136C293.301 77.4015 292.028 77.0455 290.619 77.0455C289.21 77.0455 287.934 77.4015 286.79 78.1136C285.653 78.8258 284.748 79.875 284.074 81.2614C283.407 82.6477 283.074 84.3485 283.074 86.3636C283.074 88.3788 283.407 90.0795 284.074 91.4659C284.748 92.8523 285.653 93.9015 286.79 94.6136C287.934 95.3258 289.21 95.6818 290.619 95.6818C292.028 95.6818 293.301 95.3258 294.438 94.6136C295.581 93.9015 296.487 92.8523 297.153 91.4659C297.828 90.0795 298.165 88.3788 298.165 86.3636ZM324.085 74.7273V98H321.358L308.676 79.7273H308.449V98H305.631V74.7273H308.358L321.085 93.0455H321.312V74.7273H324.085Z" fill="white"/>
<path d="M291.822 180.095C290.11 179.78 288.481 179.302 286.819 178.807C286.807 177.061 286.961 175.247 287.294 173.591C302.224 177.9 305.683 175.078 305.938 165.531V163.237L304.01 164.999C301.501 167.291 299.046 168.111 295.387 167.876C288.118 167.409 284.093 162.094 284.081 152.948C284.074 147.478 285.282 144.004 288.324 140.752C292.38 136.415 299.323 135.581 304.177 138.848L305.938 140.032V138.792V137.551L309.064 137.655L312.191 137.759L312.295 150.087C312.456 169.309 311.893 173.062 308.303 176.72C303.49 180.782 298.572 180.768 291.822 180.095ZM301.282 161.17C302.113 160.746 303.5 159.747 304.365 158.95L305.938 157.5V151.502V145.504L304.818 144.562C300.986 141.338 296.867 141.093 293.756 143.904C291.739 145.727 290.85 148.358 290.823 152.588C290.79 157.697 291.89 160.285 294.646 161.578C296.471 162.434 299.123 162.271 301.282 161.17ZM210.853 165.217C207.2 161.733 205.481 156.276 206.213 150.487C206.807 145.784 208.241 142.718 211.062 140.118C213.3 138.055 215.403 137.187 218.718 136.96C226.792 136.407 231.579 141.914 231.602 151.784L231.609 154.375C225.446 154.539 218.399 153.986 212.669 154.846C213.507 160.154 217.344 164.122 222.675 164.2C225.879 164.2 228.184 163.387 231.263 162.78L231.357 167.668C231.357 167.668 224.164 169.376 221.425 169.355C217.22 169.372 213.229 167.464 210.853 165.217ZM225.174 148.389C225.167 145.346 223.188 142.488 220.773 142.035C216.961 141.319 214.039 143.529 213.081 147.853L212.745 149.372H218.961H225.176L225.174 148.389ZM257.666 165.217C254.013 161.733 252.294 156.276 253.026 150.487C253.62 145.784 255.054 142.718 257.875 140.118C260.113 138.055 262.216 137.187 265.531 136.96C273.605 136.407 278.392 141.914 278.415 151.784L278.422 154.375C271.845 154.29 265.543 154.317 259.317 154.266C259.688 160.534 263.737 164.525 269.488 164.2C272.722 164.263 275.56 163.382 278.076 162.78C278.636 163.126 278.5 167.088 277.911 167.576C277.099 168.25 270.977 169.376 268.238 169.356C264.033 169.373 260.041 167.463 257.666 165.217ZM271.987 148.389C271.98 145.346 270.001 142.488 267.586 142.035C263.774 141.319 260.852 143.529 259.894 147.853L259.558 149.372H265.774H271.989L271.987 148.389ZM346.943 168.895C342.471 167.227 340.269 162.417 341.736 157.522C342.322 155.565 344.562 153.158 346.828 152.049C348.972 151 353.309 150.118 356.413 150.099L358.468 150.082V147.563C358.348 140.757 352.969 141.2 347.663 143.127C346.235 143.64 344.372 144.065 344.028 144.171C343.984 142.575 343.817 141.478 343.817 139.035L346.765 138.102C348.73 137.481 350.908 137.102 353.294 136.966C359.025 136.639 362.123 137.896 363.933 141.283C364.677 142.675 364.73 143.314 364.9 152.823C365.079 162.873 365.081 162.892 365.946 163.812C366.464 164.364 368.362 164.899 368.944 164.899C368.927 166.997 369.17 166.911 368.917 168.879C368.083 169.104 365.311 169.383 364.276 169.297C362.251 169.129 360.996 168.28 360.03 166.424L359.516 165.435L358.188 166.497C355.125 168.949 350.015 170.037 346.943 168.891L346.943 168.895ZM354.451 163.518C355.239 163.24 356.463 162.637 357.171 162.178L358.459 161.343V157.68V154.017H356.926C353.322 154.017 349.028 155.867 348.148 157.799C347.178 159.928 347.99 162.458 349.954 163.426C351.416 164.146 352.593 164.17 354.442 163.517L354.451 163.518ZM182.651 150.087V131.504H175.326H168V129.003V126.501H186.046H204.092V129.003V131.504H196.767H189.441V150.087V168.669H186.046H182.651V150.087ZM239.47 146.334V124H242.686H245.903V146.334V168.669H242.686H239.47V146.334ZM321.304 153.124V137.551C323.388 137.621 325.556 137.524 327.64 137.592C327.62 138.878 327.696 140.159 327.771 141.441C330.703 138.22 333.812 137.391 336.416 137.113L338.814 136.865V139.928V142.991C334.793 141.811 330.602 144.468 328.686 147.049C327.95 148.072 327.906 148.591 327.736 158.306L327.557 168.491C325.473 168.56 323.388 168.628 321.304 168.698L321.304 153.124ZM374.549 153.124V137.579C376.693 137.579 378.837 137.579 380.981 137.579C380.981 139.002 380.981 141.486 380.981 142.91C383.694 139.86 386.977 136.989 390.63 137.043C395.096 136.868 396.925 139.754 398.918 142.958C404.502 136.67 414.687 134.863 417.835 142.342C418.138 152.555 417.962 156.345 417.801 168.657C415.728 168.726 413.821 168.629 411.748 168.697C411.843 160.752 411.728 151.771 411.534 144.31C410.739 142.747 409.264 141.518 406.72 142.191C404.177 142.863 401.875 144.843 399.48 147.638C399.48 154.566 399.563 161.742 399.563 168.67H396.36H393.158C393.09 160.55 393.02 152.43 392.952 144.311C391.668 142.825 390.643 141.955 388.217 142.533C385.791 143.111 382.568 145.029 380.981 148.072C380.981 154.938 380.898 161.804 380.898 168.67C378.754 168.67 376.692 168.67 374.548 168.67C374.548 163.488 374.549 158.306 374.549 153.124Z" fill="white"/>
</svg>
