<svg width="500" height="250" viewBox="0 0 500 250" fill="none" xmlns="http://www.w3.org/2000/svg">
<path d="M350.507 59H21.4933C9.62289 59 0 68.6035 0 80.45V169.55C0 181.397 9.62289 191 21.4933 191H350.507C362.377 191 372 181.397 372 169.55V80.45C372 68.6035 362.377 59 350.507 59Z" fill="black"/>
<path d="M69.4666 169.933C94.5774 169.933 114.933 149.577 114.933 124.467C114.933 99.3561 94.5774 79 69.4666 79C44.3561 79 24 99.3561 24 124.467C24 149.577 44.3561 169.933 69.4666 169.933Z" fill="url(#paint0_linear_1_58)"/>
<path fill-rule="evenodd" clip-rule="evenodd" d="M44.5582 123.974C57.8082 118.22 66.6289 114.396 71.0583 112.541C83.6646 107.279 86.3149 106.37 88.0186 106.333C88.3972 106.333 89.2297 106.408 89.7976 106.862C90.2523 107.241 90.3655 107.734 90.4416 108.111C90.5168 108.49 90.5929 109.285 90.5168 109.891C89.8356 117.084 86.8828 134.536 85.3683 142.562C84.7244 145.969 83.4753 147.104 82.264 147.218C79.614 147.446 77.6075 145.477 75.0711 143.811C71.0583 141.199 68.8247 139.571 64.9254 136.997C60.4203 134.044 63.3354 132.416 65.9096 129.766C66.591 129.085 78.2133 118.484 78.4404 117.538C78.4782 117.425 78.4782 116.971 78.2133 116.743C77.9483 116.516 77.5697 116.592 77.2668 116.667C76.8504 116.743 70.4904 120.983 58.111 129.35C56.2939 130.599 54.666 131.205 53.1896 131.167C51.5617 131.129 48.4575 130.259 46.1103 129.501C43.271 128.593 40.9995 128.1 41.1888 126.511C41.3024 125.677 42.4381 124.845 44.5582 123.974Z" fill="white"/>
<path d="M156.867 89.7467C156.66 89.1142 156.388 88.5474 156.05 88.0464C155.718 87.5391 155.32 87.107 154.857 86.7501C154.4 86.3931 153.88 86.1206 153.298 85.9328C152.716 85.7449 152.077 85.651 151.381 85.651C150.241 85.651 149.205 85.9453 148.272 86.534C147.339 87.1227 146.597 87.9901 146.045 89.1362C145.495 90.2822 145.219 91.6882 145.219 93.354C145.219 95.0199 145.497 96.4258 146.055 97.5719C146.612 98.718 147.367 99.5853 148.319 100.174C149.271 100.763 150.341 101.057 151.532 101.057C152.634 101.057 153.604 100.822 154.443 100.352C155.289 99.8765 155.947 99.2065 156.417 98.3422C156.893 97.4717 157.13 96.4478 157.13 95.2704L157.844 95.4207H152.058V93.354H159.385V95.4207C159.385 97.0051 159.047 98.3829 158.37 99.554C157.7 100.725 156.774 101.633 155.59 102.278C154.413 102.917 153.059 103.236 151.532 103.236C149.828 103.236 148.332 102.836 147.041 102.034C145.758 101.232 144.756 100.093 144.036 98.6146C143.321 97.1366 142.964 95.3831 142.964 93.354C142.964 91.8322 143.168 90.4638 143.575 89.2488C143.988 88.0277 144.57 86.9881 145.322 86.1301C146.073 85.2721 146.963 84.6145 147.99 84.1573C149.017 83.7002 150.147 83.4716 151.381 83.4716C152.396 83.4716 153.341 83.625 154.218 83.9319C155.101 84.2324 155.888 84.6615 156.576 85.2188C157.271 85.77 157.851 86.4306 158.314 87.201C158.778 87.965 159.097 88.8136 159.272 89.7467H156.867ZM163.375 102.973V83.7346H174.986V85.8013H165.705V92.3019H174.385V94.3685H165.705V100.907H175.136V102.973H163.375ZM178.133 85.8013V83.7346H192.562V85.8013H186.512V102.973H184.183V85.8013H178.133ZM205.927 83.7346V102.973H203.598V83.7346H205.927ZM209.546 85.8013V83.7346H223.975V85.8013H217.926V102.973H215.596V85.8013H209.546ZM251.243 93.354C251.243 95.3831 250.877 97.1366 250.144 98.6146C249.412 100.093 248.406 101.232 247.129 102.034C245.851 102.836 244.392 103.236 242.751 103.236C241.11 103.236 239.651 102.836 238.374 102.034C237.096 101.232 236.092 100.093 235.358 98.6146C234.626 97.1366 234.26 95.3831 234.26 93.354C234.26 91.3249 234.626 89.5714 235.358 88.0934C236.092 86.6154 237.096 85.4756 238.374 84.674C239.651 83.8724 241.11 83.4716 242.751 83.4716C244.392 83.4716 245.851 83.8724 247.129 84.674C248.406 85.4756 249.412 86.6154 250.144 88.0934C250.877 89.5714 251.243 91.3249 251.243 93.354ZM248.989 93.354C248.989 91.6882 248.711 90.2822 248.153 89.1362C247.602 87.9901 246.853 87.1227 245.908 86.534C244.968 85.9453 243.916 85.651 242.751 85.651C241.586 85.651 240.532 85.9453 239.586 86.534C238.646 87.1227 237.898 87.9901 237.341 89.1362C236.789 90.2822 236.514 91.6882 236.514 93.354C236.514 95.0199 236.789 96.4258 237.341 97.5719C237.898 98.718 238.646 99.5853 239.586 100.174C240.532 100.763 241.586 101.057 242.751 101.057C243.916 101.057 244.968 100.763 245.908 100.174C246.853 99.5853 247.602 98.718 248.153 97.5719C248.711 96.4258 248.989 95.0199 248.989 93.354ZM270.416 83.7346V102.973H268.162L257.678 87.868H257.491V102.973H255.161V83.7346H257.415L267.936 98.8777H268.124V83.7346H270.416Z" fill="white"/>
<path d="M243.746 170.011C242.331 169.751 240.985 169.356 239.611 168.946C239.601 167.503 239.728 166.003 240.003 164.634C252.345 168.197 255.205 165.864 255.416 157.972V156.075L253.822 157.532C251.748 159.426 249.718 160.104 246.694 159.91C240.684 159.524 237.357 155.13 237.347 147.57C237.341 143.048 238.34 140.176 240.855 137.487C244.208 133.902 249.947 133.213 253.96 135.914L255.416 136.892V135.867V134.841L258 134.927L260.585 135.013L260.671 145.204C260.804 161.095 260.338 164.197 257.371 167.221C253.392 170.579 249.326 170.567 243.746 170.011ZM251.567 154.366C252.254 154.016 253.4 153.19 254.115 152.531L255.416 151.333V146.374V141.416L254.49 140.637C251.322 137.972 247.917 137.769 245.345 140.093C243.678 141.6 242.943 143.775 242.921 147.272C242.893 151.495 243.803 153.635 246.081 154.704C247.59 155.411 249.782 155.277 251.567 154.366ZM176.812 157.712C173.792 154.832 172.371 150.321 172.976 145.535C173.467 141.647 174.653 139.113 176.985 136.963C178.835 135.258 180.573 134.54 183.314 134.353C189.988 133.896 193.946 138.448 193.965 146.607L193.97 148.749C188.876 148.885 183.05 148.428 178.313 149.139C179.006 153.527 182.178 156.807 186.585 156.871C189.234 156.871 191.139 156.199 193.684 155.697L193.762 159.738C193.762 159.738 187.816 161.15 185.552 161.133C182.075 161.147 178.776 159.569 176.812 157.712ZM188.651 143.801C188.645 141.285 187.009 138.923 185.013 138.548C181.861 137.956 179.446 139.783 178.654 143.358L178.376 144.613H183.515H188.652L188.651 143.801ZM215.511 157.712C212.491 154.832 211.07 150.321 211.675 145.535C212.166 141.647 213.352 139.113 215.684 136.963C217.534 135.258 219.272 134.54 222.013 134.353C228.687 133.896 232.644 138.448 232.663 146.607L232.669 148.749C227.231 148.679 222.022 148.701 216.876 148.659C217.182 153.841 220.53 157.14 225.284 156.871C227.957 156.923 230.303 156.195 232.383 155.697C232.846 155.983 232.733 159.259 232.247 159.662C231.575 160.219 226.515 161.15 224.25 161.134C220.774 161.148 217.474 159.569 215.511 157.712ZM227.35 143.801C227.344 141.285 225.708 138.923 223.711 138.548C220.56 137.956 218.145 139.783 217.353 143.358L217.075 144.613H222.213H227.351L227.35 143.801ZM289.313 160.752C285.616 159.374 283.796 155.397 285.009 151.351C285.493 149.733 287.345 147.743 289.218 146.826C290.99 145.959 294.576 145.23 297.142 145.214L298.84 145.2V143.118C298.741 137.492 294.295 137.858 289.908 139.451C288.728 139.875 287.188 140.226 286.903 140.314C286.867 138.995 286.729 138.088 286.729 136.068L289.166 135.297C290.79 134.783 292.591 134.47 294.563 134.358C299.301 134.087 301.862 135.127 303.358 137.926C303.973 139.077 304.017 139.605 304.158 147.466C304.306 155.774 304.307 155.79 305.022 156.55C305.45 157.007 307.019 157.449 307.501 157.449C307.487 159.183 307.687 159.112 307.478 160.739C306.789 160.925 304.497 161.156 303.642 161.085C301.968 160.946 300.93 160.244 300.132 158.71L299.707 157.892L298.609 158.77C296.077 160.797 291.853 161.696 289.313 160.749V160.752ZM295.52 156.307C296.171 156.078 297.183 155.579 297.768 155.2L298.833 154.509V151.481V148.453H297.566C294.586 148.453 291.037 149.983 290.309 151.58C289.507 153.34 290.179 155.431 291.802 156.231C293.01 156.827 293.984 156.846 295.512 156.307L295.52 156.307ZM153.498 145.204V129.842H147.443H141.387V127.775V125.707H156.305H171.223V127.775V129.842H165.168H159.112V145.204V160.566H156.305H153.498V145.204ZM200.469 142.102V123.639H203.127H205.787V142.102V160.566H203.127H200.469V142.102ZM268.118 147.715V134.841C269.841 134.899 271.633 134.819 273.356 134.875C273.339 135.938 273.402 136.997 273.464 138.057C275.888 135.394 278.458 134.709 280.611 134.479L282.593 134.274V136.806V139.338C279.269 138.363 275.805 140.559 274.221 142.693C273.612 143.539 273.576 143.968 273.435 151.999L273.287 160.418C271.565 160.475 269.841 160.532 268.118 160.589V147.715ZM312.134 147.715V134.864C313.906 134.864 315.679 134.864 317.451 134.864C317.451 136.041 317.451 138.094 317.451 139.271C319.694 136.75 322.408 134.377 325.428 134.421C329.12 134.277 330.632 136.662 332.279 139.311C336.895 134.113 345.315 132.619 347.917 138.802C348.168 147.245 348.022 150.378 347.889 160.556C346.175 160.613 344.599 160.533 342.885 160.589C342.964 154.021 342.869 146.597 342.708 140.429C342.051 139.137 340.832 138.121 338.729 138.677C336.627 139.233 334.724 140.869 332.744 143.18C332.744 148.907 332.812 154.839 332.812 160.566H330.164H327.517C327.461 153.854 327.403 147.141 327.347 140.43C326.286 139.201 325.438 138.482 323.433 138.96C321.427 139.438 318.763 141.023 317.451 143.539C317.451 149.215 317.383 154.891 317.383 160.566C315.61 160.566 313.906 160.566 312.133 160.566C312.133 156.283 312.134 151.999 312.134 147.715Z" fill="white"/>
<defs>
<linearGradient id="paint0_linear_1_58" x1="69.4288" y1="79" x2="69.4288" y2="169.214" gradientUnits="userSpaceOnUse">
<stop stop-color="#2AABEE"/>
<stop offset="1" stop-color="#229ED9"/>
</linearGradient>
</defs>
</svg>
