<svg width="405" height="250" viewBox="0 0 405 250" fill="none" xmlns="http://www.w3.org/2000/svg">
<path d="M364.865 65H0V185H364.865V65Z" fill="#2AABEE"/>
<path d="M228.66 148.814C227.236 148.552 225.881 148.155 224.499 147.743C224.489 146.291 224.617 144.782 224.894 143.405C237.311 146.988 240.188 144.642 240.401 136.702V134.794L238.797 136.259C236.711 138.165 234.668 138.847 231.625 138.652C225.58 138.263 222.231 133.843 222.221 126.236C222.216 121.687 223.221 118.796 225.751 116.092C229.125 112.485 234.899 111.792 238.936 114.509L240.401 115.494V114.462V113.431L243.001 113.516L245.601 113.602L245.687 123.857C245.822 139.844 245.354 142.965 242.368 146.007C238.365 149.386 234.274 149.375 228.66 148.814ZM236.528 133.074C237.219 132.721 238.373 131.89 239.092 131.228L240.401 130.022V125.033V120.045L239.469 119.262C236.282 116.58 232.857 116.376 230.269 118.714C228.591 120.23 227.852 122.418 227.829 125.936C227.801 130.186 228.717 132.339 231.009 133.414C232.527 134.126 234.732 133.99 236.528 133.074ZM161.317 136.441C158.279 133.543 156.849 129.004 157.458 124.189C157.952 120.278 159.144 117.728 161.491 115.565C163.352 113.849 165.101 113.127 167.858 112.938C174.573 112.479 178.555 117.059 178.575 125.268L178.58 127.423C173.454 127.56 167.593 127.099 162.828 127.814C163.525 132.229 166.716 135.529 171.15 135.595C173.814 135.595 175.731 134.919 178.292 134.414L178.371 138.479C178.371 138.479 172.388 139.899 170.11 139.882C166.613 139.896 163.293 138.309 161.317 136.441ZM173.228 122.444C173.222 119.913 171.577 117.536 169.568 117.159C166.397 116.564 163.967 118.402 163.171 121.998L162.89 123.262H168.06H173.23L173.228 122.444ZM200.252 136.441C197.214 133.543 195.784 129.004 196.393 124.189C196.887 120.278 198.08 117.728 200.426 115.565C202.288 113.849 204.037 113.127 206.793 112.938C213.508 112.479 217.49 117.059 217.51 125.268L217.515 127.423C212.045 127.352 206.804 127.375 201.625 127.332C201.934 132.545 205.302 135.865 210.085 135.595C212.775 135.647 215.135 134.915 217.228 134.414C217.693 134.701 217.579 137.996 217.091 138.403C216.415 138.963 211.323 139.899 209.045 139.882C205.548 139.897 202.228 138.309 200.252 136.441ZM212.163 122.444C212.158 119.913 210.512 117.536 208.503 117.159C205.332 116.564 202.902 118.402 202.105 121.998L201.825 123.262H206.995H212.165L212.163 122.444ZM274.505 139.5C270.786 138.112 268.954 134.112 270.174 130.04C270.662 128.413 272.524 126.411 274.41 125.488C276.193 124.616 279.799 123.882 282.382 123.866L284.09 123.853V121.757C283.991 116.096 279.517 116.465 275.103 118.068C273.916 118.495 272.367 118.848 272.081 118.936C272.043 117.609 271.905 116.696 271.905 114.665L274.357 113.889C275.991 113.371 277.802 113.057 279.787 112.943C284.554 112.672 287.13 113.717 288.636 116.534C289.254 117.691 289.299 118.223 289.44 126.133C289.589 134.491 289.59 134.507 290.31 135.271C290.741 135.731 292.319 136.176 292.803 136.176C292.789 137.921 292.991 137.85 292.781 139.486C292.087 139.673 289.781 139.905 288.921 139.834C287.237 139.694 286.193 138.988 285.39 137.444L284.962 136.621L283.858 137.505C281.31 139.544 277.06 140.449 274.506 139.496L274.505 139.5ZM280.75 135.027C281.405 134.795 282.423 134.294 283.012 133.912L284.083 133.218V130.172V127.125H282.808C279.81 127.125 276.239 128.664 275.507 130.271C274.7 132.042 275.376 134.145 277.009 134.95C278.225 135.549 279.204 135.57 280.742 135.026L280.75 135.027ZM137.861 123.856V108.401H131.769H125.676V106.321V104.24H140.685H155.694V106.321V108.401H149.601H143.509V123.856V139.312H140.685H137.861V123.856ZM185.119 120.735V102.16H187.794H190.468V120.735V139.312H187.794H185.119V120.735ZM253.181 126.382V113.431C254.914 113.488 256.717 113.408 258.451 113.465C258.434 114.534 258.497 115.599 258.56 116.666C260.998 113.987 263.584 113.297 265.75 113.066L267.744 112.859V115.407V117.955C264.4 116.973 260.914 119.183 259.321 121.33C258.709 122.181 258.672 122.612 258.53 130.692L258.382 139.163C256.648 139.221 254.914 139.277 253.181 139.335V126.382ZM297.465 126.382V113.454C299.248 113.454 301.032 113.454 302.815 113.454C302.815 114.637 302.815 116.703 302.815 117.887C305.072 115.351 307.802 112.963 310.84 113.008C314.554 112.862 316.076 115.263 317.733 117.927C322.378 112.698 330.849 111.194 333.466 117.415C333.718 125.91 333.572 129.061 333.439 139.301C331.714 139.359 330.128 139.278 328.404 139.335C328.484 132.727 328.387 125.257 328.226 119.052C327.565 117.751 326.338 116.73 324.222 117.289C322.107 117.849 320.193 119.495 318.201 121.819C318.201 127.582 318.27 133.55 318.27 139.312H315.607H312.942C312.886 132.559 312.828 125.805 312.771 119.052C311.703 117.816 310.85 117.093 308.833 117.574C306.816 118.055 304.135 119.649 302.814 122.181C302.814 127.891 302.745 133.602 302.745 139.312C300.962 139.312 299.248 139.312 297.465 139.312C297.465 135.002 297.465 130.693 297.465 126.382Z" fill="white"/>
<path d="M91.6313 97.9216C91.6313 97.9216 97.7813 95.5233 97.2665 101.347C97.097 103.746 95.5605 112.141 94.3638 121.219L90.2635 148.115C90.2635 148.115 89.9213 152.055 86.8459 152.74C83.7713 153.424 79.1585 150.342 78.3036 149.657C77.6198 149.142 65.4906 141.433 61.2196 137.665C60.0229 136.636 58.6551 134.581 61.3906 132.183L79.3295 115.051C81.3795 112.994 83.4292 108.197 74.8875 114.022L50.968 130.296C50.968 130.296 48.2341 132.01 43.1098 130.469L32.0033 127.042C32.0033 127.042 27.9032 124.472 34.9082 121.903C51.9937 113.851 73.0084 105.63 91.6297 97.9201" fill="white"/>
</svg>
