<svg width="450" height="250" viewBox="0 0 450 250" fill="none" xmlns="http://www.w3.org/2000/svg">
<path d="M450 51H0V199H450V51Z" fill="#2AABEE"/>
<path d="M282.014 154.371C280.258 154.048 278.587 153.558 276.882 153.05C276.87 151.259 277.028 149.398 277.369 147.699C292.684 152.119 296.232 149.225 296.494 139.432V137.079L294.516 138.886C291.943 141.237 289.424 142.078 285.671 141.837C278.215 141.358 274.085 135.906 274.073 126.524C274.066 120.914 275.306 117.349 278.426 114.014C282.587 109.565 289.709 108.71 294.688 112.061L296.494 113.276V112.003V110.731L299.701 110.837L302.908 110.943L303.014 123.59C303.18 143.307 302.603 147.157 298.92 150.909C293.983 155.076 288.938 155.062 282.014 154.371ZM291.718 134.958C292.57 134.523 293.993 133.498 294.88 132.681L296.494 131.194V125.041V118.889L295.345 117.923C291.415 114.615 287.19 114.364 283.998 117.247C281.929 119.117 281.017 121.816 280.989 126.155C280.955 131.396 282.084 134.051 284.911 135.377C286.783 136.255 289.503 136.088 291.718 134.958ZM198.958 139.11C195.211 135.536 193.447 129.938 194.198 124C194.807 119.176 196.278 116.031 199.172 113.363C201.468 111.247 203.625 110.357 207.025 110.124C215.307 109.557 220.218 115.206 220.242 125.33L220.249 127.988C213.927 128.157 206.698 127.589 200.821 128.471C201.681 133.916 205.616 137.986 211.085 138.067C214.371 138.067 216.735 137.233 219.894 136.61L219.991 141.624C219.991 141.624 212.612 143.376 209.802 143.355C205.489 143.372 201.395 141.414 198.958 139.11ZM213.648 121.848C213.641 118.726 211.611 115.794 209.134 115.33C205.223 114.596 202.226 116.863 201.244 121.298L200.898 122.856H207.274H213.65L213.648 121.848ZM246.977 139.11C243.231 135.536 241.467 129.938 242.218 124C242.827 119.176 244.298 116.031 247.192 113.363C249.488 111.247 251.645 110.357 255.045 110.124C263.327 109.557 268.238 115.206 268.262 125.33L268.269 127.988C261.522 127.901 255.058 127.929 248.671 127.876C249.052 134.306 253.206 138.4 259.105 138.067C262.422 138.131 265.333 137.228 267.914 136.61C268.488 136.965 268.348 141.029 267.745 141.53C266.912 142.221 260.632 143.376 257.822 143.355C253.509 143.373 249.414 141.414 246.977 139.11ZM261.668 121.848C261.661 118.726 259.631 115.794 257.154 115.33C253.243 114.596 250.246 116.863 249.263 121.298L248.918 122.856H255.294H261.67L261.668 121.848ZM338.556 142.883C333.969 141.172 331.71 136.238 333.215 131.216C333.816 129.209 336.113 126.74 338.439 125.602C340.638 124.526 345.086 123.621 348.271 123.602L350.378 123.585V121C350.255 114.019 344.738 114.473 339.294 116.45C337.83 116.977 335.919 117.412 335.566 117.521C335.52 115.884 335.349 114.759 335.349 112.253L338.373 111.296C340.389 110.658 342.623 110.27 345.071 110.13C350.95 109.795 354.127 111.084 355.984 114.558C356.747 115.986 356.802 116.642 356.976 126.397C357.16 136.705 357.161 136.725 358.049 137.668C358.581 138.235 360.527 138.784 361.124 138.784C361.107 140.936 361.356 140.848 361.096 142.866C360.241 143.097 357.397 143.383 356.336 143.295C354.259 143.123 352.971 142.252 351.981 140.348L351.453 139.333L350.091 140.423C346.949 142.938 341.707 144.054 338.557 142.878L338.556 142.883ZM346.258 137.367C347.066 137.081 348.322 136.463 349.048 135.992L350.369 135.136V131.379V127.621H348.797C345.099 127.621 340.695 129.519 339.792 131.501C338.797 133.685 339.63 136.279 341.644 137.272C343.144 138.011 344.352 138.036 346.248 137.366L346.258 137.367ZM170.029 123.589V104.528H162.515H155V101.962V99.3961H173.511H192.023V101.962V104.528H184.508H176.994V123.589V142.651H173.511H170.029V123.589ZM228.313 119.74V96.8301H231.612H234.911V119.74V142.651H231.612H228.313V119.74ZM312.256 126.705V110.731C314.394 110.802 316.617 110.703 318.756 110.773C318.735 112.092 318.813 113.405 318.89 114.721C321.897 111.417 325.087 110.566 327.758 110.282L330.217 110.026V113.169V116.311C326.093 115.1 321.794 117.826 319.829 120.474C319.074 121.523 319.029 122.055 318.854 132.02L318.671 142.468C316.532 142.539 314.394 142.608 312.256 142.68V126.705ZM366.874 126.705V110.76C369.073 110.76 371.273 110.76 373.472 110.76C373.472 112.219 373.472 114.767 373.472 116.227C376.255 113.099 379.623 110.154 383.369 110.21C387.95 110.03 389.827 112.991 391.871 116.277C397.599 109.827 408.047 107.973 411.275 115.645C411.586 126.122 411.406 130.009 411.241 142.638C409.114 142.709 407.158 142.61 405.032 142.68C405.13 134.53 405.011 125.317 404.812 117.664C403.997 116.06 402.484 114.8 399.874 115.49C397.265 116.18 394.905 118.21 392.448 121.077C392.448 128.184 392.533 135.545 392.533 142.652H389.248H385.962C385.893 134.323 385.821 125.993 385.751 117.664C384.434 116.14 383.382 115.248 380.894 115.841C378.406 116.434 375.1 118.401 373.471 121.523C373.471 128.566 373.386 135.609 373.386 142.652C371.187 142.652 369.072 142.652 366.873 142.652C366.873 137.336 366.873 132.021 366.874 126.705Z" fill="white"/>
<path d="M113.012 91.6033C113.012 91.6033 120.597 88.6454 119.962 95.8283C119.753 98.7862 117.858 109.14 116.382 120.337L111.325 153.508C111.325 153.508 110.903 158.368 107.11 159.213C103.318 160.056 97.6288 156.255 96.5745 155.41C95.7311 154.775 80.7718 145.267 75.5042 140.62C74.0282 139.351 72.3413 136.817 75.7151 133.859L97.8397 112.73C100.368 110.192 102.896 104.276 92.3612 111.461L62.8605 131.532C62.8605 131.532 59.4887 133.646 53.1688 131.745L39.4707 127.518C39.4707 127.518 34.414 124.349 43.0534 121.18C64.1256 111.25 90.0437 101.11 113.01 91.6014" fill="white"/>
</svg>
