<svg width="500" height="250" viewBox="0 0 500 250" fill="none" xmlns="http://www.w3.org/2000/svg">
<rect y="40" width="450" height="160" rx="26" fill="black"/>
<path d="M84 176C114.376 176 139 151.376 139 121C139 90.6243 114.376 66 84 66C53.6243 66 29 90.6243 29 121C29 151.376 53.6243 176 84 176Z" fill="url(#paint0_linear_1_23)"/>
<path fill-rule="evenodd" clip-rule="evenodd" d="M53.8668 120.405C69.8951 113.444 80.5653 108.818 85.9234 106.574C101.173 100.209 104.379 99.1099 106.44 99.0641C106.898 99.0641 107.905 99.1557 108.592 99.7052C109.142 100.163 109.279 100.759 109.371 101.216C109.462 101.674 109.554 102.636 109.462 103.369C108.638 112.07 105.066 133.181 103.234 142.89C102.455 147.012 100.944 148.385 99.4787 148.523C96.2731 148.798 93.8459 146.416 90.7777 144.401C85.9234 141.241 83.2215 139.272 78.5046 136.158C73.0549 132.586 76.5812 130.617 79.6952 127.411C80.5195 126.587 94.5787 113.764 94.8534 112.619C94.8992 112.482 94.8992 111.933 94.5787 111.658C94.2581 111.383 93.8001 111.475 93.4338 111.566C92.93 111.658 85.2365 116.787 70.2614 126.908C68.0633 128.419 66.0941 129.152 64.3081 129.106C62.3389 129.06 58.5837 128.007 55.7444 127.091C52.3097 125.992 49.562 125.396 49.791 123.473C49.9284 122.465 51.3022 121.458 53.8668 120.405Z" fill="white"/>
<path d="M189.727 79C189.477 78.2348 189.148 77.5492 188.739 76.9432C188.337 76.3295 187.856 75.8068 187.295 75.375C186.742 74.9432 186.114 74.6136 185.409 74.3864C184.705 74.1591 183.932 74.0455 183.091 74.0455C181.712 74.0455 180.458 74.4015 179.33 75.1136C178.201 75.8258 177.303 76.875 176.636 78.2614C175.97 79.6477 175.636 81.3485 175.636 83.3636C175.636 85.3788 175.973 87.0795 176.648 88.4659C177.322 89.8523 178.235 90.9015 179.386 91.6136C180.538 92.3258 181.833 92.6818 183.273 92.6818C184.606 92.6818 185.78 92.3977 186.795 91.8295C187.818 91.2538 188.614 90.4432 189.182 89.3977C189.758 88.3447 190.045 87.1061 190.045 85.6818L190.909 85.8636H183.909V83.3636H192.773V85.8636C192.773 87.7803 192.364 89.447 191.545 90.8636C190.735 92.2803 189.614 93.3788 188.182 94.1591C186.758 94.9318 185.121 95.3182 183.273 95.3182C181.212 95.3182 179.402 94.8333 177.841 93.8636C176.288 92.8939 175.076 91.5152 174.205 89.7273C173.341 87.9394 172.909 85.8182 172.909 83.3636C172.909 81.5227 173.155 79.8674 173.648 78.3977C174.148 76.9205 174.852 75.6629 175.761 74.625C176.67 73.5871 177.746 72.7917 178.989 72.2386C180.231 71.6856 181.598 71.4091 183.091 71.4091C184.318 71.4091 185.462 71.5947 186.523 71.9659C187.591 72.3295 188.542 72.8485 189.375 73.5227C190.216 74.1894 190.917 74.9886 191.477 75.9205C192.038 76.8447 192.424 77.8712 192.636 79H189.727ZM197.599 95V71.7273H211.645V74.2273H200.418V82.0909H210.918V84.5909H200.418V92.5H211.827V95H197.599ZM215.452 74.2273V71.7273H232.906V74.2273H225.588V95H222.77V74.2273H215.452ZM249.074 71.7273V95H246.256V71.7273H249.074ZM253.452 74.2273V71.7273H270.906V74.2273H263.588V95H260.77V74.2273H253.452ZM303.892 83.3636C303.892 85.8182 303.449 87.9394 302.562 89.7273C301.676 91.5152 300.46 92.8939 298.915 93.8636C297.369 94.8333 295.604 95.3182 293.619 95.3182C291.634 95.3182 289.869 94.8333 288.324 93.8636C286.778 92.8939 285.563 91.5152 284.676 89.7273C283.79 87.9394 283.347 85.8182 283.347 83.3636C283.347 80.9091 283.79 78.7879 284.676 77C285.563 75.2121 286.778 73.8333 288.324 72.8636C289.869 71.8939 291.634 71.4091 293.619 71.4091C295.604 71.4091 297.369 71.8939 298.915 72.8636C300.46 73.8333 301.676 75.2121 302.562 77C303.449 78.7879 303.892 80.9091 303.892 83.3636ZM301.165 83.3636C301.165 81.3485 300.828 79.6477 300.153 78.2614C299.487 76.875 298.581 75.8258 297.438 75.1136C296.301 74.4015 295.028 74.0455 293.619 74.0455C292.21 74.0455 290.934 74.4015 289.79 75.1136C288.653 75.8258 287.748 76.875 287.074 78.2614C286.407 79.6477 286.074 81.3485 286.074 83.3636C286.074 85.3788 286.407 87.0795 287.074 88.4659C287.748 89.8523 288.653 90.9015 289.79 91.6136C290.934 92.3258 292.21 92.6818 293.619 92.6818C295.028 92.6818 296.301 92.3258 297.438 91.6136C298.581 90.9015 299.487 89.8523 300.153 88.4659C300.828 87.0795 301.165 85.3788 301.165 83.3636ZM327.085 71.7273V95H324.358L311.676 76.7273H311.449V95H308.631V71.7273H311.358L324.085 90.0455H324.312V71.7273H327.085Z" fill="white"/>
<path d="M294.822 176.095C293.11 175.78 291.481 175.302 289.819 174.807C289.807 173.061 289.961 171.247 290.294 169.591C305.224 173.9 308.683 171.078 308.938 161.531V159.237L307.01 160.999C304.501 163.291 302.046 164.111 298.387 163.876C291.118 163.409 287.093 158.094 287.081 148.948C287.074 143.478 288.282 140.004 291.324 136.752C295.38 132.415 302.323 131.581 307.177 134.848L308.938 136.032V134.792V133.551L312.064 133.655L315.191 133.759L315.295 146.087C315.456 165.309 314.893 169.062 311.303 172.72C306.49 176.782 301.572 176.768 294.822 176.095ZM304.282 157.17C305.113 156.746 306.5 155.747 307.365 154.95L308.938 153.5V147.502V141.504L307.818 140.562C303.986 137.338 299.867 137.093 296.756 139.904C294.739 141.727 293.85 144.358 293.823 148.588C293.79 153.697 294.89 156.285 297.646 157.578C299.471 158.434 302.123 158.271 304.282 157.17ZM213.853 161.217C210.2 157.733 208.481 152.276 209.213 146.487C209.807 141.784 211.241 138.718 214.062 136.118C216.3 134.055 218.403 133.187 221.718 132.96C229.792 132.407 234.579 137.914 234.602 147.784L234.609 150.375C228.446 150.539 221.399 149.986 215.669 150.846C216.507 156.154 220.344 160.122 225.675 160.2C228.879 160.2 231.184 159.387 234.263 158.78L234.357 163.668C234.357 163.668 227.164 165.376 224.425 165.355C220.22 165.372 216.229 163.464 213.853 161.217ZM228.174 144.389C228.167 141.346 226.188 138.488 223.773 138.035C219.961 137.319 217.039 139.529 216.081 143.853L215.745 145.372H221.961H228.176L228.174 144.389ZM260.666 161.217C257.013 157.733 255.294 152.276 256.026 146.487C256.62 141.784 258.054 138.718 260.875 136.118C263.113 134.055 265.216 133.187 268.531 132.96C276.605 132.407 281.392 137.914 281.415 147.784L281.422 150.375C274.844 150.29 268.543 150.317 262.317 150.266C262.688 156.534 266.737 160.525 272.488 160.2C275.722 160.263 278.56 159.382 281.076 158.78C281.636 159.126 281.499 163.088 280.911 163.576C280.099 164.25 273.977 165.376 271.238 165.356C267.033 165.373 263.041 163.463 260.666 161.217ZM274.987 144.389C274.98 141.346 273.001 138.488 270.586 138.035C266.774 137.319 263.852 139.529 262.894 143.853L262.558 145.372H268.774H274.989L274.987 144.389ZM349.943 164.895C345.471 163.227 343.269 158.417 344.736 153.522C345.322 151.565 347.562 149.158 349.828 148.049C351.972 147 356.309 146.118 359.413 146.099L361.468 146.082V143.563C361.348 136.757 355.969 137.2 350.663 139.127C349.235 139.64 347.372 140.065 347.028 140.171C346.984 138.575 346.817 137.478 346.817 135.035L349.765 134.102C351.73 133.481 353.908 133.102 356.294 132.966C362.025 132.639 365.123 133.896 366.933 137.283C367.677 138.675 367.73 139.314 367.9 148.823C368.079 158.873 368.081 158.892 368.946 159.812C369.464 160.364 371.362 160.899 371.944 160.899C371.927 162.997 372.17 162.911 371.917 164.879C371.083 165.104 368.311 165.383 367.276 165.297C365.251 165.129 363.996 164.28 363.03 162.424L362.516 161.435L361.188 162.497C358.125 164.949 353.015 166.037 349.943 164.891L349.943 164.895ZM357.451 159.518C358.239 159.24 359.463 158.637 360.171 158.178L361.459 157.343V153.68V150.017H359.926C356.322 150.017 352.028 151.867 351.148 153.799C350.178 155.928 350.99 158.458 352.954 159.426C354.415 160.146 355.593 160.17 357.442 159.517L357.451 159.518ZM185.651 146.087V127.504H178.326H171V125.003V122.501H189.046H207.092V125.003V127.504H199.767H192.441V146.087V164.669H189.046H185.651V146.087ZM242.47 142.334V120H245.686H248.903V142.334V164.669H245.686H242.47V142.334ZM324.304 149.124V133.551C326.388 133.621 328.556 133.524 330.64 133.592C330.62 134.878 330.696 136.159 330.771 137.441C333.703 134.22 336.812 133.391 339.416 133.113L341.814 132.865V135.928V138.991C337.793 137.811 333.602 140.468 331.686 143.049C330.95 144.072 330.906 144.591 330.736 154.306L330.557 164.491C328.473 164.56 326.388 164.628 324.304 164.697L324.304 149.124ZM377.549 149.124V133.579C379.693 133.579 381.837 133.579 383.981 133.579C383.981 135.002 383.981 137.486 383.981 138.91C386.694 135.86 389.977 132.989 393.63 133.043C398.096 132.868 399.925 135.754 401.918 138.958C407.502 132.67 417.687 130.863 420.835 138.342C421.138 148.555 420.962 152.345 420.801 164.657C418.728 164.726 416.821 164.629 414.748 164.697C414.843 156.752 414.728 147.771 414.534 140.31C413.739 138.747 412.264 137.518 409.72 138.191C407.177 138.863 404.875 140.843 402.48 143.638C402.48 150.566 402.563 157.742 402.563 164.67H399.36H396.158C396.09 156.55 396.02 148.43 395.952 140.311C394.668 138.825 393.643 137.955 391.217 138.533C388.791 139.111 385.568 141.029 383.981 144.072C383.981 150.938 383.898 157.804 383.898 164.67C381.754 164.67 379.692 164.67 377.548 164.67C377.548 159.488 377.549 154.306 377.549 149.124Z" fill="white"/>
<defs>
<linearGradient id="paint0_linear_1_23" x1="83.9542" y1="66" x2="83.9542" y2="175.13" gradientUnits="userSpaceOnUse">
<stop stop-color="#2AABEE"/>
<stop offset="1" stop-color="#229ED9"/>
</linearGradient>
</defs>
</svg>
