<svg width="405" height="150" viewBox="0 0 405 150" fill="none" xmlns="http://www.w3.org/2000/svg">
<path d="M364.865 15H0V135H364.865V15Z" fill="#2AABEE"/>
<path d="M228.66 98.8143C227.236 98.5524 225.881 98.1551 224.499 97.7432C224.489 96.2911 224.617 94.7822 224.894 93.4046C237.311 96.9884 240.188 94.6419 240.401 86.7016V84.7938L238.797 86.2589C236.711 88.1651 234.668 88.847 231.625 88.6516C225.58 88.2633 222.231 83.8427 222.221 76.2357C222.216 71.687 223.221 68.7965 225.751 66.0924C229.125 62.4851 234.899 61.7919 238.936 64.5089L240.401 65.4941V64.4619V63.4305L243.001 63.5165L245.601 63.6024L245.687 73.8568C245.822 89.8435 245.354 92.9651 242.368 96.0073C238.365 99.3859 234.274 99.3746 228.66 98.8143ZM236.528 83.0741C237.219 82.7213 238.373 81.8903 239.092 81.2278L240.401 80.0222V75.0332V70.0451L239.469 69.2619C236.282 66.5797 232.857 66.3762 230.269 68.7138C228.591 70.23 227.852 72.4184 227.829 75.9365C227.801 80.1859 228.717 82.3387 231.009 83.4138C232.527 84.1257 234.732 83.9903 236.528 83.0741ZM161.317 86.4405C158.279 83.5427 156.849 79.0038 157.458 74.1892C157.952 70.2778 159.144 67.7278 161.491 65.5646C163.352 63.8489 165.101 63.1273 167.858 62.9384C174.573 62.4787 178.555 67.0589 178.575 75.2676L178.58 77.4227C173.454 77.5597 167.593 77.0992 162.828 77.8143C163.525 82.2292 166.716 85.5292 171.15 85.5949C173.814 85.5949 175.731 84.9187 178.292 84.4135L178.371 88.4789C178.371 88.4789 172.388 89.8995 170.11 89.8824C166.613 89.8962 163.293 88.3087 161.317 86.4405ZM173.228 72.4443C173.222 69.913 171.577 67.5357 169.568 67.1595C166.397 66.5643 163.967 68.4024 163.171 71.9984L162.89 73.2616H168.06H173.23L173.228 72.4443ZM200.252 86.4405C197.214 83.5427 195.784 79.0038 196.393 74.1892C196.887 70.2778 198.08 67.7278 200.426 65.5646C202.288 63.8489 204.037 63.1273 206.793 62.9384C213.508 62.4787 217.49 67.0589 217.51 75.2676L217.515 77.4227C212.045 77.3522 206.804 77.3749 201.625 77.3319C201.934 82.5454 205.302 85.8649 210.085 85.5949C212.775 85.6468 215.135 84.9146 217.228 84.4135C217.693 84.7014 217.579 87.9965 217.091 88.4027C216.415 88.963 211.323 89.8995 209.045 89.8824C205.548 89.897 202.228 88.3087 200.252 86.4405ZM212.163 72.4443C212.158 69.913 210.512 67.5357 208.503 67.1595C205.332 66.5643 202.902 68.4024 202.105 71.9984L201.825 73.2616H206.995H212.165L212.163 72.4443ZM274.505 89.4997C270.786 88.1124 268.954 84.1119 270.174 80.04C270.662 78.4127 272.524 76.4108 274.41 75.4881C276.193 74.6157 279.799 73.8819 282.382 73.8665L284.09 73.8527V71.7568C283.991 66.0965 279.517 66.4646 275.103 68.0676C273.916 68.4949 272.367 68.8476 272.081 68.936C272.043 67.6087 271.905 66.6965 271.905 64.6646L274.357 63.8887C275.991 63.3714 277.802 63.0568 279.787 62.9432C284.554 62.6716 287.13 63.7168 288.636 66.5335C289.254 67.6914 289.299 68.2233 289.44 76.1327C289.589 84.4905 289.59 84.5068 290.31 85.2714C290.741 85.7311 292.319 86.1762 292.803 86.1762C292.789 87.9211 292.991 87.8497 292.781 89.4859C292.087 89.6732 289.781 89.9051 288.921 89.8338C287.237 89.6943 286.193 88.9881 285.39 87.4443L284.962 86.6213L283.858 87.5051C281.31 89.5443 277.06 90.4492 274.506 89.4957L274.505 89.4997ZM280.75 85.0273C281.405 84.7954 282.423 84.2943 283.012 83.9124L284.083 83.2184V80.1722V77.1251H282.808C279.81 77.1251 276.239 78.6641 275.507 80.2711C274.7 82.0419 275.376 84.1451 277.009 84.9503C278.225 85.5495 279.204 85.5697 280.742 85.0265L280.75 85.0273ZM137.861 73.8559V58.4011H131.769H125.676V56.3205V54.2401H140.685H155.694V56.3205V58.4011H149.601H143.509V73.8559V89.3116H140.685H137.861V73.8559ZM185.119 70.7351V52.1595H187.794H190.468V70.7351V89.3116H187.794H185.119V70.7351ZM253.181 76.3824V63.4305C254.914 63.4881 256.717 63.4078 258.451 63.4646C258.434 64.5341 258.497 65.5987 258.56 66.6657C260.998 63.9868 263.584 63.2968 265.75 63.0665L267.744 62.8589V65.4073V67.9549C264.4 66.973 260.914 69.1832 259.321 71.3303C258.709 72.1808 258.672 72.6122 258.53 80.6919L258.382 89.1632C256.648 89.2208 254.914 89.2768 253.181 89.3351V76.3824ZM297.465 76.3824V63.4541C299.248 63.4541 301.032 63.4541 302.815 63.4541C302.815 64.637 302.815 66.703 302.815 67.8868C305.072 65.3505 307.802 62.9627 310.84 63.0081C314.554 62.8622 316.076 65.263 317.733 67.9273C322.378 62.6976 330.849 61.1943 333.466 67.4149C333.718 75.9097 333.572 79.0614 333.439 89.3011C331.714 89.3587 330.128 89.2784 328.404 89.3351C328.484 82.727 328.387 75.257 328.226 69.0519C327.565 67.7514 326.338 66.7297 324.222 67.2892C322.107 67.8487 320.193 69.4946 318.201 71.8192C318.201 77.5816 318.27 83.55 318.27 89.3124H315.607H312.942C312.886 82.5592 312.828 75.8051 312.771 69.0519C311.703 67.8162 310.85 67.093 308.833 67.5738C306.816 68.0546 304.135 69.6495 302.814 72.1808C302.814 77.8914 302.745 83.6019 302.745 89.3124C300.962 89.3124 299.248 89.3124 297.465 89.3124C297.465 85.0022 297.465 80.6927 297.465 76.3824Z" fill="white"/>
<path d="M91.6313 47.9216C91.6313 47.9216 97.7813 45.5233 97.2665 51.3473C97.097 53.7456 95.5605 62.1405 94.3638 71.2192L90.2635 98.1146C90.2635 98.1146 89.9213 102.055 86.8459 102.74C83.7713 103.424 79.1585 100.342 78.3036 99.6567C77.6198 99.1419 65.4906 91.4327 61.2196 87.6648C60.0229 86.6359 58.6551 84.5813 61.3906 82.183L79.3295 65.0513C81.3795 62.9935 83.4292 58.1967 74.8875 64.0224L50.968 80.2962C50.968 80.2962 48.2341 82.0103 43.1098 80.4689L32.0033 77.0416C32.0033 77.0416 27.9032 74.4722 34.9082 71.9027C51.9937 63.8513 73.0084 55.6297 91.6297 47.92" fill="white"/>
</svg>
